<?xml version="1.0" encoding="UTF-8"?>
<svg id="Layer_1" data-name="Layer 1" xmlns="http://www.w3.org/2000/svg" viewBox="0 0 707.81 568.64">
  <defs>
    <style>
      .cls-1 {
        fill: #2563eb;
      }

      .cls-1, .cls-2, .cls-3, .cls-4, .cls-5 {
        stroke-width: 0px;
      }

      .cls-2 {
        fill: #fef6e5;
      }

      .cls-3 {
        fill: #fffbf3;
      }

      .cls-4 {
        fill: #0092d1;
      }

      .cls-5 {
        fill: #008bcd;
      }
    </style>
  </defs>
  <path class="cls-1" d="m37.98,243.7c1.4-1.3,2.8-2.6,4.9-3.6,1.3.4,1.9.6,2.6.6h164.6c1.2,0,2.5-1,3.7-1.5.1-.1.3-.2,1-.7.8-1.8,1.1-3.3,1.1-4.7V10.4c0-1.6-.6-3.1-.9-4.7,2.1-2,4.2-4,7-5.7,1.5.4,2.3.6,3.1.6,83,0,166,0,248.9-.1,0,0-.1,0,.2.3.9.4,1.6.5,2.3.7.2,0,.4,0,.6.7.4.8.7,1.1,1,1.4,0,0-.1,0-.1.4,0,46.9,0,93.3.1,139.8,0,1.6,1.3,3.2,2,4.8,0,0-.1,0,.1.3.7.4,1.3.6,1.9.7,0,0-.1,0,.1.3.7.4,1.3.6,1.9.7,0,0-.1,0,.1.3.7.4,1.3.6,1.9.7,0,0-.1,0,.1.3.7.4,1.3.6,1.9.7,0,0-.1,0,.1.3.7.4,1.3.6,1.9.7,0,0-.1,0,.1.3.7.4,1.3.6,1.9.7,0,0-.1,0,.1.3.7.4,1.3.6,1.9.7,0,0-.1,0,.1.3.7.4,1.3.6,1.9.7,0,0-.1,0,.1.3.7.4,1.3.6,1.9.7,0,0-.1,0,.1.3.7.4,1.3.6,1.9.7,0,0-.1,0,.1.3.7.4,1.3.6,1.9.7,0,0-.1,0,.1.3.7.4,1.3.6,1.9.7,0,0-.1,0,0,.2.4.4.7.6,1,.8,0,0-.1,0,.1.3,1.1.4,2,.6,2.9.7,0,0-.1,0,.1.3.7.4,1.3.6,1.9.7,0,0-.1,0,.1.3.7.4,1.3.6,1.9.7,0,0-.1,0,.1.3.7.4,1.3.6,1.9.7,0,0-.1,0,.1.3.7.4,1.3.6,1.9.7,0,0-.1,0,.1.3,1.4.8,2.7,1.2,3.9,1.7,0,0-.1,0,.1.3.7.4,1.3.6,1.9.7,0,0-.1,0,.1.3.7.4,1.3.6,1.9.7,0,0-.1,0,.1.3.7.4,1.3.6,1.9.7,0,0-.1,0,0,.3,5,2.5,9.9,4.7,14.8,6.8,32.7,16.2,65.5,32.4,98.2,48.6,5.5,2.7,11.1,5.3,16.4,8.3,2.3,1.3,4.1,3.6,5.9,6.1-.4,1.5-.6,2.3-.6,3.1v161.8c0,1.4.7,2.8,1,4.1,6,5,12.7,9.2,17.7,15.1,4.7,5.6,7.5,12.7,10.9,19.8,0,9.7.2,18.7.6,27.7.1,1.1,1.9,2.2,2.9,3.3.3.1.5.2.8,1,.5,1,.8,1.5,1.2,1.9,0,0,0-.1,0,.3.6.8,1.3,1.3,1.9,1.8,0,0-.1.1-.1.4.7,1.4,1.4,2.5,2.2,3.5v.3c.3.4.6.6.9.8,0,0-.1,0-.1.3.4.8.7,1.2,1.1,1.7,0,0-.1,0-.1.4.7,1.8,1.5,3.3,2.3,4.8,0,0,0,.2-.1.8-.1,1.3-.1,2,0,2.7.2-.2.4-.2.7.4.7,1.3,1.2,2.2,1.8,3,.1.5.2.9,0,2-1.4,11.5-2.5,22.3-3.6,33.1,0,0,0-.1-.3.1-1.4,2.7-2.6,5.3-3.7,7.9,0,0,0-.1-.2,0-.4.4-.6.7-.8,1,0,0,0-.1-.3.1-.4.7-.6,1.3-.7,1.9,0,0,0-.1-.3.1-.4.5-.6.8-.7,1.2,1,.6,1.9,1.3,3,1.8,4.2,1.6,7,5.9,6.5,10.1-.5,4.7-4,8.1-9,8.6-1.3.1-2.7,0-4,0H12.08c-8.8,0-13.7-5.2-11.6-12.5,1.1-3.8,3.6-5.8,8.1-6.1,5.1.5,9.5.7,13.9.6,4.4-.1,8.7-.6,13-.9.3-.2.6-.4,1.2-1,.2-.6.1-.8,0-1.1-.1-1-.2-2-.2-3,0-97.7,0-195.5.3-293.9.2-1.8,0-3-.2-4.1.1-.6.1-1.2.7-2,.5-.3.7-.4.7-.4.3-.1.2-.3,0-.5m602.9,4.9s.1,0-.3-.5c-.6-.2-1.2-.4-2.3-1-.9-.5-1.7-1-2.6-1.5-49.5-24.6-99-49.3-148.6-73.8-1.2-.6-2.5-.8-4.2-1.8-1.3-.4-2.6-.9-4.6-.8-.2,1.5-.5,2.9-.5,4.4v370.1c0,1.7.8,3.3,1.6,5.3.5.3.9.5,2,1.4.6.1,1.3.3,1.9.3h58.1c1.1,0,2.2-.5,3.8-1-.2-.6-.4-1.1-.9-1.9,0,0-.4-.1-.5-.7-.2-.5-.5-1-1-1.9,0,0-.3-.4-.5-1.1-22.4-35.4-8.6-79.6,29.8-96.4,1.3-.6,2.9-1.9,3.3-3.2,7.7-21.8,23-34.8,46.1-40.1h22.1v-79.5c0-24.4.1-48.9.5-73.4l.1-.4s-.3-.3-.6-.9c-.6-.2-1.2-.4-1.8-.6,0,0,0,.1-.1-.5-.1-.3-.5-.4-.8-.5m-339.6,198.7c.2-.3.3-.7.8-1.6,1.3-.7,2.6-1.3,4.5-1.4.7.1,1.3.3,2,.3h74.5c1.2,0,2.5-.5,4.4-.9.8.3,1.6.6,2.7,1.5.4.1.7.3,1.7.6.7,1.1,1.4,2.3,2,4.4v94.6c0,1.6.9,3.2,1.7,4.8,0,0,.3.1.9.7.6.1,1.3.4,1.9.4h57.8c1.2,0,2.5-.6,3.6-1.1,0,0,0-.2.5-.2.3-.2.4-.4.5-.8,0,0,.1.1.7-.5.1-1.5.4-3,.4-4.4V23.9c0-1.7-.7-3.4-1.1-5.4,0,0,.1-.2-.2-1-1.9-.2-3.9-.7-5.8-.7h-216.8c-2.9,0-5.5-.1-4.9,4.8,0,1.4-.1,2.8-.7,4.8-.1,1.5-.4,2.9-.4,4.4v513c0,1.7.7,3.4,1.4,5.4l1.2,1.2c.6.1,1.3.4,1.9.4h58.2c1.1,0,2.1-.6,3.7-1.1.2-.3.5-.6,1.2-1.5.1-1,.3-2,.3-3v-95.4s-.1,0,.5-.3c.2-.6.3-1.2.5-1.7,0-.2-.1-.2.4-.5m-87.1,102l1.2-1.2c.2-1.1.5-2.3.5-3.4v-282.8c0-1.4-.9-2.9-1.7-4.3,0,0-.3-.1-.8-.7-1-.1-2-.4-2.9-.4H60.28c-1.4,0-2.8.6-4.7,1.1-.2.3-.5.6-1.2,1.5-.1,1.3-.3,2.6-.3,3.9v280.6c0,1.6.5,3.2,1.1,5.2.3.2.6.5,1.5,1.2.8.1,1.6.3,2.4.3h150.7c1.3.3,2.7-.4,4.4-1m163.4-1.4c.1-.7.3-1.3.3-2v-80.5c0-1.3-.5-2.5-1.3-4.4-1.6-.2-3.2-.4-5.4-1.1-12-.1-24-.2-36-.3-1.1,0-2.1.5-3.9.9-.5,0-1-.1-2-.6-3.7.2-7.5.3-11.7.8-.2.3-.5.6-1.3,1.5-.1.6-.3,1.3-.3,1.9v80.6c0,1.2.6,2.5,1.2,4.2.3.2.6.5,1.5,1.3,18.5.1,37,.2,55.5.3.6,0,1.1-.5,2.2-1.1.2-.3.4-.6,1.2-1.5m193.6,1c.6.2,1.2.4,2.3.6,0,0,.5.1,1,.7.6.1,1.3.3,1.9.3h89.8c1.2,0,2.4-.7,4.2-1.4.8-.6,1.5-1.3,2.3-1.9,20.2-14.3,24.7-47,3.5-65.7-2.7-2.4-2.7-4.9-1.9-8.1,4.3-17.7-.3-32.5-14.9-43.8-26.1-20.1-62.5-6.3-68.2,25.9-.7,3.8-2.1,5.3-5.8,6.1-28.6,6.6-44.2,39.5-31.6,66.1,4.1,8.5,10.1,14.9,17.4,21.2Z"/>
  <path class="cls-4" d="m213.28,239c-.8.6-2,1.5-3.3,1.5-54.9.1-109.7.1-164.6,0-.6,0-1.3-.2-2.2-.6,1.3-.6,3-1.1,4.6-1.1,55,0,110.1.1,165.5.2Z"/>
  <path class="cls-4" d="m661.98,410.2c-.4-.9-1.1-2.3-1.1-3.7-.1-53.9,0-107.8,0-161.8,0-.8.2-1.6.6-2.8.4,1,.6,2.3.6,3.7,0,54.7,0,109.4-.1,164.6Z"/>
  <path class="cls-4" d="m693.88,476.2c-.9-.7-2.7-1.8-2.8-2.9-.5-9-.6-18.1-.6-27.4,2.9,8,4.1,16.5,2.6,25.2-.2,1.5.5,3.1.8,5.1Z"/>
  <path class="cls-4" d="m703.18,535.4c.8-10.6,1.9-21.4,3.3-32.5,2.6,10.9,1.3,21.8-3.3,32.5Z"/>
  <path class="cls-5" d="m457.83,20.29c-72.52-.49-144.93-.49-217.35-.59-4.3,0-5.6,1-5.6,5.5.1,172.3.1,344.6,0,516.9,0,4.7,1.5,5.8,5.9,5.7,17.2-.3,34.3-.2,51.5-.1,1.53,0,3.14.48,4.75,1.09.27.1.53.28.66.54.08.17.19.24.39.17.3-.24.54-.45.71-.64.19-.21.29-.48.29-.77,0-2.7-.09-5.41-.18-8.5-.01-.37-.21-.7-.51-.91-2.13-1.49-1.92-2.92-.25-4.65.21-.22.34-.5.34-.8.39-25.34.39-50.49.49-75.73,0-2.5.2-5,.6-7.7.3-.3.2-.3.2-.3.2-.6.4-1.2.8-1.9.3-.1.2-.1.2-.1.19-.28.37-.56.87-1.23.08-.11.19-.21.3-.29,1.42-.96,2.6-1.53,3.77-2.15.17-.09.35-.14.54-.14,26.56,0,53.02-.1,80.26-.1.1,0,.2.01.3.04,1.5.38,2.28.67,3.05.96.28.19.65.29,1.42.78.11.07.22.17.31.28,1.03,1.33,1.7,2.48,2.37,3.53.18.27.45.63.87,1.14.08.1.15.22.19.34.7,1.92,1.73,3.57,1.73,5.22.1,28.7.2,57.3,0,86,0,4.9,1.5,6.1,6.2,6,18.02-.29,35.95-.11,54.34-.1.64,0,1.16-.52,1.16-1.16.5-174.93.5-349.77.5-525.19,0-.64-.51-1.16-1.15-1.16Zm-184.62,56.95c1.07-2.11,2.07-3.59,3.06-5.03.13-.19.32-.34.54-.43.41-.15.67-.28.67-.28.5-.1.5,0,.5,0,.5-.3,1-.7,1.5-1,1.3-.8,2-1.8,2.7-1.8,14.31.1,28.52.29,42.73.4.35,0,.68.17.9.44.18.22.18.17.18.17.5.2,1.1.4,1.7.6.3.6.3,1,.3,1,.07.3.04.37.02.39.04-.08.48,0,.48,0,1.52,1.24,2.59,2.2,3.73,3.24.11.1.21.23.27.37,1.08,2.41,2.4,4.45,2.4,6.48.1,21.3.1,42.5,0,63.8,0,1.8-.9,3.7-1.4,5.6-.7.4-.6.4-.6.4-.24.4-.42.87-.58,1.35-.08.22-.23.42-.42.56-1.2.89-1.94,1.62-2.67,2.26-.02.01-.03.03-.05.05-.79.79-1.28,1.28-1.67,1.67-.23,0-.37.01-.45.02.02,0,.03-.01.05-.02-.02,0-.05.02-.07.02-.08.01-.09.02-.05.02-.97.32-2.02.96-2.98.96-14.2.1-28.4,0-42.6,0-.51,0-1.09-.22-1.62-.4-.18-.07-.35-.18-.48-.32-2.27-2.54-4.05-4.42-5.8-6.34-.19-.21-.3-.49-.3-.78-.1-24.75-.1-48.81-.1-72.87,0-.18.05-.37.13-.54Zm-.24,121.16c1.79-2.78,3.49-4.78,5.19-6.77.08-.09.17-.17.27-.23,1.41-.87,2.28-1.71,3.24-1.71,14.5-.1,28.9,0,43.3,0,.5,0,.9.3,1.4.5.22.4.38.67.52.85.21.29.56.45.92.45h.33c.39,0,.75.2.97.53.65.95,1.31,1.62,1.96,2.27.07.07.15.13.22.18.71.43.99.53,1.27.72.3.5.3.4.2.5.6,2.5,1.9,4.9,1.9,7.4.1,21.4.1,42.8,0,64.2,0,1.48-.77,3.04-1.2,4.61-.07.25-.22.48-.43.63-2.81,2.1-5.13,3.95-7.35,5.79-.21.17-.47.27-.74.27h-44.82c-.24,0-.48-.07-.67-.21-2.46-1.7-4.29-3.31-6.01-4.85-.24-.22-.38-.53-.39-.86-.2-25-.2-49.32-.29-73.64,0-.23.07-.45.19-.64Zm61.51,176.4l-.68.68c-.15.15-.26.33-.31.53-.5,1.9-.61,3.73-.61,5.63,0,.17.03.34.1.5.46,1,.93,1.28,1.39,1.56l-.76.76c-.09.09-.17.2-.23.32-.5,1-.6,2-.61,3,0,.08,0,.17.02.25.33,1.64.52,2.8.68,3.89.05.34-.06.69-.29.95-.36.41-.44.72-.52,1.03-.2,1.3-.3,2-.4,2.7-.6,0-1,.1-1,.1-.4.1-.4,0-.4,0-.1.3-.3.6-.5.9-.5.2-.5.1-.5.1-.2.3-.3.5-.5.8-.26,0-.51.03-.7.05-.19.03-.37.09-.52.21-.43.32-.6.58-.77.84-.5.2-.5.1-.5.1-1.2.3-2.5.9-3.7.9-13.7.1-27.3.1-41,0-1.59-.09-3.26-.8-4.86-1.22-.22-.06-.43-.18-.58-.35-1.33-1.49-2.31-2.57-3.26-3.6-.19-.21-.3-.49-.3-.77-.2-25.04-.3-49.5-.3-73.95,0-1.3.9-2.5,1.3-3.7.7-.5.7-.4.7-.4.1-.3.3-.6.5-.9.5-.2.5-.1.5.1.1-.2.3-.5.5-.8.5-.2.5-.1.5-.1.34-.25.74-.58,1.16-.85.15-.1.34-.16.52-.18,3.84-.38,7.14-.58,10.43-.86.06,0,.12,0,.17,0,1.54.09,2.23.09,2.91.09,10.68,0,20.76-.1,30.84-.1.04,0,.08,0,.11,0,.96.09,1.34.09,1.34.09.86.09,1.35.17,1.85.26.16.03.33.1.46.19.74.5,1.2.71,1.66.88.15.05.3.15.42.27.71.68,1.22,1.06,1.72,1.46.12.1.22.23.3.37.45.86.81,1.32,1.09,1.78.2.6.5.6.5.6,3.35,2.87,3.31,6.01,1.64,9.34-.13.26-.38.45-.65.56-.43.18-.49.49-.49.49,0,.6,0,.8.1,1,3.38,3.18,2.22,6.16.93,9.23-.02.04-.03.09-.05.14-.74,2.45-.87,4.71-.88,6.98,0,.23.08.46.21.65,3.22,4.76,1.98,9.04.71,13.24-.01.05-.02.09-.03.14-.79,4.18-.89,8.25-.89,12.23.5,1.3,1,1.6,1.5,1.9Zm26.4-103.5c3.09,2.21,6.05,4.3,8.9,6.3-.58,0-1.16,0-1.77,0-.09,0-.18,0-.26-.03-.47-.11-1.02-.29-1.57-.47-.4-.5-.3-.5-.3-.5-.3-.1-.6-.3-.9-.5-.2-.5-.1-.5-.1-.5-.3-.1-.6-.3-.9-.5-.2-.5-.1-.5-.1-.5-.47-.47-.85-1.12-1.32-1.7-.05-.07-.12-.13-.19-.18-.87-.7-1.81-1.64-1.5-1.42Zm61.9,120.6c0,.97-.39,1.94-.62,2.9-.06.26-.2.49-.4.66-1.78,1.46-2.98,2.55-4.13,3.69-.15.15-.33.26-.53.31-.44.1-.72.24-.72.24-.84.33-1.32.6-1.75.79-.15.07-.32.11-.49.11h-43.19s-.1,0-.15-.01c-1.18-.16-1.72-.18-2.21-.24-.2-.03-.4-.11-.56-.23-.64-.49-1.07-.75-1.52-.93-.15-.06-.3-.15-.41-.26-.8-.78-1.33-1.16-1.83-1.57-.12-.1-.22-.23-.3-.37-.45-.86-.81-1.32-1.09-1.78-.1-.5-.5-.6-.5-.6-.8-.5-1.5-1-1.5-1.4v-72.3c0-.55.25-1.18.44-1.74.04-.11.09-.21.16-.31,3.48-4.89,7.45-6.55,12.8-6.36,12,.3,23.9.2,35.9,0,4.87-.1,8.35,1.38,10.95,5.32.03.05.07.11.09.16.88,1.85,1.56,3.14,1.56,4.51.1,23.2,0,46.3,0,69.4Zm.1-121.7c0,.48-.2,1.03-.32,1.54-.06.23-.18.45-.35.61-2.44,2.25-4.47,4.01-6.4,5.75-.21.19-.49.3-.78.3h-.37c-3.82-5.46-8.1-11.32-12.52-17.3-.4.28-.82.51-1.32.62-.06.01-.13.03-.19.04-.27.05-.59.1-.91.14-.13.03-.26.06-.39.09-.6.16-1.21.2-1.81.15-.31.16-.65.31-1.03.42-.94.27-1.87.45-2.83.6-.47.07-.93.12-1.4.18-.19.08-.43.17-.76.3-2.13.65-3.84-.11-5.48-1.31-.24,0-.47-.02-.71-.05,0,0,.01,0,.02,0-.01,0-.02,0-.03,0-.09,0-.18-.02-.27-.03-.32-.04-.62-.08-.91-.13-.04,0-.08-.01-.12-.02.03,0,.06,0,.09.01-.35-.06-.69-.14-1.03-.26-2.87-.51-5.21-3.67-4.15-6.58-.12-1.03.12-2.06.59-2.99-1.01-4.29.23-8.79-.44-13.14-.17-1.08-.08-2.16.25-3.12-.35-2.07-.44-4.09-.01-5.92-9.68-13.55-17.21-25.22-18.45-31.41-.1-.49.3-.9.4-1.4.7-.5.6-.5.6-.5.2-.5.3-1.1.5-1.7.6-.3.5-.3.5-.3.2-.2.4-.5.6-.8.8-.2,1-.4,1.2-.6.27-.53.49-.85.67-1.08.16-.21.38-.36.63-.42.64-.17.99-.26,1.33-.33.18-.04.36-.12.5-.25.87-.75,1.42-1.51,1.97-1.51,15.01,0,30.02.2,45.03.3.35,0,.68.17.9.44.18.22.18.17.18.17.4.24.87.42,1.35.58.23.08.43.23.57.42.89,1.2,1.54,1.86,2.28,2.6.9.9,1.3,1.3,1.7,1.8.1.7.1.6.1.6.3,1.2,1,2.4,1,3.6v69.9Zm.2-121.4c0,.71-.24,1.42-.43,2.13-.05.18-.14.34-.26.48-1.69,1.88-2.85,3.13-4.01,4.39-.8.9-1.2,1.4-1.7,1.8-.7.1-.6.1-.6.1-1,.3-2.1,1-3.1,1-14.1.1-28.1,0-42.2,0-.7,0-1.33-.39-2.01-.61-.19-.06-.37-.17-.5-.31-1.69-1.76-2.94-2.72-4.29-3.78-1-.8-1.4-1.3-1.9-1.7-.1-.7-.1-.6-.1-.6-.3-.7-1-1.4-1-2.1,0-23.02.1-45.94.2-68.96,0-.16.04-.32.1-.47.39-.9.49-1.37.5-1.81,0-.04,0-.09,0-.13-.1-1.25-.2-1.74-.29-2.33.5-.3.4-.3.7-.3.24-.39.47-.84.66-1.31.1-.25.28-.46.51-.6,1.16-.68,1.8-1.14,2.44-1.69.5-.2.9-.4.9-.4.5-.1.5,0,.5,0,.5-.4,1-.7,1.6-1.1,1.2-.9,1.9-1.8,2.7-1.8,14.11.1,28.32.29,42.53.4.35,0,.68.17.9.44.18.22.18.17.18.17.5.2,1.1.4,1.7.6.3.6.3,1,.3,1,.07.3.04.37.02.39.04-.08.48,0,.48,0,1.1.7,1.9,1.2,2.6,1.7.9.7,1.3,1.2,1.8,1.6.1.7.1.6.1.6.3,1.2,1,2.4,1,3.6v69.6Z"/>
  <path class="cls-5" d="m457.18,18.17c-72.52-.49-144.93-.49-217.35-.59-4.3,0-5.6,1-5.6,5.5.1,172.3.1,344.6,0,516.9,0,4.7,1.5,5.8,5.9,5.7,17.2-.3,34.3-.2,51.5-.1,1.53,0,3.14.48,4.75,1.09.27.1.53.28.66.54.08.17.19.24.39.17.3-.24.54-.45.71-.64.19-.21.29-.48.29-.77,0-2.7-.09-5.41-.18-8.5-.01-.37-.21-.7-.51-.91-2.13-1.49-1.92-2.92-.25-4.65.21-.22.34-.5.34-.8.39-25.34.39-50.49.49-75.73,0-2.5.2-5,.6-7.7.3-.3.2-.3.2-.3.2-.6.4-1.2.8-1.9.3-.1.2-.1.2-.1.19-.28.37-.56.87-1.23.08-.11.19-.21.3-.29,1.42-.96,2.6-1.53,3.77-2.15.17-.09.35-.14.54-.14,26.56,0,53.02-.1,80.26-.1.1,0,.2.01.3.04,1.5.38,2.28.67,3.05.96.28.19.65.29,1.42.78.11.07.22.17.31.28,1.03,1.33,1.7,2.48,2.37,3.53.18.27.45.63.87,1.14.08.1.15.22.19.34.7,1.92,1.73,3.57,1.73,5.22.1,28.7.2,57.3,0,86,0,4.9,1.5,6.1,6.2,6,18.02-.29,35.95-.11,54.34-.1.64,0,1.16-.52,1.16-1.16.5-174.93.5-349.77.5-525.19,0-.64-.51-1.16-1.15-1.16Zm-184.62,56.95c1.07-2.11,2.07-3.59,3.06-5.03.13-.19.32-.34.54-.43.41-.15.67-.28.67-.28.5-.1.5,0,.5,0,.5-.3,1-.7,1.5-1,1.3-.8,2-1.8,2.7-1.8,14.31.1,28.52.29,42.73.4.35,0,.68.17.9.44.18.22.18.17.18.17.5.2,1.1.4,1.7.6.3.6.3,1,.3,1,.07.3.04.37.02.39.04-.08.48,0,.48,0,1.52,1.24,2.59,2.2,3.73,3.24.11.1.21.23.27.37,1.08,2.41,2.4,4.45,2.4,6.48.1,21.3.1,42.5,0,63.8,0,1.8-.9,3.7-1.4,5.6-.7.4-.6.4-.6.4-.24.4-.42.87-.58,1.35-.08.22-.23.42-.42.56-1.2.89-1.94,1.62-2.67,2.26-.02.01-.03.03-.05.05-.79.79-1.28,1.28-1.67,1.67-.23,0-.37.01-.45.02.02,0,.03-.01.05-.02-.02,0-.05.02-.07.02-.08.01-.09.02-.05.02-.97.32-2.02.96-2.98.96-14.2.1-28.4,0-42.6,0-.51,0-1.09-.22-1.62-.4-.18-.07-.35-.18-.48-.32-2.27-2.54-4.05-4.42-5.8-6.34-.19-.21-.3-.49-.3-.78-.1-24.75-.1-48.81-.1-72.87,0-.18.05-.37.13-.54Zm-.24,121.16c1.79-2.78,3.49-4.78,5.19-6.77.08-.09.17-.17.27-.23,1.41-.87,2.28-1.71,3.24-1.71,14.5-.1,28.9,0,43.3,0,.5,0,.9.3,1.4.5.22.4.38.67.52.85.21.29.56.45.92.45h.33c.39,0,.75.2.97.53.65.95,1.31,1.62,1.96,2.27.07.07.15.13.22.18.71.43.99.53,1.27.72.3.5.3.4.2.5.6,2.5,1.9,4.9,1.9,7.4.1,21.4.1,42.8,0,64.2,0,1.48-.77,3.04-1.2,4.61-.07.25-.22.48-.43.63-2.81,2.1-5.13,3.95-7.35,5.79-.21.17-.47.27-.74.27h-44.82c-.24,0-.48-.07-.67-.21-2.46-1.7-4.29-3.31-6.01-4.85-.24-.22-.38-.53-.39-.86-.2-25-.2-49.32-.29-73.64,0-.23.07-.45.19-.64Zm61.51,176.4l-.68.68c-.15.15-.26.33-.31.53-.5,1.9-.61,3.73-.61,5.63,0,.17.03.34.1.5.46,1,.93,1.28,1.39,1.56l-.76.76c-.09.09-.17.2-.23.32-.5,1-.6,2-.61,3,0,.08,0,.17.02.25.33,1.64.52,2.8.68,3.89.05.34-.06.69-.29.95-.36.41-.44.72-.52,1.03-.2,1.3-.3,2-.4,2.7-.6,0-1,.1-1,.1-.4.1-.4,0-.4,0-.1.3-.3.6-.5.9-.5.2-.5.1-.5.1-.2.3-.3.5-.5.8-.26,0-.51.03-.7.05-.19.03-.37.09-.52.21-.43.32-.6.58-.77.84-.5.2-.5.1-.5.1-1.2.3-2.5.9-3.7.9-13.7.1-27.3.1-41,0-1.59-.09-3.26-.8-4.86-1.22-.22-.06-.43-.18-.58-.35-1.33-1.49-2.31-2.57-3.26-3.6-.19-.21-.3-.49-.3-.77-.2-25.04-.3-49.5-.3-73.95,0-1.3.9-2.5,1.3-3.7.7-.5.7-.4.7-.4.1-.3.3-.6.5-.9.5-.2.5-.1.5.1.1-.2.3-.5.5-.8.5-.2.5-.1.5-.1.34-.25.74-.58,1.16-.85.15-.1.34-.16.52-.18,3.84-.38,7.14-.58,10.43-.86.06,0,.12,0,.17,0,1.54.09,2.23.09,2.91.09,10.68,0,20.76-.1,30.84-.1.04,0,.08,0,.11,0,.96.09,1.34.09,1.34.09.86.09,1.35.17,1.85.26.16.03.33.1.46.19.74.5,1.2.71,1.66.88.15.05.3.15.42.27.71.68,1.22,1.06,1.72,1.46.12.1.22.23.3.37.45.86.81,1.32,1.09,1.78.2.6.5.6.5.6,3.35,2.87,3.31,6.01,1.64,9.34-.13.26-.38.45-.65.56-.43.18-.49.49-.49.49,0,.6,0,.8.1,1,3.38,3.18,2.22,6.16.93,9.23-.02.04-.03.09-.05.14-.74,2.45-.87,4.71-.88,6.98,0,.23.08.46.21.65,3.22,4.76,1.98,9.04.71,13.24-.01.05-.02.09-.03.14-.79,4.18-.89,8.25-.89,12.23.5,1.3,1,1.6,1.5,1.9Zm26.4-103.5c3.09,2.21,6.05,4.3,8.9,6.3-.58,0-1.16,0-1.77,0-.09,0-.18,0-.26-.03-.47-.11-1.02-.29-1.57-.47-.4-.5-.3-.5-.3-.5-.3-.1-.6-.3-.9-.5-.2-.5-.1-.5-.1-.5-.3-.1-.6-.3-.9-.5-.2-.5-.1-.5-.1-.5-.47-.47-.85-1.12-1.32-1.7-.05-.07-.12-.13-.19-.18-.87-.7-1.81-1.64-1.5-1.42Zm61.9,120.6c0,.97-.39,1.94-.62,2.9-.06.26-.2.49-.4.66-1.78,1.46-2.98,2.55-4.13,3.69-.15.15-.33.26-.53.31-.44.1-.72.24-.72.24-.84.33-1.32.6-1.75.79-.15.07-.32.11-.49.11h-43.19s-.1,0-.15-.01c-1.18-.16-1.72-.18-2.21-.24-.2-.03-.4-.11-.56-.23-.64-.49-1.07-.75-1.52-.93-.15-.06-.3-.15-.41-.26-.8-.78-1.33-1.16-1.83-1.57-.12-.1-.22-.23-.3-.37-.45-.86-.81-1.32-1.09-1.78-.1-.5-.5-.6-.5-.6-.8-.5-1.5-1-1.5-1.4v-72.3c0-.55.25-1.18.44-1.74.04-.11.09-.21.16-.31,3.48-4.89,7.45-6.55,12.8-6.36,12,.3,23.9.2,35.9,0,4.87-.1,8.35,1.38,10.95,5.32.03.05.07.11.09.16.88,1.85,1.56,3.14,1.56,4.51.1,23.2,0,46.3,0,69.4Zm.1-121.7c0,.48-.2,1.03-.32,1.54-.06.23-.18.45-.35.61-2.44,2.25-4.47,4.01-6.4,5.75-.21.19-.49.3-.78.3h-.37c-3.82-5.46-8.1-11.32-12.52-17.3-.4.28-.82.51-1.32.62-.06.01-.13.03-.19.04-.27.05-.59.1-.91.14-.13.03-.26.06-.39.09-.6.16-1.21.2-1.81.15-.31.16-.65.31-1.03.42-.94.27-1.87.45-2.83.6-.47.07-.93.12-1.4.18-.19.08-.43.17-.76.3-2.13.65-3.84-.11-5.48-1.31-.24,0-.47-.02-.71-.05,0,0,.01,0,.02,0-.01,0-.02,0-.03,0-.09,0-.18-.02-.27-.03-.32-.04-.62-.08-.91-.13-.04,0-.08-.01-.12-.02.03,0,.06,0,.09.01-.35-.06-.69-.14-1.03-.26-2.87-.51-5.21-3.67-4.15-6.58-.12-1.03.12-2.06.59-2.99-1.01-4.29.23-8.79-.44-13.14-.17-1.08-.08-2.16.25-3.12-.35-2.07-.44-4.09-.01-5.92-9.68-13.55-17.21-25.22-18.45-31.41-.1-.49.3-.9.4-1.4.7-.5.6-.5.6-.5.2-.5.3-1.1.5-1.7.6-.3.5-.3.5-.3.2-.2.4-.5.6-.8.8-.2,1-.4,1.2-.6.27-.53.49-.85.67-1.08.16-.21.38-.36.63-.42.64-.17.99-.26,1.33-.33.18-.04.36-.12.5-.25.87-.75,1.42-1.51,1.97-1.51,15.01,0,30.02.2,45.03.3.35,0,.68.17.9.44.18.22.18.17.18.17.4.24.87.42,1.35.58.23.08.43.23.57.42.89,1.2,1.54,1.86,2.28,2.6.9.9,1.3,1.3,1.7,1.8.1.7.1.6.1.6.3,1.2,1,2.4,1,3.6v69.9Zm.2-121.4c0,.71-.24,1.42-.43,2.13-.05.18-.14.34-.26.48-1.69,1.88-2.85,3.13-4.01,4.39-.8.9-1.2,1.4-1.7,1.8-.7.1-.6.1-.6.1-1,.3-2.1,1-3.1,1-14.1.1-28.1,0-42.2,0-.7,0-1.33-.39-2.01-.61-.19-.06-.37-.17-.5-.31-1.69-1.76-2.94-2.72-4.29-3.78-1-.8-1.4-1.3-1.9-1.7-.1-.7-.1-.6-.1-.6-.3-.7-1-1.4-1-2.1,0-23.02.1-45.94.2-68.96,0-.16.04-.32.1-.47.39-.9.49-1.37.5-1.81,0-.04,0-.09,0-.13-.1-1.25-.2-1.74-.29-2.33.5-.3.4-.3.7-.3.24-.39.47-.84.66-1.31.1-.25.28-.46.51-.6,1.16-.68,1.8-1.14,2.44-1.69.5-.2.9-.4.9-.4.5-.1.5,0,.5,0,.5-.4,1-.7,1.6-1.1,1.2-.9,1.9-1.8,2.7-1.8,14.11.1,28.32.29,42.53.4.35,0,.68.17.9.44.18.22.18.17.18.17.5.2,1.1.4,1.7.6.3.6.3,1,.3,1,.07.3.04.37.02.39.04-.08.48,0,.48,0,1.1.7,1.9,1.2,2.6,1.7.9.7,1.3,1.2,1.8,1.6.1.7.1.6.1.6.3,1.2,1,2.4,1,3.6v69.6Z"/>
  <path class="cls-4" d="m483.38,170.5c1.2.4,2.6.6,3.7,1.2,49.5,24.6,99.1,49.2,148.6,73.8.9.4,1.7,1,3,2,1,.7,1.6.8,2.2,1,0,0-.1,0,0,.2.4.4.7.6,1,.7,0,0,0-.1,0,.4v152.8c-3-.3-5.1-.9-7.2-.6-4.6.5-9.2,1.5-13.8,2.3-22.3,5.2-37.6,18.3-45.3,40-.5,1.3-2,2.6-3.3,3.2-38.4,16.8-52.2,61-29.8,96.9.2.7.5.8.7,1,.2.5.5,1,.3,1.7-18.9.3-37.4.3-55.9.3q-6.7,0-6.7-6.8v-279.4c0-28.5,0-57,.1-85.5,0-1.8-1.4-4.7,2.4-5.2m44.5,206.1l.4.5c1.2-.1,2.3-.2,4.5-.5,19.1,0,38.2.1,57.7.6,1.8-.5,3.6-1.1,5.8-2.1,1.4-1.5,2.8-3,5-5,.2-.6.6-1.2.6-1.9,0-23.1.1-46.2,0-69.3,0-1.1-.9-2.2-1.9-3.8-2-1.8-3.9-3.6-6.5-6.1-.5-.2-.9-.4-1.4-.4-20.6,0-41.2-.1-61.8,0-.4,0-.8.7-1.7,1.6-1.6,1.3-3.2,2.6-5.2,4.3-.2.4-.3.7-.9,1.8-.2.8-.5,1.6-.5,2.4,0,23,.1,46,.1,69.4,0,0,.1.4,0,1.1,1.3,2,2.6,4,4.1,6.6.5.3,1.1.5,1.7.8Z"/>
  <path class="cls-1" d="m573.98,549.7s-.5-.1-.9-.3c-1-.5-1.6-.8-2.1-1-7-5.7-13.1-12.1-17-20.5-12.6-26.5,3-59.5,31.6-66.1,3.6-.8,5.1-2.4,5.8-6.1,5.8-32.2,42.2-46,68.2-25.9,14.6,11.2,19.3,26.1,14.9,43.8-.8,3.2-.8,5.7,1.9,8.1,21.1,18.6,16.6,51.4-3.5,65.7-.8.6-1.5,1.3-3,2.1-32.6.1-64.3.1-95.9.2Z"/>
  <path class="cls-4" d="m458.88,19.6c-72.8,0-145.6,0-218.5-.1-4.3,0-5.6,1-5.6,5.5.1,172.3.1,344.6,0,516.9,0,4.8,1.5,5.8,5.9,5.7,17.2-.2,34.3-.1,51.5-.1,1.7,0,3.5.6,4.9,1.3-21.3.5-42.2.6-63.2.7-.2-.2-.4-.4-.7-1.2-.1-140.2-.1-279.8-.1-419.4,0-34.5-.1-69-.2-103.4,0-1.4.1-2.8.2-4.9,3.4-1.4,6.6-2.6,9.8-2.6,21.1-.1,42.2.3,63.3.3,27.4,0,54.8-.3,82.3-.3,24.1,0,48.2.1,72.3.2,0,0-.1.2-.1.6,0,.5-.1.7-.4.9-.6-.1-1-.1-1.4-.1Z"/>
  <path class="cls-4" d="m483.18,170.2c-3.6.7-2.3,3.7-2.3,5.7-.1,28.5-.1,57-.1,85.5v279.4q0,6.8,6.7,6.8h56c.5,0,.9.1,1.1.6.1.7.1,1-.4,1.3-21.4.1-42.3.2-63.3.3-.5-.3-.9-.5-1.6-1.4-.2-67.4-.2-134.1-.2-200.9,0-59.6-.1-119.2-.1-178.8,1.4.4,2.7.8,4.2,1.5Z"/>
  <path class="cls-4" d="m460.68,19.6c0-.2.1-.3.2-.8.4,1.5,1,3.2,1,4.9v519.8c0,1.5-.2,3-.7,4.5-.4-.1-.4-.3-.4-.9.1-161.2.1-321.9.1-482.6,0-15-.2-29.9-.2-44.9Z"/>
  <path class="cls-4" d="m232.58,25.8c.4,34.2.5,68.7.5,103.1,0,139.6,0,279.2-.1,419.2-.4-1.2-1.1-2.9-1.1-4.6-.1-171,0-342,0-513,0-1.4.3-2.9.7-4.7Z"/>
  <path class="cls-4" d="m478.78,168.9c.4,59.3.4,118.9.4,178.5v200.7c-.4-1.2-1.2-2.9-1.2-4.5-.1-123.4-.1-246.7,0-370.1-.1-1.5.2-2.9.8-4.6Z"/>
  <path class="cls-4" d="m621.28,404.4c4.2-.8,8.8-1.7,13.4-2.3,2-.2,4.2.3,7.2.6v-152.8c.6-.3,1.2-.1,1.9.7.1.5.1.9.1.9-.1,24.4-.1,48.9-.2,73.3v79.5c-7.5.1-14.7.1-22.4.1Z"/>
  <path class="cls-4" d="m460.68,547.6c.1.2.1.3.2.8.1.3-.1.2-.3.3-.4.3-.6.5-.7.7,0,0,0,.2-.5.2-21.4.1-42.5.1-63.5.1,0,0-.3-.1-.5-.6-.2-33.1-.2-65.8-.2-98.4.6,1.7,1.7,3.4,1.7,5.1.1,28.7.2,57.3,0,86,0,4.9,1.5,6.1,6.2,6,18.3-.3,36.7-.1,55.8-.1,1-.1,1.4-.1,1.8-.1Z"/>
  <path class="cls-4" d="m215.08,548.4c-.4-43-.4-86.3-.4-129.6,0-53.4,0-106.9-.1-160.8.4,1,1.3,2.4,1.3,3.9.1,94.3.1,188.5,0,282.8,0,1.2-.3,2.3-.8,3.7Z"/>
  <path class="cls-4" d="m54.48,259c.3,42.9.4,86,.4,129.2,0,53.2,0,106.3-.1,159.9-.3-1.1-.9-2.7-.9-4.3v-280.6c0-1.3.2-2.6.6-4.2Z"/>
  <path class="cls-4" d="m213.58,257.3c.3.3-.2.4-.4.4-28,0-55.7,0-83.5-.1-24.3,0-48.5,0-73.2-.1.9-.3,2.4-.9,3.8-.9h150.2c.8,0,1.8.2,3.1.7Z"/>
  <path class="cls-4" d="m394.98,450.3c.2,33,.2,65.6.3,98.8-.4-1.2-1.3-2.8-1.3-4.4-.1-31.5,0-63.1,0-95.2.2-.1.5.2,1,.8Z"/>
  <path class="cls-4" d="m298.68,533.6c.1-25.4.1-50.7.2-76.1,0-2.5.2-4.9.6-7.7.3,31.5.3,63.3.3,95.1,0,1-.2,2-.6,3.2-.3-2.7-.4-5.7-.4-9.6,0-2.1,0-3.5-.1-4.9Z"/>
  <path class="cls-4" d="m306.28,444.1c26.3-.3,52.9-.4,80-.4-.8.3-2,.9-3.3.9h-74.5c-.6,0-1.2-.2-2.2-.5Z"/>
  <path class="cls-4" d="m481.18,550c20.7-.4,41.6-.5,63-.5.4.1.6.3.6.3-1.1.3-2.2.8-3.3.8h-58.1c-.6,0-1.2-.2-2.2-.6Z"/>
  <path class="cls-4" d="m396.18,549.9c20.7-.3,41.7-.3,63.2-.3-.8.4-2,1-3.2,1-19.3.1-38.5,0-57.8,0-.6,0-1.3-.3-2.2-.7Z"/>
  <path class="cls-1" d="m362.08,318.4c2.9-4.4,6.9-6,12.3-5.9,12,.3,23.9.3,35.9,0,4.8-.1,8.4,1.4,11.2,6.1.3,24.8.4,48.9.4,73,0,1.3-.3,2.6-.5,3.9-1.3,1.3-2.6,2.5-4.3,3.7-.6.1-.9.3-1.1.5-.5.2-1,.5-2.1.4-14.4-.4-28.3-.5-42.1-.6-.6,0-1.1.5-1.7.8-.6-.1-1.1-.1-2.1-.7-.9-.7-1.5-.9-2.1-1.1-.6-.5-1.2-.9-1.9-2-.5-1.1-.8-1.5-1.2-2,0,0-.4-.1-.6-.6-.2-25.4-.2-50.5-.1-75.5m18.2,63.8h23.2v-51.6c-5.5,0-10.6-.1-15.7,0-2.7.1-5.4.7-8.6,1.6-.1,15.8-.2,31.7-.3,47.5.1.7.6,1.2,1.4,2.5Z"/>
  <path class="cls-1" d="m420.16,194.7c-1.1-1.3-1.8-2-2.6-2.8-.5-.3-1.1-.6-1.8-1.1-.1-.3-.1-.2-.1-.2-15.7,0-31.4.1-47.7.4-1.1.4-1.5.5-2,.6-.2.3-.5.6-1.1,1.2-.5.6-.7.8-1,.8-.2.3-.5.6-.9,1-.3.1-.2.1-.2.1,0,.2.1.4.1.8.1.4.2.6.3.8,0,.1-.1.2-.4.3-.1,0-.6.1-.8.1-.13-.04-.18-.07-.2-.08,0,24.39-.1,48.79,0,73.58.7,1.6,1.3,2.7,1.9,4.1,0,.3-.1.3-.1.3.3.2.6.4,1,.8.1.2,0,.2,0,.2.3.2.6.4,1,.8.1.2,0,.2,0,.2.6.1,1.2.3,1.9.7.2.3.1.3.1.3,15.4.1,30.9.2,47,.5,2.7-1.7,4.9-3.6,7-5.5v-76c-.4-.5-.7-.9-1.4-1.9Zm-16.67,66.5c-7.7,1.6-15.5,2.3-23.4.1-.21-.45-.4-.81-.56-1.11-1.43-1.65-1.61-4.28-.52-6.17,0-5.14.03-10.28.05-15.43-.03-.4-.03-.8,0-1.19.04-8.68.08-17.35.14-26,3.2-1,5.9-1.6,8.6-1.7,5.1-.2,10.2-.1,15.7-.1v51.6Z"/>
  <path class="cls-1" d="m332.88,272.6c-2.4,2-4.9,4-7.9,5.6-14.5-.4-28.3-.6-42.1-.6-1.3,0-2.5.5-3.8.7-1.9-1.7-3.9-3.5-5.6-5.9.3-24.8.4-48.9.4-73,0-.6-.5-1.2-.8-1.8,1.8-2.1,3.6-4.2,6.1-6.6,16.4-.3,32.1-.2,47.7-.2.1.3.3.5,1.1.6.4.1.9.3.9.3.8.8,1.6,1.6,2.7,2.8.7.6,1,.7,1.3.9,0,0,0-.1,0,.4-.1,26.1-.1,51.5,0,76.8m-18-48.6c0-.5-.1-.9,0-2.3v-11.7h-23.6v52.4c6.7,0,12.9.2,19.2-.1,2.9-.1,4.6-1.5,4.5-5.1-.3-10.9-.2-21.7-.1-33.2Z"/>
  <path class="cls-1" d="m328.98,398.5s-.5.1-1,.2c-.7.4-.9.7-1.1,1,0,0,0-.1-.5-.1-17-.3-33.5-.6-50-1-1.1-1.2-2.2-2.4-3-4.2.3-15.3.3-29.9.5-44.6.2-11.1.6-22.2.9-33.4,0,0,0,.1.2,0,.4-.4.6-.7.8-1,0,0,0,.1.2,0,.4-.4.6-.7.8-.9,0,0,0,.1.3,0,.8-.4,1.2-.8,1.7-1.1,3.4-.3,6.8-.5,10.8-.5,1.4.1,2.3,0,3.1-.2,10.1,0,20.2-.1,30.8.1.5.2.9.3.9.3l.3-.3c.6.1,1.1.2,2.1.7.9.7,1.5.9,2.1,1,.6.5,1.2.9,1.8,2,.5,1.1.8,1.6,1.2,2,0,0,.3,0,.6.5.2,2.8.2,5.2-.1,7.8-.1,1,.1,1.8.2,2.7.1.2.1.4.2,1.3,0,2.8-.1,4.8-.4,7-.1.7.1,1.2.3,1.8h.2c0,2.4-.1,4.8-.1,7.9-.1.9-.1,1.1-.4,1.5-.1,2,.1,3.8.3,6,.1,2.2.2,3.9.2,5.6,0,4-.1,8.1-.1,12.9,0,1.2.1,1.7.1,2.1,0,2.1-.1,4.1-.1,6.9,0,1.2.1,1.6.1,2.1,0,1.1-.1,2.2-.1,4,0,1.9.1,2.9.1,4-.1.4-.2.8-.5,1.6-.2.4-.6.4-.9.6-.5.7-.6,1.3-.8,1.9,0,0,0-.1-.2,0-.4.4-.6.7-.8,1,0,0,0-.1-.2,0-.3.2-.5.5-.5.8m-14.1-25.7c0-1.8-.1-3.5,0-6.2v-28.7c0-1.1-.1-2.2,0-4.2-.7-1-1.4-2.9-2.1-2.9-7.1-.2-14.2-.1-21.7-.1,0,7.3,0,14.1-.1,21.7,0,.8.1,1.6,0,3.3v26.7h23.8c-.1-3.1-.1-5.9.1-9.6Z"/>
  <path class="cls-1" d="m363.28,73.6c.7-.6,1.4-1.1,2.5-1.6.6-.1.8-.3,1-.5,0,0,0,.1.5.1h49.7s-.1,0,0,.2c.3.1.6.1.8.1.7.5,1.5,1,2.6,2,.7.9,1.1,1.4,1.5,1.9,0,0,0-.1,0,.4-.1,25.5-.1,50.6-.1,75.7-1.2,1.3-2.4,2.6-4,4.3-.9.7-1.4,1.1-1.9,1.4,0,0,.1,0-.4,0-16.1-.2-31.8-.3-47.5-.4-1.4-1.1-2.7-2.1-4.5-3.7-.8-.9-1.1-1.4-1.5-1.9,0,0,0,.1,0-.4-.1-24.1-.1-47.8-.2-71.4,0-.5.1-1,.1-2.1.1-1.1.1-1.5.1-2,0,0-.1,0,.2-.1.6-.8.9-1.4,1.1-2m16.6,27.7c0,1.1-.1,2.2-.7,3.9-.1,8.4-.3,16.7-.3,25.1,0,3,.5,6.1,1.3,9.8h22.9c.5-1.6.7-2.1.7-2.5,0-15.5,0-31,.1-46.5,0-3-1.4-3.7-3.9-3.6-4.2.1-8.3,0-12.5,0q-7.3,0-8.2,7.6c.1,1.9.3,3.6.6,6.2Z"/>
  <path class="cls-1" d="m278.68,157.4c-1.9-2.1-3.8-4.1-5.4-6.8.4-1.3.6-1.9.6-2.6v-68c0-1.1-.5-2.2-.7-3.3,1.1-1.6,2.2-3.2,3.7-4.7.6-.2.9-.3,1.1-.5,0,0,0,.1.5.1h49.7s-.1,0,0,.2c.3.1.6.1.8.1,1.2,1.1,2.3,2.1,3.7,3.8.2,1.1.2,1.6,0,2.3-.1,1.7.1,3.1.3,5,0,1.9,0,3.3-.3,4.8-.1.7.1,1.2.3,2.2,0,17.2,0,33.9-.3,50.9-.1,2,.1,3.8.3,6v4.6s.1,0-.2.1c-.5.7-.8,1.3-1,1.8-.8.7-1.6,1.5-2.9,2.6-.9.7-1.4,1.1-1.9,1.4,0,0,0,.1-.4,0-16.4.1-32.1,0-47.9,0m12.2-51.9c0,2.1.1,4.1,0,7.1,0,6.6.1,13.3,0,20.8,0,1.4.1,2.8,0,5.1,1.2.7,2.3,2,3.5,2,5.1.2,10.3-.1,15.4.2,4.1.2,5.1-1.4,5-5.3-.2-12.4-.1-24.9-.1-37.3v-9.8h-23.8c.1,5.7.1,11,0,17.2Z"/>
  <path class="cls-4" d="m460.78,547.2c-.5.5-.9.5-1.6.4-.3-175.7-.3-351.4-.3-527.5.4-.5.8-.5,1.5-.5.4,15,.5,30,.5,44.9,0,160.8,0,321.5-.1,482.7Z"/>
  <path class="cls-2" d="m333.18,272.4c-.4-25.2-.4-50.5-.4-76.3.7,2,2,4.5,2,6.9.2,21.4.1,42.8,0,64.2,0,1.7-.8,3.4-1.6,5.2Z"/>
  <path class="cls-2" d="m332.78,77.7v-1.9c.7,1.7,2.1,3.8,2.1,5.9.2,21.3.1,42.5,0,63.8,0,1.9-.9,3.8-1.7,5.9-.3-1.2-.3-2.6-.2-4.8-.1-2.5-.1-4.2-.1-5.8,0-16.7.1-33.5.1-51-.1-1.2-.1-1.6-.1-2,0-1.4.1-2.9.1-5.1-.2-2.3-.2-3.7-.2-5Z"/>
  <path class="cls-4" d="m416.88,71.4c-16.4.2-32.8.2-49.6.2.1-.4.7-.7,1.9-1.3,15.7-.3,30.7-.4,45.7-.5,0,0,0-.1.1.2.7.5,1.3.7,1.9.9,0,0,0,.3,0,.5Z"/>
  <path class="cls-3" d="m421.78,395.4c-.2-1.1.1-2.4.1-3.7,0-24.1,0-48.2-.1-72.8.3.9,1.1,2.3,1.1,3.6.1,23.1.1,46.2,0,69.4,0,1.1-.5,2.2-1.1,3.5Z"/>
  <path class="cls-3" d="m361.78,318.7c.3,24.8.2,49.8.2,75.3-.3,0-1-.4-1-.8v-72.3c-.1-.7.3-1.3.8-2.2Z"/>
  <path class="cls-4" d="m361.68,196.9c.3,24.1.3,48.5.3,73.6.1,1.1.1,1.5.1,1.9-.4-.4-1.1-.8-1.1-1.2v-72.6c0-.5.2-1,.7-1.7Z"/>
  <path class="cls-4" d="m422.18,272.3c-.3-24.7-.3-49.8-.3-75.3.3.7,1,1.9,1,3.2.1,23.3,0,46.6,0,69.9,0,.7-.3,1.3-.7,2.2Z"/>
  <path class="cls-4" d="m422.08,151.5c-.3-24.8-.3-49.8-.3-75.4.4.7,1,1.9,1,3.1.1,23.2,0,46.4,0,69.6.1.8-.2,1.6-.7,2.7Z"/>
  <path class="cls-3" d="m361.48,80c.3,23.3.4,47,.5,71.1-.4-.2-1-.9-1-1.6,0-23.1.1-46.1.5-69.5Z"/>
  <path class="cls-3" d="m325.58,69.4c-12,.4-24.2.4-36.4.5-2.8,0-5.6.3-8.8.4.3-.6,1-1.6,1.7-1.6,14.4,0,28.8.2,43.5.7Z"/>
  <path class="cls-2" d="m278.98,157.7c15.4-.3,31.2-.3,47.4-.2-.6.4-1.6,1.1-2.6,1.1-14.2.1-28.4,0-42.6,0-.6,0-1.3-.4-2.2-.9Z"/>
  <path class="cls-3" d="m326.68,190.6c-15.5.3-31.1.3-47.3.3.5-.3,1.5-1.2,2.4-1.2,14.4-.1,28.8,0,43.3,0,.4,0,.9.3,1.6.9Z"/>
  <path class="cls-4" d="m415.58,190.4c-15.4.4-31.1.4-47.2.5.2-.3.8-1.2,1.4-1.2,15.2.1,30.4.2,45.8.7Z"/>
  <path class="cls-3" d="m368.08,157.5c15.5-.3,31.2-.1,47.3,0-.6.4-1.6,1-2.6,1-14.1.1-28.1.1-42.2,0-.7.1-1.5-.4-2.5-1Z"/>
  <path class="cls-4" d="m354.09,279.07c34.7-.46,49.83.27,46.4.2,3.89-.05-11.06.47-46.4-.2Z"/>
  <path class="cls-4" d="m414.58,69.4c-14.7.4-29.7.5-45.2.7.3-.4,1.1-1.4,1.8-1.4,14.4,0,28.8.2,43.4.7Z"/>
  <path class="cls-4" d="m362.28,272.6c-.2-.6-.3-1-.2-1.6.6.8,1.2,1.9,1.8,3.4-.5-.4-.9-1-1.6-1.8Z"/>
  <path class="cls-4" d="m362.78,196.6s-.4.1-.6.1c-.1-.6.1-1.2.5-1.9.3,0,.3.2.2.9,0,.4-.1.9-.1.9Z"/>
  <path class="cls-3" d="m417.68,191.6c-.5.1-1-.2-1.8-.7.5,0,1.1.2,1.8.7Z"/>
  <path class="cls-4" d="m365.98,276.9c.4-.1,1,.1,1.7.5-.4.1-1-.1-1.7-.5Z"/>
  <path class="cls-4" d="m365.88,191.7c0,.2-.2.5-.8.9.1-.1.3-.5.8-.9Z"/>
  <path class="cls-4" d="m363.88,274.9c.2-.1.5.1.9.6-.2,0-.5-.2-.9-.6Z"/>
  <path class="cls-4" d="m364.88,275.9c.2-.1.5.1.9.6-.2,0-.5-.2-.9-.6Z"/>
  <path class="cls-4" d="m363.78,193.7c0,.2-.2.5-.6.9-.1-.2.1-.5.6-.9Z"/>
  <path class="cls-1" d="m523.88,294.1c1.6-1.3,3.2-2.6,5.4-4.2,22.1-.2,43.4-.2,64.8-.2,2,1.8,3.9,3.6,6.3,6.1.4,19.9.6,39.1.6,58.4,0,5.5-.3,10.9-.4,16.4-1.4,1.5-2.8,3-4.8,4.8-2.3.6-4,1-5.8,1.3-19.1,0-38.2-.1-58.1-.1-1.9,0-2.9-.1-4-.1l-.2-.2c-.7-.6-1.3-.9-1.8-1.2-1.3-2-2.6-4-3.7-6.4.2-.4.2-.8.2-.8l-.4-.3c0-23-.1-46-.1-69,0-.8.4-1.6,1-2.9.7-.8.8-1.2,1-1.6m16.7,13.9c-.1.2-.3.3-1.2,1-.2.5-.5.9-.5,1.4,0,15.1-.1,30.2,0,45.3,0,1,.9,1.9,1.7,3,.2.2.3.3.7,1.3,13,.1,26.1.3,39.1.4.5,0,.9-.8,1.4-2.1,0-15.2,0-30.4-.1-45.6,0-1.7-.6-3.4-1.5-5.7-12.5-.1-24.9-.3-37.4-.3-.6,0-1.3.6-2.2,1.3Z"/>
  <path class="cls-4" d="m600.88,370.4c-.2-5.2,0-10.7,0-16.2,0-19.2-.1-38.4-.4-58.1.4.7,1.3,1.8,1.3,2.9.1,23.1.1,46.2,0,69.3.1.6-.3,1.2-.9,2.1Z"/>
  <path class="cls-4" d="m593.78,289.4c-21.1.3-42.4.3-64.2.3,0-.3.4-1.1.8-1.1h61.8c.3.1.8.4,1.6.8Z"/>
  <path class="cls-3" d="m590.18,377c1.5-.6,3.2-.9,5.3-1.3-1.4.5-3.2,1-5.3,1.3Z"/>
  <path class="cls-3" d="m528.08,376.8c.9-.2,1.9-.2,3.3-.1-.8.2-1.9.3-3.3.1Z"/>
  <path class="cls-3" d="m525.98,375.5c.4,0,1,.3,1.7.9-.4-.1-1-.3-1.7-.9Z"/>
  <path class="cls-4" d="m212.38,259.6c.5,94.3.5,188.7.5,283,0,1.5-.2,3-.7,4.7-49.8.3-99.2.3-148.7.3q-6.6,0-6.6-6.4c0-91.8,0-183.6-.1-275.3,0-4.9,1-6.5,6.3-6.4,49.6.2,99.2.1,149.3.1m-107.8,46.2c-.2.3-.4.5-.9,1.3-.1.2-.2.3-.9.6-1.2,1.3-2.3,2.7-4.3,4.4-.2.8-.6,1.6-.6,2.3,0,21.6-.1,43.2,0,64.8,0,1.1.9,2.3,1.7,3.8,1.1,1.4,2.2,2.8,3.5,4.8.6.2,1.2.5,1.8.8,0,0,0-.1.5.6.5.1.9.4,1.4.4,18.2,0,36.4.1,54.6,0,1.1,0,2.3-.9,3.9-1.8,3.2-1.8,5.6-4.2,5.5-9.2,0-21.6-.1-43.2-.1-65.6-1.6-2.2-3.3-4.4-5.1-7.3-5.2-.1-10.4-.2-16.5-.2-1.1,0-2.2-.1-4-.6-4.7.2-9.5.4-15,.6-1.1,0-2.2-.1-4-.6-3.4.2-6.8.3-11.1.6-2.1,0-4.2-.1-6.7-.6-.8.2-1.7.4-2.9.6.1.1-.3.1-.8.3m.3,196.8s0-.1.4.5c1.5-.1,3-.2,5.4-.4,4.4,0,8.8.1,13.9.7,12.7.1,25.5.2,38.2.2.7,0,1.4-.7,2.1-.9,0,0-.1,0,.6-.1.5-.4.9-.8,1.7-1.7.8-.7,1.6-1.5,2.9-2.3.1-.1.3-.2.3-.2-.1-.2-.2-.4-.2-1.3.2-.8.4-1.7.7-3.4,0-22-.1-43.9,0-66.5-.2-.5-.5-1-.8-2,0,0-.2-.4-.4-1.1-2-1.6-3.9-3.1-6-5.4-.9-.3-1.8-.9-2.6-.9-17-.1-34-.1-50.9.1-2,0-4.1,1.6-6.5,2.8-1.5,1.6-3,3.2-5.1,5.5-.2.6-.5,1.3-.5,1.9,0,21.8-.1,43.5,0,65.3,0,1.1.9,2.2,1.8,3.8,1.1,1.4,2.1,2.7,3.4,4.8.5,0,1.1.3,1.6.6Z"/>
  <path class="cls-4" d="m362.98,196.5c-.2.1-.1-.4,0-.6.2,0,.3.2.4.4,0,0-.2.1-.4.2Z"/>
  <path class="cls-4" d="m539.78,308.7c.4,16.1.4,32.6.5,49.4-.4-.5-1.3-1.5-1.3-2.4-.1-15.1,0-30.2,0-45.3,0-.5.3-.9.8-1.7Z"/>
  <path class="cls-4" d="m541.18,359.7c13.1-.4,26.5-.4,40.3-.4,0,.4-.5,1.2-.9,1.2-13.1-.2-26.2-.3-39.4-.8Z"/>
  <path class="cls-4" d="m580.58,307.3c-12.8.3-25.8.4-39.3.4.2-.4.9-1,1.7-1,12.4,0,24.9.2,37.6.6Z"/>
  <path class="cls-1" d="m99.28,311.6c1.2-1.3,2.3-2.7,4.2-4,1.6-.6,2.5-1.2,3.7-1.9.8-.2,1.2-.2,1.6-.3,2.1,0,4.2.1,7.2.1,4.2,0,7.5-.1,10.8-.1,1.1,0,2.2.1,4.2.1,5.5,0,10.1-.1,14.8-.1,1.1,0,2.2.1,4.2.1,5.2.4,9.6.8,14,1.4.7.1,1.2,0,1.8-.2v-.3c1.6,2.2,3.3,4.4,4.6,7.2-.4,21.8-.5,42.9-.5,64.1,0,.6.5,1.2.8,1.7.2,4.1-2.2,6.4-6.1,8.6-20.4.4-40.1.4-59.8.4,0,0,0,.1-.1-.2-.7-.6-1.3-.9-1.8-1.2-1.1-1.4-2.2-2.8-3.6-4.8-.4-16.4-.5-32.1-.5-47.9.1-7.5.4-15.1.5-22.7m53.6,57.3c.2.2.4.4.7.5,0,0,.3-.1.3-.2,0-14.6,0-29.2-.1-43.7,0-.6-.9-1.2-2.2-1.8h-33.3v47.1c10.6,0,20.9.1,31.2-.1,1-.1,2.1-1.6,3.4-1.8Z"/>
  <path class="cls-1" d="m163.78,419.3c2,1.6,3.9,3.1,5.8,5.1.1.7.4.9.6,1.1.2.5.5,1,.4,2.1-.4,22.1-.5,43.6-.6,65.1,0,.6.5,1.2.8,1.7-.2.8-.4,1.7-.8,3.1l-.4,1c-.8.7-1.6,1.5-2.9,2.6-.9.7-1.4,1.1-1.9,1.4,0,0,.1,0-.4,0-13.8.1-27.1.1-40.4.2-4.4,0-8.8-.1-14.1-.1-2.2,0-3.6-.1-5-.1,0,0,0,.1-.1-.2-.7-.6-1.3-.9-1.8-1.2-1.1-1.4-2.1-2.7-3.5-4.8-.3-24.1-.3-47.5-.3-71,1.5-1.6,3-3.2,5-5.2,1-.4,1.4-.4,2.2-.2,18.8.4,37.4.5,55.9.5.6,0,1.1-.6,1.7-.9-.2,0-.2-.2-.2-.2m-10.4,64.8c.1-14.6.3-29.3.4-43.9,0-.6-.6-1.1-1.5-2.2h-34.4v47.9c4.3-.8,8-1.5,12.4-1.9,3.7-.1,7.4-.2,11.7.4,3.5.1,7.2.2,11.4-.3Z"/>
</svg>