<svg version="1.1" id="Layer_1" xmlns="http://www.w3.org/2000/svg" xmlns:xlink="http://www.w3.org/1999/xlink" x="0px" y="0px"
	 width="100%" viewBox="0 0 1024 1024" enable-background="new 0 0 1024 1024" xml:space="preserve">
<path fill="#000000" opacity="1.000000" stroke="none" 
	d="
M652.997437,703.264160 
	C546.669617,703.260132 440.841217,703.255981 335.012817,703.250732 
	C333.679565,703.250671 332.345062,703.271729 331.013306,703.223267 
	C322.389801,702.910034 318.638245,699.058289 318.627045,690.402710 
	C318.598480,668.403809 318.602325,646.404968 318.597382,624.406067 
	C318.583282,561.742676 318.570526,499.079346 318.561676,436.415985 
	C318.561371,434.270905 318.849884,432.075653 317.227142,430.021301 
	C313.829926,430.764099 311.508575,433.262329 308.861267,435.133179 
	C303.420166,438.978424 298.135132,443.045166 292.678955,446.868134 
	C286.780823,451.000732 279.585022,450.240112 276.160675,445.305359 
	C272.685852,440.297852 274.364929,433.495941 280.102539,429.290588 
	C344.054016,382.418121 407.999298,335.537231 471.960876,288.678589 
	C480.560120,282.378754 489.187439,276.114441 497.896942,269.968628 
	C507.052307,263.508179 519.700623,263.785583 528.781555,270.402344 
	C584.795715,311.216644 640.827026,352.007416 696.829590,392.837585 
	C713.251221,404.810181 729.589417,416.897003 745.985352,428.904846 
	C749.853699,431.737854 752.453674,435.197876 751.731934,440.265656 
	C750.567017,448.444153 742.340515,452.234589 735.079590,447.536560 
	C727.817261,442.837677 720.980347,437.482544 713.940979,432.437347 
	C712.508972,431.411041 711.200195,429.625519 709.123047,430.793884 
	C707.233154,431.856995 707.394104,433.863861 707.390076,435.700195 
	C707.364502,447.199615 707.357788,458.699097 707.325562,470.198486 
	C707.303101,478.230133 703.656311,482.418610 696.777222,482.363403 
	C690.058899,482.309479 686.456726,477.651886 686.523926,469.861633 
	C686.676331,452.197296 686.578674,434.530914 686.652100,416.865662 
	C686.667358,413.195312 685.154175,410.722321 682.156799,408.557343 
	C628.402771,369.731689 574.756653,330.756348 520.959412,291.990753 
	C511.744568,285.350647 514.603821,284.676636 504.535492,291.996307 
	C456.556274,326.877228 408.640839,361.845886 360.709900,396.793152 
	C354.921021,401.013947 349.218018,405.353668 343.391693,409.521484 
	C340.590790,411.525085 339.303284,413.911743 339.306488,417.492157 
	C339.383514,503.488037 339.359222,589.484009 339.373016,675.479980 
	C339.373993,681.453125 340.067963,682.423096 346.368958,682.480164 
	C363.197937,682.632812 380.029816,682.473938 396.860504,682.422119 
	C402.520508,682.404724 408.182251,682.226379 413.839783,682.323425 
	C419.534790,682.421082 420.500122,681.680908 420.532043,675.850464 
	C420.603241,662.851624 420.597137,649.852295 420.600128,636.853210 
	C420.605530,613.354309 420.599609,589.855469 420.587311,566.356567 
	C420.583740,559.579651 423.461731,556.332153 430.304230,555.736511 
	C432.952667,555.505920 435.633087,555.631592 438.299042,555.616211 
	C461.779480,555.480408 485.260132,555.382019 508.740173,555.198425 
	C516.440430,555.138184 521.349609,559.970459 521.355713,568.077515 
	C521.382263,603.242493 521.358032,638.407471 521.370789,673.572449 
	C521.373779,681.927551 521.935669,682.575684 530.544250,682.544617 
	C548.871460,682.478455 567.198181,682.117737 585.524780,682.143433 
	C612.351562,682.181030 639.178040,682.445374 666.004578,682.627686 
	C673.057495,682.675598 677.189087,686.282104 677.329163,692.440186 
	C677.462524,698.305237 673.078369,702.802795 666.484192,703.185425 
	C662.168091,703.435913 657.826843,703.252808 652.997437,703.264160 
M471.875092,682.233704 
	C479.367676,682.177368 486.867157,681.903564 494.350342,682.141907 
	C499.244354,682.297852 500.693848,680.262085 500.677124,675.619324 
	C500.565430,644.646362 500.581116,613.672424 500.718323,582.699524 
	C500.736511,578.599670 499.373932,577.069519 495.255310,577.100098 
	C479.270142,577.218872 463.282928,577.171021 447.297394,577.057007 
	C443.103699,577.027100 441.254944,578.674377 441.266327,582.970093 
	C441.347809,613.776855 441.293610,644.583923 441.356476,675.390747 
	C441.368317,681.207642 442.456085,682.367065 448.472595,682.491760 
	C455.957916,682.646973 463.451630,682.396667 471.875092,682.233704 
z"/>
<path fill="#000000" opacity="1.000000" stroke="none" 
	d="
M574.597656,628.335815 
	C546.325134,582.835693 561.455811,525.725403 609.084839,501.812347 
	C659.260315,476.620728 721.580383,502.780396 734.807068,561.009338 
	C740.700012,586.952576 735.238281,611.230835 719.575500,632.915222 
	C717.349731,635.996704 717.507751,637.822754 720.218750,640.437439 
	C737.119141,656.737915 753.851440,673.212524 770.674866,689.593079 
	C773.818909,692.654236 776.048767,696.042358 775.084473,700.632507 
	C773.388000,708.707886 764.517700,711.938293 757.938416,706.829346 
	C755.582214,704.999695 753.519531,702.784729 751.370422,700.696777 
	C735.843445,685.611450 720.232971,670.609741 704.888977,655.340271 
	C701.733032,652.199646 699.567932,652.953735 696.372437,654.912903 
	C660.195618,677.091919 615.174500,671.767700 585.380432,641.888184 
	C581.370117,637.866333 577.977844,633.330566 574.597656,628.335815 
M702.895020,541.607605 
	C687.187561,521.589355 667.140015,511.563141 641.257690,514.240967 
	C608.150452,517.666199 581.564026,547.939148 581.941650,581.113159 
	C582.398560,621.240540 619.317627,653.689880 660.247253,646.316956 
	C707.345947,637.832886 732.351074,583.542725 702.895020,541.607605 
z"/>
<path fill="#000000" opacity="1.000000" stroke="none" 
	d="
M498.213043,388.093536 
	C518.665833,388.140808 538.643677,388.168030 558.621155,388.253265 
	C565.045776,388.280670 569.328186,392.445831 569.338928,398.851074 
	C569.390015,429.344482 569.385681,459.838043 569.339783,490.331482 
	C569.329407,497.232574 565.883423,500.326324 558.567627,500.347565 
	C527.744690,500.437042 496.921722,500.524109 466.098785,500.618530 
	C461.035309,500.634064 456.725311,496.797211 456.664337,491.643524 
	C456.455597,473.998108 456.605255,456.347168 456.271576,438.704895 
	C456.048187,426.892761 457.056061,415.091736 456.169586,403.273773 
	C455.355408,392.419647 458.913574,388.771576 469.793732,388.587769 
	C479.108582,388.430420 488.423187,388.260406 498.213043,388.093536 
M538.383423,409.337524 
	C534.897461,409.343079 531.410706,409.394958 527.925720,409.340332 
	C524.791504,409.291168 523.345520,410.824341 523.352600,413.883575 
	C523.365723,419.527313 523.409546,425.171295 523.370056,430.814667 
	C523.351379,433.488556 524.490112,434.796539 527.236633,434.770813 
	C532.879578,434.717987 538.523682,434.785278 544.166748,434.738464 
	C547.191711,434.713379 548.701233,433.177094 548.667908,430.064636 
	C548.611145,424.753296 548.558838,419.438202 548.698792,414.129822 
	C548.782654,410.950256 547.327332,409.528900 544.311096,409.424255 
	C542.652710,409.366699 540.992371,409.365479 538.383423,409.337524 
M548.665161,468.440979 
	C548.646179,465.446014 548.591919,462.450714 548.617432,459.456146 
	C548.647461,455.935638 547.028564,454.302399 543.435303,454.378174 
	C538.612488,454.479858 533.780457,454.492065 528.961304,454.308777 
	C524.839905,454.151978 523.237427,456.067780 523.316101,460.004395 
	C523.412476,464.828003 523.528076,469.663696 523.295410,474.477753 
	C523.070007,479.142761 524.922668,480.806030 529.535522,480.152618 
	C532.310547,479.759552 535.182678,480.031677 538.011108,480.040405 
	C548.631470,480.073181 548.631470,480.078644 548.665161,468.440979 
M494.274872,434.812317 
	C501.568695,434.668304 502.034271,434.431030 502.399414,427.383850 
	C502.630402,422.925476 502.135864,418.432739 502.054413,413.953827 
	C501.996582,410.773315 500.190369,409.472504 497.305634,409.430237 
	C491.989075,409.352264 486.670654,409.373474 481.353180,409.396210 
	C478.686737,409.407623 477.397339,410.928680 477.374207,413.482330 
	C477.324554,418.965546 477.304688,424.450348 477.382507,429.932922 
	C477.427460,433.101837 479.017700,434.841003 482.361359,434.794312 
	C486.016388,434.743225 489.672913,434.802399 494.274872,434.812317 
M501.967163,476.155762 
	C502.145233,470.864105 502.543427,465.600586 502.205353,460.269928 
	C501.952789,456.287506 500.493713,454.450043 496.587402,454.467621 
	C491.615814,454.489990 486.643707,454.462769 481.672760,454.528168 
	C478.802795,454.565918 477.448364,456.326324 477.397217,458.993988 
	C477.292328,464.463593 477.325623,469.936432 477.347290,475.407745 
	C477.359161,478.404572 478.775909,479.996613 481.927948,479.965851 
	C487.067596,479.915680 492.208435,480.002258 497.348541,479.979858 
	C499.451019,479.970673 501.361206,479.537323 501.967163,476.155762 
z"/>
</svg>