<?xml version="1.0" encoding="utf-8"?>
<!-- Generator: Adobe Illustrator 28.0.0, SVG Export Plug-In . SVG Version: 6.00 Build 0)  -->
<svg version="1.1" id="Layer_1" xmlns="http://www.w3.org/2000/svg" xmlns:xlink="http://www.w3.org/1999/xlink" x="0px" y="0px"
	 viewBox="0 0 1920 1024" style="enable-background:new 0 0 1920 1024;" xml:space="preserve">
<style type="text/css">
	.st0{fill:#F1D169;}
	.st1{fill:#83CDED;}
	.st2{fill:#F2CC49;}
	.st3{fill:#60C2EA;}
	.st4{fill:#EEBF18;}
	.st5{fill:#FFFFFE;}
	.st6{fill:#D9EEF5;}
	.st7{fill:#6BC5EB;}
	.st8{fill:#EFF6F5;}
	.st9{fill:#F2D167;}
	.st10{fill:#F2D16A;}
	.st11{fill:#FCE9AF;}
	.st12{fill:#FCEFBE;}
</style>
<path class="st0" d="M701.1,541c0-7-0.1-14.1,0.2-21.8c0.2-2.5,0-4.3-0.2-6.2c0-5-0.1-10.1,0.2-15.7c0.1-1.2,0-1.7-0.2-2.3
	c0-3.1-0.1-6.1,0.2-9.7c0.1-1.1,0-1.7-0.2-2.3c0-0.8-0.1-1.5,0.2-2.9c0.1-2.1,0-3.6-0.2-5.1c0-1.1-0.1-2.2,0.2-3.8
	c0.1-1.1,0-1.6-0.2-2.2c0-1.7-0.1-3.5,0.2-5.8c0.1-1.5,0-2.3-0.2-3.2c0-3.1-0.1-6.1,0.2-9.9c0.2-3.2,0-5.7-0.2-8.1
	c0-4.1-0.1-8.1,0.2-12.9c0.2-4.5,0-8.3-0.2-12.1c0-11-0.1-22.1,0.2-33.7c0.1-1.2,0-1.7-0.2-2.3c0-20-0.1-40.1,0.2-60.8
	c0.1-1.8,0-3-0.2-4.2c0-12-0.1-24.1,0.2-36.8c0.2-2.5,0-4.3-0.2-6.2c0-3.4-0.1-6.8,0.2-10.7c0.1-1.1,0-1.7-0.2-2.3
	c0-4.7-0.1-9.4,0.2-14.9c0.4-4.6,0.5-8.4,0.6-12.2c2-12,10.6-20.5,24.2-23c115.9,0.1,230.9,0.1,346,0.1c0,0-0.1,0,0,0.3
	c0.7,0.4,1.3,0.6,1.9,0.8c5.2,5.3,10.4,10.6,15.6,16c1.4,1.4,2.7,2.9,4.1,4.3c5,5.1,10.3,10.1,15.1,15.5c4.7,5.2,8.9,10.9,13.6,16.1
	c8.9,9.8,18.1,19.5,27.5,29.7c0.6,0.8,0.9,1.1,1.2,1.4c0,0,0-0.1,0,0.3c1,1.1,2.1,1.9,3.1,2.6c0,0,0,0.1,0,0.3
	c0.3,0.4,0.6,0.6,0.9,0.8c0,0-0.1,0,0,0.2c0.4,0.4,0.7,0.6,1,0.8c0,0-0.1,0-0.1,0.3c0.4,0.8,0.7,1.2,1.1,1.7c0,0-0.1,0,0,0.3
	c0.4,0.4,0.7,0.6,1,0.7c0,0-0.1,0.1-0.1,0.4c0.3,3.2,0.9,6,0.9,8.7c0.1,46.4,0.1,92.9-0.1,139.3c0,4.1-1.7,8.2-2.7,12.3
	c-1.3,5.4-2.7,10.9-4,16.3c0.1,0,0.1,0.1-0.3,0.1c-1.3,1.1-2.1,2.2-3.8,4.4c-0.5-3.1-0.8-5-1.1-7c-0.4-2.8-0.7-5.7-1-9
	c0-48.1,0-95.8,0-143.4c0-2-0.7-4.1-1-6.1c0,0,0,0.1-0.1-0.3c-1.9-0.8-3.7-1.6-5.5-1.6c-18.1-0.1-36.2-0.1-54.8-0.1
	c-3.6-0.8-7-1.1-9.9-2.4c-9.3-4.2-13.2-12.5-15.3-22c0.4-21.7,0.5-43.1,0.5-64.5c0-0.7-0.6-1.4-0.9-2.1c0,0,0,0.1-0.1-0.3
	c-1.5-0.9-3-1.7-4.5-1.7c-106.7-0.1-213.3-0.1-320,0c-2.5,0-5,1.3-7.6,2c-0.2,0-0.5,0-0.8,0.1c-0.5,0.4-0.7,0.7-1,0.9
	c0,0,0.1,0-0.3,0c-0.8,0.4-1.3,0.7-1.7,1c0,0,0.1,0-0.2,0c-0.8,0.3-1.3,0.7-1.8,1c0,0,0.1,0-0.2,0.1c-0.4,0.4-0.6,0.7-0.8,0.9
	c0,0,0.1,0-0.2,0.1c-0.4,0.7-0.6,1.3-0.8,1.9c0,0,0.1,0-0.2,0.1c-0.4,0.4-0.6,0.7-0.8,0.9c0,0,0.1,0-0.2,0.1
	c-0.4,0.7-0.6,1.3-0.8,1.9c0,0,0,0-0.3,0.2c-0.8,3.1-1.7,6.1-1.7,9c-0.1,77.5-0.1,155-0.1,232.5c0,79.5,0,159,0.1,238.5
	c0,2.6,1.3,5.2,2,7.8c0,0,0-0.1,0,0.3c0.3,1.1,0.7,1.9,1,2.7c0,0,0-0.1,0,0.2c0.3,0.4,0.7,0.6,1.3,0.9c1.7,1.6,3.2,3,4.8,4.7
	c1.1,0.6,2,0.9,2.9,1.1c0-0.1,0.1-0.1,0.2,0.2c2.7,0.9,5.2,1.8,7.8,1.8C848,734,961,734,1073.9,734c7.7,0,9,1.4,8,9
	c-0.2,1.3-0.7,2.6-1.5,3.9C964.3,747,848.5,747,732.8,747c-1.9,0-3.8,0.6-5.7,0.9c-12.2-1.9-20.7-8.4-24.6-20.9
	c-0.3-2.4-0.8-4.2-1.4-6c-0.1-5.4-0.1-10.8,0.2-16.8c0.1-2.2,0-3.7-0.2-5.2c0-0.5-0.1-0.9,0.2-1.9c0.1-2.1,0-3.6-0.2-5.1
	c0-4-0.1-8.1,0.2-12.8c0.1-1.8,0-3-0.2-4.2c0-4-0.1-8.1,0.2-12.8c0.1-1.5,0-2.4-0.2-3.2c0-11.7-0.1-23.4,0.2-35.8
	c0.1-1.5,0-2.4-0.2-3.2c0-1.1-0.1-2.2,0.2-3.9c0.2-4.5,0-8.3-0.2-12c0-1.4-0.1-2.8,0.2-4.9c0.1-1.8,0-3-0.2-4.1
	c0-9.4-0.1-18.8,0.2-28.7c0.1-1.2,0-1.7-0.2-2.3c0-4-0.1-8.1,0.2-12.8c0.2-2.5,0-4.3-0.2-6.1c0-0.5-0.1-0.9,0.2-1.9
	C701.4,542.1,701.2,541.6,701.1,541 M1075,289.5c1.6,5.9,5.8,9.1,10.9,11.8c0.6,0.2,1.1,0.6,1.7,0.6c14.9,0,29.9,0.1,44.8,0
	c1.2,0,2.4-0.7,3.3-1.6c-5.7-6.2-11.4-12.4-17-18.7c-4.1-4.5-8.2-9-12.2-13.6c-5.8-6.5-11.6-13-17.4-19.5c-2.1-2.3-4-4.8-6.3-6.9
	c-2.7-2.5-5.7-4.6-9.2-7c-0.2,0.2-0.5,0.5-0.5,0.7c0,16.8,0,33.6,0.1,50.4C1073.1,286.8,1074.1,287.8,1075,289.5z"/>
<path class="st1" d="M1247,364c1.9,1.8,3.8,3.6,5.7,5.8c0.1,0.7,0.3,0.9,0.4,1.2c0,0-0.1,0,0,0.3c0.4,0.4,0.7,0.6,1,0.8
	c0,0-0.1,0-0.1,0.4c2,7.8,4.4,15.1,1.1,23c-2.1,5.1-3.4,10.6-5.1,15.9c0,0,0,0.4-0.3,0.7c-0.8,2.2-1.2,4.1-1.7,6.1
	c0,0,0.1,0.2,0.2,0.7c3.3,1.7,6.6,3,9.9,4.2c0,0,0,0.1,0.1,0.3c0.4,0.4,0.7,0.6,0.9,0.7c0,0-0.1,0,0,0.4c-0.3,4.5-0.6,8.6-1,12.7
	c0,0-0.1,0-0.3,0.1c-1.1,3.7-2,7.2-2.9,10.7c0,0.2,0.1,0.4,0.2,1.2c5.1,2.4,10.1,4.1,15.1,5.9c0,0-0.1,0,0,0.2
	c0.4,0.4,0.7,0.6,1,0.8c0,0-0.1,0-0.1,0.4c2.4,6.7-1.2,11.9-2.9,17.5c-2,6.4-4,12.8-6,19.3c0,0,0-0.1-0.3,0.1
	c-0.7,0.9-1.2,1.6-1.5,2.4c-8.6,23.9-17.3,47.7-25.8,71.7c-1.8,5-2.9,10.1-4.4,15.2c-0.5,1.1-0.9,2.2-2,3.4c-3.8,0.5-7,0.9-10.2,1.2
	c0,0,0.1,0,0-0.3c-0.4-0.4-0.7-0.6-1-0.8c0,0,0.1,0,0.1-0.4c0.5-3.5,0.6-6.7,1.6-9.6c2.3-6.9,4.9-13.7,7.4-20.6
	c8.5-23.6,17.1-47.1,25.5-70.7c1.3-3.7,1.7-7.7,2.6-11.6c0.4-2.7,0.8-5.5,1.1-8.7c-1.9-1.8-3.6-4.8-6.2-1.3c0,0,0,0-0.4,0.1
	c-1.1,1.5-2.1,2.8-2.6,4.3c-6.5,18.1-12.9,36.3-19.5,54.4c-14,38.7-28,77.4-42,116.1c-7.3,20-14.5,40-22,59.9
	c-1.1,2.8-3.1,5.4-5.1,7.8c-2.7,3.3-5.6,6.4-8.7,9.6c-0.5,0.3-0.7,0.6-1.1,0.9c-0.8,0.7-1.2,1.3-2,2.1c-8,7.5-15.9,14.8-23.5,22.3
	c-3.3,3.3-6.1,7.1-9.2,10.6c0,0-0.1-0.1-0.4,0c-0.7,0.7-1.2,1.4-1.6,2c0,0-0.1,0-0.3,0.1c-0.4,0.5-0.6,0.9-0.7,1.2
	c-0.5,0.5-0.9,1-1.9,1.6c-1.1,0.4-1.6,0.8-2.1,1.1c0,0,0-0.1-0.3,0c-3.4,1.3-6.5,2.6-9.6,3.9c-0.5,0-1.1,0-1.9-0.5
	c-0.9-0.5-1.5-0.5-2.1-0.5c-1.3-0.9-2.7-1.9-4.1-3.4c-0.4-0.9-0.7-1.2-1-1.5c0,0,0.1,0,0.1-0.4c-0.7-7.3-1.7-14.2-1.9-21.1
	c-0.2-6.6,0.7-13.2,0.8-19.9c0.1-12.8,0-25.6,0.1-38.5c0-1.8,0.1-3.7,0.7-5.4c10.7-30.2,21.6-60.3,32.3-90.5
	c11.7-32.8,23.3-65.6,34.8-98.5c3.1-8.7,5.9-17.6,8.9-26.4c3.5-9.9,7.2-19.6,10.6-29.5c2.7-8,5-16.1,7.6-24.1c0,0,0,0.1,0.3,0.1
	c1.1-0.7,1.9-1.4,2.6-2.1c0,0,0,0,0.4,0.1c3.5,0.7,6.7,1.6,9.9,1.8c1.3,0.1,3.4-1.1,4-2.3c2.4-5.5,4.4-11.1,6.4-16.7
	c0.3-0.7-0.3-1.8-0.4-2.6c1.4-2.9,2.8-5.8,4.7-8.8c0.7-0.5,0.9-0.9,1.2-1.4c0,0,0,0.1,0.3,0c0.4-0.4,0.6-0.7,0.8-1c0,0,0,0.1,0.2,0
	c0.4-0.4,0.6-0.7,0.8-1c0,0,0,0.1,0.2,0c0.4-0.4,0.6-0.7,0.8-1c0,0,0,0.1,0.2,0c0.4-0.4,0.6-0.7,0.8-1c0,0,0,0.1,0.3,0.1
	c0.8-0.4,1.2-0.7,1.7-1c0,0,0,0.1,0.2,0c0.4-0.4,0.6-0.7,0.8-1c0,0,0,0.1,0.3,0.1c1.4-0.7,2.6-1.4,3.7-2.1c0,0,0,0.1,0.4,0.1
	c5.8,0.1,11.2-0.1,16.5,0.2c2.4,0.1,4.8,1.1,7.2,1.7c0,0-0.1,0,0,0.2c0.4,0.4,0.7,0.6,1,0.8c0,0-0.1,0,0,0.2
	C1246.4,364.2,1246.7,364.1,1247,364 M1120.4,724.8c0.2-0.3,0.4-0.6,0.6-0.8c0,0-0.1,0,0.4-0.2c0.2-0.3,0.4-0.6,0.6-0.8
	c0,0-0.1,0,0.4-0.2c0.2-0.3,0.4-0.6,0.7-1.3c0.2-0.2,0.4-0.4,1.2-0.6c0.2-0.3,0.4-0.7,0.8-1.4c0.2-0.2,0.4-0.4,1.2-0.6
	c0.2-0.3,0.4-0.7,0.9-1.6c4.9-5,9.8-10,15.2-15.2c0,0,0.4-0.1,0.9,0c0.2-0.3,0.4-0.7,0.8-1.6c-0.7-0.5-1.4-1-2.1-1.5
	c0,0,0.1,0-0.3-0.5c-1.6-0.7-3.1-1.4-5-2.8c-0.9-0.2-1.8-0.4-2.7-0.6c0,0-0.1,0-0.3-0.6c-2.7-1.2-5.2-2.6-8-3.6
	c-8.2-2.7-16.5-5.3-24.7-7.9c0,0,0,0.1-0.2-0.3c-0.3,0.1-0.6,0.2-1.4,0.3c-0.2,0-0.4,0-1.3,0.2c-0.4,0.5-1,1-1,1.5
	c-0.1,16.9-0.1,33.7,0,50.6c0,2.6,1.1,5.1,2.1,8.1c1.3-1.1,2.6-2.3,3.8-3.4c0,0,0,0.1,0.5-0.1c0.3-0.3,0.5-0.6,1.4-1
	c2.2-2,4.5-4,7.3-6.1c0.2-0.3,0.5-0.6,0.7-0.8c0,0-0.1,0,0.4-0.2c0.2-0.3,0.4-0.6,0.6-0.8c0,0-0.1,0,0.4-0.2
	c0.2-0.3,0.4-0.6,0.6-0.8c0,0-0.1,0,0.4-0.2c0.2-0.3,0.4-0.6,0.6-0.8c0,0-0.1,0,0.4-0.2c0.2-0.3,0.4-0.6,0.6-0.8c0,0-0.1,0,0.4-0.2
	c0.2-0.3,0.4-0.6,0.6-0.8c0,0-0.1,0,0.4-0.2c0.2-0.3,0.4-0.6,0.6-0.8c0,0-0.1,0,0.4-0.2c0.2-0.3,0.4-0.6,0.6-0.8
	C1120,725,1119.9,725,1120.4,724.8 M1220,379c0,0,0.1,0-0.5,0.3c-0.2,0.6-0.3,1.2-0.5,1.7c0,0,0.1,0-0.5,0.3c-0.2,0.6-0.3,1.2-1.1,2
	c-0.5,1.6-0.9,3.1-1.9,5.1c-0.1,0.9-0.3,1.8-1.1,2.9c-0.8,2.6-1.6,5.1-2.9,8c-0.2,0.6-0.3,1.1-1.1,2.1c-0.1,0.9-0.3,1.7-0.9,2.9
	c0.5,0.5,1,1.1,1.8,2.3c2.6,0.8,5.2,1.5,7.7,2.4c0,0,0-0.1,0.4,0.5c0.9,0.2,1.8,0.3,2.6,0.5c0,0,0-0.1,0.3,0.6
	c3.3,1.3,6.6,2.7,9.9,3.9c0.4,0.1,1.2-1,1.9-1.9c0.1-0.3,0.2-0.5,1.3-0.8c0.9-2.6,1.7-5.2,3.3-8.1c1.2-3.9,2.3-7.7,3.6-12.4
	c1.2-4.8,1.6-9.4-2.4-13.8c-0.2-0.3-0.4-0.4-1.1-1.1c-3.4-1.1-6.8-2.2-10.9-3.3c-0.6,0.3-1.2,0.7-1.8,1c0,0,0.1,0-0.6,0
	c-0.5,0.3-0.9,0.7-1.4,1c0,0,0.1,0-0.4,0.2c-0.2,0.3-0.4,0.6-0.8,1.4c-0.5,0.5-1.1,0.9-2.1,1.5C1220.4,378.5,1220.2,378.8,1220,379
	 M1147.5,536.4c-0.1,0.9-0.3,1.8-1.1,2.9c-1.1,3.6-2.2,7.1-3.9,11.1c-0.1,0.9-0.3,1.8-1,3c-1.1,3.2-2.3,6.5-3.5,10.2
	c0,0-0.1,0.5-0.6,0.9c-0.1,0.9-0.2,1.7-0.4,2.5c0,0,0.1,0-0.5,0.4c-0.2,0.9-0.3,1.8-0.5,2.6c0,0,0.1,0-0.6,0.3
	c-1.1,3.6-2.3,7.2-3.9,11.1c-0.1,0.9-0.3,1.8-1.1,2.9c-1.1,3.6-2.2,7.1-3.9,11.1c-0.1,0.9-0.3,1.8-1.1,2.9c-1.5,4.6-2.9,9.1-5,14
	c-1.4,4.6-2.9,9.2-4.4,13.7c0,0,0.1,0-0.5,0.4c-0.2,0.9-0.3,1.8-0.5,2.6c0,0,0.1,0-0.4,0.3c0.1,0.6,0.2,1.1,0.1,2.4
	c-4.3,11.9-8.5,23.9-12.9,36c3.3,1.6,6.1,2.9,9.3,4.7c0.6,0.2,1.2,0.4,1.8,0.6c0,0,0-0.1,0.4,0.5c2.9,0.8,5.7,1.6,9,3
	c0.9,0.1,1.8,0.3,2.9,1.1c2.6,0.8,5.1,1.6,8.1,2.9c0.9,0.1,1.8,0.3,3,1c2.6,0.8,5.1,1.6,7.6,2.4c0,0,0-0.1,0.4,0.5
	c0.9,0.1,1.8,0.3,2.6,0.5c0,0,0-0.1,0.4,0.5c1.5,0.5,3.1,1,4.7,1.8c0.1,0.1,0.2,0.1,0.3,0.2c-0.1-0.1-0.2-0.3-0.4-0.8
	c0,0,0-0.4,0.6-0.8c0.9-2.8,1.9-5.6,3.3-9c0.7-1.8,1.5-3.7,2.2-5.5c3.9-10.3,7.9-20.7,12.4-31.5c0.2-0.9,0.4-1.9,0.6-2.8
	c0,0-0.1,0,0.6-0.3c0.8-2.6,1.6-5.2,3-8c2.4-7.2,4.9-14.5,7.9-22.1c0.1-0.9,0.3-1.8,1.1-2.9c1.1-3.6,2.2-7.1,4-11
	c0.8-2.6,1.6-5.1,2.9-8c0.2-0.6,0.3-1.1,1.1-2.1c0.8-2.9,1.6-5.7,2.9-9c0.1-0.9,0.3-1.8,1-3c1.1-3.5,2.3-7.1,4.1-10.9
	c1.4-4.6,2.9-9.1,5-14c1.1-3.6,2.2-7.1,3.9-11.1c0.1-0.9,0.3-1.8,1.1-2.9c0.8-2.6,1.6-5.1,3-8c1.9-4.9,4.1-9.7,5.8-14.7
	c2.7-8,5-16,8.2-24.4c0.4-1.9,0.9-3.8,2-6c0.8-2.6,1.6-5.1,2.9-8c0.2-0.6,0.3-1.1,1.1-2.1c0.5-1.9,0.9-3.7,2-6
	c0.1-0.9,0.3-1.8,1.1-2.9c0.8-2.6,1.6-5.2,2.4-7.7c0,0-0.1,0,0.4-0.2c-0.1-0.6-0.2-1.1-0.1-2.4c1.9-5.4,3.9-10.9,6-16.8
	c-2.6-0.7-4.8-1.3-7.5-2.4c-15.2-5.4-30.3-10.8-46.1-15.9c-0.2,0.6-0.4,1.2-0.6,1.7c0,0,0.1,0-0.5,0.4c-0.2,0.9-0.3,1.8-0.5,2.6
	c0,0,0.1,0-0.5,0.4c-0.1,0.9-0.3,1.8-0.5,2.6c0,0,0.1,0-0.5,0.3c-0.2,0.6-0.3,1.2-0.5,1.7c0,0,0.1,0-0.5,0.4
	c-1.8,5.9-3.6,11.7-6,17.9c-0.2,0.6-0.3,1.1-1.1,2.1c-1.1,3.9-2.2,7.8-3.4,11.6c0,0,0.1,0-0.5,0.4c-0.2,0.9-0.3,1.8-0.5,2.6
	c0,0,0.1,0-0.6,0.3c-1.8,5.3-3.6,10.6-5.4,16.3c0,0-0.1,0.4-0.6,0.9c-0.1,0.9-0.2,1.7-0.4,2.5c0,0,0.1,0-0.5,0.3
	c-0.2,0.6-0.3,1.2-0.5,1.7c0,0,0.1,0-0.5,0.4c-1.5,4.9-3,9.7-5,15c-0.1,0.9-0.3,1.8-1,3c-1.8,5.5-3.6,11.1-6,17
	c-0.1,0.9-0.3,1.8-1.1,2.9c-1.1,3.6-2.2,7.1-3.9,11.1c-0.1,0.9-0.3,1.8-1,3C1148.3,534.3,1148.2,535.2,1147.5,536.4z"/>
<path class="st2" d="M1080.9,746.8c0.4-1.3,0.9-2.5,1-3.8c1-7.6-0.3-9-8-9c-113,0-225.9,0-338.9-0.1c-2.5,0-5.1-0.9-7.3-1.8
	c4-0.3,7.6-0.2,11.3-0.2c114.9,0,229.9,0,344.8,0.5c0,5.5,0,10.6-0.1,15.7c0,0-0.4,0-0.8-0.3C1082.1,747.2,1081.5,747,1080.9,746.8z
	"/>
<path class="st3" d="M1083.9,748.4c0-5.4,0-10.5,0-16.5c0-18.9,0-36.9,0.1-54.9c0-2.4,0.3-5,1.1-7.3c13.1-37,26.3-73.9,39.5-110.8
	c7.1-19.9,13.9-39.9,21-60.1c2.3-6.7,4.5-13.2,6.7-19.6c0,0,0-0.1,0.2-0.3c3.1-9,6-17.9,8.8-26.8c3.5-9.3,7.1-18.6,10.6-27.9
	c2.9-7.6,5.6-15.3,8.7-23.1c-2.2,7.8-4.6,15.9-7.3,23.9c-3.4,9.9-7.1,19.6-10.6,29.5c-3.1,8.8-5.9,17.6-8.9,26.4
	c-11.6,32.8-23.2,65.7-34.8,98.5c-10.7,30.2-21.6,60.3-32.3,90.5c-0.6,1.7-0.7,3.6-0.7,5.4c-0.1,12.8,0.1,25.6-0.1,38.5
	c-0.1,6.6-1,13.2-0.8,19.9c0.2,6.9,1.2,13.8,1.8,21.1C1085.9,753,1084.9,750.9,1083.9,748.4z"/>
<path class="st0" d="M1157.9,730.9c-4.6,4.7-9.3,9.4-14.7,14.1c-7.9,0.6-15,1.2-22,1.6c0.7-1.4,1.2-2.6,1.7-3.7c0,0.1-0.1,0,0.3,0
	c1.1-1,1.9-2,2.7-3c0,0-0.1,0,0.2-0.1c0.4-0.4,0.6-0.7,0.8-0.9c0,0-0.1,0,0.3,0c2.1-1.7,3.8-3.4,5.6-5c0.1,0.1-0.1-0.1,0.2-0.1
	c0.8-0.7,1.3-1.3,1.7-2c0,0,0-0.1,0.3,0c2.5-2,4.6-4,6.7-6c0,0.1-0.1,0,0.2,0c1.2-1.6,2-3.3,2.9-4.8c0,0-0.1,0,0.3,0
	c1.1-1,1.9-2,2.7-3c0,0.1-0.1,0,0.3,0c1.1-1,1.9-2,2.7-3.1c0,0-0.1,0,0.3,0c0.8-0.7,1.3-1.3,1.7-2c0,0-0.1,0,0.3,0
	c0.8-0.4,1.2-0.8,1.7-1.2c0,0-0.1,0.1,0.2,0c0.4-0.4,0.6-0.7,0.8-0.9c0,0.1-0.1,0,0.2-0.1c0.4-0.4,0.6-0.7,0.8-0.9
	c0.1,0.1-0.1,0,0.2-0.1c0.4-0.4,0.6-0.7,0.6-1.1c-0.1-0.1,0-0.4,0.3,0c0.5,6,0.8,11.7,1.1,17.4c0,0,0-0.1-0.3,0.1
	c-0.4,1.1-0.6,2-0.7,2.9c0,0,0-0.1-0.2,0C1157.7,729.8,1157.8,730.4,1157.9,730.9z"/>
<path class="st3" d="M1149,715c2.8-3.2,5.8-6.2,8.5-9.5c1.9-2.4,4-5,5.1-7.8c7.5-19.9,14.8-39.9,22-59.9c14-38.7,28.1-77.4,42-116.1
	c6.5-18.1,13-36.3,19.5-54.4c0.5-1.5,1.5-2.8,2.6-4.3c-15.3,43.4-30.9,86.9-46.6,130.4c-12.3,33.9-24.6,67.8-37,101.7
	c-1.1,3.1-2.7,6.1-4.5,9.6c-1.3,1.5-2.1,2.5-2.9,3.6c0,0-0.1,0.3-0.3,0.3c-0.3,0.4-0.5,0.8-0.6,1.2c0,0,0.1,0.1-0.3-0.1
	c-0.5,0.3-0.6,0.7-0.8,1c0,0,0.1,0.1-0.3,0c-0.5,0.3-0.6,0.7-0.8,1c0,0,0.1-0.1-0.3-0.2c-0.8,0.3-1.2,0.8-1.7,1.3
	c0,0,0.1,0.1-0.2,0.1c-0.8,0.7-1.3,1.3-1.8,1.8c0,0,0.1,0-0.2,0.1c-0.5,0.3-0.8,0.5-1.2,0.5C1149.3,715.3,1149,715,1149,715z"/>
<path class="st4" d="M1080.5,746.9c1,0.1,1.6,0.3,2.3,0.8c-61,0.3-122.2,0.4-183.3,0.4c-57.2,0-114.3,0-171.9-0.1
	c1.4-0.4,3.3-0.9,5.2-0.9C848.5,747,964.3,747,1080.5,746.9z"/>
<path class="st2" d="M1161.2,451.6c-2.8,9.4-5.6,18.3-8.8,27.3c1-5.3,2.4-10.7,3.8-16.1c1-4.1,2.7-8.2,2.7-12.3
	c0.2-46.4,0.1-92.9,0.1-139.3c0-2.8-0.6-5.6-0.9-8.8c1,3.5,2.8,7.4,2.8,11.3c0.2,44,0.1,87.9,0.2,131.9
	C1161,447.3,1161.1,449.2,1161.2,451.6z"/>
<path class="st4" d="M1071.8,209.7C957,210,841.9,210,726.4,210c1.2-0.4,2.9-1,4.6-1c111.9-0.1,223.7-0.1,335.6,0
	C1068.2,208.9,1069.8,209.2,1071.8,209.7z"/>
<path class="st3" d="M1253.9,473.4c-0.7,3.6-1.1,7.6-2.4,11.3c-8.4,23.6-17,47.2-25.5,70.7c-2.5,6.9-5.2,13.7-7.4,20.6
	c-1,2.9-1.1,6.1-1.6,9.7c-0.3-2.2-1.6-5.1-0.8-7.3c11.9-33.6,24-67,36-100.5C1252.7,476.5,1253.3,475.1,1253.9,473.4z"/>
<path class="st3" d="M1230.4,582.1c1.2-4.8,2.3-10,4.1-14.9c8.5-23.9,17.2-47.8,25.8-71.7c0.3-0.8,0.8-1.5,1.5-2.4
	c-3.3,10.5-6.7,21.2-10.5,31.8C1244.5,544,1237.5,562.9,1230.4,582.1z"/>
<path class="st3" d="M1113.4,751.1c2.7-3.5,5.5-7.3,8.8-10.6c7.6-7.5,15.4-14.8,23.6-22.2c0.5,0,0.8,0.4,0.6,0.6
	c-0.7,0.8-1.1,1.4-1.6,2c0,0,0.1,0.1-0.3,0.1c-1.2,1.6-2.1,3.2-2.9,4.7c0,0,0.1,0.1-0.2-0.1c-2.5,1.9-4.6,3.9-6.7,6c0,0,0,0.1-0.3,0
	c-0.8,0.7-1.2,1.4-1.7,2.1c0,0,0.1,0.2-0.2,0c-2.1,1.6-3.9,3.3-5.7,5.1c0,0,0.1,0.1-0.2,0.1c-0.4,0.3-0.6,0.6-0.8,0.9
	c0,0,0.1,0-0.2,0.1c-1.1,1-2,1.9-2.8,2.9c0,0,0.1,0.1-0.2,0.2c-1.5,1.3-2.7,2.6-4.1,3.9c-0.5,0.3-0.7,0.6-0.7,0.9
	C1116.4,748.9,1115.1,750,1113.4,751.1z"/>
<path class="st3" d="M1262.3,492.9c1.7-6.2,3.7-12.6,5.7-19.1c1.7-5.6,5.3-10.8,3-17.5c0.6,2.5,2.4,5.7,1.7,8.2
	C1269.8,474.1,1266.1,483.3,1262.3,492.9z"/>
<path class="st3" d="M1204,379.4c0.3,0.6,0.8,1.6,0.6,2.3c-2,5.6-4,11.3-6.4,16.7c-0.5,1.2-2.6,2.4-4,2.3c-3.2-0.2-6.4-1.1-9.9-1.8
	c1.5-0.4,3.5-1.1,5.3-1c2.1,0.1,4.1,1,6.6,1.7C1198.8,392.9,1201.3,386.3,1204,379.4z"/>
<path class="st3" d="M1250.4,411.1c1.4-5.1,2.6-10.6,4.8-15.7c3.3-7.9,0.9-15.2-1.1-23c4.7,5.8,5.1,12.9,3.3,19.9
	C1255.7,398.6,1252.9,404.6,1250.4,411.1z"/>
<path class="st2" d="M1158,708.7c0.6-1.4,1.4-2.4,2.5-3.6c-0.1,6.8-0.4,13.7-1.1,20.8C1158.8,720.4,1158.5,714.7,1158,708.7z"/>
<path class="st3" d="M1244.9,362.7c-2.2-0.3-4.5-1.3-6.9-1.5c-5.4-0.3-10.8-0.2-16.6-0.2C1229.1,357,1237,358.1,1244.9,362.7z"/>
<path class="st4" d="M1118.1,748c-0.3-0.4-0.1-0.7,0.8-1c1.1-0.1,1.6-0.1,2.2-0.1c7.1-0.6,14.2-1.3,21.8-1.9
	c-3.7,1-7.9,2.4-12.1,2.9C1126.7,748.4,1122.6,748,1118.1,748z"/>
<path class="st3" d="M1269.9,454.7c-4.8-1.5-9.8-3.2-14.8-5.3C1259.9,450.8,1264.8,452.6,1269.9,454.7z"/>
<path class="st3" d="M1258.4,436.9c0-4,0.3-8.1,0.7-12.6c0.6,2.1,1.7,4.6,1.7,7.2C1260.8,433.2,1259.5,435,1258.4,436.9z"/>
<path class="st3" d="M1255,447.6c0.7-3.2,1.6-6.7,2.8-10.4C1257.1,440.4,1256.1,443.8,1255,447.6z"/>
<path class="st3" d="M1258.1,422.6c-3.3-0.9-6.5-2.1-9.9-3.7C1251.4,419.7,1254.7,421,1258.1,422.6z"/>
<path class="st3" d="M1096.5,761c2.7-1.3,5.8-2.6,9.2-3.9C1103,758.4,1099.9,759.7,1096.5,761z"/>
<path class="st3" d="M1218.1,587.4c3-0.7,6.2-1,9.8-1.3C1225.6,590.4,1222.1,589.7,1218.1,587.4z"/>
<path class="st2" d="M701.6,233.2c0.2,3.6,0.1,7.4-0.2,11.5C701.1,241.1,701.2,237.3,701.6,233.2z"/>
<path class="st2" d="M701,417.5c0.2,3.3,0.4,7.1,0.3,11.2C701,425.3,701,421.6,701,417.5z"/>
<path class="st2" d="M701,604.5c0.2,3.3,0.4,7.1,0.3,11.2C701,612.3,701,608.6,701,604.5z"/>
<path class="st3" d="M1249.4,463c2.2-3.5,3.9-0.4,5.6,1.1C1253.1,463.8,1251.4,463.4,1249.4,463z"/>
<path class="st2" d="M701.1,721.4c0.6,1.4,1.1,3.2,1.3,5.3C701.8,725.2,701.4,723.5,701.1,721.4z"/>
<path class="st3" d="M1248.1,417.7c0.4-1.6,0.8-3.5,1.5-5.5C1249.4,413.8,1248.8,415.6,1248.1,417.7z"/>
<path class="st2" d="M701,442.5c0.2,2,0.4,4.5,0.3,7.2C701,447.6,701,445.3,701,442.5z"/>
<path class="st2" d="M1154.1,296.6c-0.9-0.5-2-1.2-3-2.3C1152.1,294.7,1153,295.5,1154.1,296.6z"/>
<path class="st2" d="M701,273.5c0.2,1.4,0.4,3.2,0.3,5.3C701,277.3,701,275.6,701,273.5z"/>
<path class="st2" d="M701,513.5c0.2,1.4,0.4,3.2,0.3,5.3C701,517.3,701,515.6,701,513.5z"/>
<path class="st2" d="M701,545.5c0.2,1.4,0.4,3.2,0.3,5.3C701,549.3,701,547.6,701,545.5z"/>
<path class="st3" d="M1220.6,360.9c-0.8,0.7-1.9,1.4-3.4,2.1C1218,362.3,1219.2,361.6,1220.6,360.9z"/>
<path class="st2" d="M701,699.4c0.2,1.1,0.4,2.6,0.3,4.3C701,702.6,701,701.2,701,699.4z"/>
<path class="st2" d="M701,692.4c0.2,1.1,0.4,2.6,0.3,4.3C701,695.6,701,694.2,701,692.4z"/>
<path class="st2" d="M701,475.4c0.2,1.1,0.4,2.6,0.3,4.3C701,478.6,701,477.2,701,475.4z"/>
<path class="st3" d="M1183.6,398.9c-0.4,0.8-1.2,1.5-2.3,2.1C1181.7,400.2,1182.5,399.5,1183.6,398.9z"/>
<path class="st3" d="M1111.4,753c0.1-0.6,0.6-1.3,1.4-2C1112.6,751.7,1112.1,752.3,1111.4,753z"/>
<path class="st2" d="M701,595.4c0.2,0.8,0.4,2,0.3,3.3C701,597.9,701,596.9,701,595.4z"/>
<path class="st2" d="M701,675.4c0.2,0.8,0.4,2,0.3,3.3C701,677.9,701,676.9,701,675.4z"/>
<path class="st2" d="M701,316.4c0.2,0.8,0.4,2,0.3,3.3C701,318.9,701,317.9,701,316.4z"/>
<path class="st2" d="M701,620.4c0.2,0.5,0.4,1.4,0.3,2.4C701,622.2,701,621.5,701,620.4z"/>
<path class="st2" d="M701,659.4c0.2,0.5,0.4,1.4,0.3,2.4C701,661.2,701,660.5,701,659.4z"/>
<path class="st2" d="M701,460.4c0.2,0.5,0.4,1.4,0.3,2.4C701,462.2,701,461.5,701,460.4z"/>
<path class="st2" d="M1158.4,728.9c-0.2-0.7,0-1.6,0.4-2.7C1159,726.9,1158.8,727.8,1158.4,728.9z"/>
<path class="st3" d="M1092.4,760c0.3-0.1,0.9-0.1,1.5,0.2C1093.5,760.4,1093.1,760.3,1092.4,760z"/>
<path class="st4" d="M1073.9,210.7c-0.5,0.1-1.1,0-1.8-0.5C1072.6,210.1,1073.2,210.2,1073.9,210.7z"/>
<path class="st3" d="M1215.7,363.9c-0.2,0.4-0.6,0.7-1.4,1.1C1214.4,364.6,1214.9,364.2,1215.7,363.9z"/>
<path class="st3" d="M1106.3,757.1c0.2-0.4,0.7-0.7,1.5-1.1C1107.7,756.4,1107.2,756.8,1106.3,757.1z"/>
<path class="st2" d="M1157.2,300.6c-0.5-0.2-0.8-0.6-1.1-1.4C1156.5,299.4,1156.9,299.9,1157.2,300.6z"/>
<path class="st2" d="M1158,730.6c-0.2-0.3-0.3-0.8-0.1-1.5C1158.1,729.5,1158.1,729.9,1158,730.6z"/>
<path class="st2" d="M701,260.4c0.2,0.2,0.3,0.8,0.3,1.5C701,261.5,701,261.1,701,260.4z"/>
<path class="st2" d="M701,381.4c0.2,0.2,0.3,0.8,0.3,1.5C701,382.5,701,382.1,701,381.4z"/>
<path class="st2" d="M701,564.4c0.2,0.2,0.3,0.8,0.3,1.5C701,565.5,701,565.1,701,564.4z"/>
<path class="st2" d="M701,541.4c0.2,0.2,0.3,0.8,0.3,1.5C701,542.5,701,542.1,701,541.4z"/>
<path class="st2" d="M701,469.4c0.2,0.2,0.3,0.8,0.3,1.5C701,470.5,701,470.1,701,469.4z"/>
<path class="st2" d="M701,483.4c0.2,0.2,0.3,0.8,0.3,1.5C701,484.5,701,484.1,701,483.4z"/>
<path class="st2" d="M701,495.4c0.2,0.2,0.3,0.8,0.3,1.5C701,496.5,701,496.1,701,495.4z"/>
<path class="st3" d="M1209.7,369c0,0.4-0.3,0.8-0.7,1.1C1209,369.6,1209.2,369.3,1209.7,369z"/>
<path class="st3" d="M1246,363.7c-0.2,0.1-0.5-0.1-0.9-0.5C1245.3,363.1,1245.7,363.2,1246,363.7z"/>
<path class="st3" d="M1271,455.7c-0.2,0.1-0.5-0.1-0.9-0.6C1270.3,455.1,1270.6,455.3,1271,455.7z"/>
<path class="st3" d="M1246.8,363.9c0,0.2-0.3,0.3-0.7,0.2C1246,363.9,1246.5,363.8,1246.8,363.9z"/>
<path class="st3" d="M1212.7,366c0.1,0.2-0.1,0.5-0.5,0.9C1212.1,366.7,1212.3,366.4,1212.7,366z"/>
<path class="st3" d="M1110.3,754.2c-0.1-0.2,0.1-0.6,0.5-1.1C1110.9,753.4,1110.7,753.7,1110.3,754.2z"/>
<path class="st3" d="M1087,755.4c0.3,0,0.6,0.3,0.9,0.9C1087.6,756.3,1087.3,756,1087,755.4z"/>
<path class="st3" d="M1213.7,365c0.1,0.2-0.1,0.5-0.6,0.9C1213.1,365.7,1213.3,365.4,1213.7,365z"/>
<path class="st3" d="M1254,371.7c-0.2,0.1-0.5-0.1-0.9-0.5C1253.3,371.1,1253.6,371.3,1254,371.7z"/>
<path class="st3" d="M1253.1,370.7c-0.2,0-0.3-0.3-0.3-0.6C1253,370,1253.1,370.5,1253.1,370.7z"/>
<path class="st3" d="M1217,586.3c0.2-0.1,0.5,0.1,0.9,0.6C1217.7,586.9,1217.4,586.7,1217,586.3z"/>
<path class="st3" d="M1216.7,363c0.1,0.2-0.1,0.5-0.5,0.9C1216.1,363.7,1216.3,363.4,1216.7,363z"/>
<path class="st2" d="M1158.1,301.7c-0.2,0.1-0.5-0.1-0.9-0.5C1157.4,301.1,1157.7,301.2,1158.1,301.7z"/>
<path class="st3" d="M1210.7,368c0.1,0.2-0.1,0.5-0.6,0.9C1210.1,368.7,1210.3,368.4,1210.7,368z"/>
<path class="st2" d="M1156,298.7c-0.2,0.1-0.5-0.1-0.9-0.5C1155.3,298.1,1155.6,298.3,1156,298.7z"/>
<path class="st3" d="M1259.1,423.6c-0.3,0.1-0.6,0-1-0.5C1258.4,423.1,1258.8,423.2,1259.1,423.6z"/>
<path class="st2" d="M1155,297.7c-0.2,0.1-0.5-0.1-0.9-0.5C1154.3,297.1,1154.7,297.3,1155,297.7z"/>
<path class="st2" d="M1151.1,293.6c-0.3,0-0.6-0.2-0.9-0.8C1150.4,292.8,1150.7,293,1151.1,293.6z"/>
<path class="st3" d="M1211.7,367c0.1,0.2-0.1,0.5-0.5,0.9C1211.1,367.7,1211.3,367.4,1211.7,367z"/>
<path class="st5" d="M1145.5,499.1c-6.9,19.9-13.8,39.9-20.8,59.8c-13.1,37-26.4,73.9-39.5,110.8c-0.8,2.3-1.1,4.9-1.1,7.3
	c-0.1,18-0.1,36-0.2,54.4C968.9,732,854,732,739,732c-3.7,0-7.3-0.1-11.4-0.2c-0.5,0-0.5,0-0.7-0.2c-1.1-0.5-1.9-0.9-2.8-1.2
	c-1.5-1.4-3-2.8-4.8-4.6c-0.6-0.6-0.9-0.8-1.2-0.9c0,0-0.1,0,0-0.3c-0.3-1.1-0.7-1.9-1-2.7c0,0,0,0.1,0-0.4c0-2.5-0.1-4.5-0.1-6.5
	c0-160.3,0.1-320.7,0.1-481c0,0-0.1,0,0.3,0c0.5-0.7,0.6-1.3,0.7-2c0,0-0.1,0,0.2,0c0.5-0.3,0.6-0.7,0.8-1c0,0-0.1,0,0.2-0.1
	c0.5-0.7,0.6-1.3,0.8-1.9c0,0-0.1,0,0.3,0.1c0.5-0.3,0.6-0.7,0.7-1c0,0-0.1,0,0.3,0.1c0.8-0.3,1.3-0.7,1.8-1.1c0,0-0.1,0,0.2,0
	c0.8-0.3,1.3-0.7,1.8-1c0,0-0.1,0,0.2-0.1c0.5-0.3,0.7-0.6,1-0.9c0,0,0.4,0,1,0.1c3,0,5.3-0.1,7.6-0.1c69.9,0,139.8,0,209.7,0
	c38.1,0,76.2,0.1,114.3,0.1c0,0,0.1-0.1,0,0.3c0,22.4,0.1,44.4,0.2,66.4c2.4,9.3,6.3,17.5,15.6,21.7c2.9,1.3,6.3,1.6,10.1,2.7
	c18.6,0.4,36.6,0.5,54.5,0.7c1.9,0,3.8,0.7,5.7,1.1c0,0,0-0.1,0,0.4c0,2.5,0,4.4,0,6.4c0.1,47.7,0.1,95.4,0.1,143.5
	C1145.2,479,1145.3,489,1145.5,499.1 M781,680c0,0,0-0.1-0.4,0.1c-0.3,0.2-0.4,0.4-0.7,1.4c-3.1,3.7-0.5,6.6,1.9,10.1
	c0.4,0.2,0.8,0.4,1.2,0.5c0,0-0.1,0,0.6,0.6c1.5,0.2,2.9,0.5,4.4,0.5c47.8,0,95.6,0,143.4-0.1c1.7,0,3.5-0.7,5.9-0.9
	c3.5-2.2,4.9-5.1,2.8-9.8c-0.3-0.5-0.7-0.9-1.1-1.3c0,0,0.1,0,0.2-0.7c-0.7-0.4-1.5-0.9-2.2-1.3c0,0,0.1,0,0.1-0.6
	c-0.4-0.2-0.8-0.3-1.1-0.4c0,0,0.1,0-0.5-0.6c-0.7-0.1-1.3-0.3-2-0.3c-48.6,0-97.3,0-145.9,0c-1.2,0-2.5,0.6-3.6,0.9
	c0,0,0-0.1-0.6-0.1c-0.5,0.4-1,0.7-1.4,1.1c0,0,0-0.1-0.5,0.1C781.3,679.4,781.1,679.7,781,680 M792,353c0,0-0.1,0-0.7-0.1
	c-0.1,0.4-0.2,0.7-0.3,1.1c0,0,0-0.1-0.7-0.3c-0.5,0.4-1,0.9-1.4,1.3c0,0,0-0.1-0.5,0.1c-0.2,0.3-0.3,0.6-0.4,0.9c0,0,0-0.1-0.6,0.1
	c-0.2,0.3-0.3,0.6-0.4,0.9c0,0-0.1,0-0.7,0.2c-0.1,0.6-0.3,1.2-0.3,1.9c0,0-0.1-0.1-0.8,0.1c0.2,2.3,0.5,4.7,0.7,6.9
	c0,0-0.1,0,0.1,0.6c0.3,0.2,0.6,0.3,0.9,0.4c0,0,0,0.1,0.3,0.8c1.9,0.4,3.7,1.2,5.6,1.2c6.7,0.1,13.4,0.1,20.1,0c0,0-0.1,0,0.1,1
	c0,23.4,0,46.9,0.1,70.3c0,2.3,1.2,4.6,1.8,6.8c0,0-0.1,0.1,0,0.6c0.3,0.1,0.7,0.3,1,0.4c0,0-0.1,0-0.1,0.6c0.3,0.1,0.7,0.3,1.1,0.4
	c0,0-0.1,0.1,0.3,0.8c1.6,0.4,3.1,1.2,4.7,1.2c50,0,100,0,150.7,0c0.5,0,0.9-0.1,2.1,0c1.4-0.7,2.9-1.3,4.3-2c0,0,0,0.1,0.6-0.1
	c0.2-0.3,0.3-0.6,0.4-0.9c0,0,0.1,0,0.7-0.2c0.4-1,0.8-1.9,1.3-3.8c0.1-25,0.1-50,0.6-75c0,0,0.4-0.1,1.3,0c3.5,0,7,0.1,10.5,0
	c4.2-0.2,8.4-0.6,12.6-1c0,0,0,0.1,0.7,0c0.3-0.3,0.6-0.6,1.5-1.2c2.1-3.6,2.8-6.9-0.7-10.2c-2.4-2.2-4.3-5-6.8-7.1
	c-7.3-6.3-14.8-12.4-22.2-18.6c-22.2-18.4-44.3-36.7-66.9-55.2c0,0-0.5,0.1-0.6,0.2c0,0,0.1,0,0.1-0.7c-0.7-0.5-1.3-1.1-2.1-2
	c-0.2-0.2-0.4-0.3-1.1-0.9c-0.6-0.2-1.2-0.3-1.7-0.5c0,0,0-0.1,0-0.7c-0.7-0.5-1.3-1.1-2.2-2c-0.2-0.2-0.4-0.3-1.2-0.9
	c-3.5-2-7-4.3-10.8-0.4c0,0,0-0.1-0.7-0.3c-0.5,0.4-0.9,0.8-1.4,1.3c0,0,0-0.1-0.6,0c-0.3,0.3-0.5,0.6-1.3,1.4
	c-3.1,2.4-6.3,4.8-9.3,7.3c-16.4,13.8-32.9,27.6-49.2,41.4c-12.6,10.7-25.1,21.5-38.2,32.6C792.2,352.2,792.1,352.6,792,353
	 M940.7,623.1c0.8-0.7,1.5-1.4,2.8-2.3c0.2-0.3,0.3-0.6,1.2-1c0.6-2.2,1.9-4.6,1.5-6.6c-1.2-5.1-5.3-6.1-10.1-6.1
	c-52.3,0.1-104.6,0.1-156.9,0.1c-1.2,0-2.3-0.1-3.5,0.1c-3.8,0.6-6.5,2.7-7.4,6.5c-0.9,3.5,0.2,6.6,3.7,8.3c0,0-0.1-0.1,0.5,0.6
	c2.1,0.2,4.3,0.6,6.4,0.6c32.1,0,64.2,0.1,96.3,0C896.8,623.2,918.4,623.1,940.7,623.1 M773,512c0,0-0.1,0,0.4,0.8
	c1.2,0.1,2.3,0.3,3.5,0.3c104,0,208,0,312.1,0c1.7,0,3.5-0.7,5.1-1c0,0,0,0.1,0.5-0.1c0.1-0.3,0.3-0.6,0.7-1.5
	c3.6-5.3,3.4-6.5-2.6-12.1c-1.7-0.1-3.3-0.3-5-0.3c-103.3,0-206.6,0-309.8,0c-1.7,0-3.4,0.7-5.7,1.4c-4.7,3.5-3.7,7.5-0.9,12.4
	C771.8,511.8,772.4,511.9,773,512 M771.3,554.1c-0.2,0.4-0.4,0.8-0.5,1.4c0,0,0.2,0-0.5,0.5c-3.7,4.6-2.4,10,3.2,12.2
	c1.7,0.6,3.6,0.8,5.4,0.8c102.5,0,204.9,0,307.4,0c2,0,4.6,0.3,5.8-0.8c2.3-2.1,4.8-4.8,5.3-7.6c0.3-1.9-2.7-4.3-4.3-6.5
	c0,0,0,0-0.2-0.8c-1.6-0.4-3.1-1.1-4.7-1.1c-103.5-0.1-207-0.1-310.5,0c-1.9,0-3.9,1.2-5.8,1.9C772,554,772,553.9,771.3,554.1z"/>
<path class="st5" d="M1086.2,300.8c-5.4-2.1-9.6-5.3-11.3-12c-0.2-8.9-0.1-17-0.2-25.2c-0.1-9.6-0.3-19.2-0.5-28.8
	c2.9,2.3,5.9,4.4,8.6,6.9c2.3,2.1,4.2,4.5,6.3,6.9c5.8,6.5,11.6,13,17.4,19.5c4.1,4.5,8.1,9.1,12.2,13.6c5.7,6.2,11.4,12.5,16.7,19
	C1118.8,300.9,1102.5,300.8,1086.2,300.8z"/>
<path class="st2" d="M716.8,234.3c0.3,160.1,0.3,320.5,0.2,480.8c0,2,0.1,4,0.1,6.5c-0.7-2.1-2-4.7-2-7.3
	c-0.1-79.5-0.1-159-0.1-238.5c0-77.5,0-155,0.1-232.5C715.1,240.3,716,237.4,716.8,234.3z"/>
<path class="st2" d="M1058.9,224.7c-38.1,0.4-76.2,0.3-114.3,0.3c-69.9,0-139.8,0-209.7,0c-2.3,0-4.7,0.1-7.5,0.1c2-0.7,4.5-2,7-2
	c106.7-0.1,213.3-0.1,320,0C1055.9,223.1,1057.3,223.9,1058.9,224.7z"/>
<path class="st4" d="M1145.2,468c-0.1-47.7-0.1-95.4-0.2-143c0-2,0-4-0.1-6.5c0.3,1.6,1,3.6,1,5.7c0.1,47.7,0,95.3-0.2,143.4
	C1145.6,468,1145.2,468,1145.2,468z"/>
<path class="st4" d="M1073.8,234.7c0.4,9.6,0.6,19.2,0.8,28.8c0.1,8.1,0.1,16.2,0.1,24.8c-0.5-0.6-1.6-1.6-1.6-2.6
	c-0.1-16.8-0.1-33.6-0.1-50.4C1073,235.2,1073.4,234.9,1073.8,234.7z"/>
<path class="st2" d="M1145.1,468.4c0.1-0.5,0.5-0.4,0.7-0.4c0.5,2.9,0.8,5.7,1.2,8.6c0.3,2,0.6,4,1.1,7c1.7-2.2,2.6-3.3,3.8-4.4
	c-1.8,6.5-4,12.9-6.3,19.6C1145.3,489,1145.2,479,1145.1,468.4 M1147.9,486.8c-0.1-0.6-0.1-1.3-0.2-1.9c-0.2,0-0.4,0.1-0.7,0.1
	C1147.2,485.7,1147.3,486.5,1147.9,486.8z"/>
<path class="st4" d="M1059.4,291.6c-0.4-21.7-0.5-43.7-0.5-66.2c0.4,0.2,1,0.9,1,1.7C1059.9,248.5,1059.8,269.9,1059.4,291.6z"/>
<path class="st4" d="M1144.9,317.7c-1.8,0-3.6-0.7-5.5-0.7c-18-0.2-35.9-0.2-54.1-0.7c17.9-0.4,36-0.4,54.1-0.3
	C1141.2,316.1,1143,316.9,1144.9,317.7z"/>
<path class="st4" d="M1086,301.1c16.4-0.2,32.7-0.2,49.5-0.1c-0.7,0.3-1.9,1-3.2,1c-14.9,0.1-29.9,0.1-44.8,0
	C1087,301.9,1086.4,301.6,1086,301.1z"/>
<path class="st2" d="M724.2,730.8c0.8,0,1.6,0.3,2.7,0.9C726.1,731.7,725.2,731.4,724.2,730.8z"/>
<path class="st2" d="M717,722.3c0.4,0.4,0.8,1.2,1.1,2.4C717.7,724.2,717.4,723.4,717,722.3z"/>
<path class="st2" d="M717.8,232.2c0.2,0.5,0,1.1-0.4,1.8C717.2,233.5,717.4,232.9,717.8,232.2z"/>
<path class="st2" d="M724.8,226.1c-0.2,0.3-0.7,0.7-1.4,1C723.5,226.8,724,226.4,724.8,226.1z"/>
<path class="st2" d="M722.8,227.1c-0.2,0.4-0.6,0.8-1.4,1.1C721.5,227.7,722,227.4,722.8,227.1z"/>
<path class="st2" d="M719.8,229.2c0.1,0.4,0,1-0.5,1.7C719.2,230.5,719.4,229.9,719.8,229.2z"/>
<path class="st2" d="M718.1,725.1c0.3-0.1,0.6,0.1,0.9,0.5C718.7,725.7,718.4,725.6,718.1,725.1z"/>
<path class="st2" d="M718.9,231.1c0.1,0.3-0.1,0.6-0.5,1C718.2,231.8,718.4,231.5,718.9,231.1z"/>
<path class="st2" d="M720.8,228.1c0.1,0.3,0,0.7-0.5,1C720.2,228.8,720.4,228.5,720.8,228.1z"/>
<path class="st2" d="M726,225.1c0.1,0.2-0.2,0.5-0.7,0.9C725.2,225.8,725.5,225.5,726,225.1z"/>
<path class="st6" d="M1142,702.2c-4.9,5-9.8,10-15.1,15.5c-0.6,0.7-0.9,1-1.1,1.3c-0.3,0-0.5,0.2-1,0.8c-0.6,0.6-0.8,0.9-1,1.2
	c-0.3,0.1-0.5,0.2-0.9,0.8c-0.5,0.6-0.7,0.9-0.9,1.2c0,0,0.1,0-0.2,0.1c-0.4,0.4-0.6,0.6-0.8,0.9c0,0,0.1,0-0.2,0.1
	c-0.4,0.4-0.6,0.6-0.8,0.9c0,0,0.1,0-0.2,0.1c-0.4,0.4-0.6,0.6-0.8,0.9c0,0,0.1,0-0.2,0.1c-0.4,0.4-0.6,0.6-0.8,0.9
	c0,0,0.1,0-0.2,0.1c-0.4,0.4-0.6,0.6-0.8,0.9c0,0,0.1,0-0.2,0.1c-0.4,0.4-0.6,0.6-0.8,0.9c0,0,0.1,0-0.2,0.1
	c-0.4,0.3-0.6,0.6-0.8,0.9c0,0,0.1,0-0.2,0.1c-0.4,0.3-0.6,0.6-0.8,0.9c0,0,0.1,0-0.2,0.1c-0.4,0.3-0.6,0.6-0.8,0.9
	c0,0,0.1,0-0.2,0.1c-0.5,0.3-0.8,0.6-1,0.9c-2.2,2-4.5,4-7.3,6.1c-0.9,0.4-1.1,0.7-1.4,1c0,0,0-0.1-0.4-0.1c-0.8-0.6-1.5-1-1.5-1.5
	c-0.4-16.9-0.8-33.8-1-50.7c0-1,1.9-1.9,3-2.8c0,0-0.1,0,0.1,0.3c1.1,0.4,2,0.6,2.8,0.8c0,0,0-0.1,0.2,0.3c1.2,0.4,2.2,0.6,3.3,0.7
	c0.2,0,0.5,0.1,0.5,0.5c1.4,0.8,2.7,1.2,4,1.6c0,0,0,0,0.2,0.2c1.1,0.4,2,0.6,2.8,0.8c0,0,0-0.1,0.1,0.2c0.7,0.4,1.3,0.6,1.9,0.8
	c0,0,0,0,0.2,0.3c2.1,0.8,3.9,1.2,5.8,1.7c0,0,0,0,0.2,0.2c1.1,0.4,2,0.6,2.8,0.8c0,0,0,0,0.2,0.3c4.7,1.8,9.3,3.3,13.9,4.7
	c0,0-0.1,0-0.1,0.4C1142,700.5,1142,701.4,1142,702.2z"/>
<path class="st6" d="M1239.1,377c0.3,0.1,0.6,0.2,0.8,1.2c0.5,5.5,0.8,10.4,1.2,15.4c0,0.1-0.1,0.4-0.4,0.5
	c-0.4,0.7-0.5,1.4-0.6,2.4c-0.2,0.7-0.5,1.2-1.1,1.8c-1.3,2.8-2.1,5.6-3,8.4c0,0.1,0,0.4-0.4,0.4c-2.4,4-5.1,4.2-9,2.5
	c-3-1.3-6.6-1.6-9.8-2.4c0,0,0.1,0-0.1-0.3c-3.5-1.9-4.9-3.9-2.6-7.5c0.7-1.1,0.5-2.8,0.7-4.3c0,0,0,0,0.3-0.2
	c1.1-3.1,1.9-6,2.7-8.8c0,0-0.1,0,0.2-0.1c0.4-1.1,0.5-2,0.7-3.3c0.1-0.7,0.1-1.1,0.2-1.6c0,0-0.1,0,0.2-0.1
	c0.5-0.4,0.7-0.6,1.3-0.9c1-0.2,1.9-0.1,2.2-0.5c3.8-4.4,8.1-6.1,13.5-2.7C1236.9,377.2,1238.1,376.9,1239.1,377z"/>
<path class="st7" d="M1098.9,743c-0.6-2.5-1.7-5.1-1.7-7.6c-0.2-16.9-0.1-33.7,0-50.6c0-0.5,0.7-1,1.4-1.2
	C1098.9,703.6,1098.9,723.3,1098.9,743z"/>
<path class="st8" d="M1191.3,414c15.2,5.4,30.3,10.8,45.7,16.5c0.2,0.3,0,0.5-0.4,0.5c-2-0.4-3.6-0.7-5.1-1.3
	c-12.9-4.5-25.8-9.1-38.7-13.6c-1,2.1-1.8,3.9-2.6,5.7c-1.8,4.3-3.6,8.7-5.4,12.7c0.7-3.8,1.5-7.1,2.3-10.5c0,0-0.1,0,0.3-0.1
	c0.5-0.7,0.6-1.3,0.8-1.9c0,0-0.1,0,0.2-0.2c0.5-1,0.6-1.9,0.8-2.8c0,0-0.1,0,0.2-0.2c0.5-1,0.6-1.9,0.8-2.8c0,0-0.1,0,0.2-0.1
	C1190.8,415.2,1191,414.6,1191.3,414z"/>
<path class="st8" d="M1110.8,671.8c-2.8-1.3-5.6-2.6-8.9-4.2c4.3-12.1,8.6-24,13-36.6c0.2-1.1,0.2-1.5,0.2-2c0,0-0.1,0,0.2-0.2
	c0.5-1,0.6-1.9,0.8-2.8c0,0-0.1,0,0.1,0c0.2,0,0.6-0.1,0.9,0.1c-1.2,5.1-2.4,10-4.1,14.8c-2.9,8.6-6,17.1-9.1,25.8
	c1.3,0.6,2.1,1.1,3,1.5c4.6,2,9.3,4,13.5,6.1c-2.7-0.4-5.1-0.8-7.4-1.3c0,0,0,0.1-0.1-0.3C1112.1,672.1,1111.5,672,1110.8,671.8z"/>
<path class="st8" d="M1099,743.2c-0.2-19.9-0.2-39.6-0.1-59.8c0.2-0.5,0.4-0.5,1.1-0.4c0.5,0,1,0.1,1,0.1s0-0.1,0.2,0.2
	c0.8,0.7,1.4,1.1,2,1.6c-1,1-3,1.9-3,2.9c0.2,16.9,0.6,33.8,1,50.7c0,0.5,0.7,1,1.5,1.6C1101.8,741.2,1100.5,742.3,1099,743.2z"/>
<path class="st8" d="M1169.8,640.2c-3.9,10.3-7.9,20.7-11.8,31c-0.7,1.8-1.4,3.7-2.5,5.7c-0.3,0.2-0.5,0-0.5-0.4
	c4.1-12,8.1-23.6,12.3-35.1c1.3-3.6,3.3-7,4.9-10.1c-0.4,2.1-0.8,3.8-1.3,5.5c0,0,0.1,0-0.2,0.2
	C1170.2,638.3,1170,639.3,1169.8,640.2z"/>
<path class="st8" d="M1168.9,476c0,0,0.1-0.4,0.4-0.8c2.1-5.7,4-10.9,5.8-16.2c0,0-0.1,0,0.2-0.2c0.5-1,0.6-1.9,0.8-2.8
	c0,0-0.1,0,0.2-0.1c0.7-0.8,1.2-1.4,1.6-1.6c0,1.1,0.2,1.8,0,2.4c-4,11.8-8,23.5-12,35.3c-0.3,0.8-1.3,1.3-2,1.6
	c1.1-4.4,2.2-8.5,3.2-12.5c0,0-0.1,0,0.2-0.1c0.5-0.7,0.6-1.3,0.8-1.9c0,0-0.1,0,0.2-0.2C1168.7,477.8,1168.8,476.9,1168.9,476z"/>
<path class="st7" d="M1226,485c-2.5,8-4.9,16.1-7.5,24c-1.7,5-3.8,9.8-6.2,14.8c-0.4,0.1-0.5,0-0.4-0.3c1.1-4.1,2.2-7.7,3.2-11.4
	c0,0,0,0,0.3-0.1c0.4-0.7,0.5-1.3,0.6-2.1c0-0.2,0.1-0.7,0.4-0.9c1.4-3.8,2.5-7.3,3.6-11.1c0-0.2,0.1-0.7,0.3-0.9
	c0.4-0.8,0.6-1.3,0.8-1.9c0,0,0,0.1,0.3-0.1c0.4-1.1,0.6-2,0.7-2.9c0,0,0,0.1,0.3-0.1c0.8-2.1,1.2-4,1.7-5.8c0,0,0,0,0.3,0
	c0.7-0.4,1.1-0.8,1.5-1.2C1225.9,484.9,1226,485,1226,485z"/>
<path class="st7" d="M1103.1,684.9c-0.6-0.5-1.2-0.9-2-1.6c8.1,2.4,16.4,4.9,24.6,7.6c2.7,0.9,5.3,2.4,7.7,3.9
	c-2-0.1-3.7-0.5-5.4-0.9c0,0,0,0.1-0.2-0.2c-1-0.5-1.9-0.6-2.8-0.8c0,0,0,0.1-0.2-0.3c-2-0.8-3.9-1.3-5.8-1.7c0,0,0,0.1-0.1-0.3
	c-0.7-0.5-1.3-0.6-1.9-0.8c0,0,0,0.1-0.2-0.2c-1-0.5-1.9-0.6-2.8-0.8c0,0,0,0.1-0.2-0.2c-1.4-0.8-2.6-1.2-3.9-1.7
	c0,0-0.3-0.1-0.7-0.3c-1.4-0.4-2.3-0.6-3.2-0.8c0,0,0,0.1-0.2-0.2c-1-0.5-1.9-0.6-2.8-0.8C1103,684.9,1103.1,684.9,1103.1,684.9z"/>
<path class="st8" d="M1237.2,430.7c2.3,0.5,4.5,1.1,7.1,1.8c-2.1,5.9-4.1,11.3-6.2,17.4c-0.2,1.1-0.2,1.5-0.2,2c0,0,0.1,0-0.2,0.1
	c-0.7,0.8-1.2,1.4-1.6,1.6c1.9-6.9,3.8-13.4,5.7-19.8c-1.8-1.1-3.3-2-4.8-2.9C1237,431,1237.2,430.8,1237.2,430.7z"/>
<path class="st8" d="M1238.9,376.7c-0.8,0.2-2,0.6-2.7,0.1c-5.4-3.4-9.7-1.7-13.5,2.7c-0.4,0.4-1.2,0.4-2.2,0.3
	c-0.4-0.2-0.4-0.7-0.4-0.7s-0.1,0,0.2-0.1c0.5-0.3,0.7-0.6,0.9-0.9c0.5-0.5,1.1-0.9,2-1.7c0.5-0.7,0.7-1,0.9-1.3c0,0-0.1,0,0.3,0
	c0.8-0.3,1.3-0.7,1.7-1c0,0-0.1,0,0.3,0c1-0.3,1.6-0.6,2.2-1C1231.9,374.2,1235.3,375.3,1238.9,376.7z"/>
<path class="st7" d="M1182,607c-2.4,7.2-4.9,14.5-7.7,21.8c-0.4,0.1-0.4,0.1-0.4-0.3c0.4-1.7,0.8-3.1,1.2-4.6c0.1-0.2,0-0.5,0.3-0.8
	c0.4-1.2,0.6-2.1,0.7-3.1c0,0,0,0,0.3-0.1c1.4-4.1,2.6-8,3.7-11.8c0,0,0,0,0.3,0c0.7-0.4,1.1-0.8,1.5-1.2
	C1181.9,606.9,1182,607,1182,607z"/>
<path class="st8" d="M1216.9,407.1c3.3,0.8,6.8,1,9.9,2.4c3.9,1.7,6.6,1.5,8.9-2.1c-0.2,1.7-0.6,3.1-1.1,4.5
	c-0.3,0.1-0.4,0.4-0.9,0.9c-4.2-0.8-7.9-1.9-11.6-2.9c0,0,0,0.1-0.2-0.2c-1-0.4-1.9-0.6-2.8-0.8c0,0,0,0.1-0.1-0.2
	C1218.1,408,1217.5,407.6,1216.9,407.1z"/>
<path class="st8" d="M1155.3,677.2c-0.8,2.9-1.8,5.7-3.4,8.6c-2.1-0.2-3.5-0.6-4.9-1c0,0,0,0.1-0.2-0.2c-1-0.5-1.9-0.6-2.8-0.8
	c0,0,0,0.1-0.1-0.2c-0.8-0.7-1.4-1.1-1.6-1.6c6,1.9,10.9,2.2,12.7-5.1C1155,677,1155.2,677.2,1155.3,677.2z"/>
<path class="st7" d="M1186.8,424.2c-0.5,3.2-1.2,6.5-2,10.3c0.1,0.4,0.1,0.4-0.2,0.5c-0.4,0.7-0.6,1.3-0.7,1.9c0,0,0-0.1-0.3,0.1
	c-0.4,1.1-0.6,2-0.7,2.8c0,0,0,0-0.3,0.1c-0.7,0.8-1,1.5-1.5,2.1c0,0-0.1-0.1-0.1-0.1C1182.8,436.2,1184.7,430.3,1186.8,424.2z"/>
<path class="st8" d="M1137.9,564c0,0,0.1-0.5,0.3-0.8c0.7-0.7,1.2-1.1,1.6-1c-2,5.8-4,11.2-6.1,16.3c0.8-3.1,1.5-5.8,2.2-8.5
	c0,0-0.1,0,0.2-0.2c0.5-1,0.6-1.9,0.8-2.8c0,0-0.1,0,0.2-0.2C1137.7,565.8,1137.8,564.9,1137.9,564z"/>
<path class="st7" d="M1174.8,459.2c-1.5,5.1-3.3,10.4-5.4,15.8C1170.8,469.9,1172.6,464.6,1174.8,459.2z"/>
<path class="st8" d="M1241.2,393.4c-0.4-4.9-0.8-9.8-1.1-15.1c3.8,3.5,3.4,8.1,2,13.6C1241.6,392.8,1241.4,393.1,1241.2,393.4z"/>
<path class="st7" d="M1155,516c1.8-5.5,3.6-11.1,5.7-16.8c0.3-0.2,0.4-0.1,0.4,0.3c-1.5,5.1-2.9,9.7-4.2,14.4c0,0,0,0-0.3,0.1
	c-0.7,0.8-1.1,1.4-1.5,2.1C1155.1,516.1,1155,516,1155,516z"/>
<path class="st7" d="M1166.8,481.2c-0.8,3.8-1.8,7.9-2.9,12.3c0,0.4,0.1,0.4-0.2,0.5c-0.7,0.8-1,1.5-1.5,2.1c-0.1,0-0.2-0.1-0.2-0.1
	C1163.5,491.2,1165,486.3,1166.8,481.2z"/>
<path class="st7" d="M1204,546c-1.4,4.6-2.9,9.1-4.7,13.8c-0.4,0.1-0.4,0.1-0.4-0.3c1.1-4.1,2.2-7.8,3.2-11.5c0,0,0,0,0.3-0.1
	c0.7-0.8,1.1-1.4,1.5-2.1C1203.9,545.9,1204,546,1204,546z"/>
<path class="st7" d="M1121,612c1.5-4.6,2.9-9.1,4.7-13.8c0.4-0.1,0.4-0.1,0.4,0.3c-0.8,3.1-1.5,5.8-2.2,8.5c0,0,0-0.1-0.3,0.1
	c-0.4,1.1-0.6,2-0.7,2.8c0,0,0,0-0.3,0.1c-0.7,0.8-1,1.4-1.5,2.1C1121.1,612.1,1121,612,1121,612z"/>
<path class="st7" d="M1116.8,625.9c0,0-0.4,0.1-0.6,0.2c1.2-4.5,2.7-9.1,4.5-13.9c0.3-0.1,0.4-0.1,0.4,0.3
	c-1.2,4.1-2.4,7.8-3.7,11.6C1117.1,624.9,1117,625.4,1116.8,625.9z"/>
<path class="st8" d="M1128.2,694.2c1.6,0.1,3.3,0.4,5.3,0.9c0.4,0,0.4,0,0.6,0.2c1.1,0.5,1.9,0.8,2.8,1c1.6,0.7,3.1,1.4,4.9,2.3
	C1137.5,697.5,1132.9,696,1128.2,694.2z"/>
<path class="st7" d="M1222.2,410.2c3.6,0.7,7.3,1.8,11.4,2.8c-0.2,0.5-1,1.6-1.4,1.4C1228.9,413.3,1225.6,411.9,1222.2,410.2z"/>
<path class="st7" d="M1177.9,453.8c-0.4,0.6-0.9,1.3-1.6,2.1c0.9-3.7,2-7.6,3.5-11.6c0.4-0.1,0.7,0.1,0.6,0.4
	c-0.6,2.6-1,4.9-1.4,7.2c0,0,0,0-0.3,0.1C1178.2,452.8,1178.1,453.4,1177.9,453.8C1177.9,453.9,1177.9,453.8,1177.9,453.8z"/>
<path class="st7" d="M1241.2,393.6c0.2-0.4,0.5-0.7,0.8-1.3c-1,3.6-2.2,7.5-3.7,11.5c-0.4,0.1-0.4,0.1-0.4-0.3
	c0.6-2.1,1.1-3.7,1.6-5.4c0.2-0.5,0.4-0.9,0.9-1.9c0.4-1,0.5-1.6,0.7-2.2C1241,394,1241.2,393.7,1241.2,393.6z"/>
<path class="st7" d="M1186.9,593c-1.1,3.6-2.2,7.1-3.7,10.8c-0.4,0.1-0.4,0.1-0.4-0.3c0.1-1.4,0.1-2.4,0.2-3.5c0,0,0,0,0.3-0.1
	c0.4-0.7,0.6-1.3,0.7-1.9c0,0,0,0.1,0.3-0.1c0.4-1.1,0.6-2,0.7-2.8c0,0,0,0,0.3-0.1C1186,594.2,1186.4,593.5,1186.9,593
	C1186.9,592.9,1186.9,593,1186.9,593z"/>
<path class="st7" d="M1135.8,570.2c-0.4,2.6-1.1,5.3-1.9,8.4c0,0.4,0.1,0.4-0.2,0.5c-0.7,0.8-1.1,1.4-1.5,2.1c0,0-0.1-0.1-0.1-0.1
	C1133.2,577.5,1134.3,573.9,1135.8,570.2z"/>
<path class="st7" d="M1143,550c1.1-3.6,2.2-7.1,3.7-10.8c0.4-0.1,0.4-0.1,0.4,0.3c-1.3,3.8-2.6,7.2-3.9,10.6
	C1143.1,550.1,1143,550,1143,550z"/>
<path class="st7" d="M1208,535c-1.1,3.6-2.2,7.1-3.7,10.9c-0.3,0.1-0.4,0.1-0.4-0.3c0.7-3.1,1.5-5.8,2.2-8.5c0,0,0,0,0.3-0.1
	c0.7-0.8,1.1-1.4,1.5-2.1C1207.9,534.9,1208,535,1208,535z"/>
<path class="st7" d="M1127,595c1.1-3.6,2.2-7.1,3.7-10.8c0.4-0.1,0.4-0.1,0.4,0.3c-0.8,3.1-1.5,5.8-2.2,8.5c0,0,0-0.1-0.3,0.1
	c-0.6,0.8-1,1.5-1.5,2.1C1127.1,595.1,1127,595,1127,595z"/>
<path class="st7" d="M1150,530c1.1-3.6,2.2-7.1,3.7-10.8c0.4-0.1,0.4-0.1,0.4,0.3c-1.3,3.8-2.6,7.2-4,10.6
	C1150.1,530.1,1150,530,1150,530z"/>
<path class="st7" d="M1198.9,559.9c-1.1,3.6-2.2,7.1-3.7,10.8c-0.3,0.2-0.4,0.1-0.3-0.3c0.4-2.1,0.8-3.8,1.2-5.5c0,0,0,0.1,0.3-0.1
	c0.4-1.1,0.6-2,0.7-2.8c0,0,0,0.1,0.3-0.1c0.7-0.8,1.1-1.4,1.5-2.1C1198.8,559.9,1198.9,559.9,1198.9,559.9z"/>
<path class="st7" d="M1139.9,561.8c-0.4,0.4-0.9,0.7-1.6,1.2c0.9-3.1,2-6.4,3.5-9.8c0.3-0.1,0.4-0.1,0.4,0.3
	C1141.4,556.6,1140.6,559.3,1139.9,561.8C1139.9,561.9,1139.9,561.8,1139.9,561.8z"/>
<path class="st7" d="M1113.2,673.2c2.2,0.1,4.5,0.6,7.3,1c0.4-0.1,0.4-0.1,0.5,0.2c0.4,0.7,0.8,1,1.2,1.5c0,0.1-0.1,0.2-0.1,0.2
	C1119.2,675.2,1116.3,674.3,1113.2,673.2z"/>
<path class="st7" d="M1194,574c-0.8,2.9-1.6,5.7-2.8,8.7c-0.4,0.1-0.6-0.1-0.5-0.4c1.1-3.1,2.1-5.8,3.2-8.4
	C1193.9,573.9,1194,574,1194,574z"/>
<path class="st7" d="M1212,399c0.8-2.6,1.6-5.1,2.7-7.8c0.4-0.1,0.4-0.1,0.4,0.3c-0.1,1.4-0.2,2.4-0.2,3.5c0,0,0.1,0-0.3,0.1
	c-1,1.4-1.7,2.8-2.5,4.1C1212.1,399.1,1212,399,1212,399z"/>
<path class="st7" d="M1236.1,454.2c0.4-0.6,0.9-1.3,1.6-2.1c-0.5,2.4-1.3,5-2.4,7.7c-0.4,0.1-0.4,0.1-0.4-0.3
	C1235.3,457.4,1235.7,455.7,1236.1,454.2C1236.1,454.1,1236.1,454.2,1236.1,454.2z"/>
<path class="st7" d="M1211.9,523.9c-0.7,2.6-1.5,5.2-2.7,7.9c-0.4,0.1-0.4,0.1-0.4-0.3c1-2.8,2-5.2,2.9-7.7
	C1211.8,523.8,1211.9,523.9,1211.9,523.9z"/>
<path class="st7" d="M1133,680c-2.6-0.8-5.1-1.6-7.8-2.7c-0.1-0.4-0.1-0.4,0.3-0.4c2.8,1,5.3,1.9,7.7,2.9
	C1133.1,679.8,1133,680,1133,680z"/>
<path class="st7" d="M1216.9,407.1c0.6,0.5,1.3,0.9,2,1.6c-2.4-0.5-5-1.3-7.7-2.4c-0.1-0.3-0.1-0.4,0.3-0.3
	C1213.5,406.3,1215.2,406.7,1216.9,407.1C1217,407.1,1216.9,407.1,1216.9,407.1z"/>
<path class="st7" d="M1235,411.9c0.1-1.3,0.6-2.7,1.1-4.5c0.1-0.4,0.1-0.6,0.3-1c0.6-1.1,1-1.8,1.5-2.5c0,0,0.1,0,0.1,0.1
	C1237.1,406.6,1236.2,409.2,1235,411.9z"/>
<path class="st7" d="M1190,585c-0.8,2.6-1.6,5.1-2.7,7.8c-0.3,0.1-0.4,0.1-0.4-0.3c1-2.8,1.9-5.3,2.9-7.7
	C1189.9,584.9,1190,585,1190,585z"/>
<path class="st7" d="M1171.2,636.8c0.1-1.6,0.5-3.3,0.9-5.4c0-0.4-0.1-0.4,0.2-0.5c0.7-0.8,1.1-1.4,1.5-2.1c0,0,0.1,0.1,0.1,0.1
	C1173.2,631.5,1172.4,634.1,1171.2,636.8z"/>
<path class="st7" d="M1231,471c-0.8,2.6-1.6,5.1-2.7,7.8c-0.4,0.1-0.4,0.1-0.4-0.3c0.4-2.1,0.8-3.8,1.2-5.5c0,0,0,0,0.3-0.1
	c0.7-0.8,1.1-1.4,1.5-2.1C1230.9,470.9,1231,471,1231,471z"/>
<path class="st7" d="M1141.8,682.1c0.6,0.4,1.3,0.9,2.1,1.5c-2.4-0.5-5-1.3-7.7-2.5c-0.2-0.3-0.1-0.4,0.3-0.4
	C1138.6,681.3,1140.3,681.7,1141.8,682.1C1141.9,682.1,1141.8,682.1,1141.8,682.1z"/>
<path class="st7" d="M1227.9,478.9c-0.4,1.9-0.8,3.8-1.6,5.9c-0.3,0.2-0.4,0.1-0.4-0.3C1226.5,482.4,1227.2,480.6,1227.9,478.9
	C1227.8,478.9,1227.9,478.9,1227.9,478.9z"/>
<path class="st7" d="M1234,463c-0.5,1.9-0.9,3.7-1.8,5.7c-0.4,0.1-0.6,0-0.5-0.4c0.8-2.1,1.4-3.8,2.1-5.5
	C1233.9,462.9,1234,463,1234,463z"/>
<path class="st7" d="M1216,388c0.5-1.6,0.9-3.1,1.7-4.8c0.4-0.1,0.4-0.1,0.4,0.3c-0.1,1.1-0.1,1.8-0.2,2.5c0,0,0.1,0-0.2,0.1
	c-0.7,0.8-1.1,1.4-1.5,2C1216.1,388.1,1216,388,1216,388z"/>
<path class="st7" d="M1147.2,685.2c1.2,0.1,2.6,0.4,4.4,0.9c0.4,0.1,0.4,0.5,0.4,0.7c0,0.2,0,0.2,0,0.2
	C1150.5,686.5,1148.9,686,1147.2,685.2z"/>
<path class="st8" d="M1142.2,702.1c-0.2-0.7-0.2-1.6-0.2-2.8c0.7,0.1,1.4,0.6,1.8,1.5c-0.5,0.6-0.7,0.9-0.9,1.2
	C1142.9,702,1142.4,702,1142.2,702.1z"/>
<path class="st3" d="M1146.2,718.2c0.3-0.8,0.7-1.4,1.7-2c0.5,0.1,0.8,0.4,0.7,0.6c-0.3,0.5-0.5,0.8-0.7,1.1c0,0,0.1,0.1-0.2,0.1
	c-0.5,0.2-0.8,0.4-1,0.7C1146.7,718.7,1146.3,718.3,1146.2,718.2z"/>
<path class="st7" d="M1131.1,584.1c0.1-0.9,0.3-1.8,0.7-2.8c0.3-0.2,0.4-0.1,0.4,0.2C1131.8,582.6,1131.5,583.4,1131.1,584.1
	C1131.2,584.1,1131.1,584.1,1131.1,584.1z"/>
<path class="st7" d="M1215.1,391.1c0.1-0.9,0.2-1.8,0.7-2.8c0.3-0.2,0.4-0.1,0.4,0.3C1215.8,389.6,1215.5,390.4,1215.1,391.1
	C1215.2,391.1,1215.1,391.1,1215.1,391.1z"/>
<path class="st7" d="M1136.8,696c-0.7,0.1-1.6-0.2-2.7-0.7C1134.8,695.3,1135.8,695.5,1136.8,696z"/>
<path class="st7" d="M1210,404c0.1-0.9,0.3-1.7,0.8-2.7c0.4-0.1,0.6,0.1,0.5,0.4c-0.4,1-0.7,1.8-1.1,2.5
	C1210.2,404.1,1210,404,1210,404z"/>
<path class="st7" d="M1211,406c-0.5-0.5-1-1.1-1.2-1.8c0.2-0.2,0.4-0.1,0.5,0.2C1210.6,405.1,1210.8,405.5,1211,406
	C1211.1,405.9,1211,406,1211,406z"/>
<path class="st7" d="M1126.1,598.1c0.1-0.9,0.2-1.8,0.7-2.8c0.3-0.2,0.4-0.1,0.4,0.2c-0.3,1.1-0.6,1.9-1,2.7
	C1126.2,598.1,1126.1,598.1,1126.1,598.1z"/>
<path class="st7" d="M1219.2,409.2c0.7-0.1,1.6,0,2.7,0.5C1221.2,409.8,1220.3,409.6,1219.2,409.2z"/>
<path class="st7" d="M1194.9,570.9c-0.1,0.9-0.3,1.8-0.7,2.8c-0.3,0.2-0.4,0.1-0.4-0.2C1194.2,572.4,1194.5,571.6,1194.9,570.9
	C1194.8,570.9,1194.9,570.9,1194.9,570.9z"/>
<path class="st7" d="M1136.8,567.2c0.1,0.7-0.1,1.6-0.5,2.6C1136.2,569.2,1136.4,568.3,1136.8,567.2z"/>
<path class="st7" d="M1188.8,419.2c0.1,0.7,0,1.6-0.5,2.7C1188.2,421.2,1188.4,420.3,1188.8,419.2z"/>
<path class="st7" d="M1137.7,564.2c0.1,0.7,0,1.5-0.3,2.6C1137.2,566.2,1137.3,565.3,1137.7,564.2z"/>
<path class="st7" d="M1170.1,640c-0.1-0.7,0.1-1.6,0.6-2.8C1170.8,637.9,1170.6,638.8,1170.1,640z"/>
<path class="st7" d="M1125.1,676.9c-0.9-0.1-1.8-0.3-2.8-0.7c-0.2-0.3-0.1-0.4,0.2-0.4C1123.6,676.2,1124.4,676.5,1125.1,676.9
	C1125.1,676.8,1125.1,676.9,1125.1,676.9z"/>
<path class="st7" d="M1115.8,626.2c0.1,0.7,0,1.6-0.5,2.7C1115.2,628.2,1115.4,627.3,1115.8,626.2z"/>
<path class="st7" d="M1136.1,680.9c-0.9-0.1-1.8-0.2-2.9-0.7c-0.2-0.3-0.1-0.4,0.3-0.4c1.1,0.3,1.9,0.6,2.7,1
	C1136.1,680.8,1136.1,680.9,1136.1,680.9z"/>
<path class="st7" d="M1189.8,416.2c0.1,0.7,0,1.6-0.5,2.7C1189.2,418.2,1189.4,417.3,1189.8,416.2z"/>
<path class="st7" d="M1144.2,684.2c0.7-0.1,1.6,0,2.7,0.5C1146.2,684.8,1145.3,684.6,1144.2,684.2z"/>
<path class="st7" d="M1182.9,603.9c-0.1,0.9-0.3,1.8-0.7,2.8c-0.3,0.2-0.4,0.1-0.4-0.2C1182.2,605.4,1182.5,604.7,1182.9,603.9
	C1182.8,603.9,1182.9,603.9,1182.9,603.9z"/>
<path class="st7" d="M1149,533c0.1-0.9,0.3-1.8,0.7-2.8c0.3-0.2,0.4-0.1,0.4,0.2c-0.3,1.1-0.6,1.9-1,2.7
	C1149.1,533.1,1149,533,1149,533z"/>
<path class="st7" d="M1161.1,499.1c0.1-0.9,0.2-1.8,0.7-2.8c0.3-0.2,0.4-0.1,0.4,0.2c-0.3,1.1-0.6,1.9-0.9,2.7
	C1161.2,499.2,1161.1,499.1,1161.1,499.1z"/>
<path class="st7" d="M1168.7,476.2c0.1,0.7,0,1.5-0.4,2.6C1168.2,478.2,1168.3,477.3,1168.7,476.2z"/>
<path class="st7" d="M1154.1,519.1c0.1-0.9,0.2-1.8,0.7-2.8c0.3-0.2,0.4-0.1,0.4,0.2c-0.3,1.1-0.6,1.9-0.9,2.7
	C1154.2,519.1,1154.1,519.1,1154.1,519.1z"/>
<path class="st7" d="M1234.9,459.9c-0.1,0.9-0.2,1.8-0.7,2.8c-0.3,0.2-0.4,0.1-0.4-0.3C1234.2,461.4,1234.5,460.6,1234.9,459.9
	C1234.8,459.9,1234.9,459.9,1234.9,459.9z"/>
<path class="st7" d="M1208.9,531.9c-0.1,0.9-0.3,1.8-0.7,2.8c-0.3,0.2-0.4,0.1-0.4-0.2c0.3-1.1,0.6-1.9,0.9-2.7
	C1208.8,531.9,1208.9,531.9,1208.9,531.9z"/>
<path class="st7" d="M1148.1,536c0.1-0.9,0.3-1.8,0.7-2.8c0.3-0.2,0.4-0.1,0.4,0.2C1148.8,534.6,1148.5,535.3,1148.1,536
	C1148.1,536.1,1148.1,536,1148.1,536z"/>
<path class="st7" d="M1175.8,456.2c0.1,0.7,0,1.6-0.5,2.7C1175.2,458.2,1175.4,457.3,1175.8,456.2z"/>
<path class="st7" d="M1147.1,539.1c0.1-0.9,0.3-1.8,0.7-2.8c0.3-0.2,0.3-0.1,0.3,0.2C1147.8,537.5,1147.5,538.3,1147.1,539.1
	C1147.1,539.1,1147.1,539.1,1147.1,539.1z"/>
<path class="st7" d="M1142.1,553.1c0.1-0.9,0.2-1.8,0.7-2.8c0.3-0.2,0.4-0.1,0.4,0.2c-0.3,1.1-0.6,1.9-0.9,2.7
	C1142.2,553.2,1142.1,553.1,1142.1,553.1z"/>
<path class="st3" d="M1143.1,702c0-0.3,0.2-0.5,0.6-0.9C1143.7,701.3,1143.6,701.6,1143.1,702z"/>
<path class="st7" d="M1180.1,444.1c0-0.7,0.2-1.2,0.7-1.9c0.3-0.1,0.4-0.1,0.4,0.3c-0.2,0.9-0.4,1.4-0.6,2
	C1180.5,444.4,1180.2,444.2,1180.1,444.1z"/>
<path class="st7" d="M1225.8,374.1c-0.2,0.3-0.6,0.7-1.4,1C1224.5,374.7,1225,374.4,1225.8,374.1z"/>
<path class="st7" d="M1219.8,379.2c0.3-0.1,0.3,0.3,0.3,0.6c-0.2,0.5-0.4,0.8-0.9,1.2C1219.2,380.5,1219.4,379.9,1219.8,379.2z"/>
<path class="st7" d="M1218.8,381.2c0.2,0.3,0.2,0.7-0.1,1.5c-0.2,0.4-0.6,0.5-0.6,0.5s0,0-0.1-0.1
	C1218.2,382.5,1218.4,381.9,1218.8,381.2z"/>
<path class="st7" d="M1211.1,401.1c0.1-0.6,0.2-1.2,0.7-1.9c0.3-0.1,0.4-0.1,0.4,0.3c-0.2,0.9-0.4,1.4-0.7,1.9
	C1211.5,401.4,1211.2,401.2,1211.1,401.1z"/>
<path class="st7" d="M1190.9,582.9c-0.1,0.6-0.2,1.2-0.7,1.9c-0.3,0.1-0.4,0.1-0.4-0.3c0.2-0.9,0.4-1.4,0.7-1.9
	C1190.5,582.6,1190.8,582.8,1190.9,582.9z"/>
<path class="st7" d="M1191,414.2c0.1,0.4-0.1,1-0.6,1.8C1190.3,415.5,1190.5,414.9,1191,414.2z"/>
<path class="st7" d="M1111,672.1c0.5-0.1,1.1,0.1,1.9,0.5C1112.4,672.7,1111.8,672.6,1111,672.1z"/>
<path class="st7" d="M1187.8,422.2c0.1,0.5,0,1.1-0.5,1.8C1187.2,423.5,1187.4,422.9,1187.8,422.2z"/>
<path class="st7" d="M1238.1,451.9c-0.2-0.3-0.2-0.7-0.1-1.5C1238.2,450.6,1238.3,451.2,1238.1,451.9z"/>
<path class="st7" d="M1231.9,468.9c-0.1,0.6-0.2,1.2-0.7,1.9c-0.3,0.1-0.3,0.1-0.3-0.2c0.2-0.9,0.5-1.4,0.7-1.9
	C1231.6,468.7,1231.8,468.8,1231.9,468.9z"/>
<path class="st7" d="M1167.8,479.2c0.1,0.5,0,1.1-0.5,1.8C1167.2,480.5,1167.4,479.9,1167.8,479.2z"/>
<path class="st7" d="M1228.2,373.1c-0.2,0.3-0.8,0.7-1.8,1C1226.6,373.7,1227.2,373.4,1228.2,373.1z"/>
<path class="st7" d="M1114.9,629.1c0.2,0.3,0.2,0.7,0.1,1.5C1114.8,630.4,1114.7,629.8,1114.9,629.1z"/>
<path class="st3" d="M1117.2,727.9c-0.1-0.2,0.1-0.5,0.6-0.9C1117.8,727.2,1117.6,727.5,1117.2,727.9z"/>
<path class="st3" d="M1113.2,731.9c-0.1-0.2,0.1-0.5,0.6-0.9C1113.8,731.2,1113.6,731.5,1113.2,731.9z"/>
<path class="st3" d="M1114.2,730.9c-0.1-0.2,0.1-0.5,0.6-0.9C1114.8,730.2,1114.6,730.5,1114.2,730.9z"/>
<path class="st3" d="M1115.2,729.9c-0.1-0.2,0.1-0.5,0.6-0.9C1115.8,729.2,1115.6,729.5,1115.2,729.9z"/>
<path class="st3" d="M1116.2,728.9c-0.1-0.2,0.1-0.5,0.6-0.9C1116.8,728.2,1116.6,728.5,1116.2,728.9z"/>
<path class="st3" d="M1121.2,723.9c-0.1-0.2,0.1-0.5,0.6-0.9C1121.8,723.2,1121.6,723.5,1121.2,723.9z"/>
<path class="st3" d="M1118.2,726.9c-0.1-0.2,0.1-0.5,0.6-0.9C1118.8,726.2,1118.6,726.5,1118.2,726.9z"/>
<path class="st3" d="M1119.2,725.9c-0.1-0.2,0.1-0.5,0.6-0.9C1119.8,725.2,1119.6,725.5,1119.2,725.9z"/>
<path class="st3" d="M1120.2,724.9c-0.1-0.2,0.1-0.5,0.6-0.9C1120.8,724.2,1120.6,724.5,1120.2,724.9z"/>
<path class="st3" d="M1112,732.9c0-0.2,0.2-0.5,0.8-0.9C1112.7,732.2,1112.5,732.5,1112,732.9z"/>
<path class="st8" d="M1103.3,740c0-0.2,0.2-0.5,0.8-0.9C1104.1,739.3,1103.8,739.6,1103.3,740z"/>
<path class="st7" d="M1223.8,375.1c0.1,0.2-0.1,0.5-0.5,0.9C1223.2,375.9,1223.4,375.6,1223.8,375.1z"/>
<path class="st7" d="M1220.9,378.1c0,0.2-0.2,0.5-0.6,0.9C1220.2,378.8,1220.4,378.5,1220.9,378.1z"/>
<path class="st7" d="M1152,687c0.1,0.1,0.2,0.3,0.4,0.4c-0.1-0.1-0.2-0.1-0.3-0.3C1152,687,1152,687,1152,687z"/>
<path class="st7" d="M1100.9,682.9c0.1,0.2-0.4,0.2-0.7,0.1C1100.3,682.9,1100.6,682.8,1100.9,682.9z"/>
<path class="st3" d="M1122.2,722.9c-0.1-0.2,0.1-0.5,0.6-0.9C1122.8,722.1,1122.6,722.4,1122.2,722.9z"/>
<path class="st3" d="M1148.2,716.1c-0.1-0.5,0.1-0.7,0.6-1.1c0.2-0.1,0.5,0.2,0.5,0.6c-0.2,0.5-0.4,0.7-0.6,0.9
	C1148.7,716.6,1148.3,716.3,1148.2,716.1z"/>
<path class="st3" d="M1126.1,718.9c0-0.2,0.2-0.5,0.7-0.9C1126.8,718.1,1126.6,718.4,1126.1,718.9z"/>
<path class="st3" d="M1124.1,720.9c0-0.2,0.2-0.5,0.7-0.9C1124.8,720.1,1124.6,720.4,1124.1,720.9z"/>
<path class="st2" d="M1135.1,731.8c1.8-2.1,3.9-4.2,6.3-6.1C1139.7,727.8,1137.6,729.8,1135.1,731.8z"/>
<path class="st2" d="M1127.2,738.9c1.4-1.8,3.2-3.5,5.3-5.2C1131.1,735.5,1129.3,737.2,1127.2,738.9z"/>
<path class="st2" d="M1142,725.8c0.5-1.5,1.4-3.1,2.6-4.7C1144.1,722.5,1143.2,724.1,1142,725.8z"/>
<path class="st2" d="M1148.5,716.8c0.4-0.4,0.6-0.6,0.9-0.9c0.4-0.4,0.7-0.6,1.2-0.9c-0.5,0.9-1.3,2-2.4,3
	C1148,717.6,1148.2,717.3,1148.5,716.8z"/>
<path class="st2" d="M1121.2,746.6c-0.7,0.3-1.2,0.3-2.1,0.3c0.8-1.3,2-2.5,3.5-3.9C1122.4,744,1121.9,745.2,1121.2,746.6z"/>
<path class="st2" d="M1146.5,718.9c0.4-0.4,0.7-0.7,1.2-0.9c-0.5,0.9-1.3,1.9-2.4,3C1145.3,720.3,1145.8,719.7,1146.5,718.9z"/>
<path class="st2" d="M1123.2,742.9c0.5-0.9,1.3-1.9,2.4-2.9C1125.1,740.9,1124.4,741.9,1123.2,742.9z"/>
<path class="st2" d="M1133.1,733.8c0.1-0.7,0.6-1.4,1.4-2C1134.3,732.4,1133.9,733.1,1133.1,733.8z"/>
<path class="st2" d="M1151.2,714.9c0.2-0.6,0.7-1.2,1.4-1.9C1152.5,713.6,1152,714.2,1151.2,714.9z"/>
<path class="st2" d="M1153.2,712.9c0.1-0.5,0.5-0.9,1.3-1.3C1154.4,712.1,1154,712.5,1153.2,712.9z"/>
<path class="st2" d="M1126.1,739.9c-0.1-0.2,0.1-0.5,0.6-0.9C1126.8,739.2,1126.6,739.5,1126.1,739.9z"/>
<path class="st2" d="M1157.1,709.8c-0.2-0.3,0-0.7,0.4-1C1157.7,709.1,1157.5,709.4,1157.1,709.8z"/>
<path class="st2" d="M1156.1,710.8c-0.1-0.3,0-0.7,0.4-1C1156.7,710.1,1156.5,710.4,1156.1,710.8z"/>
<path class="st2" d="M1155.1,711.8c-0.1-0.3,0-0.7,0.4-1C1155.7,711.1,1155.5,711.4,1155.1,711.8z"/>
<path class="st9" d="M904.2,268.9c0.3,0,0.5,0.1,0.8,0.9c0.8,1.1,1.4,1.6,2.1,2.1c0,0,0,0.1,0.1,0.3c0.8,0.4,1.4,0.6,2,0.7
	c0.3,0,0.5,0.1,0.8,0.9c0.8,1.1,1.4,1.6,2.1,2.1c0,0-0.1,0,0,0.2c0.4,0.1,0.6,0,0.9-0.1c22.2,18.3,44.3,36.7,66.5,55
	c7.4,6.2,14.9,12.3,22.2,18.6c2.5,2.1,4.4,4.9,6.8,7.1c3.5,3.3,2.8,6.7,0,10.4c-1,0.5-1.2,0.8-1.5,1.1c0,0,0-0.1-0.5-0.1
	c-2.9,0-5.4-0.1-7.9,0c-5.2,0.2-10.4,0.6-15.6,0.9c0,0-0.4,0.1-1,0.3c-0.7,2.2-1,4.1-1.1,6.1c-0.1,23.2-0.1,46.4-0.3,69.9
	c-0.4,1.1-0.5,2-0.6,2.9c0,0-0.1,0-0.3,0c-0.4,0.4-0.6,0.7-0.8,1c0,0,0-0.1-0.4-0.1c-1.8,0.6-3.2,1.3-4.6,1.9
	c-0.5,0-0.9,0.1-1.8-0.4c-2.3-0.8-4.1-1.5-6-1.5c-49.8,0-99.5,0-149.3,0c0,0,0.1-0.1,0-0.3c-0.4-0.4-0.7-0.6-1-0.7c0,0,0.1,0,0-0.3
	c-0.4-0.4-0.7-0.6-1-0.7c0,0,0.1-0.1,0.1-0.5c0-24.4,0-48.3-0.1-72.3c0-1.8-1.3-3.5-2-5.3c0,0,0.1,0-0.2-0.3
	c-8.8-0.7-17.3-1.2-25.8-1.6c0,0,0-0.1-0.1-0.3c-0.4-0.4-0.7-0.6-1-0.8c0,0,0.1,0,0.1-0.4c0-2.5,0-4.6-0.1-6.7c0,0,0.1,0.1,0.3-0.1
	c0.4-0.8,0.5-1.3,0.7-1.9c0,0,0.1,0,0.3-0.1c0.4-0.4,0.6-0.7,0.8-0.9c0,0,0,0.1,0.2,0c0.4-0.4,0.6-0.7,0.8-1c0,0,0,0.1,0.3,0.1
	c0.8-0.4,1.2-0.7,1.7-1.1c0,0,0,0.1,0.2,0c0.4-0.4,0.6-0.7,0.7-1c0,0,0.1,0,0.3-0.1c0.4-0.6,0.5-1,0.7-1.4
	c12.5-10.8,25-21.6,37.6-32.3c16.4-13.9,32.8-27.7,49.2-41.4c3-2.5,6.2-4.9,9.8-7.6c0.8-0.6,1.1-0.9,1.4-1.2c0,0,0,0.1,0.3,0
	c0.8-0.4,1.2-0.7,1.7-1.1c0,0,0,0.1,0.5,0.1C897.3,268.3,900.8,268.6,904.2,268.9 M970,356c0,0,0,0,0.6-0.1c0.5-0.4,0.9-0.8,1.8-1.6
	c0.6-0.1,1.1-0.2,2.2,0.3c1.8-0.2,3.5-0.3,5.8-0.8c-1-1.2-1.8-2.6-2.9-3.6c-4.9-4.2-10-8.3-14.9-12.4
	c-21.6-17.9-43.1-35.8-64.9-53.9c-1.8,1.4-3.4,2.5-4.9,3.8c-24.9,20.9-49.8,41.9-74.6,62.9c-1,0.8-1.3,2.3-1.4,4
	c2.1,0.1,4.2,0.2,6.3,0.3c0,0,0,0,0.2,0.4c0.5-0.1,1.1-0.2,2.2-0.1c0.8,0.9,1.6,1.8,1.8,3.4c-0.1,24.5-0.2,48.9-0.2,73.4
	c0,1,1.2,1.9,2.4,2.9c0,0,0.5-0.1,1.2,0c0.5,0,0.9,0,2.3,0c5.6,0,11.3,0,17.8,0c1.1,0,2.2,0,4.2,0c1.6-0.1,3.2-0.2,5.1-0.3
	c0-2.4,0-4.4,0-6.4c0.1-19.1,0.2-38.2,0.7-57.7c1-1.2,2-2.4,3.5-3.8c0.2-0.3,0.5-0.6,0.7-0.8c0,0,0,0,0.5,0c0.5-0.4,0.9-0.7,1.8-1.5
	c0.6-0.1,1.2-0.3,2.3,0.2c18.8,0.1,37.7,0.2,56.5,0.3c0.6,0,1.1-0.5,2.4-0.8c1.7,1,3.4,2,5.3,3.5c0.4,0.5,0.8,0.9,1.2,1.3
	c0,0-0.1,0-0.1,0.7c0,0.5,0,0.9-0.6,1.9c-0.1,20.4-0.2,40.9-0.3,61.3c0,0.7,0.7,1.4,1.7,2.1c0.4,0,0.8,0,2.1,0c1.4,0,2.8,0,5.2,0
	c7.9,0,15.8,0,24.5-0.5c0.2-1.3,0.5-2.6,0.5-3.9c0-23.9,0-47.8,0-71.6c0,0,0,0,0.5-0.4c0.2-0.6,0.3-1.2,0.5-1.7c0,0-0.1,0,0.4-0.2
	C969.6,356.5,969.8,356.2,970,356 M918.9,380c-14.2,0-28.3,0-43,0c0,3.2,0,5.6-0.5,8.5c0.2,1.5,0.3,2.9,0.6,5.3
	c0,1.4-0.1,2.9-0.6,4.6c0.2,0.8,0.3,1.7,0.6,3.4c0,2.4-0.1,4.8-0.7,7.8c0.2,8.1,0.4,16.2,1.1,24.9c14.5,0.1,28.9,0.3,44.1-0.1
	c0.2-0.5,0.4-0.9,0.4-1.4c0-16.7,0.1-33.4,0-50.1C920.9,382,920.2,381,918.9,380z"/>
<path class="st10" d="M1093.2,499c5.4,4.9,5.7,6.1,1.7,11.8c-0.5,0.7-0.7,1-0.8,1.3c0,0,0-0.1-0.4-0.1c-107.2,0-213.9,0-320.6,0
	c0,0,0.1,0-0.1-0.3c-0.7-0.4-1.2-0.6-1.7-0.7c-2.7-4.2-3.6-8.2,1.8-11.9C880.2,499,986.7,499,1093.2,499z"/>
<path class="st10" d="M770.9,555.4c0,0-0.2,0,0.1-0.3c0.5-0.6,0.7-0.9,0.9-1.3c0,0,0,0.1,0.5,0.1c20.9,0,41.4,0,61.9,0
	c86.2,0,172.5,0,258.7-0.1c0,0,0,0,0,0.3c4,7.3,2.4,12-6.6,11.9c-101.6-0.3-203.2-0.2-304.8-0.2c-1.7,0-3.4-0.3-5,0.1
	c-3.5,0.9-5.1-1.1-5.7-3.9C770.5,560.1,770.9,557.7,770.9,555.4z"/>
<path class="st10" d="M940.1,683c2,4,0.6,6.9-3.7,9.1c-51.7-0.1-102.6,0-153.5,0c0,0,0.1,0-0.1-0.3c-0.6-0.4-1-0.6-1.4-0.7
	c-2.1-2.9-4.6-5.8-1.2-10c0.5-0.6,0.7-0.9,0.8-1.1c0,0,0,0.1,0.2,0c0.4-0.4,0.6-0.7,0.8-1c0,0,0,0.1,0.3,0.1c0.8-0.4,1.3-0.7,1.7-1
	c0,0,0,0.1,0.4,0.1c50.8,0,101.2,0,151.6,0c0,0-0.1,0,0,0.2c0.4,0.4,0.7,0.6,1,0.8c0,0-0.1,0,0,0.3c0.7,0.7,1.3,1.2,2,1.7
	c0,0-0.1,0,0,0.3C939.4,682,939.8,682.5,940.1,683z"/>
<path class="st10" d="M944,619.9c-0.2,0.3-0.3,0.6-1.1,1c-1.4,0.4-2.2,0.8-3.4,1.1c-56.2,0-111.9,0-167.6,0c0,0,0.1,0.1,0-0.3
	c-3-5.9-1.8-10.8,2.7-11.6c3.4-0.6,6.9-1,10.3-1c48.1-0.1,96.2-0.1,144.3,0c3.6,0,7.3,0.2,10.8,1.1c1.6,0.4,3.1,2.6,3.8,4.3
	C944.5,616,944,618.1,944,619.9z"/>
<path class="st2" d="M770.6,555.7c0.3,2-0.1,4.4,0.4,6.5c0.6,2.8,2.2,4.8,5.7,3.9c1.6-0.4,3.3-0.1,5-0.1
	c101.6,0,203.2-0.1,304.8,0.2c8.9,0,10.6-4.7,6.6-12c1.5,1.8,4.6,4.3,4.3,6.2c-0.5,2.8-3,5.6-5.3,7.6c-1.2,1.1-3.8,0.8-5.8,0.8
	c-102.5,0-204.9,0-307.4,0c-1.8,0-3.7-0.1-5.4-0.8C767.9,566,766.6,560.6,770.6,555.7z"/>
<path class="st2" d="M1093,553.5c-86.2,0.4-172.4,0.5-258.7,0.5c-20.5,0-41,0-61.9,0c1.5-0.7,3.4-1.9,5.3-1.9
	c103.5-0.1,207-0.1,310.5,0C1089.8,552,1091.3,552.7,1093,553.5z"/>
<path class="st2" d="M944.3,619.8c-0.3-1.8,0.2-3.8-0.5-5.4c-0.7-1.7-2.2-3.9-3.8-4.3c-3.5-0.9-7.2-1.1-10.8-1.1
	c-48.1-0.1-96.2-0.1-144.3,0c-3.5,0-6.9,0.4-10.3,1c-4.5,0.8-5.7,5.8-2.7,11.7c-3.5-1.4-4.5-4.5-3.7-8c0.9-3.7,3.6-5.9,7.4-6.5
	c1.1-0.2,2.3-0.1,3.5-0.1c52.3,0,104.6,0,156.9-0.1c4.8,0,8.9,1.1,10.1,6.1C946.6,615.2,945.2,617.6,944.3,619.8z"/>
<path class="st4" d="M773.2,512.4c106.5-0.4,213.3-0.4,320.5-0.4c-1.3,0.4-3,1-4.7,1c-104,0-208,0-312.1,0
	C775.7,513.1,774.5,512.9,773.2,512.4z"/>
<path class="st4" d="M1092.9,498.6C986.7,499,880.2,499,773.2,499c1.2-0.4,2.9-1,4.6-1c103.3,0,206.6,0,309.8,0
	C1089.3,497.9,1091,498.2,1092.9,498.6z"/>
<path class="st2" d="M817.1,449.4c49.6-0.4,99.4-0.4,149.2-0.4c1.8,0,3.7,0.7,5.6,1.5C922,451,872,451,821.9,451
	C820.4,451,818.8,450.2,817.1,449.4z"/>
<path class="st4" d="M772.2,622.3c55.4-0.3,111.1-0.3,167.3-0.1c0.5,0.4,0.5,0.6,0.5,0.8c-21.6,0.1-43.2,0.2-64.8,0.2
	c-32.1,0-64.2,0-96.3,0C776.8,623.2,774.6,622.9,772.2,622.3z"/>
<path class="st2" d="M813,369.5c0.6,1.3,1.9,3,1.9,4.8c0.1,23.9,0.1,47.9,0.1,72.3c-0.7-1.8-1.8-4.1-1.8-6.4
	C813,416.8,813.1,393.4,813,369.5z"/>
<path class="st4" d="M783.2,692.3c50.6-0.3,101.4-0.3,152.8-0.3c-1.2,0.4-2.9,1-4.7,1c-47.8,0.1-95.6,0.1-143.4,0.1
	C786.5,693.1,785,692.8,783.2,692.3z"/>
<path class="st4" d="M935.8,677.7c-50.1,0.3-100.5,0.3-151.4,0.3c0.8-0.3,2-0.9,3.2-0.9c48.6,0,97.3,0,145.9,0
	C934.2,677.1,934.8,677.3,935.8,677.7z"/>
<path class="st4" d="M980.9,445c0-23.2,0-46.4,0.1-69.7c0-2,0.3-3.9,0.8-6.1c0.3,24.8,0.2,49.8-0.1,75.3
	C981.4,445,980.9,445,980.9,445z"/>
<path class="st2" d="M787.1,367.4c8.3,0.1,16.8,0.5,25.6,1.3c-6.4,0.3-13.2,0.4-19.9,0.3C791,369,789.1,368.2,787.1,367.4z"/>
<path class="st2" d="M983.5,369c4.7-0.4,9.9-0.7,15.2-1c2.5-0.1,5,0,7.9,0c-3.7,0.4-7.9,0.8-12.1,1C991,369.1,987.5,369,983.5,369z"
	/>
<path class="st2" d="M904,268.7c-3.2,0-6.7-0.4-10.6-0.7C896.7,264.1,900.2,266.4,904,268.7z"/>
<path class="st2" d="M785.6,359c0.4,2,0.4,4.1,0.4,6.6C785.7,363.8,785.5,361.4,785.6,359z"/>
<path class="st2" d="M974.4,451c1.1-0.7,2.5-1.3,4.3-1.9C977.6,449.7,976.2,450.4,974.4,451z"/>
<path class="st2" d="M980.7,445.2c0.3-0.2,0.7-0.2,1-0.2c-0.2,0.9-0.6,1.9-1.3,3C980.2,447.2,980.3,446.3,980.7,445.2z"/>
<path class="st2" d="M940.4,623.1c-0.3-0.2-0.3-0.4-0.4-0.8c0.8-0.6,1.6-0.9,2.7-1.3C942.2,621.7,941.5,622.4,940.4,623.1z"/>
<path class="st2" d="M912.1,275.6c-0.7-0.2-1.3-0.7-2-1.6C910.7,274.2,911.4,274.7,912.1,275.6z"/>
<path class="st2" d="M907.1,271.6c-0.7-0.2-1.4-0.7-2-1.6C905.8,270.2,906.4,270.7,907.1,271.6z"/>
<path class="st4" d="M939.2,680.6c-0.7-0.1-1.3-0.6-2-1.4C937.8,679.4,938.5,679.8,939.2,680.6z"/>
<path class="st4" d="M783.7,677.9c-0.2,0.3-0.7,0.7-1.5,1C782.4,678.6,782.9,678.3,783.7,677.9z"/>
<path class="st4" d="M940.1,682.7c-0.3-0.1-0.7-0.6-1-1.4C939.4,681.4,939.7,681.9,940.1,682.7z"/>
<path class="st2" d="M786.6,357c0.2,0.5,0,1.1-0.4,1.8C786,358.4,786.2,357.8,786.6,357z"/>
<path class="st2" d="M909,272.7c-0.4,0.1-1,0-1.8-0.5C907.6,272.1,908.2,272.3,909,272.7z"/>
<path class="st2" d="M790.7,353.8c-0.2,0.5-0.6,0.8-1.4,1.2C789.4,354.5,789.9,354.1,790.7,353.8z"/>
<path class="st2" d="M892.6,267.8c-0.2,0.5-0.6,0.8-1.4,1.1C891.4,268.5,891.9,268.1,892.6,267.8z"/>
<path class="st4" d="M771.2,511.4c0.5-0.2,1,0,1.7,0.4C772.4,511.9,771.8,511.8,771.2,511.4z"/>
<path class="st2" d="M1007.4,368c0-0.3,0.3-0.6,0.9-0.9C1008.3,367.4,1008,367.7,1007.4,368z"/>
<path class="st4" d="M937.1,678.7c-0.3,0.1-0.6-0.1-1-0.5C936.4,678.1,936.8,678.2,937.1,678.7z"/>
<path class="st2" d="M979.3,449c-0.1-0.2,0.1-0.5,0.5-0.9C979.9,448.4,979.7,448.7,979.3,449z"/>
<path class="st2" d="M890.7,268.9c0,0.3-0.2,0.6-0.8,0.9C889.8,269.6,890.1,269.3,890.7,268.9z"/>
<path class="st2" d="M815.9,448.3c0.3-0.1,0.6,0.1,0.9,0.5C816.6,448.9,816.3,448.8,815.9,448.3z"/>
<path class="st2" d="M814.9,447.3c0.3-0.1,0.6,0.1,0.9,0.5C815.6,447.9,815.3,447.8,814.9,447.3z"/>
<path class="st4" d="M1094.3,512c-0.1-0.2,0.1-0.5,0.4-0.9C1094.8,511.3,1094.7,511.6,1094.3,512z"/>
<path class="st2" d="M786,366.3c0.2-0.1,0.5,0.1,0.9,0.5C786.7,366.9,786.3,366.7,786,366.3z"/>
<path class="st4" d="M781.6,691.3c0.2-0.1,0.6,0.1,1.2,0.5C782.6,691.9,782.2,691.7,781.6,691.3z"/>
<path class="st2" d="M788.7,355c0.1,0.2-0.1,0.5-0.5,0.9C788.1,355.7,788.3,355.3,788.7,355z"/>
<path class="st2" d="M791.6,352.9c0.2,0.3,0,0.6-0.5,1C791,353.6,791.2,353.2,791.6,352.9z"/>
<path class="st2" d="M792.6,351.6c0.2,0.2,0,0.6-0.4,1.2C792.1,352.6,792.2,352.2,792.6,351.6z"/>
<path class="st4" d="M780.8,680c0.1,0.2-0.1,0.4-0.4,0.7C780.2,680.5,780.3,680.3,780.8,680z"/>
<path class="st2" d="M912.8,275.8c-0.1,0.2-0.3,0.3-0.7,0.2C912.1,275.8,912.6,275.7,912.8,275.8z"/>
<path class="st2" d="M771.6,554c0.1,0.3-0.1,0.6-0.6,1.1C770.9,554.9,771.1,554.5,771.6,554z"/>
<path class="st4" d="M781.7,679c0.1,0.2-0.1,0.5-0.6,0.9C781.1,679.7,781.3,679.4,781.7,679z"/>
<path class="st2" d="M787.7,356c0.1,0.2-0.1,0.5-0.5,0.9C787.1,356.7,787.3,356.3,787.7,356z"/>
<path class="st0" d="M1147.7,487c-0.3-0.5-0.5-1.3-0.6-2c0.2,0,0.4-0.1,0.7-0.1C1147.7,485.6,1147.8,486.2,1147.7,487z"/>
<path class="st8" d="M1119.2,691.2c1.7,0.2,3.6,0.6,5.6,1.4C1123.2,692.5,1121.3,692,1119.2,691.2z"/>
<path class="st8" d="M1110.1,687.4c1.2,0.1,2.4,0.5,3.8,1.3C1112.7,688.5,1111.4,688.1,1110.1,687.4z"/>
<path class="st8" d="M1125.2,693.2c0.7-0.1,1.6,0,2.7,0.4C1127.2,693.8,1126.3,693.6,1125.2,693.2z"/>
<path class="st8" d="M1103.2,685.2c0.7-0.1,1.6,0,2.7,0.5C1105.2,685.8,1104.3,685.6,1103.2,685.2z"/>
<path class="st8" d="M1106.2,686.2c0.7-0.1,1.6,0.1,2.9,0.5C1108.4,686.8,1107.4,686.7,1106.2,686.2z"/>
<path class="st8" d="M1114.2,689.2c0.7-0.1,1.6,0,2.7,0.5C1116.2,689.8,1115.3,689.6,1114.2,689.2z"/>
<path class="st8" d="M1117.2,690.2c0.5-0.1,1.1,0,1.8,0.5C1118.5,690.8,1117.9,690.6,1117.2,690.2z"/>
<path class="st8" d="M1211.4,401.7c0.3-0.8,0.5-1.4,0.8-2.2c0.7-1.6,1.4-3,2.4-4.4c0.1,1.3,0.3,3-0.4,4.2c-2.3,3.6-0.9,5.7,2.6,7.5
	c-1.6,0-3.3-0.4-5.4-0.8c-0.6-0.4-0.8-0.9-1.1-1.5C1210.6,403.4,1211,402.7,1211.4,401.7z"/>
<path class="st8" d="M1215.1,391.5c0.4-1.1,0.7-1.9,1.1-3c0.4-1,0.8-1.6,1.5-2.4c-0.6,2.7-1.4,5.6-2.5,8.7
	C1215,393.9,1215,392.9,1215.1,391.5z"/>
<path class="st8" d="M1237.9,403.5c-0.5,1.1-0.9,1.8-1.6,2.7c0.6-2.5,1.5-5.3,2.8-8.1C1239,399.7,1238.4,401.4,1237.9,403.5z"/>
<path class="st8" d="M1218.1,383.5c0-0.4,0.4-0.5,0.6-0.5c0.1,0.9,0,1.8-0.5,2.9C1218,385.3,1218,384.5,1218.1,383.5z"/>
<path class="st8" d="M1240.7,394c0.2,0.5,0,1.1-0.3,1.9C1240.3,395.4,1240.3,394.7,1240.7,394z"/>
<path class="st6" d="M1117.1,626.1c-0.1-0.7,0-1.2,0.7-2c2.1-4.9,3.6-9.5,5.1-14.1c0,0,0.1,0.1,0.3-0.1c0.4-1.1,0.5-2,0.7-2.9
	c0,0,0,0.1,0.3-0.1c1.8-4.7,3.2-9.3,4.7-13.9c0,0,0,0.1,0.3-0.1c1.7-4.7,3.2-9.3,4.7-13.9c0,0-0.1,0-0.1,0c2-5.4,4.1-10.8,6.1-16.7
	c0-0.4,0-0.4,0.3-0.5c0.8-0.8,1.4-1.4,1.7-2.1c4.1-11.6,8.2-23.2,12.2-34.8c1.2-3.6,1.9-7.3,2.8-10.9c0,0,0.1,0.1,0.4-0.1
	c2.4-6.7,4.5-13.3,6.7-19.9c0,0-0.1,0-0.1,0c0.7-0.7,1.7-1.2,2-2c4.1-11.7,8.1-23.5,12-35.3c0.2-0.6,0.1-1.3,0-2.4
	c0-0.4,0-0.4,0.3-0.5c0.4-0.7,0.6-1.3,0.7-1.8c0,0,0.1,0,0.3-0.2c1.4-4.1,2.5-8,3.7-11.9c0,0,0.1,0.1,0.3-0.1c0.4-1.1,0.5-2,0.7-2.9
	c0,0,0,0.1,0.3-0.1c0.4-0.7,0.6-1.3,0.7-1.9c0,0-0.1,0-0.1,0c1.8-4.4,3.5-8.7,5.3-13.1c0.8-1.8,1.6-3.6,2.6-5.7
	c12.9,4.6,25.8,9.1,38.7,13.6c1.5,0.5,3.1,0.8,5.1,1.3c1.9,0.9,3.4,1.8,5.2,2.9c-1.9,6.4-3.8,12.9-5.7,19.8c0,0.4,0,0.4-0.3,0.5
	c-2.4,6.4-4.6,12.6-6.7,18.9c0,0-0.1-0.1-0.3,0.1c-1.7,4.4-3.2,8.7-4.6,12.9c0,0-0.1,0-0.3,0.2c-0.7,2.1-1.2,4-1.7,5.8
	c0,0,0-0.1-0.3,0.1c-0.4,1.1-0.6,2-0.7,2.9c0,0,0-0.1-0.3,0.1c-0.4,0.8-0.6,1.4-0.7,1.9c0,0,0,0.5-0.4,0.9c-1.4,4-2.5,7.6-3.6,11.2
	c0,0,0,0.4-0.3,0.8c-0.4,1-0.5,1.5-0.7,2.1c0,0,0-0.1-0.3,0.1c-3.1,8.4-5.9,16.7-8.7,24.9c0,0-0.1-0.1-0.3,0.1
	c-1.4,3.7-2.5,7.3-3.7,10.9c0,0-0.1-0.1-0.4,0.1c-1.7,4.7-3.2,9.3-4.7,13.9c0,0-0.1-0.1-0.3,0.1c-0.4,1.1-0.5,2-0.7,2.9
	c0,0,0-0.1-0.3,0.1c-1.5,2.8-2.9,5.5-3.8,8.2c-2.4,7.2-4.6,14.4-6.8,21.7c0,0-0.1,0-0.3,0.1c-0.4,1.1-0.5,2-0.7,2.9
	c0,0,0-0.1-0.3,0.1c-0.4,0.7-0.6,1.3-0.7,1.9c0,0-0.1,0-0.3,0.2c-1.1,2.8-1.9,5.3-2.7,7.9c0,0-0.1,0-0.3,0.2
	c-1.4,4.1-2.5,7.9-3.7,11.8c0,0-0.1-0.1-0.3,0.2c-0.4,1.2-0.5,2.2-0.7,3.1c0,0,0,0.3-0.4,0.5c-1.2,2.5-1.9,4.8-2.6,7.2
	c0,0,0.1,0,0.1,0c-1.6,3.5-3.6,6.9-4.9,10.5c-4.2,11.5-8.2,23.1-12.3,35.1c-1.8,7.7-6.7,7.4-12.7,5.5c-0.4,0-0.4,0-0.5-0.3
	c-7-2.8-13.9-5.2-20.9-7.7c0,0,0,0.1,0,0.1c-4.7-2-9.3-4-13.9-6c-0.9-0.4-1.7-0.8-3-1.5c3.1-8.7,6.2-17.2,9.1-25.8
	C1114.7,636,1116,631.1,1117.1,626.1z"/>
<path class="st8" d="M1206.3,536.9c2.5-8.1,5.3-16.4,8.4-24.8c-0.7,3.5-1.8,7.2-2.9,11.3c-1,2.8-2,5.2-3,8c-0.4,1.1-0.7,1.9-1,3
	C1207.4,535.5,1207,536.1,1206.3,536.9z"/>
<path class="st8" d="M1224.4,486c1.2-4.2,2.6-8.5,4.4-12.9c-0.1,1.6-0.4,3.3-0.9,5.3c-0.7,2.1-1.4,3.9-2,6
	C1225.4,485.2,1225,485.6,1224.4,486z"/>
<path class="st8" d="M1216.3,508.9c0.8-3.4,1.9-7,3.3-10.7C1218.8,501.6,1217.7,505.1,1216.3,508.9z"/>
<path class="st8" d="M1222.4,491.9c0.2-1.7,0.6-3.6,1.4-5.7C1223.6,487.9,1223.1,489.8,1222.4,491.9z"/>
<path class="st8" d="M1221.3,494.9c-0.1-0.7,0-1.6,0.5-2.7C1221.9,492.9,1221.8,493.8,1221.3,494.9z"/>
<path class="st8" d="M1220.3,497c-0.1-0.4,0.1-1,0.5-1.8C1220.9,495.6,1220.7,496.2,1220.3,497z"/>
<path class="st8" d="M1215.3,511.9c-0.1-0.4,0-1,0.4-1.7C1215.8,510.6,1215.7,511.2,1215.3,511.9z"/>
<path class="st8" d="M1176.4,619.9c0.8-3.7,2-7.6,3.4-11.6C1178.9,611.9,1177.8,615.8,1176.4,619.9z"/>
<path class="st8" d="M1180.4,608c0.5-2.5,1.3-5.1,2.4-7.8c0.3,0.8,0.2,1.9,0.1,3.3c-0.4,1.2-0.7,1.9-1.1,3
	C1181.4,607.2,1181,607.6,1180.4,608z"/>
<path class="st8" d="M1172.3,630.9c0.5-2.2,1.2-4.5,2.3-6.9c0,1.3-0.4,2.7-0.8,4.4C1173.4,629.5,1173,630.2,1172.3,630.9z"/>
<path class="st8" d="M1175.3,623.1c-0.1-0.7,0-1.7,0.5-2.9C1175.9,621,1175.7,621.9,1175.3,623.1z"/>
<path class="st8" d="M1182.7,440.1c-0.9,3.8-2,7.6-3.4,11.7c0.1-2.1,0.6-4.4,1.2-7c0.3-0.9,0.5-1.4,0.8-2.3
	C1181.6,441.5,1182,440.8,1182.7,440.1z"/>
<path class="st8" d="M1183.7,437.1c0.1,0.7,0,1.6-0.5,2.7C1183.1,439.1,1183.2,438.2,1183.7,437.1z"/>
<path class="st8" d="M1184.6,435.1c0.1,0.5,0,1-0.5,1.8C1184,436.4,1184.2,435.8,1184.6,435.1z"/>
<path class="st8" d="M1156.7,514.1c-0.7,3.5-1.3,7.2-2.6,10.8c-4,11.7-8.1,23.2-12.2,34.8c-0.3,0.7-0.9,1.3-1.7,2.1
	c0.4-2.5,1.1-5.2,1.9-8.3c0.4-1.2,0.7-1.9,1-3.1c1.3-3.8,2.6-7.2,3.9-11c0.4-1.2,0.7-1.9,1-3c0.3-1.1,0.7-1.9,1-3
	c0.4-1.1,0.7-1.9,1-3c1.3-3.7,2.6-7.2,4-11c0.4-1.2,0.7-1.9,1-3C1155.6,515.5,1156,514.8,1156.7,514.1z"/>
<path class="st8" d="M1163.7,494.1c-1.9,6.4-4,13-6.4,19.8c1.1-4.5,2.5-9.2,3.9-14.3c0.4-1.2,0.7-1.9,1-3
	C1162.6,495.5,1163,494.9,1163.7,494.1z"/>
<path class="st8" d="M1197.3,561.9c1.2-4.5,2.6-9,4.4-13.8c-0.7,3.5-1.8,7.2-2.9,11.3C1198.4,560.5,1198,561.2,1197.3,561.9z"/>
<path class="st8" d="M1202.3,547.9c0.9-3.5,2-7,3.4-10.8c-0.4,2.5-1.1,5.2-1.9,8.3C1203.4,546.5,1203,547.2,1202.3,547.9z"/>
<path class="st8" d="M1122.7,610.1c-1.3,4.5-2.8,9.1-4.7,13.8c0.8-3.6,2-7.3,3.2-11.3C1121.6,611.5,1122,610.8,1122.7,610.1z"/>
<path class="st8" d="M1128.7,593.1c-1.2,4.4-2.7,9-4.4,13.8c0.4-2.6,1.1-5.2,1.9-8.3c0.4-1.1,0.7-1.9,1.1-3
	C1127.6,594.5,1128,593.9,1128.7,593.1z"/>
<path class="st8" d="M1123.7,607.1c0.1,0.7,0,1.6-0.5,2.7C1123.1,609.1,1123.2,608.2,1123.7,607.1z"/>
<path class="st8" d="M1178.6,452.1c0.1,0.5,0,1-0.5,1.8C1178.1,453.4,1178.2,452.8,1178.6,452.1z"/>
<path class="st8" d="M1185.3,594.9c2-7.1,4.2-14.4,6.5-21.6c0.9-2.8,2.3-5.4,3.9-8.2c-0.1,1.6-0.5,3.3-0.9,5.3
	c-0.4,1.1-0.7,1.9-1.1,3c-1.1,3-2.1,5.7-3.2,8.8c-0.3,0.9-0.6,1.4-0.8,2.2c-1,2.7-1.9,5.2-2.9,8
	C1186.4,593.5,1186,594.2,1185.3,594.9z"/>
<path class="st8" d="M1184.3,597.9c-0.1-0.7,0-1.6,0.5-2.7C1184.9,595.9,1184.8,596.8,1184.3,597.9z"/>
<path class="st8" d="M1183.4,599.9c-0.1-0.5,0-1,0.5-1.8C1183.9,598.6,1183.8,599.2,1183.4,599.9z"/>
<path class="st8" d="M1133.7,579.1c-1.2,4.4-2.6,9-4.4,13.8c0.4-2.6,1.1-5.2,1.9-8.3c0.4-1.2,0.7-1.9,1-3
	C1132.6,580.5,1133,579.9,1133.7,579.1z"/>
<path class="st8" d="M1196.3,564.9c-0.1-0.7,0-1.6,0.5-2.7C1196.9,562.9,1196.8,563.8,1196.3,564.9z"/>
<path class="st8" d="M1121,674.4c6.9,2.2,13.8,4.6,20.9,7.4c-1.6-0.1-3.2-0.5-5.3-0.9c-1.1-0.4-1.9-0.7-3-1.1c-2.8-1-5.2-1.9-8-2.9
	c-1.1-0.4-1.9-0.7-3-1.1C1121.8,675.4,1121.4,675,1121,674.4z"/>
<path class="st8" d="M1229.3,472.9c1.9-6.1,4-12.4,6.4-18.8c-0.1,1.6-0.5,3.3-0.9,5.3c-0.4,1.1-0.7,1.9-1.1,3
	c-0.7,2-1.4,3.8-2.1,5.8c-0.3,0.9-0.5,1.4-0.8,2.2C1230.4,471.5,1230,472.1,1229.3,472.9z"/>
<path class="st11" d="M869.1,364.1c-0.6,0.1-1.2,0.3-2.2,0.7c-1,0.6-1.4,0.9-1.9,1.2c0,0,0,0-0.2,0.1c-0.5,0.3-0.7,0.6-1,0.9
	c-1,1.2-2,2.4-3.6,4.1c-0.8,8.2-1.1,16-1.2,23.8c-0.1,12.8,0,25.6,0,38.3c-1.9,0.7-3.4,1.2-4.9,1.8c-1.1,0-2.2,0-4-0.2
	c-6.5-0.1-12.2,0.1-18,0.3c-0.5,0-0.9,0-1.7-0.4c-0.7-7.1-1-13.8-1.4-20.8c0-0.8,0-1.2,0.3-2c0.4-17.1,0.5-33.9,0.6-50.8
	c0-0.6-0.8-1.3-1.4-2c-0.3-0.3-0.5-0.6-0.6-0.8c-0.8-0.9-1.6-1.8-3-2.9c-1-0.2-1.4-0.2-1.9-0.2c0,0,0,0-0.3-0.3
	c-2.4-0.4-4.5-0.4-6.6-0.5c0.6-1.2,1-2.7,2-3.5c24.8-21,49.7-41.9,74.6-62.9c1.5-1.3,3.1-2.4,4.9-3.8c21.7,18,43.3,36,64.9,53.9
	c5,4.1,10,8.2,14.9,12.4c1.2,1,2,2.4,2.3,3.7c-2.3,0.1-4,0.1-5.6,0.2c-0.6,0.1-1.1,0.2-2.2,0.6c-1,0.6-1.5,1-1.9,1.3
	c0,0,0,0-0.2,0.1c-0.4,0.4-0.6,0.6-0.8,0.9c0,0,0.1,0-0.2,0c-0.2,0-0.7,0.1-1.1,0.1c-1.2,2.2-2.6,4.4-2.6,6.6
	c-0.2,20.8-0.1,41.6-0.1,62.4c0,7.6-0.3,7.8-8.2,8c-4.9,0.1-9.8,0.6-14.7,0.9c-1.4,0-2.8,0-4.7-0.4c-0.4-19.9-0.3-39.3-0.5-58.7
	c0-2.3-1.3-4.5-2-6.8c0,0,0.1,0,0-0.3c-0.5-0.7-0.9-1.2-1.4-1.6c-1.7-1-3.4-2-5.8-3C907.7,364.1,888.4,364.1,869.1,364.1z"/>
<path class="st12" d="M919.8,435c-14.5-0.1-28.9-0.3-43.6-1.2c-0.3-8.8-0.3-16.7-0.3-24.7c0-2.4,0.1-4.8,0.1-8c0-1.5-0.1-2.2-0.1-3
	c0-1.4,0.1-2.9,0.1-5.1c0-2.2-0.1-3.5-0.1-4.9c0-2.5,0-4.9,0-8.1c14.7,0,28.8,0,43.5,0.5C919.8,399,919.8,417,919.8,435 M892.5,434
	c6.7,0,13.3-0.1,20,0c3.9,0.1,5.7-1.3,5.6-5.6c-0.2-14.3-0.2-28.6,0-42.9c0-3.4-0.9-4.7-4.5-4.6c-10.3,0.2-20.6,0.2-30.9,0
	c-3.8-0.1-4.8,1.3-4.7,4.9c0.2,14.1,0.2,28.3,0,42.4c-0.1,4.2,1.1,6.3,5.6,5.8C886.2,433.8,888.9,434,892.5,434z"/>
<path class="st12" d="M942.5,434.9c4.4-0.3,9.3-0.8,14.2-0.9c7.9-0.2,8.2-0.4,8.2-8c0-20.8-0.1-41.6,0.1-62.4c0-2.2,1.5-4.4,2.5-6.3
	c0.3,0.7,0.3,1.1,0.3,1.6c0,0,0,0-0.3,0.3c-0.5,2.2-0.7,4.2-0.8,6.1c-0.1,23.2-0.1,46.4-0.1,69.6C958.8,435,950.9,435,942.5,434.9z"
	/>
<path class="st2" d="M827.6,358.4c0.4-0.1,0.6,0.2,1,1c0.3,17.9,0.4,35.3,0.5,52.6c0,0.5,0,0.9-0.1,2.2c0,7.5,0,14.2,0.1,20.9
	c-0.7-1-1.9-1.9-1.9-2.9C827.1,407.7,827.2,383.2,827.6,358.4z"/>
<path class="st12" d="M934.9,369.4c0.7,1.9,2,4.2,2,6.5c0.2,19.4,0.1,38.8,0.1,58.7c-0.4,0.5-0.8,0.5-1.6,0
	c-0.4-21.5-0.4-42.5-0.5-63.5C934.9,370.6,934.9,370.2,934.9,369.4z"/>
<path class="st2" d="M967.1,434.7c-0.3-23-0.3-46.2-0.2-69.4c0-2,0.3-3.9,0.7-6.2c0.4,23.6,0.4,47.5,0.4,71.4
	C968,431.9,967.7,433.2,967.1,434.7z"/>
<path class="st12" d="M854.5,434.9c1.1-0.6,2.6-1.1,4.5-1.8c0-12.7-0.1-25.5,0-38.3c0.1-7.8,0.4-15.6,1-23.6c0.3,18.9,0.2,38,0.1,57
	c0,2,0,3.9,0,6.4C858.1,434.8,856.5,434.9,854.5,434.9z"/>
<path class="st2" d="M934.6,371.3c0.3,20.7,0.4,41.7,0.5,63.2c-0.3-0.2-1-0.9-1-1.6C934.1,412.5,934.2,392.1,934.6,371.3z"/>
<path class="st2" d="M869.4,364.4c19-0.3,38.3-0.3,58-0.3c-0.1,0.3-0.7,0.8-1.3,0.8C907.3,364.9,888.5,364.8,869.4,364.4z"/>
<path class="st2" d="M920.1,434.7c-0.3-17.8-0.3-35.8-0.3-54.3c0.4,0.5,1.1,1.6,1.1,2.6c0.1,16.7,0,33.4,0,50.1
	C920.9,433.6,920.6,434,920.1,434.7z"/>
<path class="st2" d="M875.6,409.4c0.3,7.7,0.3,15.7,0.3,24.1C875.7,425.8,875.5,417.7,875.6,409.4z"/>
<path class="st12" d="M829.3,435c-0.3-6.7-0.3-13.4-0.3-20.5c0.4,6.2,0.7,12.9,1,20C830,434.9,829.5,435,829.3,435z"/>
<path class="st12" d="M832.5,434.9c5.3-0.2,11.1-0.4,17.1-0.3C844.3,434.9,838.6,434.9,832.5,434.9z"/>
<path class="st2" d="M816.4,354.5c1.8-0.2,4-0.1,6.3,0.3C820.9,354.9,818.8,354.8,816.4,354.5z"/>
<path class="st2" d="M974.3,354.4c1.4-0.3,3.1-0.3,5.1-0.2C978.1,354.3,976.3,354.5,974.3,354.4z"/>
<path class="st2" d="M875.7,388.3c0.3,1.1,0.3,2.5,0.3,4.2C875.7,391.5,875.6,390,875.7,388.3z"/>
<path class="st2" d="M875.7,398.2c0.3,0.5,0.3,1.3,0.3,2.3C875.8,400.1,875.6,399.3,875.7,398.2z"/>
<path class="st2" d="M865.2,366c0.2-0.3,0.7-0.6,1.4-1C866.5,365.3,866,365.6,865.2,366z"/>
<path class="st2" d="M968.2,358.8c-0.3-0.3-0.2-0.7-0.2-1.5c0.1-0.3,0.5-0.4,0.7-0.4C968.8,357.5,968.6,358.1,968.2,358.8z"/>
<path class="st2" d="M970.3,356c0.2-0.3,0.6-0.7,1.4-1.1C971.5,355.2,971.1,355.6,970.3,356z"/>
<path class="st2" d="M823.1,355.2c0.3-0.2,0.7-0.2,1.4-0.1C824.3,355.3,823.8,355.3,823.1,355.2z"/>
<path class="st12" d="M933.7,367.4c0.3,0.1,0.8,0.6,1.2,1.3C934.6,368.6,934.2,368.1,933.7,367.4z"/>
<path class="st2" d="M864,366.9c0-0.2,0.2-0.5,0.7-0.8C864.8,366.2,864.5,366.5,864,366.9z"/>
<path class="st2" d="M969.2,356.9c0-0.2,0.2-0.4,0.6-0.8C969.8,356.2,969.6,356.5,969.2,356.9z"/>
<path class="st12" d="M829.3,411.7c-0.4-17.1-0.4-34.4-0.6-52.2c0.3,0.2,1.2,0.8,1.2,1.4C829.9,377.8,829.7,394.6,829.3,411.7z"/>
<path class="st11" d="M892,434c-3.2,0-5.8-0.2-8.5,0c-4.5,0.5-5.7-1.6-5.6-5.8c0.2-14.1,0.2-28.3,0-42.4c0-3.6,0.9-5,4.7-4.9
	c10.3,0.2,20.6,0.2,30.9,0c3.6-0.1,4.5,1.2,4.5,4.6c-0.2,14.3-0.2,28.6,0,42.9c0.1,4.2-1.7,5.6-5.6,5.6
	C905.8,433.9,899.2,434,892,434z"/>
</svg>
