<?xml version="1.0" encoding="utf-8"?>
<!-- Generator: Adobe Illustrator 28.0.0, SVG Export Plug-In . SVG Version: 6.00 Build 0)  -->
<svg version="1.1" id="Layer_1" xmlns="http://www.w3.org/2000/svg" xmlns:xlink="http://www.w3.org/1999/xlink" x="0px" y="0px"
	 viewBox="0 0 1920 1024" style="enable-background:new 0 0 1920 1024;" xml:space="preserve">
<style type="text/css">
	.st0{fill:#FFFFFF;}
	.st1{fill:#E7BE7B;}
	.st2{fill:#89D2F6;}
	.st3{fill:none;}
</style>
<path class="st0" d="M1201.1,377.8l0,381.3H760.6c-17.8-3.2-36.2-0.9-54.3,0.6c-8.8,0.8-17.6,1.5-26.4,2.3c-0.5,0-1.1,0.2-1.1,0.6
	c-0.1,0.4,0.9-3.1,0.6-3.5V421.2c0-24.5-4.3-37.6,13-57.6c15.6-18.1,35.2-32.8,55.6-46c29.5-19,61.1-35.3,88.2-57.2
	c2.4,1.9,4.5,4,6.9,5.8l43.3-40.7c15.7,0,27.1-15.2,40.8-22.4c1.1-0.6,3.2-0.4,2.8,0.7c7.1-1.1,9-4.5,16.1-3.7
	c5.7,0.7,10.1,5.8,12.6,10.7l41.2,38.8c5.1,0,10.5,0.6,15.6,0.9c2.8,0.2,5.6,0.4,8.3,1.2c3.7,1.1,6.9,3.4,10,5.6
	c4.9,3.5,10,6.6,14.9,10l48.6,45.7c7.7,0,14.6-3.7,21.5-0.7l54,50.8c0.4-1.4,2.3-2.3,3.7-1.9c6.7,1.3,13.5,2.6,20.2,3.9
	c2.5,0.5,5.9,2.9,4.3,4.8v7.4C1202.2,378.4,1201.7,376.4,1201.1,377.8z"/>
<path class="st1" d="M1125.1,754.9c-144.9,0-289.1,0-433.3,0c-1.8,0-3.6,0-5.4,0c-11.8-0.4-16.9-5.4-16.9-16.5c0-28.3,0-56.6,0-84.9
	c0-80.6,0-161.2,0-241.8c0-2.8,0.4-5.6-1.8-8.2c-4.6,1-7.8,4.2-11.4,6.6c-7.4,4.9-14.6,10.2-22,15.1c-8,5.3-17.8,4.3-22.5-2
	c-4.7-6.4-2.4-15.2,5.4-20.6c87.1-60.3,174.3-120.6,261.4-180.8c11.7-8.1,23.5-16.2,35.3-24.1c12.5-8.3,29.7-8,42.1,0.6
	c76.3,52.5,152.7,105,229,157.5c22.4,15.4,44.6,30.9,67,46.4c5.3,3.6,8.8,8.1,7.8,14.6c-1.6,10.5-12.8,15.4-22.7,9.4
	c-9.9-6-19.2-12.9-28.8-19.4c-2-1.3-3.7-3.6-6.6-2.1c-3.2,1.7-2.1,5.3-2.4,8c-1.7,12.9-1.5,25.9-0.2,38.8
	c1.3,12.9-3.7,19.7-14.2,19.6c-9.2-0.1-14.1-6.1-14-16.1c0.2-22.7,0.1-45.4,0.2-68.2c0-4.7-2-7.9-6.1-10.7
	c-73.2-49.9-146.3-100.1-219.6-149.9c-12.6-8.5-8.7-9.4-22.4,0c-65.4,44.9-130.7,89.8-196,134.8c-7.9,5.4-15.7,11-23.6,16.4
	c-3.8,2.6-5.6,5.6-5.6,10.3c0.1,110.6,0.1,221.2,0.1,331.8c0,7.7,0.9,8.9,9.5,9c22.9,0.2,45.9,0,68.8-0.1c7.7,0,15.4-0.3,23.1-0.1
	c7.8,0.1,9.1-0.8,9.1-8.3c0.1-16.7,0.1-33.4,0.1-50.2c0-30.2,0-60.4,0-90.7c0-8.7,3.9-12.9,13.2-13.7c3.6-0.3,7.3-0.1,10.9-0.2
	c32-0.2,64-0.3,96-0.5c10.5-0.1,17.2,6.1,17.2,16.6c0,45.2,0,90.5,0,135.7c0,10.7,0.8,11.6,12.5,11.5c25-0.1,49.9-0.5,74.9-0.5
	c36.6,0,73.1,0.4,109.7,0.6c9.6,0.1,15.2,4.7,15.4,12.6c0.2,7.5-5.8,13.3-14.8,13.8C1137.6,755.1,1131.7,754.9,1125.1,754.9
	 M878.3,727.9c10.2-0.1,20.4-0.4,30.6-0.1c6.7,0.2,8.6-2.4,8.6-8.4c-0.2-39.8-0.1-79.7,0.1-119.5c0-6-2.4-7.7-9.9-7.1
	c-20,1.7-40.2,1.9-60.2,0c-7.6-0.7-10.9,1.1-10.9,7.5c0.1,39.6,0,79.2,0.1,118.9c0,7.5,1.5,9,9.7,9.1
	C856.6,728.4,866.8,728.1,878.3,727.9z"/>
<path class="st2" d="M1012.3,636.6c-39.9-60.4-18.5-136.2,48.7-167.9c70.8-33.4,158.8,1.3,177.4,78.6c8.3,34.4,0.6,66.6-21.5,95.4
	c-3.1,4.1-2.9,6.5,0.9,10c23.9,21.6,47.5,43.5,71.2,65.2c4.4,4.1,7.6,8.6,6.2,14.6c-2.4,10.7-14.9,15-24.2,8.2
	c-4.7-3.4-8.5-7.8-13-11.4c-21.6-16.9-42.2-34.9-60.2-55.2c-5.4-6.1-8.6-5.2-13.7-2.3c-51.1,29.4-114.6,22.4-156.6-17.3
	C1021.8,649.3,1017,643.3,1012.3,636.6 M1193.3,521.6c-22.2-26.6-50.5-39.9-87-36.3c-46.7,4.5-84.2,44.7-83.7,88.7
	c0.6,53.2,52.7,96.3,110.5,86.5C1199.6,649.2,1234.9,577.2,1193.3,521.6z"/>
<path class="st3" d="M1234.5,677.6c-4.3,0.8-7.6,5.2-6.7,9.3c-1.1,2.7-2.7,10.8-2.1,13.6"/>
<path class="st1" d="M918.8,349.3c28.9,0.1,57.1,0.1,85.3,0.2c10.3,0,16.7,7.2,14.8,17.7c-0.2,1.1,0.4,2.5,0.4,3.5
	c0,3.1,0,5.6-0.1,9.8c-0.4,13.3,0.1,26.6,0,40c-0.1,14.4-0.3,30.6,0,45c0.1,3.5,0.2,6.6,0,9.6c-0.1,1.2,0.2,2.3,0.4,3.7
	c2.2,15.6-3.1,19.5-15.6,19.5c-43.5,0.1-87,0.2-130.5,0.4c-7.1,0-13.2-5.1-13.3-11.9c-0.3-23.4-0.1-46.8-0.6-70.2
	c-0.3-17.2,1.4-34.4-0.6-51.6c-0.9-8,5.4-14.7,14-14.8C888,349.8,903,349.6,918.8,349.3 M975.5,377.5c-4.9,0-9.8,0.1-14.8,0
	c-6-0.1-7.6,3.7-5.7,11.2c1,4,1,8.1,0,12.1c-1.7,7-0.8,10.5,4.7,10.4c8-0.1,15.9,0,23.9,0c4.6,0,6.8-2.4,6.3-7.3
	c-0.6-6.6-0.2-13.1,0.1-19.7c0.2-4.4-1.8-6.4-6.2-6.5C981.5,377.5,979.1,377.5,975.5,377.5 M990,455.9c0-4-0.1-7.9-0.1-11.9
	c0.1-5.7-3.3-7.6-10.9-6.4c-4.2,0.7-8.4,0.8-12.6,0.1c-10-1.9-13,1.3-12,9.5c0.6,5.1,0.5,10.2-0.1,15.3c-0.8,7.3,1.7,10,8.7,9.1
	c3.9-0.5,8-0.2,12-0.1C989.9,471.4,989.9,471.4,990,455.9 M913.2,411.3c10.3-0.2,11-0.5,11.5-9.9c0.3-5.9-0.4-11.9-0.5-17.8
	c-0.1-4.2-2.6-5.9-6.7-6c-7.5-0.1-15-0.1-22.5,0c-3.8,0-5.6,2-5.6,5.4c-0.1,7.3-0.1,14.6,0,21.8c0.1,4.2,2.3,6.5,7,6.5
	C901.6,411.2,906.7,411.3,913.2,411.3 M924.1,466.2c0.3-7,0.8-14,0.3-21.1c-0.4-5.3-2.4-7.7-7.9-7.7c-7,0-14,0-21,0.1
	c-4.1,0.1-6,2.4-6,5.9c-0.1,7.3-0.1,14.5-0.1,21.8c0,4,2,6.1,6.5,6c7.3-0.1,14.5,0,21.8,0C920.5,471.2,923.2,470.7,924.1,466.2z"/>
<polyline class="st1" points="1019.2,484.7 1019.2,358.5 1019.2,420.5 "/>
<path class="st0" d="M1019.1,465.5"/>
<path class="st0" d="M1019.1,474.6"/>
<path class="st0" d="M1019.2,367.2"/>
<path class="st0" d="M1019.2,367.8"/>
</svg>
