<?xml version="1.0" encoding="utf-8"?>
<!-- Generator: Adobe Illustrator 28.0.0, SVG Export Plug-In . SVG Version: 6.00 Build 0)  -->
<svg version="1.1" id="Layer_1" xmlns="http://www.w3.org/2000/svg" xmlns:xlink="http://www.w3.org/1999/xlink" x="0px" y="0px"
	 viewBox="0 0 1920 1024" style="enable-background:new 0 0 1920 1024;" xml:space="preserve">
<style type="text/css">
	.st0{fill:#D2B272;}
	.st1{fill:#C7A155;}
	.st2{fill:#D2B172;}
	.st3{fill:#FCEFD8;}
	.st4{fill:#F8E0B4;}
	.st5{fill:#FFFBF3;}
	.st6{fill:#FEF6E5;}
</style>
<path class="st0" d="M646.1,474.1c1.4-1.3,2.8-2.6,4.9-3.6c1.3,0.4,1.9,0.6,2.6,0.6c54.9,0,109.7,0,164.6,0c1.2,0,2.5-1,3.7-1.5
	c0.1-0.1,0.3-0.2,1-0.7c0.8-1.8,1.1-3.3,1.1-4.7c0-74.5,0-148.9,0-223.4c0-1.6-0.6-3.1-0.9-4.7c2.1-2,4.2-4,7-5.7
	c1.5,0.4,2.3,0.6,3.1,0.6c83,0,166,0,248.9-0.1c0,0-0.1,0,0.2,0.3c0.9,0.4,1.6,0.5,2.3,0.7c0.2,0,0.4,0,0.6,0.7
	c0.4,0.8,0.7,1.1,1,1.4c0,0-0.1,0-0.1,0.4c0,46.9,0,93.3,0.1,139.8c0,1.6,1.3,3.2,2,4.8c0,0-0.1,0,0.1,0.3c0.7,0.4,1.3,0.6,1.9,0.7
	c0,0-0.1,0,0.1,0.3c0.7,0.4,1.3,0.6,1.9,0.7c0,0-0.1,0,0.1,0.3c0.7,0.4,1.3,0.6,1.9,0.7c0,0-0.1,0,0.1,0.3c0.7,0.4,1.3,0.6,1.9,0.7
	c0,0-0.1,0,0.1,0.3c0.7,0.4,1.3,0.6,1.9,0.7c0,0-0.1,0,0.1,0.3c0.7,0.4,1.3,0.6,1.9,0.7c0,0-0.1,0,0.1,0.3c0.7,0.4,1.3,0.6,1.9,0.7
	c0,0-0.1,0,0.1,0.3c0.7,0.4,1.3,0.6,1.9,0.7c0,0-0.1,0,0.1,0.3c0.7,0.4,1.3,0.6,1.9,0.7c0,0-0.1,0,0.1,0.3c0.7,0.4,1.3,0.6,1.9,0.7
	c0,0-0.1,0,0.1,0.3c0.7,0.4,1.3,0.6,1.9,0.7c0,0-0.1,0,0.1,0.3c0.7,0.4,1.3,0.6,1.9,0.7c0,0-0.1,0,0,0.2c0.4,0.4,0.7,0.6,1,0.8
	c0,0-0.1,0,0.1,0.3c1.1,0.4,2,0.6,2.9,0.7c0,0-0.1,0,0.1,0.3c0.7,0.4,1.3,0.6,1.9,0.7c0,0-0.1,0,0.1,0.3c0.7,0.4,1.3,0.6,1.9,0.7
	c0,0-0.1,0,0.1,0.3c0.7,0.4,1.3,0.6,1.9,0.7c0,0-0.1,0,0.1,0.3c0.7,0.4,1.3,0.6,1.9,0.7c0,0-0.1,0,0.1,0.3c1.4,0.8,2.7,1.2,3.9,1.7
	c0,0-0.1,0,0.1,0.3c0.7,0.4,1.3,0.6,1.9,0.7c0,0-0.1,0,0.1,0.3c0.7,0.4,1.3,0.6,1.9,0.7c0,0-0.1,0,0.1,0.3c0.7,0.4,1.3,0.6,1.9,0.7
	c0,0-0.1,0,0,0.3c5,2.5,9.9,4.7,14.8,6.8c32.7,16.2,65.5,32.4,98.2,48.6c5.5,2.7,11.1,5.3,16.4,8.3c2.3,1.3,4.1,3.6,5.9,6.1
	c-0.4,1.5-0.6,2.3-0.6,3.1c0,53.9,0,107.8,0,161.8c0,1.4,0.7,2.8,1,4.1c6,5,12.7,9.2,17.7,15.1c4.7,5.6,7.5,12.7,10.9,19.8
	c0,9.7,0.2,18.7,0.6,27.7c0.1,1.1,1.9,2.2,2.9,3.3c0.3,0.1,0.5,0.2,0.8,1c0.5,1,0.8,1.5,1.2,1.9c0,0,0-0.1,0,0.3
	c0.6,0.8,1.3,1.3,1.9,1.8c0,0-0.1,0.1-0.1,0.4c0.7,1.4,1.4,2.5,2.2,3.5c0,0,0,0.1,0,0.3c0.3,0.4,0.6,0.6,0.9,0.8c0,0-0.1,0-0.1,0.3
	c0.4,0.8,0.7,1.2,1.1,1.7c0,0-0.1,0-0.1,0.4c0.7,1.8,1.5,3.3,2.3,4.8c0,0,0,0.2-0.1,0.8c-0.1,1.3-0.1,2,0,2.7
	c0.2-0.2,0.4-0.2,0.7,0.4c0.7,1.3,1.2,2.2,1.8,3c0.1,0.5,0.2,0.9,0,2c-1.4,11.5-2.5,22.3-3.6,33.1c0,0,0-0.1-0.3,0.1
	c-1.4,2.7-2.6,5.3-3.7,7.9c0,0,0-0.1-0.2,0c-0.4,0.4-0.6,0.7-0.8,1c0,0,0-0.1-0.3,0.1c-0.4,0.7-0.6,1.3-0.7,1.9c0,0,0-0.1-0.3,0.1
	c-0.4,0.5-0.6,0.8-0.7,1.2c1,0.6,1.9,1.3,3,1.8c4.2,1.6,7,5.9,6.5,10.1c-0.5,4.7-4,8.1-9,8.6c-1.3,0.1-2.7,0-4,0
	c-226.7,0-453.4,0-680.2,0c-8.8,0-13.7-5.2-11.6-12.5c1.1-3.8,3.6-5.8,8.1-6.1c5.1,0.5,9.5,0.7,13.9,0.6c4.4-0.1,8.7-0.6,13-0.9
	c0.3-0.2,0.6-0.4,1.2-1c0.2-0.6,0.1-0.8,0-1.1c-0.1-1-0.2-2-0.2-3c0-97.7,0-195.5,0.3-293.9c0.2-1.8,0-3-0.2-4.1
	c0.1-0.6,0.1-1.2,0.7-2c0.5-0.3,0.7-0.4,0.7-0.4C646.4,474.5,646.3,474.3,646.1,474.1 M1249,479c0,0,0.1,0-0.3-0.5
	c-0.6-0.2-1.2-0.4-2.3-1c-0.9-0.5-1.7-1-2.6-1.5c-49.5-24.6-99-49.3-148.6-73.8c-1.2-0.6-2.5-0.8-4.2-1.8c-1.3-0.4-2.6-0.9-4.6-0.8
	c-0.2,1.5-0.5,2.9-0.5,4.4c0,123.4,0,246.7,0,370.1c0,1.7,0.8,3.3,1.6,5.3c0.5,0.3,0.9,0.5,2,1.4c0.6,0.1,1.3,0.3,1.9,0.3
	c19.4,0,38.7,0,58.1,0c1.1,0,2.2-0.5,3.8-1c-0.2-0.6-0.4-1.1-0.9-1.9c0,0-0.4-0.1-0.5-0.7c-0.2-0.5-0.5-1-1-1.9c0,0-0.3-0.4-0.5-1.1
	c-22.4-35.4-8.6-79.6,29.8-96.4c1.3-0.6,2.9-1.9,3.3-3.2c7.7-21.8,23-34.8,46.1-40.1c7.2,0,14.4,0,22.1,0c0-2,0-3.6,0-5.2
	c0-24.8,0-49.5,0-74.3c0-24.4,0.1-48.9,0.5-73.4l0.1-0.4c0,0-0.3-0.3-0.6-0.9c-0.6-0.2-1.2-0.4-1.8-0.6c0,0,0,0.1-0.1-0.5
	C1249.7,479.2,1249.3,479.1,1249,479 M909.4,677.7c0.2-0.3,0.3-0.7,0.8-1.6c1.3-0.7,2.6-1.3,4.5-1.4c0.7,0.1,1.3,0.3,2,0.3
	c24.8,0,49.6,0,74.5,0c1.2,0,2.5-0.5,4.4-0.9c0.8,0.3,1.6,0.6,2.7,1.5c0.4,0.1,0.7,0.3,1.7,0.6c0.7,1.1,1.4,2.3,2,4.4
	c0,31.5,0,63.1,0,94.6c0,1.6,0.9,3.2,1.7,4.8c0,0,0.3,0.1,0.9,0.7c0.6,0.1,1.3,0.4,1.9,0.4c19.3,0,38.5,0,57.8,0
	c1.2,0,2.5-0.6,3.6-1.1c0,0,0-0.2,0.5-0.2c0.3-0.2,0.4-0.4,0.5-0.8c0,0,0.1,0.1,0.7-0.5c0.1-1.5,0.4-3,0.4-4.4
	c0-173.3,0-346.6,0-519.8c0-1.7-0.7-3.4-1.1-5.4c0,0,0.1-0.2-0.2-1c-1.9-0.2-3.9-0.7-5.8-0.7c-31.8,0-63.6,0-95.4,0
	c-40.5,0-80.9,0-121.4,0c-2.9,0-5.5-0.1-4.9,4.8c0,1.4-0.1,2.8-0.7,4.8c-0.1,1.5-0.4,2.9-0.4,4.4c0,171,0,342,0,513
	c0,1.7,0.7,3.4,1.4,5.4c0.2,0.2,0.4,0.4,1.2,1.2c0.6,0.1,1.3,0.4,1.9,0.4c19.4,0,38.8,0,58.2,0c1.1,0,2.1-0.6,3.7-1.1
	c0.2-0.3,0.5-0.6,1.2-1.5c0.1-1,0.3-2,0.3-3c0-31.8,0-63.6,0-95.4c0,0-0.1,0,0.5-0.3c0.2-0.6,0.3-1.2,0.5-1.7
	C909,678,908.9,678,909.4,677.7 M822.3,779.7c0.2-0.2,0.4-0.4,1.2-1.2c0.2-1.1,0.5-2.3,0.5-3.4c0-94.3,0-188.5,0-282.8
	c0-1.4-0.9-2.9-1.7-4.3c0,0-0.3-0.1-0.8-0.7c-1-0.1-2-0.4-2.9-0.4c-50.1,0-100.1,0-150.2,0c-1.4,0-2.8,0.6-4.7,1.1
	c-0.2,0.3-0.5,0.6-1.2,1.5c-0.1,1.3-0.3,2.6-0.3,3.9c0,93.5,0,187,0,280.6c0,1.6,0.5,3.2,1.1,5.2c0.3,0.2,0.6,0.5,1.5,1.2
	c0.8,0.1,1.6,0.3,2.4,0.3c50.2,0,100.5,0,150.7,0C819.2,781,820.6,780.3,822.3,779.7 M985.7,778.3c0.1-0.7,0.3-1.3,0.3-2
	c0-26.8,0-53.7,0-80.5c0-1.3-0.5-2.5-1.3-4.4c-1.6-0.2-3.2-0.4-5.4-1.1c-12-0.1-24-0.2-36-0.3c-1.1,0-2.1,0.5-3.9,0.9
	c-0.5,0-1-0.1-2-0.6c-3.7,0.2-7.5,0.3-11.7,0.8c-0.2,0.3-0.5,0.6-1.3,1.5c-0.1,0.6-0.3,1.3-0.3,1.9c0,26.9,0,53.8,0,80.6
	c0,1.2,0.6,2.5,1.2,4.2c0.3,0.2,0.6,0.5,1.5,1.3c18.5,0.1,37,0.2,55.5,0.3c0.6,0,1.1-0.5,2.2-1.1
	C984.7,779.5,984.9,779.2,985.7,778.3 M1179.3,779.3c0.6,0.2,1.2,0.4,2.3,0.6c0,0,0.5,0.1,1,0.7c0.6,0.1,1.3,0.3,1.9,0.3
	c29.9,0,59.9,0,89.8,0c1.2,0,2.4-0.7,4.2-1.4c0.8-0.6,1.5-1.3,2.3-1.9c20.2-14.3,24.7-47,3.5-65.7c-2.7-2.4-2.7-4.9-1.9-8.1
	c4.3-17.7-0.3-32.5-14.9-43.8c-26.1-20.1-62.5-6.3-68.2,25.9c-0.7,3.8-2.1,5.3-5.8,6.1c-28.6,6.6-44.2,39.5-31.6,66.1
	C1166,766.6,1172,773,1179.3,779.3z"/>
<path class="st1" d="M821.4,469.4c-0.8,0.6-2,1.5-3.3,1.5c-54.9,0.1-109.7,0.1-164.6,0c-0.6,0-1.3-0.2-2.2-0.6
	c1.3-0.6,3-1.1,4.6-1.1C710.9,469.2,766,469.3,821.4,469.4z"/>
<path class="st1" d="M1087.9,378.5c-0.5-1.1-1.9-2.7-1.9-4.3c-0.1-46.4-0.1-92.9,0-139.8c0.5,2.2,1.4,4.9,1.5,7.6
	c0.1,43.7,0.1,87.4,0.1,131.1C1087.6,374.8,1087.7,376.4,1087.9,378.5z"/>
<path class="st1" d="M1081.8,230.6c-82.7,0.4-165.7,0.4-248.7,0.4c-0.8,0-1.6-0.2-2.8-0.6c44.4-0.3,89.2-0.4,133.9-0.4
	c36.9,0,73.9,0,110.8,0C1077.3,230,1079.4,230.1,1081.8,230.6z"/>
<path class="st1" d="M823,236.5c0.4,1.1,1,2.7,1,4.2c0,74.5,0,148.9,0,223.4c0,1.5-0.3,2.9-0.8,4.6
	C822.8,391.6,822.8,314.3,823,236.5z"/>
<path class="st1" d="M1270.1,640.6c-0.4-0.9-1.1-2.3-1.1-3.7c-0.1-53.9,0-107.8,0-161.8c0-0.8,0.2-1.6,0.6-2.8
	c0.4,1,0.6,2.3,0.6,3.7C1270.2,530.7,1270.2,585.4,1270.1,640.6z"/>
<path class="st2" d="M1302,706.6c-0.9-0.7-2.7-1.8-2.8-2.9c-0.5-9-0.6-18.1-0.6-27.4c2.9,8,4.1,16.5,2.6,25.2
	C1301,703,1301.7,704.6,1302,706.6z"/>
<path class="st1" d="M1311.3,765.8c0.8-10.6,1.9-21.4,3.3-32.5C1317.2,744.2,1315.9,755.1,1311.3,765.8z"/>
<path class="st1" d="M1148.7,408.9c-4.6-2-9.5-4.2-14.5-6.7C1138.8,404.2,1143.6,406.4,1148.7,408.9z"/>
<path class="st1" d="M643.5,780c-3.9,0.4-8.2,0.8-12.6,0.9c-4.4,0.1-8.8-0.2-13.6-0.6C625.7,780.1,634.4,780,643.5,780z"/>
<path class="st1" d="M1307.3,773.9c0.9-2.4,2-5,3.5-7.7C1309.9,768.6,1308.8,771.1,1307.3,773.9z"/>
<path class="st2" d="M1312.2,723.7c-0.7-1.1-1.5-2.6-2.2-4.4C1310.8,720.4,1311.5,721.9,1312.2,723.7z"/>
<path class="st2" d="M1308.2,715.5c-0.7-0.7-1.4-1.8-2.2-3.2C1306.8,713,1307.5,714.1,1308.2,715.5z"/>
<path class="st1" d="M1127.9,398.7c-1.1-0.2-2.3-0.7-3.7-1.5C1125.2,397.4,1126.5,397.9,1127.9,398.7z"/>
<path class="st2" d="M1314.7,730.7c-0.6-0.5-1.1-1.4-1.7-2.6C1313.6,728.6,1314.1,729.5,1314.7,730.7z"/>
<path class="st2" d="M1306,711.6c-0.6-0.2-1.2-0.7-1.8-1.5C1304.8,710.3,1305.4,710.8,1306,711.6z"/>
<path class="st1" d="M645.1,477.4c0.2,0.8,0.4,1.9,0.3,3.3C645.1,479.9,645.1,478.9,645.1,477.4z"/>
<path class="st1" d="M1115.9,392.7c-0.7,0.1-1.6,0-2.7-0.5C1113.9,392.1,1114.8,392.2,1115.9,392.7z"/>
<path class="st1" d="M1084.3,231.7c-0.5,0.1-1.2,0-2.1-0.4C1082.7,231.1,1083.4,231.2,1084.3,231.7z"/>
<path class="st1" d="M1305.3,776.9c-0.1-0.4,0.1-1,0.5-1.8C1305.9,775.6,1305.8,776.2,1305.3,776.9z"/>
<path class="st2" d="M1312.5,727.4c-0.4-0.5-0.4-1.2-0.4-2.4C1312.4,725.4,1312.7,726.3,1312.5,727.4z"/>
<path class="st2" d="M1310.1,718.7c-0.3-0.2-0.7-0.6-1-1.4C1309.4,717.4,1309.7,717.9,1310.1,718.7z"/>
<path class="st2" d="M1304.2,709.6c-0.4-0.2-0.7-0.6-1.1-1.4C1303.4,708.3,1303.8,708.8,1304.2,709.6z"/>
<path class="st1" d="M1093.9,381.7c-0.4,0.1-1-0.1-1.7-0.5C1092.6,381.1,1093.1,381.3,1093.9,381.7z"/>
<path class="st1" d="M1095.9,382.7c-0.4,0.1-1-0.1-1.7-0.5C1094.6,382.1,1095.1,382.3,1095.9,382.7z"/>
<path class="st1" d="M1097.9,383.7c-0.4,0.1-1-0.1-1.7-0.5C1096.6,383.1,1097.2,383.3,1097.9,383.7z"/>
<path class="st1" d="M1101.9,385.7c-0.4,0.1-1-0.1-1.7-0.6C1100.6,385.1,1101.1,385.3,1101.9,385.7z"/>
<path class="st1" d="M1103.9,386.7c-0.4,0.1-1-0.1-1.7-0.5C1102.6,386.1,1103.1,386.3,1103.9,386.7z"/>
<path class="st1" d="M1105.9,387.7c-0.4,0.1-1-0.1-1.7-0.5C1104.6,387.1,1105.2,387.3,1105.9,387.7z"/>
<path class="st1" d="M1099.9,384.7c-0.4,0.1-1-0.1-1.7-0.5C1098.6,384.1,1099.1,384.3,1099.9,384.7z"/>
<path class="st1" d="M1107.9,388.7c-0.4,0.1-1-0.1-1.7-0.5C1106.6,388.1,1107.2,388.3,1107.9,388.7z"/>
<path class="st1" d="M1109.9,389.7c-0.4,0.1-1-0.1-1.7-0.5C1108.6,389.1,1109.2,389.3,1109.9,389.7z"/>
<path class="st1" d="M1133.9,401.7c-0.4,0.1-1-0.1-1.8-0.5C1132.6,401.1,1133.2,401.3,1133.9,401.7z"/>
<path class="st1" d="M1131.9,400.7c-0.4,0.1-1-0.1-1.8-0.5C1130.6,400.1,1131.2,400.2,1131.9,400.7z"/>
<path class="st1" d="M1129.9,399.7c-0.4,0.1-1-0.1-1.8-0.5C1128.6,399.1,1129.2,399.3,1129.9,399.7z"/>
<path class="st1" d="M1111.9,390.7c-0.4,0.1-1-0.1-1.7-0.5C1110.6,390.1,1111.2,390.3,1111.9,390.7z"/>
<path class="st1" d="M1123.9,396.7c-0.4,0.1-1-0.1-1.8-0.5C1122.6,396.1,1123.2,396.3,1123.9,396.7z"/>
<path class="st1" d="M1121.9,395.7c-0.4,0.1-1-0.1-1.8-0.5C1120.6,395.1,1121.2,395.3,1121.9,395.7z"/>
<path class="st1" d="M1119.9,394.7c-0.4,0.1-1-0.1-1.8-0.5C1118.6,394.1,1119.2,394.3,1119.9,394.7z"/>
<path class="st1" d="M1117.9,393.7c-0.4,0.1-1-0.1-1.8-0.5C1116.6,393.1,1117.2,393.3,1117.9,393.7z"/>
<path class="st1" d="M1091.9,380.7c-0.4,0.1-1-0.1-1.7-0.5C1090.6,380.1,1091.1,380.3,1091.9,380.7z"/>
<path class="st1" d="M1089.9,379.7c-0.4,0.1-1-0.1-1.7-0.6C1088.6,379.1,1089.1,379.3,1089.9,379.7z"/>
<path class="st1" d="M1306.3,775.1c-0.1-0.3,0.1-0.5,0.5-0.9C1306.9,774.4,1306.8,774.7,1306.3,775.1z"/>
<path class="st1" d="M1304.3,778.2c-0.1-0.2,0.1-0.5,0.5-1C1304.9,777.4,1304.7,777.7,1304.3,778.2z"/>
<path class="st1" d="M645.1,778.3c0.1,0,0.2,0.3,0.2,0.6C645.1,778.9,645.1,778.5,645.1,778.3z"/>
<path class="st1" d="M1086,233.7c-0.2,0-0.5-0.3-0.9-0.9C1085.3,232.7,1085.7,233,1086,233.7z"/>
<path class="st1" d="M1113.1,391.7c-0.3,0.1-0.6-0.1-1-0.5C1112.4,391.1,1112.7,391.2,1113.1,391.7z"/>
<path class="st1" d="M646,474.3c0.2,0,0.4,0.2,0.5,0.4c0,0-0.2,0.1-0.5,0.3C645.8,475,645.9,474.5,646,474.3z"/>
<path class="st2" d="M1309,716.7c-0.2,0.1-0.5-0.1-0.8-0.6C1308.4,716,1308.7,716.2,1309,716.7z"/>
<path class="st3" d="M998,675c-0.8-0.3-1.6-0.6-3.2-1c-27.4,0-54,0.1-80.7,0.1c-1.3,0.7-2.6,1.3-4.2,2.4c-0.6,0.8-0.8,1.1-1,1.4
	c0,0,0.1,0-0.2,0.1c-0.4,0.7-0.6,1.3-0.8,1.9c0,0,0.1,0-0.2,0.3c-0.4,2.7-0.6,5.2-0.6,7.7c-0.1,25.4-0.1,50.7-0.5,76.2
	c-2.1,2-2.4,3.6,0.4,5.3c0.1,3.5,0.2,6.5,0.2,9.5c-0.2,0.3-0.5,0.6-1,1c-0.3,0.1-0.4-0.1-0.5-0.5c-1.8-0.7-3.6-1.3-5.3-1.3
	c-17.2-0.1-34.3-0.2-51.5,0.1c-4.4,0.1-5.9-1-5.9-5.7c0.1-172.3,0.1-344.6,0-516.9c0-4.5,1.3-5.5,5.6-5.5
	c72.8,0.1,145.6,0.1,218.5,0.6c0,176.2,0,351.8-0.5,527.5c-18.8,0-37.1-0.2-55.5,0.1c-4.7,0.1-6.2-1.1-6.2-6c0.2-28.7,0.1-57.3,0-86
	c0-1.7-1.1-3.4-1.8-5.4c-0.5-0.6-0.8-1-1-1.3c-0.7-1.1-1.4-2.3-2.5-3.7C998.7,675.3,998.3,675.2,998,675 M973.1,506.5
	c0.3,0.2,0.6,0.4,0.9,0.5c0,0-0.1,0,0.3,0.5c0.6,0.2,1.2,0.4,1.7,0.5c0,0-0.1,0,0.5,0.7c15.5,0.1,30.9,0.1,47.1,0.1
	c2.1-1.9,4.3-3.8,7-6.3c0.1-0.6,0.4-1.3,0.4-1.9c0-23.3,0-46.6,0-69.9c0-1.2-0.7-2.4-1-3.6c0,0,0,0.1-0.1-0.6
	c-0.4-0.5-0.8-0.9-1.7-1.8c-0.8-0.8-1.5-1.5-2.5-2.9c-0.6-0.2-1.2-0.4-1.7-0.7c0,0,0,0.1-0.5-0.6c-15.2-0.1-30.4-0.3-45.6-0.3
	c-0.6,0-1.2,0.9-2.2,1.7c-0.5,0.1-0.9,0.2-2,0.5c-0.2,0.3-0.5,0.6-0.9,1.4c-0.2,0.2-0.4,0.4-1.2,0.6c-0.2,0.3-0.4,0.6-0.6,0.8
	c0,0,0.1,0-0.5,0.3c-0.2,0.6-0.3,1.2-0.5,1.7c0,0,0.1,0-0.6,0.5c-0.1,0.5-0.4,0.9-0.4,1.4c0,24.2,0,48.4,0,72.6
	c0,0.4,0.7,0.8,1.6,1.5c0.5,0.6,0.9,1.3,1.4,1.8c0,0-0.1,0,0.1,0.5c0.3,0.2,0.6,0.4,0.9,0.5C973,506,972.9,506,973.1,506.5
	 M883.5,546.1c-0.2,0.3-0.4,0.6-0.5,0.9c0,0,0-0.1-0.7,0.4c-0.4,1.2-1.3,2.4-1.3,3.7c0,24.6,0.1,49.2,0.3,74.4
	c1.1,1.2,2.2,2.4,3.8,4.2c1.7,0.4,3.5,1.2,5.2,1.3c13.7,0.1,27.3,0.1,41,0c1.2,0,2.5-0.6,3.7-0.9c0,0,0,0.1,0.5-0.1
	c0.2-0.3,0.4-0.6,1-1c0,0,0.5-0.1,1-0.1c0.2-0.3,0.3-0.5,0.5-0.8c0,0,0,0.1,0.5-0.1c0.2-0.3,0.4-0.6,0.5-0.9c0,0,0,0.1,0.4,0
	c0,0,0.4-0.1,1-0.1c0.1-0.7,0.2-1.4,0.4-2.7c0.1-0.4,0.2-0.8,0.9-1.4c-0.2-1.3-0.4-2.6-0.8-4.6c0-1.1,0.1-2.2,0.7-3.3
	c0.3-0.3,0.6-0.6,0.9-0.9c-0.5-0.3-1-0.6-1.5-1.8c0-2.1,0.1-4.1,0.7-6.2c0.3-0.3,0.6-0.6,0.9-0.9c-0.5-0.3-1-0.6-1.5-1.9
	c0-4,0.1-8.1,0.9-12.3c1.3-4.3,2.6-8.7-0.9-13.6c0-2.4,0.1-4.8,0.9-7.4c1.3-3.1,2.5-6.1-0.9-9.3c-0.1-0.2-0.1-0.4-0.1-1
	c0,0,0.1-0.5,0.9-0.6c1.9-3.5,2.1-6.8-1.4-9.8c0,0-0.3,0-0.5-0.6c-0.3-0.5-0.7-1-1.2-2c-0.6-0.5-1.2-0.9-2.1-1.8
	c-0.6-0.2-1.1-0.4-2.1-1.1c-0.6-0.1-1.1-0.2-2.1-0.3c0,0-0.4,0-1.4-0.1c-10.1,0-20.2,0.1-30.9,0.1c-0.7,0-1.4,0-3-0.1
	c-3.4,0.3-6.8,0.5-10.8,0.9c-0.5,0.3-1,0.7-1.4,1c0,0,0-0.1-0.5,0.1c-0.2,0.3-0.4,0.6-0.5,0.8C884,546,884,545.9,883.5,546.1
	 M969.6,306.3c0.1,0.6,0.2,1.1,0.3,2.4c0,0.5-0.1,1-0.6,2.1c-0.1,23.1-0.2,46.1-0.2,69.2c0,0.7,0.7,1.4,1,2.1c0,0,0-0.1,0.1,0.6
	c0.5,0.4,0.9,0.9,1.9,1.7c1.4,1.1,2.7,2.1,4.5,4c0.8,0.2,1.5,0.7,2.3,0.7c14.1,0,28.1,0.1,42.2,0c1,0,2.1-0.7,3.1-1
	c0,0-0.1,0,0.6-0.1c0.5-0.4,0.9-0.9,1.7-1.8c1.2-1.3,2.4-2.6,4.2-4.6c0.2-0.8,0.5-1.6,0.5-2.4c0-23.2,0-46.4,0-69.6
	c0-1.2-0.7-2.4-1-3.6c0,0,0,0.1-0.1-0.6c-0.5-0.4-0.9-0.9-1.8-1.6c-0.7-0.5-1.5-1-2.6-1.7c0,0-0.5-0.1-0.5,0c0,0,0.1,0,0-0.4
	c0,0,0-0.4-0.3-1c-0.6-0.2-1.2-0.4-1.7-0.6c0,0,0,0.1-0.5-0.6c-14.4-0.1-28.8-0.3-43.1-0.4c-0.8,0-1.5,0.9-2.7,1.8
	c-0.6,0.4-1.1,0.7-1.6,1.1c0,0,0-0.1-0.5,0c0,0-0.4,0.2-0.9,0.4c-0.7,0.6-1.4,1.1-2.8,1.9c-0.2,0.6-0.5,1.2-0.8,1.7
	C970,306,970.1,306,969.6,306.3 M935.6,387.9c0.4-0.4,0.9-0.9,1.7-1.7c0.8-0.7,1.6-1.5,3-2.5c0.2-0.6,0.4-1.2,0.7-1.7
	c0,0-0.1,0,0.6-0.4c0.5-1.9,1.4-3.8,1.4-5.6c0.1-21.3,0.1-42.5,0-63.8c0-2.1-1.4-4.2-2.5-6.7c-1.2-1.1-2.3-2.1-3.9-3.4
	c0,0-0.5-0.1-0.5,0c0,0,0.1,0,0-0.4c0,0,0-0.4-0.3-1c-0.6-0.2-1.2-0.4-1.7-0.6c0,0,0,0.1-0.5-0.6c-14.4-0.1-28.8-0.3-43.3-0.4
	c-0.7,0-1.4,1-2.7,1.8c-0.5,0.3-1,0.7-1.5,1c0,0,0-0.1-0.5,0c0,0-0.4,0.2-1,0.4c-1.1,1.6-2.2,3.2-3.4,5.6c0,24.3,0,48.6,0.1,73.6
	c1.9,2.1,3.8,4.1,6.3,6.9c0.6,0.2,1.3,0.5,1.9,0.5c14.2,0,28.4,0.1,42.6,0c1,0,2.1-0.7,3.1-1C935,388,934.9,387.9,935.6,387.9
	 M940.7,425.6c-0.3-0.2-0.6-0.3-1.4-0.8c-0.8-0.8-1.6-1.6-2.4-2.9c-0.3,0-0.6,0-1.3,0c-0.3-0.1-0.5-0.2-1.1-1.3
	c-0.5-0.2-0.9-0.5-1.4-0.5c-14.4,0-28.8-0.1-43.3,0c-1,0-1.9,0.9-3.4,1.8c-1.8,2.1-3.6,4.2-5.5,7.2c0.1,24.6,0.1,49.2,0.3,74.5
	c1.9,1.7,3.9,3.5,6.7,5.4c15,0,29.9,0,45.6,0c2.4-2,4.9-4,8-6.3c0.4-1.7,1.3-3.4,1.3-5c0.1-21.4,0.1-42.8,0-64.2
	c0-2.5-1.3-4.9-1.9-7.4C941,426,941,426.1,940.7,425.6 M1025.5,629.8c1.3-1.3,2.6-2.5,4.7-4.2c0.2-1.1,0.7-2.2,0.7-3.3
	c0-23.1,0.1-46.2,0-69.4c0-1.4-0.7-2.7-1.6-4.6c-2.6-4-6.1-5.5-11-5.4c-12,0.2-23.9,0.3-35.9,0c-5.4-0.2-9.4,1.5-12.9,6.5
	c-0.2,0.6-0.5,1.3-0.5,1.9c0,24.1,0,48.2,0,72.3c0,0.4,0.7,0.9,1.5,1.4c0,0,0.4,0.1,0.5,0.6c0.3,0.5,0.7,1,1.2,2
	c0.6,0.5,1.2,0.9,2.2,1.9c0.6,0.2,1.1,0.5,2,1.2c0.6,0.1,1.1,0.1,2.6,0.3c14.3,0,28.6,0,43.5,0c0.5-0.2,1-0.5,2-0.9
	C1024.5,630.1,1024.9,629.9,1025.5,629.8z"/>
<path class="st3" d="M1091.5,400.9c1.2,0.4,2.6,0.6,3.7,1.2c49.5,24.6,99.1,49.2,148.6,73.8c0.9,0.4,1.7,1,3,2c1,0.7,1.6,0.8,2.2,1
	c0,0-0.1,0,0,0.2c0.4,0.4,0.7,0.6,1,0.7c0,0,0-0.1,0,0.4c0,51.1,0,101.6,0,152.8c-3-0.3-5.1-0.9-7.2-0.6c-4.6,0.5-9.2,1.5-13.8,2.3
	c-22.3,5.2-37.6,18.3-45.3,40c-0.5,1.3-2,2.6-3.3,3.2c-38.4,16.8-52.2,61-29.8,96.9c0.2,0.7,0.5,0.8,0.7,1c0.2,0.5,0.5,1,0.3,1.7
	c-18.9,0.3-37.4,0.3-55.9,0.3c-6.7,0-6.7,0-6.7-6.8c0-93.1,0-186.3,0-279.4c0-28.5,0-57,0.1-85.5
	C1089.1,404.3,1087.7,401.4,1091.5,400.9 M1136,607c0,0,0,0,0.4,0.5c1.2-0.1,2.3-0.2,4.5-0.5c19.1,0,38.2,0.1,57.7,0.6
	c1.8-0.5,3.6-1.1,5.8-2.1c1.4-1.5,2.8-3,5-5c0.2-0.6,0.6-1.2,0.6-1.9c0-23.1,0.1-46.2,0-69.3c0-1.1-0.9-2.2-1.9-3.8
	c-2-1.8-3.9-3.6-6.5-6.1c-0.5-0.2-0.9-0.4-1.4-0.4c-20.6,0-41.2-0.1-61.8,0c-0.4,0-0.8,0.7-1.7,1.6c-1.6,1.3-3.2,2.6-5.2,4.3
	c-0.2,0.4-0.3,0.7-0.9,1.8c-0.2,0.8-0.5,1.6-0.5,2.4c0,23,0.1,46,0.1,69.4c0,0,0.1,0.4,0,1.1c1.3,2,2.6,4,4.1,6.6
	C1134.8,606.5,1135.4,606.7,1136,607z"/>
<path class="st4" d="M1182.1,780.1c0,0-0.5-0.1-0.9-0.3c-1-0.5-1.6-0.8-2.1-1c-7-5.7-13.1-12.1-17-20.5c-12.6-26.5,3-59.5,31.6-66.1
	c3.6-0.8,5.1-2.4,5.8-6.1c5.8-32.2,42.2-46,68.2-25.9c14.6,11.2,19.3,26.1,14.9,43.8c-0.8,3.2-0.8,5.7,1.9,8.1
	c21.1,18.6,16.6,51.4-3.5,65.7c-0.8,0.6-1.5,1.3-3,2.1C1245.4,780,1213.7,780,1182.1,780.1z"/>
<path class="st3" d="M924.9,692.1c0.2-0.3,0.5-0.6,1.4-1c4.3-0.1,8-0.1,11.6-0.2c0.5,0,1,0.1,2.3,0.1c13.8,0,26.8-0.1,39.7-0.1
	c1.6,0.2,3.2,0.4,5,1.4c0.2,29.4,0.2,58,0.3,86.7c-0.2,0.3-0.5,0.6-1.4,1c-19.7,0.1-38.7,0.1-57.7,0.2c-0.3-0.2-0.6-0.5-1-1.4
	C925,749.4,924.9,720.7,924.9,692.1z"/>
<path class="st5" d="M1067,250c-72.8,0-145.6,0-218.5-0.1c-4.3,0-5.6,1-5.6,5.5c0.1,172.3,0.1,344.6,0,516.9c0,4.8,1.5,5.8,5.9,5.7
	c17.2-0.2,34.3-0.1,51.5-0.1c1.7,0,3.5,0.6,4.9,1.3c-21.3,0.5-42.2,0.6-63.2,0.7c-0.2-0.2-0.4-0.4-0.7-1.2
	c-0.1-140.2-0.1-279.8-0.1-419.4c0-34.5-0.1-69-0.2-103.4c0-1.4,0.1-2.8,0.2-4.9c3.4-1.4,6.6-2.6,9.8-2.6
	c21.1-0.1,42.2,0.3,63.3,0.3c27.4,0,54.8-0.3,82.3-0.3c24.1,0,48.2,0.1,72.3,0.2c0,0-0.1,0.2-0.1,0.6c0,0.5-0.1,0.7-0.4,0.9
	C1067.8,250,1067.4,250,1067,250z"/>
<path class="st6" d="M664.1,780.1c-0.3-0.2-0.6-0.5-1-1.4c-0.1-53.9,0-107-0.1-160.2c0-43.2-0.1-86.3-0.1-129.5
	c0.2-0.3,0.5-0.6,1.4-1c25-0.1,49.2-0.1,73.5-0.1c27.7,0,55.5,0.1,83.2,0.5c0,0.7,0,1.1-0.5,1.5c-50.1,0-99.7,0.1-149.4-0.1
	c-5.2,0-6.3,1.5-6.3,6.4c0.1,91.8,0.1,183.6,0.1,275.3c0,6.4,0,6.4,6.6,6.4c49.5,0,98.9,0,148.4,0.3c0,0.7,0,1-0.5,1.5
	c-39.2,0.1-77.9,0.1-116.6,0.2C690,780,677,780.1,664.1,780.1z"/>
<path class="st5" d="M1091.3,400.6c-3.6,0.7-2.3,3.7-2.3,5.7c-0.1,28.5-0.1,57-0.1,85.5c0,93.1,0,186.3,0,279.4c0,6.8,0,6.8,6.7,6.8
	c18.5,0,37,0,56,0c0.5,0,0.9,0.1,1.1,0.6c0.1,0.7,0.1,1-0.4,1.3c-21.4,0.1-42.3,0.2-63.3,0.3c-0.5-0.3-0.9-0.5-1.6-1.4
	c-0.2-67.4-0.2-134.1-0.2-200.9c0-59.6-0.1-119.2-0.1-178.8C1088.5,399.5,1089.8,399.9,1091.3,400.6z"/>
<path class="st5" d="M821,490c0-0.4,0-0.8,0.3-1.6c0.2-0.4,0.7-0.4,0.7-0.4s0.3,0.1,0.5,0.6c0.2,53.9,0.2,107.3,0.3,160.7
	c0,43.3,0.1,86.6,0.1,129.9c-0.2,0.2-0.4,0.4-1,0.7c-0.9,0-1.4,0-1.8-0.1c0-0.4,0-0.8,0.3-1.7c0.4-2.1,0.7-3.5,0.7-5
	C821,678.7,821,584.3,821,490z"/>
<path class="st1" d="M1068.8,250c0-0.2,0.1-0.3,0.2-0.8c0.4,1.5,1,3.2,1,4.9c0,173.3,0,346.6,0,519.8c0,1.5-0.2,3-0.7,4.5
	c-0.4-0.1-0.4-0.3-0.4-0.9c0.1-161.2,0.1-321.9,0.1-482.6C1069,279.9,1068.8,265,1068.8,250z"/>
<path class="st1" d="M840.7,256.2c0.4,34.2,0.5,68.7,0.5,103.1c0,139.6,0,279.2-0.1,419.2c-0.4-1.2-1.1-2.9-1.1-4.6
	c-0.1-171,0-342,0-513C840,259.5,840.3,258,840.7,256.2z"/>
<path class="st1" d="M1086.9,399.3c0.4,59.3,0.4,118.9,0.4,178.5c0,66.8,0,133.5,0,200.7c-0.4-1.2-1.2-2.9-1.2-4.5
	c-0.1-123.4-0.1-246.7,0-370.1C1086,402.4,1086.3,401,1086.9,399.3z"/>
<path class="st6" d="M1229.4,634.8c4.2-0.8,8.8-1.7,13.4-2.3c2-0.2,4.2,0.3,7.2,0.6c0-51.2,0-101.8,0-152.8c0.6-0.3,1.2-0.1,1.9,0.7
	c0.1,0.5,0.1,0.9,0.1,0.9c-0.1,24.4-0.1,48.9-0.2,73.3c0,24.8,0,49.5,0,74.3c0,1.6,0,3.3,0,5.2
	C1244.3,634.8,1237.1,634.8,1229.4,634.8z"/>
<path class="st1" d="M1068.8,248.1c-23.9,0.3-48,0.2-72.1,0.2c-27.4,0-54.8,0.3-82.3,0.3c-21.1,0-42.2-0.3-63.3-0.3
	c-3.2,0-6.5,1.2-9.9,2.2c-0.7-3.7,1.9-3.7,4.8-3.7c40.5,0.1,80.9,0,121.4,0c31.8,0,63.6,0,95.4,0
	C1064.7,247,1066.6,247.5,1068.8,248.1z"/>
<path class="st5" d="M1068.8,778c0.1,0.2,0.1,0.3,0.2,0.8c0.1,0.3-0.1,0.2-0.3,0.3c-0.4,0.3-0.6,0.5-0.7,0.7c0,0,0,0.2-0.5,0.2
	c-21.4,0.1-42.5,0.1-63.5,0.1c0,0-0.3-0.1-0.5-0.6c-0.2-33.1-0.2-65.8-0.2-98.4c0.6,1.7,1.7,3.4,1.7,5.1c0.1,28.7,0.2,57.3,0,86
	c0,4.9,1.5,6.1,6.2,6c18.3-0.3,36.7-0.1,55.8-0.1C1068,778,1068.4,778,1068.8,778z"/>
<path class="st1" d="M823.2,778.8c-0.4-43-0.4-86.3-0.4-129.6c0-53.4,0-106.9-0.1-160.8c0.4,1,1.3,2.4,1.3,3.9
	c0.1,94.3,0.1,188.5,0,282.8C824,776.3,823.7,777.4,823.2,778.8z"/>
<path class="st1" d="M662.6,489.4c0.3,42.9,0.4,86,0.4,129.2c0,53.2,0,106.3-0.1,159.9c-0.3-1.1-0.9-2.7-0.9-4.3
	c0-93.5,0-187,0-280.6C662,492.3,662.2,491,662.6,489.4z"/>
<path class="st1" d="M819.6,779.8c0.9,0,1.3,0.1,2.1,0.2c-1.1,0.4-2.4,1-3.8,1c-50.2,0-100.5,0-150.7,0c-0.8,0-1.6-0.2-2.7-0.6
	c12.7-0.3,25.6-0.4,38.6-0.4C741.7,779.9,780.4,779.9,819.6,779.8z"/>
<path class="st1" d="M821.7,487.7c0.3,0.3-0.2,0.4-0.4,0.4c-28,0-55.7,0-83.5-0.1c-24.3,0-48.5,0-73.2-0.1c0.9-0.3,2.4-0.9,3.8-0.9
	c50.1,0,100.1,0,150.2,0C819.4,487,820.4,487.2,821.7,487.7z"/>
<path class="st1" d="M1003.1,680.7c0.2,33,0.2,65.6,0.3,98.8c-0.4-1.2-1.3-2.8-1.3-4.4c-0.1-31.5,0-63.1,0-95.2
	C1002.3,679.8,1002.6,680.1,1003.1,680.7z"/>
<path class="st1" d="M906.8,764c0.1-25.4,0.1-50.7,0.2-76.1c0-2.5,0.2-4.9,0.6-7.7c0.3,31.5,0.3,63.3,0.3,95.1c0,1-0.2,2-0.6,3.2
	c-0.3-2.7-0.4-5.7-0.4-9.6C906.9,766.8,906.9,765.4,906.8,764z"/>
<path class="st1" d="M1182.4,780.4c31.4-0.3,63.1-0.3,95.2-0.4c-0.7,0.3-2,1-3.2,1c-29.9,0.1-59.9,0-89.8,0
	C1183.9,781,1183.3,780.8,1182.4,780.4z"/>
<path class="st1" d="M924.6,692.4c0.3,28.4,0.3,57,0.3,86.1c-0.3-0.8-0.9-2-0.9-3.2c0-26.9,0-53.8,0-80.6
	C924,693.9,924.2,693.3,924.6,692.4z"/>
<path class="st1" d="M985.4,778.6c-0.3-28.3-0.3-57-0.3-86c0.3,0.8,0.9,2,0.9,3.3c0,26.8,0,53.7,0,80.5
	C986,777,985.8,777.6,985.4,778.6z"/>
<path class="st1" d="M914.4,674.5c26.3-0.3,52.9-0.4,80-0.4c-0.8,0.3-2,0.9-3.3,0.9c-24.8,0-49.6,0-74.5,0
	C916,675,915.4,674.8,914.4,674.5z"/>
<path class="st1" d="M842.3,780.3c20.7-0.4,41.6-0.5,63-0.6c0.4,0,0.5,0.2,0.6,0.3c-1,0.4-2.1,0.9-3.2,0.9c-19.4,0-38.8,0-58.2,0
	C843.9,781,843.2,780.7,842.3,780.3z"/>
<path class="st1" d="M1089.3,780.4c20.7-0.4,41.6-0.5,63-0.5c0.4,0.1,0.6,0.3,0.6,0.3c-1.1,0.3-2.2,0.8-3.3,0.8
	c-19.4,0-38.7,0-58.1,0C1090.9,781,1090.3,780.8,1089.3,780.4z"/>
<path class="st1" d="M1004.3,780.3c20.7-0.3,41.7-0.3,63.2-0.3c-0.8,0.4-2,1-3.2,1c-19.3,0.1-38.5,0-57.8,0
	C1005.9,781,1005.2,780.7,1004.3,780.3z"/>
<path class="st1" d="M926.4,780.4c18.7-0.3,37.7-0.3,57.1-0.3c-0.1,0.3-0.7,0.9-1.3,0.9C963.7,780.9,945.2,780.8,926.4,780.4z"/>
<path class="st1" d="M979.6,690.6c-12.7,0.3-25.6,0.3-39.1,0.3c0.6-0.3,1.7-0.9,2.7-0.9C955.3,690.1,967.3,690.2,979.6,690.6z"/>
<path class="st1" d="M937.6,690.6c-3.3,0.3-7,0.3-11.1,0.3C929.8,690.7,933.6,690.5,937.6,690.6z"/>
<path class="st1" d="M1179.2,779c0.4,0,1,0.2,1.8,0.7C1180.5,779.8,1179.9,779.5,1179.2,779z"/>
<path class="st3" d="M1153.2,780.1c-0.3,0.1-0.4,0-0.4-0.1c0-0.4,0-0.6,0.1-1.3C1153.1,778.8,1153.3,779.4,1153.2,780.1z"/>
<path class="st1" d="M908.2,679.8c-0.1-0.4,0.1-1,0.5-1.7C908.8,678.5,908.6,679.1,908.2,679.8z"/>
<path class="st6" d="M1248.9,478.7c-0.4,0.1-1-0.1-1.8-0.6C1247.5,478.1,1248.1,478.3,1248.9,478.7z"/>
<path class="st5" d="M1151.2,775.7c-0.1,0-0.4-0.2-0.5-0.5C1150.8,775.1,1151.1,775.5,1151.2,775.7z"/>
<path class="st3" d="M1068.2,779.7c-0.1-0.2,0.1-0.4,0.4-0.7C1068.8,779.3,1068.7,779.6,1068.2,779.7z"/>
<path class="st1" d="M998.2,675.3c0.2-0.1,0.5,0.1,1.1,0.5C999,675.8,998.7,675.7,998.2,675.3z"/>
<path class="st1" d="M909.2,677.9c-0.1-0.2,0.1-0.5,0.5-1C909.8,677,909.6,677.4,909.2,677.9z"/>
<path class="st1" d="M1252.3,481.9c-0.1,0.1-0.2-0.4-0.1-0.6c0-0.2,0.4,0.1,0.4,0.1S1252.4,481.8,1252.3,481.9z"/>
<path class="st6" d="M1250,479.7c-0.2,0.1-0.5-0.1-0.9-0.5C1249.3,479.1,1249.7,479.2,1250,479.7z"/>
<path class="st2" d="M970.2,548.8c2.9-4.4,6.9-6,12.3-5.9c12,0.3,23.9,0.3,35.9,0c4.8-0.1,8.4,1.4,11.2,6.1
	c0.3,24.8,0.4,48.9,0.4,73c0,1.3-0.3,2.6-0.5,3.9c-1.3,1.3-2.6,2.5-4.3,3.7c-0.6,0.1-0.9,0.3-1.1,0.5c-0.5,0.2-1,0.5-2.1,0.4
	c-14.4-0.4-28.3-0.5-42.1-0.6c-0.6,0-1.1,0.5-1.7,0.8c-0.6-0.1-1.1-0.1-2.1-0.7c-0.9-0.7-1.5-0.9-2.1-1.1c-0.6-0.5-1.2-0.9-1.9-2
	c-0.5-1.1-0.8-1.5-1.2-2c0,0-0.4-0.1-0.6-0.6C970.1,598.9,970.1,573.8,970.2,548.8 M988.4,612.6c7.7,0,15.4,0,23.2,0
	c0-17.3,0-34.3,0-51.6c-5.5,0-10.6-0.1-15.7,0c-2.7,0.1-5.4,0.7-8.6,1.6c-0.1,15.8-0.2,31.7-0.3,47.5
	C987.1,610.8,987.6,611.3,988.4,612.6z"/>
<path class="st2" d="M972.2,424c0.3,0,0.5-0.2,1-0.8c0.6-0.6,0.9-0.9,1.1-1.2c0.5-0.1,0.9-0.2,2-0.6c16.3-0.3,32-0.4,47.7-0.4
	c0,0,0-0.1,0.1,0.2c0.7,0.5,1.3,0.8,1.8,1.1c0.8,0.8,1.5,1.5,2.6,2.8c0.7,1,1,1.4,1.4,1.9c0,0,0-0.1,0,0.4c0,25.5,0,50.5,0,75.6
	c-2.1,1.9-4.3,3.8-7,5.5c-16.1-0.3-31.6-0.4-47-0.5c0,0,0.1,0-0.1-0.3c-0.7-0.4-1.3-0.6-1.9-0.7c0,0,0.1,0,0-0.2
	c-0.4-0.4-0.7-0.6-1-0.8c0,0,0.1,0,0-0.2c-0.4-0.4-0.7-0.6-1-0.8c0,0,0.1,0,0.1-0.3c-0.6-1.4-1.2-2.5-1.9-4.1
	c-0.1-24.8,0-49.2,0-73.6c0,0-0.1,0,0.2,0.1c0.2,0,0.7-0.1,0.8-0.1c0.3-0.1,0.4-0.2,0.4-0.3c-0.1-0.2-0.2-0.4-0.3-0.8
	c0-0.4-0.1-0.6-0.1-0.8c0,0-0.1,0,0.2-0.1C971.7,424.6,972,424.3,972.2,424 M988.2,491.7c7.9,2.2,15.7,1.5,23.4-0.1
	c0-17.5,0-34.4,0-51.6c-5.5,0-10.6-0.1-15.7,0.1c-2.7,0.1-5.4,0.7-8.6,1.7c-0.1,15.8-0.2,31.7-0.2,47.5
	C987.1,489.8,987.6,490.4,988.2,491.7z"/>
<path class="st2" d="M941,503c-2.4,2-4.9,4-7.9,5.6c-14.5-0.4-28.3-0.6-42.1-0.6c-1.3,0-2.5,0.5-3.8,0.7c-1.9-1.7-3.9-3.5-5.6-5.9
	c0.3-24.8,0.4-48.9,0.4-73c0-0.6-0.5-1.2-0.8-1.8c1.8-2.1,3.6-4.2,6.1-6.6c16.4-0.3,32.1-0.2,47.7-0.2c0.1,0.3,0.3,0.5,1.1,0.6
	c0.4,0.1,0.9,0.3,0.9,0.3c0.8,0.8,1.6,1.6,2.7,2.8c0.7,0.6,1,0.7,1.3,0.9c0,0,0-0.1,0,0.4C940.9,452.3,940.9,477.7,941,503
	 M923,454.4c0-0.5-0.1-0.9,0-2.3c0-3.9,0-7.8,0-11.7c-8.3,0-15.9,0-23.6,0c0,17.6,0,34.8,0,52.4c6.7,0,12.9,0.2,19.2-0.1
	c2.9-0.1,4.6-1.5,4.5-5.1C922.8,476.7,922.9,465.9,923,454.4z"/>
<path class="st2" d="M937.1,628.9c0,0-0.5,0.1-1,0.2c-0.7,0.4-0.9,0.7-1.1,1c0,0,0-0.1-0.5-0.1c-17-0.3-33.5-0.6-50-1
	c-1.1-1.2-2.2-2.4-3-4.2c0.3-15.3,0.3-29.9,0.5-44.6c0.2-11.1,0.6-22.2,0.9-33.4c0,0,0,0.1,0.2,0c0.4-0.4,0.6-0.7,0.8-1
	c0,0,0,0.1,0.2,0c0.4-0.4,0.6-0.7,0.8-0.9c0,0,0,0.1,0.3,0c0.8-0.4,1.2-0.8,1.7-1.1c3.4-0.3,6.8-0.5,10.8-0.5c1.4,0.1,2.3,0,3.1-0.2
	c10.1,0,20.2-0.1,30.8,0.1c0.5,0.2,0.9,0.3,0.9,0.3l0.3-0.3c0.6,0.1,1.1,0.2,2.1,0.7c0.9,0.7,1.5,0.9,2.1,1c0.6,0.5,1.2,0.9,1.8,2
	c0.5,1.1,0.8,1.6,1.2,2c0,0,0.3,0,0.6,0.5c0.2,2.8,0.2,5.2-0.1,7.8c-0.1,1,0.1,1.8,0.2,2.7c0.1,0.2,0.1,0.4,0.2,1.3
	c0,2.8-0.1,4.8-0.4,7c-0.1,0.7,0.1,1.2,0.3,1.8c0.1,0,0.2,0,0.2,0c0,2.4-0.1,4.8-0.1,7.9c-0.1,0.9-0.1,1.1-0.4,1.5
	c-0.1,2,0.1,3.8,0.3,6c0.1,2.2,0.2,3.9,0.2,5.6c0,4-0.1,8.1-0.1,12.9c0,1.2,0.1,1.7,0.1,2.1c0,2.1-0.1,4.1-0.1,6.9
	c0,1.2,0.1,1.6,0.1,2.1c0,1.1-0.1,2.2-0.1,4c0,1.9,0.1,2.9,0.1,4c-0.1,0.4-0.2,0.8-0.5,1.6c-0.2,0.4-0.6,0.4-0.9,0.6
	c-0.5,0.7-0.6,1.3-0.8,1.9c0,0,0-0.1-0.2,0c-0.4,0.4-0.6,0.7-0.8,1c0,0,0-0.1-0.2,0C937.3,628.3,937.1,628.6,937.1,628.9 M923,603.2
	c0-1.8-0.1-3.5,0-6.2c0-9.3,0-18.6,0-28.7c0-1.1-0.1-2.2,0-4.2c-0.7-1-1.4-2.9-2.1-2.9c-7.1-0.2-14.2-0.1-21.7-0.1
	c0,7.3,0,14.1-0.1,21.7c0,0.8,0.1,1.6,0,3.3c0,8.9,0,17.8,0,26.7c8.3,0,15.8,0,23.8,0C922.8,609.7,922.8,606.9,923,603.2z"/>
<path class="st2" d="M971.4,304c0.7-0.6,1.4-1.1,2.5-1.6c0.6-0.1,0.8-0.3,1-0.5c0,0,0,0.1,0.5,0.1c16.8,0,33.3,0,49.7,0
	c0,0-0.1,0,0,0.2c0.3,0.1,0.6,0.1,0.8,0.1c0.7,0.5,1.5,1,2.6,2c0.7,0.9,1.1,1.4,1.5,1.9c0,0,0-0.1,0,0.4
	c-0.1,25.5-0.1,50.6-0.1,75.7c-1.2,1.3-2.4,2.6-4,4.3c-0.9,0.7-1.4,1.1-1.9,1.4c0,0,0.1,0-0.4,0c-16.1-0.2-31.8-0.3-47.5-0.4
	c-1.4-1.1-2.7-2.1-4.5-3.7c-0.8-0.9-1.1-1.4-1.5-1.9c0,0,0,0.1,0-0.4c-0.1-24.1-0.1-47.8-0.2-71.4c0-0.5,0.1-1,0.1-2.1
	c0.1-1.1,0.1-1.5,0.1-2c0,0-0.1,0,0.2-0.1C970.9,305.2,971.2,304.6,971.4,304 M988,331.7c0,1.1-0.1,2.2-0.7,3.9
	c-0.1,8.4-0.3,16.7-0.3,25.1c0,3,0.5,6.1,1.3,9.8c7.7,0,15.4,0,22.9,0c0.5-1.6,0.7-2.1,0.7-2.5c0-15.5,0-31,0.1-46.5
	c0-3-1.4-3.7-3.9-3.6c-4.2,0.1-8.3,0-12.5,0c-7.3,0-7.3,0-8.2,7.6C987.5,327.4,987.7,329.1,988,331.7z"/>
<path class="st2" d="M886.8,387.8c-1.9-2.1-3.8-4.1-5.4-6.8c0.4-1.3,0.6-1.9,0.6-2.6c0-22.7,0-45.3,0-68c0-1.1-0.5-2.2-0.7-3.3
	c1.1-1.6,2.2-3.2,3.7-4.7c0.6-0.2,0.9-0.3,1.1-0.5c0,0,0,0.1,0.5,0.1c16.8,0,33.3,0,49.7,0c0,0-0.1,0,0,0.2c0.3,0.1,0.6,0.1,0.8,0.1
	c1.2,1.1,2.3,2.1,3.7,3.8c0.2,1.1,0.2,1.6,0,2.3c-0.1,1.7,0.1,3.1,0.3,5c0,1.9,0,3.3-0.3,4.8c-0.1,0.7,0.1,1.2,0.3,2.2
	c0,17.2,0,33.9-0.3,50.9c-0.1,2,0.1,3.8,0.3,6c0,1.8,0,3.2,0,4.6c0,0,0.1,0-0.2,0.1c-0.5,0.7-0.8,1.3-1,1.8
	c-0.8,0.7-1.6,1.5-2.9,2.6c-0.9,0.7-1.4,1.1-1.9,1.4c0,0,0,0.1-0.4,0C918.3,387.9,902.6,387.8,886.8,387.8 M899,335.9
	c0,2.1,0.1,4.1,0,7.1c0,6.6,0.1,13.3,0,20.8c0,1.4,0.1,2.8,0,5.1c1.2,0.7,2.3,2,3.5,2c5.1,0.2,10.3-0.1,15.4,0.2
	c4.1,0.2,5.1-1.4,5-5.3c-0.2-12.4-0.1-24.9-0.1-37.3c0-3.3,0-6.5,0-9.8c-8.3,0-16,0-23.8,0C899.1,324.4,899.1,329.7,899,335.9z"/>
<path class="st6" d="M1068.9,777.6c-0.5,0.5-0.9,0.5-1.6,0.4c-0.3-175.7-0.3-351.4-0.3-527.5c0.4-0.5,0.8-0.5,1.5-0.5
	c0.4,15,0.5,30,0.5,44.9C1069,455.7,1069,616.4,1068.9,777.6z"/>
<path class="st6" d="M941.3,502.8c-0.4-25.2-0.4-50.5-0.4-76.3c0.7,2,2,4.5,2,6.9c0.2,21.4,0.1,42.8,0,64.2
	C942.9,499.3,942.1,501,941.3,502.8z"/>
<path class="st6" d="M940.9,308.1c0-0.5,0-1,0-1.9c0.7,1.7,2.1,3.8,2.1,5.9c0.2,21.3,0.1,42.5,0,63.8c0,1.9-0.9,3.8-1.7,5.9
	c-0.3-1.2-0.3-2.6-0.2-4.8c-0.1-2.5-0.1-4.2-0.1-5.8c0-16.7,0.1-33.5,0.1-51c-0.1-1.2-0.1-1.6-0.1-2c0-1.4,0.1-2.9,0.1-5.1
	C940.9,310.8,940.9,309.4,940.9,308.1z"/>
<path class="st1" d="M1025,301.8c-16.4,0.2-32.8,0.2-49.6,0.2c0.1-0.4,0.7-0.7,1.9-1.3c15.7-0.3,30.7-0.4,45.7-0.5
	c0,0,0-0.1,0.1,0.2c0.7,0.5,1.3,0.7,1.9,0.9C1025,301.3,1025,301.6,1025,301.8z"/>
<path class="st1" d="M936,301.8c-16.4,0.2-32.8,0.2-49.6,0.2c0-0.4,0.6-0.7,1.8-1.2c3.5-0.2,6.3-0.5,9.1-0.5
	c12.2-0.1,24.5-0.1,36.7-0.2c0,0,0-0.1,0.1,0.2c0.7,0.5,1.3,0.7,1.9,0.9C936,301.2,936,301.6,936,301.8z"/>
<path class="st1" d="M882.7,547.2c0,10.9-0.5,22-0.6,33.1c-0.2,14.6-0.2,29.3-0.5,44.3c-0.3-24.3-0.4-48.9-0.4-73.5
	C881.1,549.8,881.9,548.6,882.7,547.2z"/>
<path class="st5" d="M1029.9,625.8c-0.2-1.1,0.1-2.4,0.1-3.7c0-24.1,0-48.2-0.1-72.8c0.3,0.9,1.1,2.3,1.1,3.6
	c0.1,23.1,0.1,46.2,0,69.4C1031,623.4,1030.5,624.5,1029.9,625.8z"/>
<path class="st5" d="M969.9,549.1c0.3,24.8,0.2,49.8,0.2,75.3c-0.3,0-1-0.4-1-0.8c0-24.1,0-48.2,0-72.3
	C969,550.6,969.4,550,969.9,549.1z"/>
<path class="st5" d="M969.8,427.3c0.3,24.1,0.3,48.5,0.3,73.6c0.1,1.1,0.1,1.5,0.1,1.9c-0.4-0.4-1.1-0.8-1.1-1.2
	c0-24.2,0-48.4,0-72.6C969.1,428.5,969.3,428,969.8,427.3z"/>
<path class="st5" d="M1030.3,502.7c-0.3-24.7-0.3-49.8-0.3-75.3c0.3,0.7,1,1.9,1,3.2c0.1,23.3,0,46.6,0,69.9
	C1031,501.2,1030.7,501.8,1030.3,502.7z"/>
<path class="st5" d="M1030.2,381.9c-0.3-24.8-0.3-49.8-0.3-75.4c0.4,0.7,1,1.9,1,3.1c0.1,23.2,0,46.4,0,69.6
	C1031,380,1030.7,380.8,1030.2,381.9z"/>
<path class="st1" d="M881.1,428.6c0.3,0.1,0.8,0.7,0.8,1.3c0,24.1-0.1,48.2-0.5,72.7C881.2,478.2,881.1,453.6,881.1,428.6z"/>
<path class="st1" d="M881.1,307.6c0.3,0.6,0.8,1.7,0.8,2.8c0,22.7,0,45.3,0,68c0,0.7-0.2,1.3-0.6,2.2
	C881.1,356.6,881.1,332.3,881.1,307.6z"/>
<path class="st5" d="M969.6,310.4c0.3,23.3,0.4,47,0.5,71.1c-0.4-0.2-1-0.9-1-1.6C969.1,356.8,969.2,333.8,969.6,310.4z"/>
<path class="st1" d="M884.9,629.4c16.2,0,32.7,0.3,49.7,0.7c-0.8,0.3-2,0.9-3.2,0.9c-13.7,0.1-27.3,0.1-41,0
	C888.6,630.9,886.9,630.1,884.9,629.4z"/>
<path class="st5" d="M933.7,299.8c-12,0.4-24.2,0.4-36.4,0.5c-2.8,0-5.6,0.3-8.8,0.4c0.3-0.6,1-1.6,1.7-1.6
	C904.6,299.1,919,299.3,933.7,299.8z"/>
<path class="st6" d="M887.1,388.1c15.4-0.3,31.2-0.3,47.4-0.2c-0.6,0.4-1.6,1.1-2.6,1.1c-14.2,0.1-28.4,0-42.6,0
	C888.7,389,888,388.6,887.1,388.1z"/>
<path class="st5" d="M934.8,421c-15.5,0.3-31.1,0.3-47.3,0.3c0.5-0.3,1.5-1.2,2.4-1.2c14.4-0.1,28.8,0,43.3,0
	C933.6,420.1,934.1,420.4,934.8,421z"/>
<path class="st5" d="M1023.7,420.8c-15.4,0.4-31.1,0.4-47.2,0.5c0.2-0.3,0.8-1.2,1.4-1.2C993.1,420.2,1008.3,420.3,1023.7,420.8z"/>
<path class="st5" d="M976.2,387.9c15.5-0.3,31.2-0.1,47.3,0c-0.6,0.4-1.6,1-2.6,1c-14.1,0.1-28.1,0.1-42.2,0
	C978,389,977.2,388.5,976.2,387.9z"/>
<path class="st1" d="M976.2,508.4c15.2-0.2,30.6-0.1,46.4,0.2C1007.4,508.8,992,508.7,976.2,508.4z"/>
<path class="st5" d="M1022.7,299.8c-14.7,0.4-29.7,0.5-45.2,0.7c0.3-0.4,1.1-1.4,1.8-1.4C993.7,299.1,1008.1,299.3,1022.7,299.8z"/>
<path class="st1" d="M887.6,508.8c0.8-0.4,2.1-0.8,3.3-0.8c13.8,0.1,27.6,0.2,41.7,0.6C918,508.9,903,508.9,887.6,508.8z"/>
<path class="st1" d="M978.6,630.9c0.1-0.3,0.7-0.8,1.3-0.8c13.8,0,27.7,0.2,41.8,0.5C1007.6,630.9,993.3,630.9,978.6,630.9z"/>
<path class="st6" d="M941.5,590.9c-0.4-1.6-0.5-3.4-0.6-5.9c-0.1-2.5-0.1-4.2-0.1-5.9c0.1-0.2,0.1-0.3,0.2-0.8
	C944.6,582.1,943.2,586.4,941.5,590.9z"/>
<path class="st6" d="M940.9,557.1c0-2.4,0-4.8,0-7.6c3,2.5,2.9,5.8,0.5,9.1C941,557.9,940.9,557.5,940.9,557.1z"/>
<path class="st6" d="M940.9,568.1c0.1-2.1,0.1-4.1,0.2-6.6c3.3,2.2,2.1,5.3,0.4,8.4c-0.4,0.1-0.5,0.1-0.6-0.2
	C940.9,568.9,940.9,568.5,940.9,568.1z"/>
<path class="st5" d="M906.5,764.1c0.4,1.3,0.4,2.7,0.4,4.4C904.1,767.7,904.4,766.1,906.5,764.1z"/>
<path class="st6" d="M941.5,622.9c-0.4-1-0.4-2-0.4-3.5C941.4,620.3,941.6,621.6,941.5,622.9z"/>
<path class="st1" d="M970.4,503c-0.2-0.6-0.3-1-0.2-1.6c0.6,0.8,1.2,1.9,1.8,3.4C971.5,504.4,971.1,503.8,970.4,503z"/>
<path class="st6" d="M941.4,605.9c-0.3-0.4-0.3-0.8-0.3-1.6c0.5,0,1,0.3,1.5,0.6C942.3,605.3,942,605.6,941.4,605.9z"/>
<path class="st6" d="M941.4,614.9c-0.3-0.4-0.3-0.8-0.3-1.6c0.5,0,1,0.3,1.5,0.6C942.3,614.3,942,614.6,941.4,614.9z"/>
<path class="st6" d="M940.1,625c0,0,0.4,0,0.5-0.1c0.1,0.6,0,1.3-0.4,1.7C940,625.9,940.1,625.4,940.1,625z"/>
<path class="st1" d="M900.6,543.1c-0.5,0.2-1.3,0.3-2.3,0.3C898.8,543.1,899.5,543.1,900.6,543.1z"/>
<path class="st1" d="M940.6,557.2c0.3,0.3,0.3,0.7,0.4,1.4c0.1,0.3-0.1,0.8-0.1,1C940.7,559.1,940.6,558.2,940.6,557.2z"/>
<path class="st1" d="M939.8,625.2c0.2,0.3,0.2,0.7,0.1,1.5c0,0.3-0.5,0.4-0.7,0.4C939.2,626.5,939.4,625.9,939.8,625.2z"/>
<path class="st1" d="M971,625.3c0.3,0.2,0.6,0.6,1,1.4C971.7,626.5,971.3,626.1,971,625.3z"/>
<path class="st5" d="M1029.9,305.7c-0.4-0.1-0.7-0.6-1.3-1.4C1029,304.5,1029.4,304.9,1029.9,305.7z"/>
<path class="st5" d="M935.8,300.9c-0.5,0.1-1-0.1-1.8-0.6C934.5,300.3,935.1,300.5,935.8,300.9z"/>
<path class="st5" d="M1024.8,301c-0.5,0.1-1.1-0.1-1.8-0.6C1023.5,300.3,1024.1,300.5,1024.8,301z"/>
<path class="st5" d="M971.1,304.2c0,0.5-0.2,1-0.8,1.8C970.3,305.5,970.5,304.9,971.1,304.2z"/>
<path class="st1" d="M974.1,629.2c0.4,0,1,0.2,1.7,0.7C975.4,630,974.9,629.7,974.1,629.2z"/>
<path class="st5" d="M1029.9,426.8c-0.3-0.2-0.7-0.6-1.1-1.4C1029.1,425.5,1029.5,426,1029.9,426.8z"/>
<path class="st6" d="M940,383.8c-0.1-0.4,0.2-1,0.7-1.7C940.7,382.5,940.5,383.1,940,383.8z"/>
<path class="st5" d="M970.1,382.3c0.4,0.1,0.7,0.6,1.3,1.4C971,383.5,970.6,383.1,970.1,382.3z"/>
<path class="st5" d="M969.9,306.1c0.2,0.3,0.2,0.7,0.1,1.5C969.8,307.4,969.7,306.8,969.9,306.1z"/>
<path class="st6" d="M935.3,387.9c0.1-0.3,0.6-0.7,1.4-1.2C936.5,387,936,387.5,935.3,387.9z"/>
<path class="st5" d="M1024.3,387.9c0.1-0.3,0.6-0.7,1.4-1.2C1025.5,387,1025.1,387.5,1024.3,387.9z"/>
<path class="st5" d="M970.9,427c0,0-0.4,0.1-0.6,0.1c-0.1-0.6,0.1-1.2,0.5-1.9c0.3,0,0.3,0.2,0.2,0.9C971,426.5,970.9,427,970.9,427
	z"/>
<path class="st5" d="M1025.8,422c-0.5,0.1-1-0.2-1.8-0.7C1024.5,421.3,1025.1,421.5,1025.8,422z"/>
<path class="st1" d="M936.9,544.8c-0.4,0-1-0.1-1.7-0.6C935.6,544.1,936.1,544.3,936.9,544.8z"/>
<path class="st1" d="M940.1,548.7c-0.3-0.2-0.7-0.7-1-1.5C939.4,547.4,939.7,547.9,940.1,548.7z"/>
<path class="st1" d="M886.7,543.9c-0.2,0.3-0.6,0.7-1.4,1C885.4,544.6,885.9,544.3,886.7,543.9z"/>
<path class="st1" d="M974.1,507.3c0.4-0.1,1,0.1,1.7,0.5C975.4,507.9,974.8,507.7,974.1,507.3z"/>
<path class="st1" d="M937.3,628.9c-0.2-0.3,0-0.5,0.6-0.8C937.9,628.3,937.7,628.6,937.3,628.9z"/>
<path class="st5" d="M974,422.1c0,0.2-0.2,0.5-0.8,0.9C973.3,422.9,973.5,422.5,974,422.1z"/>
<path class="st6" d="M936.9,422.1c0,0.2-0.4,0-0.6-0.1C936.3,421.9,936.6,421.9,936.9,422.1z"/>
<path class="st1" d="M938.3,628c-0.1-0.2,0.1-0.5,0.6-0.9C938.9,627.3,938.7,627.6,938.3,628z"/>
<path class="st1" d="M935.3,630c-0.1-0.2,0.1-0.5,0.6-0.9C935.9,629.3,935.7,629.6,935.3,630z"/>
<path class="st1" d="M884.7,545c0,0.2-0.2,0.5-0.6,0.8C884.1,545.7,884.3,545.4,884.7,545z"/>
<path class="st1" d="M883.7,546c0.1,0.2-0.1,0.5-0.6,0.9C883.1,546.7,883.3,546.4,883.7,546z"/>
<path class="st1" d="M972,505.3c0.2-0.1,0.5,0.1,0.9,0.6C972.7,505.9,972.4,505.7,972,505.3z"/>
<path class="st1" d="M973,506.3c0.2-0.1,0.5,0.1,0.9,0.6C973.7,506.9,973.4,506.7,973,506.3z"/>
<path class="st1" d="M936.7,302.1c-0.1,0.1-0.3,0.1-0.6,0C936,301.9,936.5,302,936.7,302.1z"/>
<path class="st1" d="M974.7,301.9c0,0.2-0.2,0.3-0.5,0.4C974.1,302.2,974.5,302,974.7,301.9z"/>
<path class="st5" d="M971.9,424.1c0,0.2-0.2,0.5-0.6,0.9C971.2,424.8,971.4,424.5,971.9,424.1z"/>
<path class="st1" d="M1025.7,302.1c-0.1,0.1-0.3,0.1-0.6,0C1025,301.9,1025.5,302,1025.7,302.1z"/>
<path class="st1" d="M1024.3,630.1c0-0.1,0.2-0.4,0.6-0.4C1024.9,629.9,1024.5,630.1,1024.3,630.1z"/>
<path class="st1" d="M932.7,543.1c0.2,0-0.1,0.4-0.1,0.4s-0.4-0.1-0.5-0.2C932.1,543.2,932.5,543.1,932.7,543.1z"/>
<path class="st1" d="M885.7,301.9c0,0.2-0.2,0.3-0.5,0.4C885.1,302.2,885.5,302,885.7,301.9z"/>
<path class="st6" d="M940.8,425.8c-0.2,0.1-0.5-0.1-0.9-0.5C940.1,425.2,940.4,425.4,940.8,425.8z"/>
<path class="st0" d="M1132,524.5c1.6-1.3,3.2-2.6,5.4-4.2c22.1-0.2,43.4-0.2,64.8-0.2c2,1.8,3.9,3.6,6.3,6.1
	c0.4,19.9,0.6,39.1,0.6,58.4c0,5.5-0.3,10.9-0.4,16.4c-1.4,1.5-2.8,3-4.8,4.8c-2.3,0.6-4,1-5.8,1.3c-19.1,0-38.2-0.1-58.1-0.1
	c-1.9,0-2.9-0.1-4-0.1c0,0,0,0-0.2-0.2c-0.7-0.6-1.3-0.9-1.8-1.2c-1.3-2-2.6-4-3.7-6.4c0.2-0.4,0.2-0.8,0.2-0.8l-0.4-0.3
	c0-23-0.1-46-0.1-69c0-0.8,0.4-1.6,1-2.9C1131.7,525.3,1131.8,524.9,1132,524.5 M1148.7,538.4c-0.1,0.2-0.3,0.3-1.2,1
	c-0.2,0.5-0.5,0.9-0.5,1.4c0,15.1-0.1,30.2,0,45.3c0,1,0.9,1.9,1.7,3c0.2,0.2,0.3,0.3,0.7,1.3c13,0.1,26.1,0.3,39.1,0.4
	c0.5,0,0.9-0.8,1.4-2.1c0-15.2,0-30.4-0.1-45.6c0-1.7-0.6-3.4-1.5-5.7c-12.5-0.1-24.9-0.3-37.4-0.3
	C1150.3,537.1,1149.6,537.7,1148.7,538.4z"/>
<path class="st5" d="M1209,600.8c-0.2-5.2,0-10.7,0-16.2c0-19.2-0.1-38.4-0.4-58.1c0.4,0.7,1.3,1.8,1.3,2.9
	c0.1,23.1,0.1,46.2,0,69.3C1210,599.3,1209.6,599.9,1209,600.8z"/>
<path class="st5" d="M1201.9,519.8c-21.1,0.3-42.4,0.3-64.2,0.3c0-0.3,0.4-1.1,0.8-1.1c20.6,0,41.2,0,61.8,0
	C1200.6,519.1,1201.1,519.4,1201.9,519.8z"/>
<path class="st5" d="M1198.3,607.4c1.5-0.6,3.2-0.9,5.3-1.3C1202.2,606.6,1200.4,607.1,1198.3,607.4z"/>
<path class="st5" d="M1136.2,607.2c0.9-0.2,1.9-0.2,3.3-0.1C1138.7,607.3,1137.6,607.4,1136.2,607.2z"/>
<path class="st5" d="M1134.1,605.9c0.4,0,1,0.3,1.7,0.9C1135.4,606.7,1134.8,606.5,1134.1,605.9z"/>
<path class="st1" d="M1130.1,598.3c0-0.2,0.4,0.1,0.4,0.1s-0.1,0.4-0.2,0.5C1130.2,598.9,1130.1,598.5,1130.1,598.3z"/>
<path class="st1" d="M1131.7,524.7c0.1,0.2-0.1,0.6-0.5,1.1C1131.2,525.6,1131.3,525.3,1131.7,524.7z"/>
<path class="st3" d="M820.5,490c0.5,94.3,0.5,188.7,0.5,283c0,1.5-0.2,3-0.7,4.7c-49.8,0.3-99.2,0.3-148.7,0.3c-6.6,0-6.6,0-6.6-6.4
	c0-91.8,0-183.6-0.1-275.3c0-4.9,1-6.5,6.3-6.4C720.8,490.1,770.4,490,820.5,490 M712.7,536.2c-0.2,0.3-0.4,0.5-0.9,1.3
	c-0.1,0.2-0.2,0.3-0.9,0.6c-1.2,1.3-2.3,2.7-4.3,4.4c-0.2,0.8-0.6,1.6-0.6,2.3c0,21.6-0.1,43.2,0,64.8c0,1.1,0.9,2.3,1.7,3.8
	c1.1,1.4,2.2,2.8,3.5,4.8c0.6,0.2,1.2,0.5,1.8,0.8c0,0,0-0.1,0.5,0.6c0.5,0.1,0.9,0.4,1.4,0.4c18.2,0,36.4,0.1,54.6,0
	c1.1,0,2.3-0.9,3.9-1.8c3.2-1.8,5.6-4.2,5.5-9.2c0-21.6-0.1-43.2-0.1-65.6c-1.6-2.2-3.3-4.4-5.1-7.3c-5.2-0.1-10.4-0.2-16.5-0.2
	c-1.1,0-2.2-0.1-4-0.6c-4.7,0.2-9.5,0.4-15,0.6c-1.1,0-2.2-0.1-4-0.6c-3.4,0.2-6.8,0.3-11.1,0.6c-2.1,0-4.2-0.1-6.7-0.6
	c-0.8,0.2-1.7,0.4-2.9,0.6C713.6,536,713.2,536,712.7,536.2 M713,733c0,0,0-0.1,0.4,0.5c1.5-0.1,3-0.2,5.4-0.4
	c4.4,0,8.8,0.1,13.9,0.7c12.7,0.1,25.5,0.2,38.2,0.2c0.7,0,1.4-0.7,2.1-0.9c0,0-0.1,0,0.6-0.1c0.5-0.4,0.9-0.8,1.7-1.7
	c0.8-0.7,1.6-1.5,2.9-2.3c0.1-0.1,0.3-0.2,0.3-0.2c-0.1-0.2-0.2-0.4-0.2-1.3c0.2-0.8,0.4-1.7,0.7-3.4c0-22-0.1-43.9,0-66.5
	c-0.2-0.5-0.5-1-0.8-2c0,0-0.2-0.4-0.4-1.1c-2-1.6-3.9-3.1-6-5.4c-0.9-0.3-1.8-0.9-2.6-0.9c-17-0.1-34-0.1-50.9,0.1
	c-2,0-4.1,1.6-6.5,2.8c-1.5,1.6-3,3.2-5.1,5.5c-0.2,0.6-0.5,1.3-0.5,1.9c0,21.8-0.1,43.5,0,65.3c0,1.1,0.9,2.2,1.8,3.8
	c1.1,1.4,2.1,2.7,3.4,4.8C711.9,732.4,712.5,732.7,713,733z"/>
<path class="st5" d="M987.9,562.1c2.7-0.4,5.3-1,8-1c5.1-0.2,10.2,0,15.7,0c0,17.3,0,34.3,0,51.6c-7.8,0-15.5,0-23.4-0.3
	c-0.2-0.3-0.1-0.2,0.4-0.3c6.5,0,12.5-0.2,18.4,0c3,0.1,4.1-1,4-4c-0.1-14-0.1-28,0-42c0-3.5-1.4-4.2-4.5-4.1
	c-6.2,0.2-12.3,0-18.5,0C988,562,987.9,562.1,987.9,562.1z"/>
<path class="st1" d="M987.9,611.9c-0.3-0.6-0.9-1.2-0.9-1.7c0.1-15.8,0.2-31.7,0.5-47.8c0.3-0.3,0.4-0.4,0.4,0.1
	c0,16.8,0.1,33.2,0.1,49.6C988.1,612.1,988,612,987.9,611.9z"/>
<path class="st6" d="M987.9,441.1c2.7-0.4,5.4-1,8-1.1c5.1-0.2,10.3-0.1,15.7-0.1c0,17.3,0,34.1,0,51.6c-7.7,1.6-15.5,2.3-23.5-0.7
	C987.9,473.7,987.9,457.4,987.9,441.1 M990,448.6c0,12.3,0.1,24.6-0.1,36.9c0,3.4,0.9,4.8,4.5,4.6c4-0.3,8-0.3,12,0
	c3.9,0.3,4.8-1.3,4.7-4.9c-0.2-9.8,0-19.6-0.1-29.4c-0.1-4.7,1.2-11-1.3-13.8c-2.1-2.4-8.7-0.9-13.3-0.9C990,441,990,441,990,448.6z
	"/>
<path class="st1" d="M987.6,441.4c0.3,16,0.3,32.3,0.4,49.1c-0.3-0.1-0.9-0.7-0.9-1.2C987.1,473.4,987.2,457.5,987.6,441.4z"/>
<path class="st1" d="M971.1,426.9c-0.2,0.1-0.1-0.4,0-0.6c0.2,0,0.3,0.2,0.4,0.4C971.5,426.7,971.3,426.8,971.1,426.9z"/>
<path class="st3" d="M922.9,452.9c0,0.5,0.1,0.9-0.2,2.1c-0.4,10.5-0.6,20.4-0.6,30.3c0,3.4-1.1,4.9-4.6,4.7c-4.5-0.2-9-0.1-13.5,0
	c-2.6,0.1-4.2-0.5-3.9-3.5c0.4-3.8,1-7.6,0.9-11.3c-0.1-10.2-0.5-20.4-0.9-30.6c-0.1-2.5,0.8-3.6,3.5-3.5c4.8,0.1,9.6,0.1,14.5,0
	c3-0.1,4.1,1.3,4.1,4.2C922.1,447.8,922.6,450.4,922.9,452.9z"/>
<path class="st6" d="M922.9,452.5c-0.3-2.1-0.8-4.7-0.9-7.3c0-2.9-1.1-4.3-4.1-4.2c-4.8,0.1-9.6,0.1-14.5,0c-2.6-0.1-3.6,1-3.5,3.5
	c0.4,10.2,0.8,20.4,0.9,30.6c0.1,3.8-0.5,7.6-0.9,11.3c-0.3,3,1.3,3.6,3.9,3.5c4.5-0.1,9-0.2,13.5,0c3.5,0.1,4.7-1.4,4.6-4.7
	c0-9.9,0.2-19.7,0.6-29.9c0.3,10.5,0.2,21.4,0.5,32.2c0.1,3.6-1.6,5-4.5,5.1c-6.3,0.2-12.6,0.1-19.2,0.1c0-17.6,0-34.9,0-52.4
	c7.6,0,15.2,0,23.6,0C923,444.2,923,448.1,922.9,452.5z"/>
<path class="st3" d="M922.8,597.9c0,1.8,0.1,3.5-0.2,6c-1.1,8.1-1.1,8.1-8.6,8.1c-2.6,0-5.3-0.3-7.9,0.1c-5.3,0.8-6.4-1.5-6.2-6.4
	c0.2-6.9-0.4-13.7-0.7-20.6c0-0.8-0.1-1.6,0.2-3.1c0.4-5.8,0.7-10.9,0.6-16.1c-0.1-3.1,1.1-4.1,4-4c4.6,0.2,9.3-0.2,13.9,0.2
	c1.7,0.1,3.3,1.8,5,2.8c0,1.1,0.1,2.2-0.2,4.1c-0.4,4.9-0.7,9-0.6,13.2C922.2,587.4,922.6,592.7,922.8,597.9z"/>
<path class="st5" d="M899.1,585.6c0.3,6.4,1,13.3,0.8,20.1c-0.1,4.8,0.9,7.2,6.2,6.4c2.6-0.4,5.3-0.1,7.9-0.1c7.5,0,7.5,0,8.6-7.6
	c0.3,2.5,0.3,5.3,0.3,8.3c-7.9,0-15.5,0-23.8,0C899.1,603.8,899.1,594.9,899.1,585.6z"/>
<path class="st5" d="M922.9,564.5c-1.7-0.5-3.3-2.2-5-2.4c-4.6-0.4-9.3,0-13.9-0.2c-3-0.1-4.1,0.9-4,4c0.1,5.1-0.1,10.2-0.5,15.7
	c-0.3-6.5-0.3-13.3-0.3-20.6c7.5,0,14.6-0.1,21.7,0.1C921.6,561.2,922.2,563,922.9,564.5z"/>
<path class="st5" d="M922.9,597.4c-0.3-4.8-0.7-10-0.8-15.3c-0.1-4.1,0.2-8.3,0.5-12.8C922.9,578.4,922.9,587.7,922.9,597.4z"/>
<path class="st1" d="M940.6,579.3c0.3,1.4,0.3,3.1,0.3,5.2C940.7,583.1,940.5,581.4,940.6,579.3z"/>
<path class="st1" d="M940.7,568.2c0.2,0.3,0.3,0.7,0.2,1.5C940.7,569.4,940.6,568.9,940.7,568.2z"/>
<path class="st6" d="M987.9,335.1c0-1.1,0.1-2.2,0.1-4.2c-0.1-2.5-0.1-4.2-0.1-5.8c0.4-7.1,0.4-7.1,7.7-7.1c4.2,0,8.3,0.1,12.5,0
	c2.6,0,4,0.6,3.9,3.6c-0.1,15.5-0.1,31-0.1,46.5c0,0.5-0.2,0.9-0.7,2.5c-7.5,0-15.2,0-23.1-0.8C987.9,357.7,987.9,346.4,987.9,335.1
	 M1005.4,320c-5.1,0-10.3,0-15.4,0c0,10.9-0.1,21.4,0,31.8c0,5.1-1.6,12.4,1,14.8c3,2.7,10,1,15.2,1.4c3.8,0.3,4.9-1.1,4.8-4.8
	c-0.2-12.8-0.2-25.6,0-38.5C1011.1,321.1,1010.1,319.4,1005.4,320z"/>
<path class="st1" d="M987.6,335.4c0.3,11,0.3,22.3,0.3,34.1c-0.3-2.6-0.8-5.6-0.8-8.7C987,352.4,987.2,344,987.6,335.4z"/>
<path class="st1" d="M987.6,325.3c0.3,1.4,0.3,3.1,0.3,5.2C987.7,329.1,987.5,327.4,987.6,325.3z"/>
<path class="st3" d="M899.1,342.1c0-2.1-0.1-4.1,0.3-6.7c0.7-1.7,1.2-2.9,1.2-4c-0.1-2.6-0.4-5.3-0.6-7.9c-0.2-2.6,0.9-3.5,3.5-3.5
	c4.6,0.1,9.3,0.2,13.9,0c3-0.1,3.6,1.3,3.6,3.9c-0.1,13.4-0.1,26.7,0,40.1c0,3-0.9,4.1-4,4.1c-6-0.2-12,0-17.9,0
	c0-1.4-0.1-2.8,0.2-5C899.5,355.6,899.3,348.8,899.1,342.1z"/>
<path class="st6" d="M899.1,368.4c6-0.4,12-0.6,18-0.4c3.1,0.1,4-1.1,4-4.1c-0.1-13.4-0.1-26.7,0-40.1c0-2.6-0.6-4-3.6-3.9
	c-4.6,0.2-9.3,0.1-13.9,0c-2.6-0.1-3.7,0.9-3.5,3.5c0.2,2.6,0.5,5.2,0.6,7.9c0,1.2-0.5,2.3-1.1,3.6c-0.4-5.2-0.4-10.5-0.4-16.3
	c7.8,0,15.5,0,23.8,0c0,3.3,0,6.6,0,9.8c0,12.4-0.1,24.9,0.1,37.3c0.1,3.8-1,5.5-5,5.3c-5.1-0.3-10.3,0.1-15.4-0.2
	C901.4,370.9,900.2,369.6,899.1,368.4z"/>
<path class="st6" d="M899.1,342.5c0.2,6.3,0.4,13,0.3,20.1C899.1,356.3,899.1,349.6,899.1,342.5z"/>
<path class="st1" d="M940.6,371.3c0.3,1.4,0.3,3.1,0.3,5.2C940.7,375.1,940.5,373.4,940.6,371.3z"/>
<path class="st1" d="M940.6,308.3c0.3,1.1,0.3,2.5,0.3,4.2C940.7,311.5,940.5,310,940.6,308.3z"/>
<path class="st1" d="M940.7,318.2c0.2,0.3,0.3,0.7,0.2,1.4C940.7,319.4,940.6,318.9,940.7,318.2z"/>
<path class="st6" d="M1149,589.7c0-0.2-0.1-0.4-0.5-1.1c-0.2-16.9-0.3-33.4-0.3-49.8c0.2-0.1,0.4-0.2,1.1-0.5
	c13.6-0.2,26.7-0.2,39.7-0.2c0.3,1.7,0.9,3.4,0.9,5.1c0.1,15.2,0.1,30.4-0.4,46.1C1175.7,589.7,1162.4,589.7,1149,589.7 M1185.2,540
	c-10.2,0-20.3,0.1-30.5-0.1c-3.4,0-4.8,1.2-4.7,4.7c0.1,13,0.1,26,0,39c0,3.2,1.3,4.4,4.5,4.4c9.8-0.1,19.7-0.1,29.5,0
	c3,0,4.1-0.8,4.1-4c-0.1-13.3,0-26.7-0.1-40C1187.9,542.7,1186.7,541.4,1185.2,540z"/>
<path class="st1" d="M1147.9,539.1c0.4,16.1,0.4,32.6,0.5,49.4c-0.4-0.5-1.3-1.5-1.3-2.4c-0.1-15.1,0-30.2,0-45.3
	C1147.1,540.3,1147.4,539.9,1147.9,539.1z"/>
<path class="st1" d="M1149.3,590.1c13.1-0.4,26.5-0.4,40.3-0.4c0,0.4-0.5,1.2-0.9,1.2C1175.6,590.7,1162.5,590.6,1149.3,590.1z"/>
<path class="st1" d="M1188.7,537.7c-12.8,0.3-25.8,0.4-39.3,0.4c0.2-0.4,0.9-1,1.7-1C1163.5,537.1,1176,537.3,1188.7,537.7z"/>
<path class="st0" d="M707.4,542c1.2-1.3,2.3-2.7,4.2-4c1.6-0.6,2.5-1.2,3.7-1.9c0.8-0.2,1.2-0.2,1.6-0.3c2.1,0,4.2,0.1,7.2,0.1
	c4.2,0,7.5-0.1,10.8-0.1c1.1,0,2.2,0.1,4.2,0.1c5.5,0,10.1-0.1,14.8-0.1c1.1,0,2.2,0.1,4.2,0.1c5.2,0.4,9.6,0.8,14,1.4
	c0.7,0.1,1.2,0,1.8-0.2c0-0.1,0-0.3,0-0.3c1.6,2.2,3.3,4.4,4.6,7.2c-0.4,21.8-0.5,42.9-0.5,64.1c0,0.6,0.5,1.2,0.8,1.7
	c0.2,4.1-2.2,6.4-6.1,8.6c-20.4,0.4-40.1,0.4-59.8,0.4c0,0,0,0.1-0.1-0.2c-0.7-0.6-1.3-0.9-1.8-1.2c-1.1-1.4-2.2-2.8-3.6-4.8
	c-0.4-16.4-0.5-32.1-0.5-47.9C707,557.2,707.3,549.6,707.4,542 M761,599.3c0.2,0.2,0.4,0.4,0.7,0.5c0,0,0.3-0.1,0.3-0.2
	c0-14.6,0-29.2-0.1-43.7c0-0.6-0.9-1.2-2.2-1.8c-11.1,0-22.2,0-33.3,0c0,16,0,31.3,0,47.1c10.6,0,20.9,0.1,31.2-0.1
	C758.6,601,759.7,599.5,761,599.3z"/>
<path class="st2" d="M771.9,649.7c2,1.6,3.9,3.1,5.8,5.1c0.1,0.7,0.4,0.9,0.6,1.1c0.2,0.5,0.5,1,0.4,2.1
	c-0.4,22.1-0.5,43.6-0.6,65.1c0,0.6,0.5,1.2,0.8,1.7c-0.2,0.8-0.4,1.7-0.8,3.1c-0.2,0.5-0.4,1-0.4,1c-0.8,0.7-1.6,1.5-2.9,2.6
	c-0.9,0.7-1.4,1.1-1.9,1.4c0,0,0.1,0-0.4,0c-13.8,0.1-27.1,0.1-40.4,0.2c-4.4,0-8.8-0.1-14.1-0.1c-2.2,0-3.6-0.1-5-0.1
	c0,0,0,0.1-0.1-0.2c-0.7-0.6-1.3-0.9-1.8-1.2c-1.1-1.4-2.1-2.7-3.5-4.8c-0.3-24.1-0.3-47.5-0.3-71c1.5-1.6,3-3.2,5-5.2
	c1-0.4,1.4-0.4,2.2-0.2c18.8,0.4,37.4,0.5,55.9,0.5c0.6,0,1.1-0.6,1.7-0.9C771.9,649.9,771.9,649.7,771.9,649.7 M761.5,714.5
	c0.1-14.6,0.3-29.3,0.4-43.9c0-0.6-0.6-1.1-1.5-2.2c-11.4,0-22.8,0-34.4,0c0,8.3,0,16.1,0,23.9c0,7.8,0,15.5,0,24
	c4.3-0.8,8-1.5,12.4-1.9c3.7-0.1,7.4-0.2,11.7,0.4C753.6,714.9,757.3,715,761.5,714.5z"/>
<path class="st5" d="M714.1,650.1c-0.5,0-0.9,0.1-1.7,0.3c1.7-0.7,3.7-2.2,5.8-2.3c17-0.2,34-0.1,50.9-0.1c0.9,0,1.8,0.6,2.7,1.3
	c0.1,0.4,0.1,0.6-0.3,0.5C752.1,650,733.1,650,714.1,650.1z"/>
<path class="st5" d="M706.9,656.1c0.3,23.1,0.3,46.5,0.4,70.4c-0.3-0.7-1.2-1.8-1.2-2.9c-0.1-21.8-0.1-43.5,0-65.3
	C706,657.7,706.4,657,706.9,656.1z"/>
<path class="st5" d="M707,542.2c0.2,7.4,0,15,0,22.6c0,15.7,0.1,31.5,0.3,47.7c-0.3-0.7-1.2-1.8-1.2-2.9c-0.1-21.6-0.1-43.2,0-64.8
	C706,544,706.4,543.2,707,542.2z"/>
<path class="st1" d="M778.9,724.4c-0.3-0.1-0.8-0.7-0.8-1.3c0.1-21.5,0.2-43,0.5-64.8C778.9,680.1,778.9,702,778.9,724.4z"/>
<path class="st1" d="M778.9,609.4c-0.3-0.1-0.8-0.7-0.8-1.3c0-21.1,0.1-42.3,0.5-63.7C778.9,565.7,778.9,587.4,778.9,609.4z"/>
<path class="st5" d="M713.3,619.2c19.4-0.3,39.1-0.4,59.2-0.5c-0.7,0.3-1.8,1.2-2.9,1.2c-18.2,0.1-36.4,0-54.6,0
	C714.5,619.9,714,619.7,713.3,619.2z"/>
<path class="st5" d="M732.4,733.4c13-0.3,26.3-0.4,40.1-0.5c-0.2,0.3-0.9,1-1.6,1C758.2,733.9,745.4,733.8,732.4,733.4z"/>
<path class="st5" d="M772.1,537.1c-4.3-0.4-8.7-0.8-13.5-1.2c4.8,0.1,10,0.1,15.3,0.6c0.1,0.4,0.1,0.6-0.2,0.6
	C772.9,537.1,772.5,537.1,772.1,537.1z"/>
<path class="st5" d="M753.6,535.6c-4.3,0.3-9,0.3-14,0.3C743.8,535.7,748.6,535.5,753.6,535.6z"/>
<path class="st5" d="M734.6,535.6c-3,0.3-6.3,0.3-10,0.3C727.5,535.7,730.9,535.5,734.6,535.6z"/>
<path class="st5" d="M713.2,733.2c1.2-0.2,2.5-0.2,4.3-0.1C716.4,733.3,714.9,733.4,713.2,733.2z"/>
<path class="st1" d="M715,536.2c-0.9,0.6-1.8,1.2-3.1,1.7c-0.3-0.2-0.2-0.3,0.3-0.8c0.6-0.6,0.8-0.9,1-1.1c0,0,0.4,0,0.9,0
	C714.5,536.1,715,536.2,715,536.2z"/>
<path class="st5" d="M715.3,536.1c-0.3,0.1-0.8,0-1-0.1c0.6-0.3,1.4-0.5,2.5-0.4C716.5,535.9,716,535.9,715.3,536.1z"/>
<path class="st5" d="M773.3,732.9c0.2-0.3,0.6-0.7,1.4-1.2C774.5,732.1,774,732.5,773.3,732.9z"/>
<path class="st5" d="M711.2,617.9c0.5,0,1,0.2,1.8,0.8C712.5,618.7,711.9,618.5,711.2,617.9z"/>
<path class="st5" d="M711.1,731.9c0.5,0,1,0.3,1.8,0.8C712.5,732.7,711.9,732.4,711.1,731.9z"/>
<path class="st1" d="M778.2,655.7c-0.1,0-0.4-0.2-0.4-0.6C777.9,655,778.1,655.5,778.2,655.7z"/>
<path class="st5" d="M712.9,536.1c0,0.2-0.2,0.5-0.7,0.8C712.2,536.7,712.4,536.5,712.9,536.1z"/>
<path class="st5" d="M777.9,728.9c-0.2,0,0-0.4,0.1-0.6c0.2,0,0.3,0.2,0.4,0.4C778.4,728.7,778.2,728.8,777.9,728.9z"/>
<path class="st3" d="M988.6,612c-0.5-16.4-0.5-32.8-0.5-49.6c6.2-0.5,12.4-0.3,18.5-0.5c3.1-0.1,4.5,0.6,4.5,4.1
	c-0.2,14-0.1,28,0,42c0,3-1,4.1-4,4C1001,611.9,995,612,988.6,612z"/>
<path class="st3" d="M990,448.1c0-7.1,0-7.1,6.3-7.1c4.6,0.1,11.2-1.4,13.3,0.9c2.5,2.8,1.2,9,1.3,13.8c0.1,9.8-0.1,19.6,0.1,29.4
	c0.1,3.6-0.8,5.2-4.7,4.9c-4-0.3-8-0.3-12,0c-3.6,0.2-4.5-1.1-4.5-4.6C990.1,473.2,990,460.9,990,448.1z"/>
<path class="st3" d="M1005.8,320c4.3-0.6,5.3,1.1,5.2,4.8c-0.2,12.8-0.2,25.6,0,38.5c0.1,3.7-1,5.1-4.8,4.8
	c-5.2-0.5-12.2,1.3-15.2-1.4c-2.6-2.4-1-9.7-1-14.8c-0.1-10.5,0-20.9,0-31.8C995.1,320,1000.2,320,1005.8,320z"/>
<path class="st3" d="M1185.7,540c1.1,1.4,2.2,2.7,2.3,4c0.1,13.3,0,26.7,0.1,40c0,3.1-1.2,4-4.1,4c-9.8-0.1-19.7-0.1-29.5,0
	c-3.2,0-4.5-1.2-4.5-4.4c0.1-13,0.1-26,0-39c0-3.5,1.3-4.7,4.7-4.7C1164.9,540.1,1175,540,1185.7,540z"/>
<path class="st5" d="M760.8,598.7c-1.1,0.8-2.2,2.3-3.2,2.3c-10.3,0.2-20.6,0.1-31.2,0.1c0-15.7,0-31.1,0-47.1
	c11.2,0,22.2,0,33.8,0.5C760.7,569.5,760.8,584.1,760.8,598.7 M732.6,555c-4.1-0.6-5.9,0.6-5.8,5.3c0.3,11.8,0.2,23.6,0.1,35.4
	c0,3.2,0.9,4.4,4.2,4.3c8-0.2,16-0.2,23.9,0c3.2,0.1,3.9-1.2,3.9-4.1c-0.1-12.3-0.1-24.6,0-36.9c0-3-0.9-4.1-4-4.1
	C747.9,555.1,740.8,555,732.6,555z"/>
<path class="st1" d="M760.9,599c-0.1-14.9-0.2-29.5-0.3-44.5c0.4,0.2,1.3,0.8,1.3,1.4c0.1,14.6,0.1,29.2,0.1,43.7
	c0,0.1-0.2,0.3-0.3,0.2C761.4,599.7,761.2,599.5,760.9,599z"/>
<path class="st1" d="M772.2,537.3c0.3-0.2,0.7-0.3,1.5-0.2C773.4,537.3,772.9,537.4,772.2,537.3z"/>
<path class="st3" d="M749.5,714.1c-3.7,0.1-7.4,0.2-12,0.1c-2.7-0.2-4.6-0.3-6.4-0.2c-3,0.2-4.1-0.8-4.1-3.9
	c0.1-12.5,0.1-24.9,0-37.4c0-2.9,1.1-3.8,3.8-3.7c7.8,0.1,15.6,0.2,23.4,0c3.7-0.1,4.9,1,4.8,4.8c-0.2,10.1-0.1,20.3-0.1,30.4
	C759,713.9,759,713.9,749.5,714.1z"/>
<path class="st6" d="M749.7,714.4c9.3-0.6,9.3-0.6,9.3-10.3c0-10.1-0.2-20.3,0.1-30.4c0.1-3.8-1.2-4.9-4.8-4.8
	c-7.8,0.2-15.6,0.2-23.4,0c-2.7,0-3.8,0.9-3.8,3.7c0.1,12.5,0.1,24.9,0,37.4c0,3.1,1.1,4.2,4.1,3.9c1.8-0.1,3.7,0,6,0
	c-3.1,0.7-6.7,1.4-11.1,2.2c0-8.5,0-16.3,0-24c0-7.8,0-15.6,0-23.9c11.6,0,23,0,34.6,0.8c0.3,15.8,0.3,30.9,0.3,46
	C757.3,715,753.6,714.9,749.7,714.4z"/>
<path class="st1" d="M714.4,650.4c18.7-0.4,37.7-0.4,57.2-0.4c-0.1,0.4-0.7,0.9-1.2,0.9C751.8,650.9,733.2,650.8,714.4,650.4z"/>
<path class="st1" d="M761.2,714.8c-0.3-14.8-0.4-29.8-0.3-45.4c0.4,0.1,1,0.6,1,1.2C761.8,685.2,761.7,699.9,761.2,714.8z"/>
<path class="st3" d="M733.1,555c7.6,0,14.8,0.1,21.9-0.1c3.1-0.1,4,1.1,4,4.1c-0.1,12.3-0.1,24.6,0,36.9c0,2.9-0.8,4.2-3.9,4.1
	c-8-0.2-16-0.2-23.9,0c-3.3,0.1-4.3-1.1-4.2-4.3c0.1-11.8,0.3-23.6-0.1-35.4C726.7,555.6,728.5,554.4,733.1,555z"/>
</svg>
