<?xml version="1.0" encoding="utf-8"?>
<!-- Generator: Adobe Illustrator 28.0.0, SVG Export Plug-In . SVG Version: 6.00 Build 0)  -->
<svg version="1.1" id="Layer_1" xmlns="http://www.w3.org/2000/svg" xmlns:xlink="http://www.w3.org/1999/xlink" x="0px" y="0px"
	 viewBox="0 0 1920 1024" style="enable-background:new 0 0 1920 1024;" xml:space="preserve">
<style type="text/css">
	.st0{fill:#FB604F;}
	.st1{fill:#F9CF94;}
	.st2{fill:#F9CE91;}
	.st3{fill:#F8C982;}
	.st4{fill:#F8BE68;}
	.st5{fill:#FB2D1B;}
	.st6{fill:#FFFFFF;}
	.st7{fill:#FFFEFE;}
	.st8{fill:#FFFCFB;}
</style>
<path class="st0" d="M1290.5,405c-1.6,7.6-7.5,11.9-13.8,16.8c-8,2.8-15.5,5.1-23,7.2c-5.8,1.5-11.9,2-17.6,3.6
	c-6.1,1.7-12.1,4-18.3,5.7c-11.7,2.1-23.2,4.4-34.5,6.9c-13.2,3-26.3,6.3-39.3,9.7c-6.1,1.6-12,3.9-18.3,6.1
	c-4,1.2-7.6,2.2-11.5,3.2c-2.1,0-3.8-0.2-5.4,0.1c-19.6,4.8-39.2,9.7-58.8,14.6c-1.6,0.4-2.9,1.9-4.7,3.2c-2.8,0.8-5.3,0.9-7.6,1.6
	c-11.8,3-23.5,6.1-35.4,9.2c-9.5,2.5-18.9,4.7-28.4,7.3c-3.9,1.1-7.7,2.7-11.8,3.7c-1.4-0.6-2.9-1.3-4.2-1
	c-15.5,3.9-30.9,7.7-46.4,12.1c-5.2,1.5-10,4-15.5,6.3c-4.8,0.8-9.2,1.5-14,1.8c-5,0.9-9.6,1.8-14.2,2.9c-17.8,4.6-35.6,9.2-53.4,14
	c-1.7,0.4-3.1,2.2-5,3.6c-12.1,3-23.9,5.8-35.6,8.4c-5.9,0.8-11.7,1.9-17.4,3c-8.7,1.8-16.8,5.8-26.1,4.5c-3.9-0.6-7.7-1.6-12-2.5
	c-2.1-1.9-3.7-3.7-5.4-5.9c-1.4-4.2-3-8.1-4-12c-3.7-13.9-7-27.8-10.7-41.7c-3.5-13.1-7-26.2-10.7-39.1c-0.5-1.5-2-2.7-3-4
	c-0.1-0.2-0.2-0.4-0.2-1.3c0.1-1.1,0.2-1.8,0-2.2c-5.8-13.4,1.8-26.2,13.8-31.2c1-0.4,1.6-0.8,2.3-1.1c0,0-0.1,0,0.3,0
	c6-1.6,11.4-3,17-4.5c0,0-0.1,0,0.5,0c9.3-2.1,18.2-4.2,27.5-6.6c8.7-2.3,17-4.6,25.4-6.7c6.1-1.6,12.2-2.8,18.7-4.1
	c3.7-0.6,7.2-1.2,10.5-2c10.7-2.8,21.6-5.6,32.2-8.5c1.5-0.4,2.9-1.5,4.6-2.3c0.8-0.3,1.3-0.7,2.1-0.9c3-0.1,5.8,0.1,8.2-0.6
	c13.8-3.7,27.6-7.5,41.3-11.3c9.1-2.5,18.2-4.7,27.3-7.2c2.4-0.7,4.7-1.3,7.5-2.3c7.8-2,15.3-3.7,23.1-5.3
	c12.2-2.8,24.2-5.6,36.1-8.7c4.8-1.2,9.6-3.1,14.8-4.9c5.2-1.2,9.9-2.2,15-3.1c10.8-2.3,21.3-4.7,31.8-7.4c4.7-1.2,9.2-3.2,14.3-5.1
	c10.5-2.9,20.5-5.5,31.1-8.3c8.7-2.7,16.8-5.1,25.1-7.7c2-0.6,4-1.1,6-1.7c5.8-1.1,11.5-2,17.2-3.4c11.3-2.7,22.5-5.5,34.5-8.1
	c3.7-0.3,6.6-0.9,9.6-1.6c14.5-3.7,29.3-6.9,43.6-11.2c10-3,19.5-4,29.2,0.6c0.9,0.4,2.2,0.4,3.3,0.6c0,0,0,0.1,0,0.3
	c0.8,0.9,1.5,1.3,2.3,1.9c0,0,0-0.1-0.1,0.3c2,5.3,4.4,9.8,5.8,14.9c4.5,16.5,8.5,33.3,12.9,49.9c0.5,1.9,2.1,3.6,3.1,5.5
	c1.2,3.6,2.4,7.2,3.3,11.5c0,2.9,0.2,5,0.5,7c0.9,8.8,7.6,16.8,3.9,26.3C1289.2,404.2,1290.1,404.7,1290.5,405 M1226.8,391.6
	c0.6-1.1,1-2.2,1.5-3.2c0,0,0-0.1,0.8-0.1c0.5-0.6,1.2-1,1.5-1.6c4.6-8.4,4.2-17.7,2.9-26.3c-1.3-8.8-4-18.1-13-23.4
	c0,0,0,0.1-0.2-0.6c-0.3-0.2-0.7-0.3-1-0.4c0,0-0.1,0.1,0-0.8c-0.6-0.9-1.2-2-2-2.7c-9.9-9.3-35.2-9.8-45.3-1
	c-0.3,0.3,0.1,1.5-0.2,2.8c-3.3,2.8-7.5,5-9.9,8.4c-3.1,4.4-5,9.6-8.1,14.6c-2.2,11.6,0.9,22.3,6.3,32.5c0.2,0.4,0.9,0.6,2.3,0.9
	c3.6,3.7,7.2,7.4,11,11.9c3.2,1.8,6.5,3.6,9.7,5.3c8.5,4.4,28.1-1,34.5-6.5c0.5-0.4,0.3-1.3,0.7-2c0,0-0.1,0.1,0.7,0.1
	c0.9-0.7,2-1.3,3-2.7c0.8-0.6,1.6-1.1,3.1-2c0.5-1.1,0.8-2.1,1.2-3.1C1226,391.6,1226,391.6,1226.8,391.6 M1068.5,437.6
	c0,0-0.2-0.1,0.2,0.6c6.3,1.6,15.6-0.7,18-5.4c-0.3-1-0.6-2.1-1.3-2.9c-7.6-10.6-15.2-21.2-22.8-31.9c-6.2-8.7-12.3-17.6-18.7-27.2
	c-1.7-1.8-3.8-5.3-5-4.9c-5.8,1.5-11.2,3.8-16.8,5.8c0,0,0.1,0-0.6,0.4c-1.3,8.3-2.5,16.5-3.6,24.8c-0.6,4.7-0.9,9.4-1.3,14.1
	c-0.3,7-0.5,14.1-0.9,21.1c-0.3,5.4-1.2,10.6-1.5,16c0,0.9,1.3,1.9,2.8,3.1c5.4-1.2,10.7-2.5,17-4.1c0.3-0.7,0.9-1.3,0.8-1.9
	c-0.8-8.8,1.7-15.5,12.5-17.8c3.8-1.2,7.5-2.3,12.1-3.8c0.7,1.1,1.8,3.1,3.2,5.8C1064.5,432.1,1066.5,434.8,1068.5,437.6
	 M871.1,476.5c0,0,0.1,0,0,0.8c1,1,2,2.3,3.1,2.9c8.8,4.7,18,4.4,27.5,2.9c5.1-0.8,10.4-1.2,13-6.6c0,0-0.1,0,0.8,0.2
	c1.3-0.8,2.5-1.6,4.2-3c2.2-2.3,4.4-4.7,7.4-7.3c1.3-1.6,2.8-2.9,3.8-4.6c7.4-13,1.8-33.8-8.5-44.4c-1.3-1-2.7-2-3.8-3.2
	c-7.6-8.2-17.3-11.1-28.4-10.1c-3.8,0.3-7.5,1.1-11.3,1.1c-0.2-0.4-0.6-1-0.8-1.5c-0.3,0.8-0.8,1.5-1.8,2.5c-0.2,0-0.5,0-1.5,0.1
	c-3.6,2.5-7.2,4.9-10.8,8.1c-0.7,0.6-1.5,1.2-3,2c-9.2,8.5-10.6,19.3-8.8,30.6c1.2,6.9,2.2,14.3,9.1,19.5c0.2,0.1,0.5,0.2,0.6,1.1
	C862.9,472.7,865.9,475.8,871.1,476.5 M840.8,429.3c-0.3-0.2-0.7-0.4-0.9-0.7c0,0,0,0.1-0.2-0.7c-4-7.4-11.4-7.7-18.3-6.7
	c-9.9,1.6-19.6,4.5-29.3,7c-1.8,0.4-3.5,1.8-5.2,2.6c0,0,0.1,0-0.5,0.3c-0.1,1.8-0.8,3.6-0.3,5.3c5.7,21.6,11.4,43.2,17.3,64.6
	c0.3,1.3,2.3,2.3,3.9,3.5c0,0,0.5,0.1,0.6,0.9c5.8,0.9,10.7-0.7,14.8-5.4c-2-7.5-3.9-15-5.9-22.3c6.8-2.8,13.3-5.5,19.8-7.5
	c1.5-0.9,3.1-1.8,4.7-3.2c0.5-0.6,0.8-1,2-1.7c9.6-7.6,8.9-28.4-1.3-35.3c-0.2-0.2-0.7,0-1-0.2C840.9,429.7,841,429.9,840.8,429.3
	 M1091.2,354.5c-0.1-0.3-0.2-0.7-0.2-1c-0.2,0.3-0.5,0.8-1.6,1.3c-3.2,0.7-6.5,1.3-9.8,1.5c-1.4,0.7-2.9,1.3-4.3,1.9
	c0,0,0.1,0-0.6,0.3c0.6,4.6,0.7,9.3,1.8,13.8c3.7,14.6,7.6,29.2,11.8,43.6c1.5,5.1,3.8,10,6.6,15.3c4.8-1,9.7-1.9,14.5-3
	c0.5-0.1,0.5-1.9,1.5-3.2c0.3-1.2,1-2.5,0.8-3.6c-1.5-6-3-12.2-5.1-18c-1.3-3.6-0.7-5.4,3.2-6.4c4.7-1.3,9.3-3.2,14.6-5.1
	c0.2,0,0.5,0.1,1.4,0.6c1.5-0.2,2.9-0.3,4.6-0.6c2.2,8.1,4.3,15.8,6.6,23.5c0.8,2.8,2.1,5.8,7.2,4.5c2.1-0.7,4.2-1.6,6.3-2
	c5.3-1,6.7-3.7,4.8-8.5c-0.6-1.7-0.3-3.7,0-5.8c-0.6-3-1-6-2-8.9c-2.9-9.2-6-18.2-9.3-28.2c-1.8-6.7-3.3-13.4-5.7-19.9
	c-0.6-1.6-3.6-3.6-5.2-3.4c-3.8,0.4-7.5,2-12.1,3.4c-0.3,1.8-1.5,3.7-1,5.4c1.8,7.4,4,14.8,5.3,22.6c-1.5,0.2-3,0.4-5.2,0.6
	c-4.5,1.1-9.2,1.6-13.4,3.4c-4.8,2.1-6.7,0.3-7.8-3.7c-1.2-4-1.8-8.3-3.3-12.3c-0.9-2.6-2.9-4.8-4.3-7.3
	C1091.3,354.8,1091.2,354.9,1091.2,354.5 M793.7,508c0,0,0,0,0.8-0.2c0.3-1.8,1.4-3.8,0.9-5.5c-2-7.5-4.4-14.8-6.5-22.3
	c-2.5-9.2-4.6-18.4-7-27.6c-1.7-6.4-2.5-13.1-8.2-18c-4.8,1-9.8,2.1-15.5,3c-1.6,0-3.3-0.2-5,0.1c-6.6,1.6-13.3,2.9-19.7,4.9
	c-5.8,1.8-11.4,4.2-17.1,6.9c0,0-0.2,0.4-1,0.7c-0.1,1.7-0.6,3.5-0.1,5c5.3,20.7,10.7,41.5,16.3,62.1c0.5,1.9,2.3,3.5,3.3,5.3
	c0,0,0-0.1,0.3,0.6c6.2,2.1,11.3-1.1,16.5-3.5c0.9-0.4,1.5-2.7,1.2-3.9c-1.7-7.6-3.7-15.1-5.7-22.7c-2.7-10.1-5.3-20.1-8.2-30.9
	c7.8-2.2,15.2-4.4,21.7-6.3c1.7,4.6,3.5,8.7,5.4,13.6c1,3.1,2,6.3,2.3,9.7c-0.1,1.3-0.5,2.7-0.1,3.9c2.1,7.4,4.8,14.6,6.3,22.1
	c0.7,3.7,1,6.9,5.2,8.1C783.5,514.3,791.8,510.9,793.7,508 M981.5,381.9c-0.5-0.3-0.9-1-1.3-0.9c-12.7,3.1-25.3,6.4-37.8,9.7
	c-2,0.6-3.7,2.1-5.9,3.5c0,0-0.3-0.2-1,0.1c-0.1,2.6-1,5.4-0.3,7.6c4.6,14.5,8,29.3,6.5,44.6c-0.2,2.6-1.7,5.7-3.7,7.4
	c-3.1,2.7-3.9,5.1-2.3,8.8c0.8,1.8,0.8,4,1.5,5.9c1.8,4.9,3.8,9.8,6.3,15.1c1.2-0.1,2.3-0.2,3.3-0.4c10.4-2,10.3-2,8.8-12.3
	c-0.2-1.2,1.2-2.8,2.8-4.2c3-0.3,6-0.3,8.9-1c9.9-2.2,19.7-4.7,29.8-6.1c2.1,10.6,1.6,10.6,11.5,8.4c4.6-1,5.4-2.8,3.6-6.8
	c-0.9-1.9-0.7-4.4-1.3-6.5c-1.5-5.4-3-10.7-4.7-16.8c-1.7-0.3-3.3-0.6-5.3-1c-1-3.1-2.4-6.3-3.3-9.6c-3-11.3-5.7-22.7-9-34
	c-1-3.7-3.7-7-6.1-10.6C982.2,382.8,981.6,382.6,981.5,381.9z"/>
<path class="st1" d="M1218.1,438.5c6-2,12-4.4,18.1-6c5.8-1.6,11.9-2.1,17.6-3.6c7.5-1.9,15-4.4,22.8-6.7c6.7,4.5,13,9.3,19.5,13.9
	c3.5,2.5,5.9,5.4,4.4,9.8c-1.5,4.5-5.2,6.3-9.8,6.3c-17.2,0.1-34.5,0-52.7,0.1c-1.5,2.1-2.4,4.1-2.4,6.1
	c-0.1,29.1-0.1,58.1-0.1,87.2c0,79.2,0,158.3,0.1,237.5c0,0-0.1,0-0.3,0.1c-0.5,0.8-0.7,1.5-0.8,2.1c0,0,0-0.1-0.3-0.1
	c-0.5,0.4-0.6,0.8-0.8,1.2c-1,0.7-2.1,1.2-3.7,1.6c-1.8-0.3-3-0.6-4.2-0.6c-171.3,0-342.5,0-513.8,0c0,0,0.1,0-0.1-0.2
	c-0.8-0.4-1.5-0.7-2.2-0.8c0,0,0.1-0.1,0-0.3c-0.5-0.4-0.8-0.7-1.2-0.9c0,0,0.1,0,0-0.3c-0.5-0.9-0.8-1.3-1.2-1.9c0,0,0.1,0,0.1-0.6
	c0-2.6,0-4.6,0-6.6c0-73.5,0-147,0.1-220.5c0-2.7,1.6-5.3,2.7-7.6c1.2,1.5,2.1,2.7,3,3.8c1.7,1.8,3.3,3.6,5.7,5.8
	c3.5,1.8,6.5,3.2,9.5,5.1c0,0.8,0,1.1-0.5,1.8c-0.5,1.6-0.7,2.9-0.7,4.1c0,64.2,0,128.5,0,192.7c0,1.7,0.8,3.5,1.2,5.1
	c0,0,0-0.1,0.1,0.3c1.4,0.9,2.8,1.8,4,1.8c49,0.1,98.2,0.1,147.2,0c1.5,0,2.9-1.5,4.3-2.8c0-66.1,0-131.7,0-197.2
	c0-1.3-0.1-2.7,0.1-3.9c0.9-5.3,3.1-9.6,9.6-10.2c1.5,0.4,2.5,0.7,3.7,0.7c50.1,0,100.1,0,150.1,0c1.6,0,3.2-0.7,5.2-1
	c2.4,1.5,4.5,2.9,6.3,4.5c0,0.3,0.2,0.7,0.3,1c0,0,0,0-0.1,0.4c0,19.3,0,38.1,0,56.9c0,47.9,0,95.7,0.1,143.6c0,2,1.5,3.9,2.2,5.9
	c0,0,0,0,0.1,0.4c1.4,0.9,2.8,1.8,4,1.8c47.9,0.1,95.7,0.1,143.6,0c1.5,0,3-1.5,4.5-2.1c0,0,0.1,0,0.6-0.1c0.9-1.8,1.7-3.5,1.7-5.3
	c0-104.9,0-209.7,0-314.5c0-1.8-1-3.6-1.7-5.6c-0.2-0.6-0.3-0.7-0.1-1C1215.5,439.2,1216.8,438.9,1218.1,438.5 M908.1,767.1
	c1.5,0.4,3,1.3,4.6,1.3c39.9,0.1,79.9,0.1,119.9,0c1.5,0,3-1.3,5.1-2.1c0,0,0.6,0,1.3-0.6c0.2-1.7,0.5-3.2,0.5-4.9
	c0-59.4,0-118.7,0-178.1c0-1.8-0.7-3.5-1.4-5.8c-0.3-0.2-0.7-0.4-1.6-1.3c-0.7-0.1-1.5-0.3-2.2-0.3c-40.7,0-81.3,0-122,0
	c-1.4,0-2.8,0.7-4.2,1c0,0,0,0-0.9,0.2c-0.5,1.8-1.4,3.7-1.4,5.5c-0.1,59.5-0.1,119,0,178.5c0,2,1.5,3.9,2.2,5.9
	C907.9,766.3,907.9,766.2,908.1,767.1z"/>
<path class="st2" d="M1119.9,309.3c-1.6,0.7-3.6,1.1-5.5,1.7c-8.2,2.6-16.5,5-25.1,7.4c-1.4-1.3-2.2-2.7-3.3-3.5
	c-35.5-25.3-71.1-50.5-106.6-75.9c-6.8-4.9-6.7-4.9-13.7,0.2c-28.4,20.4-56.8,40.7-85.1,60.6c-0.2-2.7-0.2-4.9-0.5-7.2
	c-0.1-1.1-0.6-2.5-1.3-3.2c-1.4-1.5-3.2-2.7-4.7-3.8c-2.4,3.1-5.2,6.7-8.1,10.3c-1.6,0.3-3.7,0.9-5.8,1.1c-2,0.2-4,0.3-5.9,0
	c-2.2-0.3-4.3-1.1-6.3-1.7c8.7-6.5,17.1-13,25.8-19.3c28.4-20.6,56.8-41.3,85.4-61.6c11.9-8.5,15.6-8.5,27.2-0.1
	c42.8,30.5,85.5,61.2,128.2,91.7C1115.9,307.1,1117.7,308.1,1119.9,309.3z"/>
<path class="st1" d="M847.7,295.3c2.2,0.6,4.3,1.3,6.5,1.7c2,0.3,3.9,0.2,5.9,0c2.2-0.2,4.3-0.8,5.8-1.1c2.8-3.6,5.5-7.2,8.1-10.3
	c1.5,1.1,3.2,2.3,4.7,3.8c0.8,0.8,1.2,2.1,1.3,3.2c0.3,2.2,0.3,4.5,0.5,7.2c0,0.4,0,0.3-0.3,0.3c-0.9,0.3-1.4,0.8-2,1.1
	c0,0,0,0-0.3,0.1c-0.6,0.4-0.8,0.8-1.2,1.3c-0.1,0.2-0.5,0.2-0.7-0.1c-1.3-1.5-2.4-2.6-4.5-4.7c0.5,3.9,0.7,6,0.8,8.4
	c-0.3,0.4-0.6,0.6-1.4,0.7c-1.4,0.8-2.3,1.6-3.1,2.3c0,0,0,0-0.3,0c-0.9,0.3-1.4,0.8-2,1.1c0,0,0,0-0.2,0.1c-0.6,0.3-0.8,0.7-0.9,1
	c0,0,0,0-0.2,0.1c-0.5,0.4-0.7,0.7-0.9,1c0,0,0,0-0.3,0c-0.9,0.3-1.4,0.8-2,1.1c0,0,0,0-0.2,0.1c-0.6,0.3-0.8,0.7-0.9,1
	c0,0,0,0-0.2,0.1c-0.5,0.4-0.7,0.7-0.9,1c0,0,0,0-0.3,0c-0.9,0.3-1.4,0.8-2,1.1c0,0,0,0-0.2,0.1c-0.6,0.3-0.8,0.7-0.9,1
	c0,0,0,0-0.2,0.1c-0.5,0.4-0.7,0.7-0.9,1c0,0,0,0-0.3,0c-0.9,0.3-1.4,0.8-2,1.1c0,0,0,0-0.2,0.1c-0.6,0.3-0.8,0.7-0.9,1
	c0,0,0,0-0.2,0.1c-0.5,0.4-0.7,0.7-0.9,1c0,0,0,0-0.3,0c-0.9,0.3-1.4,0.8-2,1.1c0,0,0,0-0.2,0.1c-0.5,0.4-0.7,0.7-0.9,1
	c0,0,0,0-0.3,0c-0.9,0.3-1.4,0.8-2,1.1c0,0,0,0.1-0.5,0c-2.2-1.1-3.8-2.9-5.7-3c-1.2,0-2.4,2.3-3.2,3.4c2.1,1.3,3.5,2.1,4.7,3
	c0,0-0.1,0-0.3,0.1c-0.6,0.3-0.8,0.7-0.9,1c0,0,0,0-0.2,0.1c-0.5,0.4-0.7,0.7-0.9,1c0,0,0,0-0.3,0c-0.9,0.3-1.4,0.8-2,1.1
	c0,0,0,0-0.3,0.1c-0.6,0.3-0.8,0.7-0.9,1c0,0,0,0-0.2,0.1c-0.5,0.4-0.7,0.7-0.9,1c0,0,0,0-0.3,0c-0.9,0.3-1.4,0.8-2,1.1
	c0,0,0,0-0.2,0.1c-0.5,0.4-0.7,0.7-0.9,1c0,0,0,0-0.2,0.1c-0.5,0.4-0.7,0.8-0.9,1c0,0,0,0-0.3,0c-0.9,0.3-1.4,0.8-2,1.1
	c0,0,0,0-0.2,0.1c-0.5,0.4-0.7,0.7-0.9,1c0,0,0,0-0.2,0.1c-0.5,0.4-0.7,0.8-0.9,1c0,0,0,0-0.3,0c-0.9,0.3-1.4,0.8-2,1.1
	c0,0,0,0-0.2,0.1c-0.5,0.4-0.7,0.7-0.9,1c0,0,0,0-0.2,0.1c-0.5,0.4-0.7,0.8-0.9,1c0,0,0,0-0.3,0c-0.9,0.3-1.4,0.8-2,1.1
	c0,0,0,0-0.2,0.1c-0.5,0.6-0.7,0.9-0.9,1.5c-0.3,0.4-0.6,0.6-1.4,0.6c-3.5-0.4-6.5-4.7-9.6-0.1c1.5,1,2.9,1.9,4.4,3
	c0,0.1-0.1,0.3-0.6,0.3c-0.9,0.8-1.5,1.6-2.1,2.3c0,0,0-0.1-0.2,0c-0.5,0.4-0.7,0.8-0.9,1c0,0,0,0-0.3,0c-1.3,0.8-2.1,1.7-3.1,2.7
	c-0.3,0.4-0.6,0.6-1.4,0.7c-2.1,1.1-3.7,2.2-5.4,3.5c0,0-0.1,0-0.6-0.1c-5.9-3.7-10.4-0.2-15,1.8c-0.2,3.5-0.5,7-0.7,10.5
	c0,0,0,0-0.3,0c-0.9,0.3-1.4,0.8-2,1.1c0,0,0,0-0.2,0.1c-0.5,0.4-0.7,0.7-0.9,1c0,0,0,0-0.2,0.1c-0.5,0.4-0.7,0.8-0.9,1
	c0,0,0,0-0.3,0c-0.9,0.3-1.4,0.8-2,1.1c0,0,0,0-0.3,0c-1.6,1.1-2.9,2.2-4.2,3.4c0,0,0,0-0.3,0.1c-0.5,0.6-0.6,0.9-0.9,1.5
	c-0.3,0.4-0.6,0.6-1.3,0.6c-0.9,0.3-1.5,0.8-2.2,1.1c0,0,0,0-0.2,0.1c-0.5,0.4-0.7,0.7-0.9,1c0,0,0,0-0.3,0c-1.3,0.8-2.1,1.6-3,2.3
	c0,0-0.1,0-0.5,0c-2.1,1.6-3.7,3.1-5.4,4.9c-0.3,0.4-0.6,0.6-1.3,0.7c-0.9,0.3-1.5,0.8-2.2,1.1c0,0,0,0-0.2,0.1
	c-0.5,0.4-0.7,0.7-0.9,1c0,0,0,0-0.3,0c-0.9,0.3-1.4,0.8-2,1.1c0,0,0,0.1-0.3,0c-0.9-0.1-1.5-0.1-2.1-0.6c-0.8-0.7-1.6-1-2.4-1.3
	c-0.1,0.4-0.3,0.8-0.5,1.2c1,0.2,2,0.3,2.8,0.9c-0.8,1.2-1.4,2.2-2.1,3.1c0,0,0,0-0.3,0.1c-0.6,0.3-0.8,0.7-0.9,1c0,0,0,0-0.2,0.1
	c-0.5,0.4-0.7,0.8-0.9,1c0,0,0,0-0.3,0c-0.9,0.3-1.4,0.8-2,1.1c0,0,0,0-0.3-0.1c-2.7-3.5-5.5-4.7-8.7-1.6c-2.1,2.2-3.1,5.3,0.9,7.4
	c0,0.2,0,0.8-0.3,1c-3.2,1.2-6.1,2.1-9,3.1c0,0,0.1,0-0.3,0c-6,1.5-11.4,3-17,4.5c0,0,0.1,0-0.3,0c-1,0.3-1.6,0.7-2.3,1.1
	c-11.5,5-19.3,17.8-13.5,31.2c0.2,0.4,0.1,1.1,0,1.9c-1-0.1-1.8-0.4-3.2-1.1c-2.4-0.9-4.3-1.6-6.2-1.7c-5.4-0.1-11-0.1-16.5-0.1
	c0-3.7-1.2-8.7,0.2-9.4c6.6-3.4,5.4-6.7,1.4-10.8c0,0,0,0,0.3,0c0.9-0.3,1.4-0.8,2-1.1c0,0,0,0,0.2-0.1c0.6-0.3,0.8-0.7,0.9-1
	c0,0,0.1,0,0.3-0.1c0.5-0.4,0.7-0.8,0.9-1c0,0,0,0.1,0.5,0.1c1.3-0.8,2.1-1.6,3-2.3c0,0,0,0,0.3,0c0.9-0.3,1.4-0.8,2-1.1
	c0,0,0,0,0.2-0.1c0.6-0.3,0.8-0.7,0.9-1c0,0,0.1,0,0.3-0.1c0.5-0.4,0.7-0.8,0.8-1c0,0,0,0.1,0.3,0.1c0.9-0.4,1.4-0.8,2-1.2
	c0,0,0,0,0.3-0.1c0.5-0.4,0.7-0.7,0.9-1c0,0,0,0,0.3,0c0.8-0.3,1.4-0.8,2-1.1c0,0,0,0,0.3,0c0.9-0.8,1.4-1.5,2-2.2c0,0,0,0,0.3,0
	c0.9-0.3,1.4-0.8,2-1.1c0,0,0,0,0.3,0c0.9-0.8,1.4-1.5,2-2.2c0,0,0.1,0,0.3,0c0.8-0.3,1.4-0.8,2-1.1c0,0,0,0,0.3,0
	c0.9-0.8,1.4-1.5,2-2.2c0,0,0,0,0.3,0c0.9-0.3,1.4-0.8,2-1.1c0,0,0,0,0.3,0c0.9-0.8,1.4-1.5,2-2.2c0,0,0.1,0,0.5,0.1
	c1.8,0.6,3.3,1.1,5.2,1.8c0-2,0-3.6,0-5.3c0,0,0,0,0.3-0.1c0.6-0.3,0.8-0.7,0.9-1c0,0,0,0,0.3-0.1c0.5-0.4,0.7-0.8,0.9-1
	c0,0,0,0.1,0.3,0c0.9-0.4,1.4-0.8,2-1.1c0,0,0,0,0.2-0.1c0.6-0.3,0.8-0.7,0.9-1c0,0,0.1,0,0.3-0.1c0.5-0.4,0.7-0.8,0.8-1
	c0,0,0,0.1,0.3,0.1c0.8-0.4,1.4-0.8,2-1.2c0,0,0,0,0.3,0c1.4-0.2,2.5-0.4,4-0.7c-0.6,1.5-0.9,2.5-1.5,4c5.7-1.3,7.6-4,5.1-8.9
	c0,0,0.1,0,0.5-0.1c0.6-0.2,0.8-0.6,0.9-1c0,0,0,0,0.3-0.1c0.5-0.6,0.6-0.9,0.8-1.2c0.1-0.3,0.3-0.6,1.3-0.8
	c1.6-0.8,2.4-1.6,3.3-2.3c0,0,0,0,0.3,0c0.9-0.3,1.4-0.8,2-1.1c0,0,0,0,0.3,0c0.9-0.8,1.4-1.5,2-2.2c0,0,0.1,0,0.3,0
	c0.8-0.3,1.4-0.8,2-1.1c0,0,0,0,0.3,0c0.9,0.1,1.5,0.1,1.8,0.4c0,1.1,0.2,2,0.3,2.8c0.5-0.1,0.9-0.3,1.5-0.4c-0.6-0.9-1.2-1.8-1.6-3
	c0.8-1.2,1.4-2.2,2.1-3.1c0,0,0,0,0.3,0c0.9-0.8,1.4-1.5,2-2.2c0,0,0,0,0.5,0c8.2,6.9,14.2-2.1,22-1.5c-2.7-5.9-6.5-4.8-10.5-3.1
	c-0.2-1.5-0.3-2.3-0.6-3.2c0,0,0,0,0.5,0c0.9-0.8,1.4-1.5,2-2.2c0,0,0.1,0,0.3,0c0.8-0.3,1.4-0.8,2-1.1c0,0,0,0,0.3-0.1
	c0.5-0.4,0.7-0.7,0.9-1c0,0,0.1,0,0.3-0.1c0.5-0.4,0.7-0.8,0.8-1c0,0,0,0.1,0.3,0.1c0.8-0.4,1.4-0.8,2-1.2c0,0,0,0,0.3-0.1
	c0.5-0.4,0.6-0.9,0.8-1.2c0.1-0.3,0.3-0.6,1.3-0.8c2.5,0.9,4.5,1.9,5.1,2.2c4.3,0,7.4,0,10.6,0c1.2-1.2,2.7-2.7,4-4.4
	c1.3-1.6,2.2-3.2,3.3-4.9c-2-1-3.8-2-5.5-3.4c0.8-1.2,1.4-2.2,2.1-3.1c0,0,0,0,0.3,0c0.9-0.8,1.4-1.5,2-2.2c0,0,0,0,0.3,0
	c0.9-0.3,1.4-0.8,2-1.1c0,0,0,0,0.3,0c0.9-0.8,1.4-1.5,2-2.2c0,0,0,0,0.3,0c0.9-0.3,1.4-0.8,2-1.1c0,0,0,0,0.3-0.1
	c0.5-0.6,0.6-0.9,0.8-1.2c0.1-0.3,0.3-0.6,1.3-0.7c1.5-0.8,2.4-1.6,3.3-2.3c0,0,0.1,0,0.3-0.1c0.5-0.3,0.7-0.7,0.9-1
	c0,0,0,0.1,0.5,0.1c3.9,2.2,3.9,2.3-1,5.8c1.3,7.7,6,2.6,8.7,2c2-3.5,3.9-7.4,7-8.9c3.8-1.9,5-8.6,11.2-6.1c0.3,0.1,1.4-1.1,2.1-1.8
	c1.7-1.7,3.5-3.5,5.8-5.7c-0.9-1.6-2.7-4.1-4.3-6.8c0.1-0.3,0.3-0.6,1.3-0.8c1.6-0.8,2.4-1.6,3.3-2.3c0,0,0.1,0,0.3-0.1
	c0.5-0.3,0.7-0.7,0.9-1c0,0,0,0.1,0.3,0.1c0.8-0.4,1.4-0.8,2-1.2c0,0,0,0,0.5,0.1c7.2,6,10.6-1.3,15.6-3c-1.3-2.2-2.4-4.1-3.5-6
	C847.7,295.5,847.7,295.3,847.7,295.3 M789.3,344.5c1.4,2.2,2.3,4.9,4.3,6.4c1.5,1.1,4.3,0.7,6.7,0.9c-2.4-3.9-4.2-6.6-6.5-10.2
	C793.1,342.1,791.4,343,789.3,344.5 M861.2,301.5c-1.6,0-3.2,0-4.8,0c0,0.4,0,0.9-0.1,1.3c1.8,1.6,3.8,3,6.3,5.1
	C862.1,305.4,861.9,303.7,861.2,301.5 M815.3,339.3c0-1.1,0-2.1,0-3.2c-1.3,0.4-2.5,0.9-3.8,1.5
	C812.5,338.2,813.5,338.9,815.3,339.3 M763,376.9c1.2,0.4,2.2,0.9,3.3,1.3c0.1-0.7,0.2-1.3,0.5-2C765.5,376.2,764.4,376.2,763,376.9
	 M762.9,360.9c-0.3,0.3-0.7,0.6-1,0.9c0.1,0.1,0.3,0.3,0.3,0.3C762.7,361.9,763,361.6,762.9,360.9 M772.5,369.7
	c-0.3-0.3-0.6-0.7-0.9-1c-0.1,0.1-0.3,0.3-0.3,0.3C771.4,369.5,771.7,369.8,772.5,369.7z"/>
<path class="st3" d="M1236,783c-0.5-79.1-0.5-158.2-0.5-237.4c0-29.1,0-58.1,0.1-87.2c0-2,0.9-4,1.8-6.1
	c0.5,76.7,0.3,153.4,0.3,230.2c0,31,0,61.8-0.1,92.8C1237.7,777.7,1236.9,780.3,1236,783z"/>
<path class="st4" d="M717.9,779.7c165.6-0.3,331.5-0.3,497.4-0.3c1.1,0,2.2,0.2,3.7,0.6c-3.8,0.4-7.8,0.6-12,0.6
	c-158.5,0-316.9,0-475.4,0C727.1,780.6,722.7,780.2,717.9,779.7z"/>
<path class="st3" d="M709.7,547.5c-0.8,2.7-2.4,5.3-2.4,7.9c-0.1,73.5-0.1,147-0.1,220.5c0,2,0,4.1,0,6.7c-0.8-2-2.2-4.5-2.2-6.9
	c-0.1-62.1-0.1-124.1-0.1-186.1c0-14.9,0-29.9,0.6-45.3c1-0.6,1.7-0.6,2.5-0.3C708.8,545.4,709.3,546.4,709.7,547.5z"/>
<path class="st2" d="M826.6,309.9c2,2.5,3.7,5.1,4.6,6.6c-2.3,2.2-4,4-5.8,5.7c-0.7,0.7-1.6,1.9-2.1,1.8c-6.2-2.5-7.4,4.2-11.2,6.1
	c-3.1,1.6-5.1,5.5-7,8.9c-2.7,0.6-7.4,5.6-8.7-2c5-3.5,5-3.5,1-5.8C806.7,324.2,816.5,317.1,826.6,309.9z"/>
<path class="st5" d="M709.9,547.7c-0.7-1.3-1.2-2.5-1.7-4.1c-0.9-2.3-1.6-4.1-2.3-5.8c-5.9-22.7-11.8-45.3-17.6-68
	c-1.3-4.8-2.5-9.7-3.8-15c1,0.9,2.7,2.1,3,3.6c3.7,13,7.3,26.1,10.7,39.1c3.7,13.9,7,27.8,10.7,41.7c1,3.9,2.7,7.7,4,12
	C712,550.4,711.1,549.2,709.9,547.7z"/>
<path class="st2" d="M659.3,429.7c4.3,4,5.5,7.5-1,10.7c-1.3,0.7-0.2,5.7-0.2,9.4c5.7,0,11.1-0.1,16.5,0.1c2,0.1,3.8,0.8,5.9,1.7
	c-8.4,0.4-17,0.6-25.6,0.4c-1.4,0-2.8-0.8-3.9-1.7c1.4-0.8,2.5-1,3.7-1.2c-0.8-1-1.7-1.7-2.2-1.3c-0.8,0.4-1.4,1.3-2.1,2.1
	c-5.4-2-7-6.4-3.2-10.6C650.5,435.7,655,432.9,659.3,429.7z"/>
<path class="st5" d="M1257.5,286.1c-1,0.2-2.3,0.2-3.2-0.2c-9.7-4.7-19.1-3.6-29.2-0.6c-14.4,4.2-29.1,7.5-43.6,11.2
	c-2.9,0.7-5.9,1.2-9.1,1.7c0.7-1,1.5-2.2,2.7-2.5c19.7-5,39.5-9.8,59.2-14.9C1242.9,278.6,1250.5,280.6,1257.5,286.1z"/>
<path class="st5" d="M1281.7,359c-1.3-1.5-2.8-3.2-3.3-5.1c-4.4-16.7-8.4-33.3-12.9-49.9c-1.4-4.9-3.8-9.6-5.7-14.9
	c2.2,2.2,5.3,4.7,6.1,7.8C1271.6,317.4,1276.7,338.1,1281.7,359z"/>
<path class="st2" d="M778.7,347c2,1,3.8,2,5.8,3c-1,1.7-2.1,3.4-3.3,4.9c-1.4,1.7-3,3.1-4,4.4c-3.2,0-6.3,0-10.6,0
	c-0.6-0.2-2.4-1.2-4.8-2.2c4.2-3.5,8.9-6.8,14.1-10.2c0.5,0,0.8,0.2,0.8,0.6c0.5,0.7,0.9,1,1.4,1.3
	C778.1,348.1,778.5,347.6,778.7,347z"/>
<path class="st2" d="M749.3,366c0.6,0.9,0.7,1.8,0.9,3.1c4-1.7,8-2.7,10.5,3.1c-8-0.7-14,8.4-22.1,1.5
	C741.8,371.2,745.4,368.6,749.3,366z"/>
<path class="st2" d="M847.2,295.5c1.5,1.9,2.5,3.8,3.8,6c-5,1.7-8.4,9.1-15.6,3C839,301.4,842.9,298.4,847.2,295.5z"/>
<path class="st5" d="M1290.7,404.7c-0.7,0-1.5-0.4-1.5-0.6c3.7-9.5-3-17.4-3.9-26.3c-0.2-2.1-0.3-4.1-0.5-6.6
	c2.5,8.1,5.2,16.5,7.2,25C1292.6,398.8,1291.3,401.7,1290.7,404.7z"/>
<path class="st2" d="M717,389.4c2.9,4.9,0.9,7.5-4.7,8.9c0.6-1.5,0.9-2.5,1.5-4c-1.5,0.3-2.5,0.6-4,0.7
	C711.8,393.1,714.1,391.2,717,389.4z"/>
<path class="st2" d="M699.7,401.7c0.3,1.6,0.3,3.2,0.3,5.1c-2-0.7-3.3-1.2-5.3-1.8C696,403.9,697.7,402.9,699.7,401.7z"/>
<path class="st1" d="M705.6,538.2c1,1.3,1.7,3,2.3,5.1c-0.7,0.4-1.3,0.4-2.3,0.4C705.1,542.1,705.2,540.4,705.6,538.2z"/>
<path class="st2" d="M780.5,343.5c-0.2,1-0.9,1.9-2.1,3.1c-1,0.3-1.5,0.3-2.1,0.3c0,0-0.2-0.2-0.5-0.3
	C777.3,345.5,778.7,344.5,780.5,343.5z"/>
<path class="st2" d="M733.8,379.1c-0.7,0.3-1.3,0.2-2.2,0.2c0.9-1.1,2.2-2.2,3.8-3.4C735.3,376.9,734.6,377.9,733.8,379.1z"/>
<path class="st2" d="M667.5,424c-0.5,0.7-1.4,1.5-2.7,2.2C665.3,425.6,666.2,424.8,667.5,424z"/>
<path class="st2" d="M831.3,306.6c-0.6,0.8-1.5,1.5-2.8,2.2C829,308.2,829.9,307.4,831.3,306.6z"/>
<path class="st2" d="M724,383.8c-0.6,0.7-1.5,1.5-2.8,2.2C721.7,385.4,722.6,384.6,724,383.8z"/>
<path class="st2" d="M795.5,332.4c-0.6,0.7-1.4,1.5-2.8,2.2C793.2,333.9,794.2,333.1,795.5,332.4z"/>
<path class="st2" d="M684.8,411.9c-0.1,0.7-0.7,1.3-1.6,2.1C683.4,413.2,683.9,412.5,684.8,411.9z"/>
<path class="st2" d="M680.2,415.2c-0.1,0.7-0.7,1.5-1.6,2.1C678.8,416.5,679.3,415.9,680.2,415.2z"/>
<path class="st2" d="M689.4,408.5c-0.1,0.7-0.7,1.5-1.6,2.1C688,409.8,688.5,409.2,689.4,408.5z"/>
<path class="st2" d="M782.8,341.4c-0.1,0.7-0.7,1.5-1.6,2.1C781.5,342.8,781.9,342.1,782.8,341.4z"/>
<path class="st2" d="M694,405.1c-0.2,0.7-0.7,1.3-1.6,2.1C692.6,406.5,693.1,405.8,694,405.1z"/>
<path class="st2" d="M751.7,363.8c-0.1,0.7-0.7,1.5-1.6,2.1C750.3,365.1,750.8,364.4,751.7,363.8z"/>
<path class="st2" d="M737.9,373.8c-0.1,0.7-0.7,1.3-1.6,2.1C736.5,375.2,736.9,374.5,737.9,373.8z"/>
<path class="st2" d="M787.5,338.1c-0.1,0.7-0.7,1.3-1.6,2.1C786.1,339.4,786.5,338.7,787.5,338.1z"/>
<path class="st2" d="M728.6,380.5c-0.1,0.7-0.7,1.5-1.6,2.1C727.2,381.9,727.7,381.2,728.6,380.5z"/>
<path class="st5" d="M1259.9,288.4c-0.8-0.1-1.6-0.7-2.4-1.6C1258.3,287.1,1259.1,287.5,1259.9,288.4z"/>
<path class="st2" d="M834.8,304.4c-0.2,0.4-0.7,0.8-1.6,1.1C833.4,305.2,834,304.7,834.8,304.4z"/>
<path class="st3" d="M715.5,778.6c0.4-0.1,1.1,0.1,1.9,0.5C717,779.3,716.3,779.2,715.5,778.6z"/>
<path class="st2" d="M677.9,417.3c-0.2,0.4-0.7,0.8-1.6,1.2C676.5,418,677,417.7,677.9,417.3z"/>
<path class="st3" d="M1223.1,778.3c-0.1-0.2,0.1-0.6,0.6-1C1223.9,777.7,1223.7,778,1223.1,778.3z"/>
<path class="st3" d="M1224.2,777.1c-0.1-0.4,0-1.1,0.6-1.8C1224.9,775.7,1224.8,776.4,1224.2,777.1z"/>
<path class="st2" d="M674.4,419.6c-0.2,0.4-0.7,0.8-1.6,1.1C673,420.4,673.6,419.9,674.4,419.6z"/>
<path class="st2" d="M661.7,428.5c-0.2,0.4-0.7,0.8-1.6,1.1C660.3,429.2,660.8,428.8,661.7,428.5z"/>
<path class="st2" d="M785.2,340.2c-0.2,0.4-0.7,0.8-1.6,1.2C783.8,340.9,784.2,340.5,785.2,340.2z"/>
<path class="st3" d="M713.1,775.5c0.4,0.2,0.8,0.6,1.2,1.5C713.8,776.8,713.4,776.2,713.1,775.5z"/>
<path class="st2" d="M789.8,336.8c-0.2,0.4-0.7,0.8-1.6,1.1C788.4,337.6,789,337.2,789.8,336.8z"/>
<path class="st2" d="M669.8,422.9c-0.2,0.4-0.7,0.8-1.6,1.1C668.4,423.6,668.9,423.3,669.8,422.9z"/>
<path class="st2" d="M754,362.5c-0.2,0.4-0.7,0.8-1.6,1.1C752.6,363.3,753.2,362.9,754,362.5z"/>
<path class="st2" d="M730.9,379.3c-0.2,0.4-0.7,0.8-1.6,1.1C729.6,380.1,730.1,379.7,730.9,379.3z"/>
<path class="st2" d="M709,395c-0.2,0.4-0.7,0.8-1.6,1.1C707.6,395.8,708.2,395.3,709,395z"/>
<path class="st2" d="M704.4,398.3c-0.2,0.4-0.7,0.8-1.6,1.2C703,399.1,703.5,398.7,704.4,398.3z"/>
<path class="st2" d="M682.5,414c-0.2,0.4-0.7,0.8-1.6,1.1C681.1,414.8,681.6,414.3,682.5,414z"/>
<path class="st2" d="M726.3,382.7c-0.2,0.4-0.7,0.8-1.6,1.1C724.9,383.3,725.4,383,726.3,382.7z"/>
<path class="st2" d="M758.6,359.2c-0.2,0.4-0.7,0.8-1.6,1.1C757.2,360,757.8,359.5,758.6,359.2z"/>
<path class="st2" d="M691.7,407.3c-0.2,0.4-0.7,0.8-1.6,1.1C690.3,408.1,690.8,407.6,691.7,407.3z"/>
<path class="st2" d="M687.1,410.6c-0.2,0.4-0.7,0.8-1.6,1.1C685.7,411.4,686.3,411,687.1,410.6z"/>
<path class="st2" d="M705.7,397.3c0.2,0.3,0,0.7-0.6,1C705,398,705.1,397.7,705.7,397.3z"/>
<path class="st3" d="M714.3,777.5c0.2-0.1,0.6,0.1,1,0.5C715.1,778.2,714.7,778,714.3,777.5z"/>
<path class="st2" d="M755.3,361.5c0.1,0.2-0.1,0.6-0.6,1C754.6,362.2,754.7,361.9,755.3,361.5z"/>
<path class="st2" d="M756.4,360.4c0.1,0.2-0.1,0.6-0.6,0.9C755.7,361.2,756,360.9,756.4,360.4z"/>
<path class="st2" d="M759.9,358c0.1,0.2-0.1,0.6-0.6,1.1C759.2,358.9,759.4,358.5,759.9,358z"/>
<path class="st2" d="M790.9,335.6c0.1,0.2-0.1,0.6-0.6,1.1C790.3,336.5,790.6,336.2,790.9,335.6z"/>
<path class="st2" d="M796.8,331.3c0.1,0.2-0.1,0.6-0.6,0.9C796.1,332.1,796.3,331.8,796.8,331.3z"/>
<path class="st2" d="M700.9,400.7c0.2,0.3,0,0.7-0.6,1C700.4,401.3,700.5,401,700.9,400.7z"/>
<path class="st2" d="M663,427.5c0.2,0.3,0,0.7-0.6,1C662.3,428.2,662.4,427.8,663,427.5z"/>
<path class="st2" d="M664.2,426.4c0.1,0.2-0.1,0.6-0.6,0.9C663.5,427.2,663.7,426.8,664.2,426.4z"/>
<path class="st2" d="M832.6,305.6c0.1,0.2-0.1,0.6-0.6,0.9C831.9,306.4,832.1,306.1,832.6,305.6z"/>
<path class="st2" d="M671.1,421.9c0.2,0.3,0,0.7-0.6,1C670.4,422.6,670.5,422.3,671.1,421.9z"/>
<path class="st2" d="M672.2,420.8c0.1,0.2-0.1,0.6-0.6,0.9C671.5,421.6,671.8,421.2,672.2,420.8z"/>
<path class="st2" d="M675.7,418.6c0.1,0.2-0.1,0.6-0.6,1C675,419.2,675.2,418.9,675.7,418.6z"/>
<path class="st2" d="M702.2,399.6c0.1,0.2-0.1,0.6-0.6,1C701.5,400.2,701.8,399.9,702.2,399.6z"/>
<path class="st2" d="M706.8,396.2c0.1,0.2-0.1,0.6-0.6,1C706.1,396.9,706.4,396.6,706.8,396.2z"/>
<path class="st2" d="M718.4,388.4c0.2,0.3,0,0.7-0.6,1C717.7,389,717.8,388.7,718.4,388.4z"/>
<path class="st2" d="M719.5,387c0.1,0.2-0.1,0.6-0.6,1.1C718.8,387.9,719.1,387.6,719.5,387z"/>
<path class="st6" d="M893,554c-6.2,0.9-8.4,5.3-9.2,10.5c-0.2,1.2-0.1,2.6-0.1,3.9c0,65.6,0,131.2-0.6,197.4
	c-52,0.6-103.6,0.6-155.1,0.4c0,0,0,0.1,0-0.4c0-67.6-0.1-134.7-0.1-201.8c0-0.3,0.1-0.7,0.6-1.3c5.5-0.9,10.7-0.9,15.6-2
	c10-2.3,20-5.5,29.9-8.2c11.7-2.8,23.4-5.6,36-8.6c22.5-5.7,44.2-11.2,65.8-16.9c2.3-0.7,4.4-2.2,6.6-3.5c4.4-0.6,8.8-1.2,14.1-2
	c22.5-5.7,44.1-11.3,65.6-16.9c3.9-1.3,7.7-3,11.7-4.1c9.5-2.6,18.9-4.8,28.4-7.3c11.8-3,23.5-6.1,35.4-9.2c2.4-0.6,4.8-0.8,8-1.5
	c3.8-1,6.9-1.5,9.9-2.2c13-3.2,26.2-6.6,39.2-10.1c6.7-1.8,13.3-3.9,19.8-5.8c3.6-1,7.2-2.1,11.7-3.2c3-0.3,5.1-0.3,7-0.9
	c26.9-6.7,53.6-13.6,80.5-20.4c0.1,0.2,0.2,0.4,0.3,1.3c0,53,0,105.1-0.1,157.3c0,55.9-0.1,111.8-0.1,167.7c0,0,0-0.1-0.6,0
	c-51,0-101.4,0-151.7,0c0,0,0,0.1,0-0.4c0-66.4,0-132.3-0.1-198.1c0-2.8-1.4-5.5-2.1-8.3c0,0,0,0.1,0-0.2c0-0.3-0.1-0.8-0.1-0.8
	c-2.1-1.5-4.2-2.9-7-4.5C998.3,553.9,945.6,553.9,893,554z"/>
<path class="st7" d="M871.2,306.9c0.3-0.1,0.6-0.2,1.3-0.8c1.5-1.2,2.5-2.2,3.6-3.1c0,0,0.3-0.1,0.8-0.3c0.7-0.7,0.9-1,1.2-1.3
	c0,0,0,0,0.3,0c0.9-0.3,1.4-0.8,2-1.1l0,0c28.4-20.4,56.8-40.6,85.1-61.1c7-5,6.9-5,13.7-0.2c35.5,25.3,71.1,50.5,106.6,75.9
	c1.2,0.8,2,2.1,3,3.6c-10,3-20.2,5.7-31.1,8.5c-4,0.7-7.3,0.8-10.3,1.6c-10.8,2.7-21.6,5.5-32.4,8.4c-1.2,0.3-2.2,1.6-3.2,2.3
	c-4.7,1.1-9.5,2.1-15.2,3.2c-1.8,0-2.9-0.2-3.8,0c-14.9,3.7-29.8,7.4-44.5,11.3c-0.9,0.2-1.5,1.5-2.2,2.2
	c-7.5,1.8-14.9,3.5-23.2,5.4c-2.2,0.1-3.8-0.1-5.2,0.2c-15.1,3.9-30.2,7.7-45.3,11.7c-11.3,3-22.6,6.3-33.9,9.3
	c-0.5,0.3-0.9,0.6-2,0.6c-15.2,3.4-30,6.9-44.8,10.7c-1,0.2-1.7,1.6-2.5,2.5c-6.1,1.5-12.3,2.7-18.5,4.2c-8.4,2.1-16.7,4.4-25.7,6.6
	c-5.8,0.9-10.8,1.7-15.9,2.1c2-2,3.8-3.6,5.8-5.3c0,0,0,0,0.3,0c0.9-0.3,1.4-0.8,2-1.1c0,0-0.1-0.1,0.2-0.1c0.5-0.3,0.7-0.7,0.9-1
	c0,0-0.1,0,0.2-0.1c0.6-0.3,0.7-0.7,0.9-1c0,0,0,0,0.5,0c1.7-1.1,3-2.1,4.3-3.2c0,0,0-0.1,0.3,0c0.8-0.3,1.4-0.8,2-1.2
	c0,0,0,0,0.2-0.1c0.5-0.3,0.7-0.7,0.8-1c0,0,0,0,0.3,0c0.9-0.3,1.6-0.8,2.2-1.1c0.3-0.1,0.6-0.2,1.3-0.8c2.2-1.8,3.8-3.2,5.4-4.8
	c0,0,0,0,0.5,0c1.3-0.8,2.2-1.5,3-2.2c0,0,0,0,0.2-0.1c0.5-0.4,0.7-0.8,0.8-1.1c0,0-0.1,0,0.3,0c1-0.3,1.6-0.8,2.2-1.1
	c0.3-0.1,0.6-0.2,1.2-0.8c0.6-0.8,0.7-1.1,0.9-1.5c0,0,0,0,0.5,0c1.6-1.1,2.9-2.2,4.3-3.4c0,0-0.1,0,0.3,0c0.9-0.3,1.5-0.8,2-1.1
	c0,0-0.1-0.1,0.2-0.1c0.5-0.3,0.7-0.7,0.9-1c0,0-0.1,0,0.2-0.1c0.6-0.3,0.7-0.7,0.9-1c0,0,0,0,0.3,0c0.9-0.3,1.4-0.8,2-1.1
	c0,0,0,0,0.3-0.1c5.5-4.1,10.6-8.1,15.8-12.1c0,0,0,0,0.5,0c2.1-1.1,3.8-2.2,5.4-3.5c0.3-0.1,0.6-0.2,1.3-0.8
	c1.4-1.1,2.3-1.8,3.2-2.6c0,0-0.1-0.1,0.2-0.1c0.5-0.3,0.7-0.7,0.9-1c0,0,0,0.1,0.3,0c0.9-0.8,1.5-1.6,2.1-2.3c0,0,0.1-0.2,0.6-0.3
	c2-1,3.6-2,5.2-2.9c0.3-0.1,0.6-0.2,1.2-0.8c0.6-0.7,0.8-1.1,0.9-1.5c0,0,0,0,0.3,0c0.9-0.3,1.5-0.8,2-1.1c0,0-0.1-0.1,0.2-0.1
	c0.5-0.3,0.7-0.7,0.9-1c0,0-0.1,0,0.2-0.1c0.6-0.3,0.7-0.7,0.9-1c0,0,0,0,0.3,0c0.9-0.3,1.5-0.8,2-1.1c0,0,0-0.1,0.2-0.1
	c0.5-0.3,0.7-0.7,0.9-1c0,0-0.1,0,0.2-0.1c0.6-0.3,0.7-0.7,0.9-1c0,0,0,0,0.3,0c0.9-0.3,1.5-0.8,2-1.1c0,0-0.1-0.1,0.2-0.1
	c0.5-0.3,0.7-0.7,0.9-1c0,0-0.1,0,0.2-0.1c0.6-0.3,0.7-0.7,0.9-1c0,0,0,0,0.3,0c0.9-0.3,1.4-0.8,2-1.1c0,0,0-0.1,0.2-0.1
	c0.5-0.3,0.7-0.7,0.9-1c0,0,0,0,0.3-0.1c0.5-0.3,0.7-0.7,0.8-1c0,0,0,0,0.3,0c0.9-0.3,1.4-0.8,2-1.1c0,0,0-0.1,0.2-0.1
	c0.5-0.3,0.7-0.7,0.8-1c0,0-0.1,0,0.2-0.1c0.5-0.3,0.7-0.7,0.9-1c0,0,0,0,0.5,0c1.7-1.1,2.9-2.1,4.2-3.2c0,0,0-0.1,0.3,0
	c0.8-0.3,1.4-0.8,2-1.2c0,0,0,0,0.2-0.1c0.5-0.3,0.7-0.7,0.8-1c0,0,0,0,0.3,0c0.9-0.3,1.5-0.8,2-1.1c0,0,0-0.1,0.2-0.1
	c0.5-0.3,0.7-0.7,0.9-1c0,0-0.1,0,0.2-0.1c0.6-0.3,0.7-0.7,0.9-1c0,0,0,0,0.3,0c0.9-0.3,1.5-0.8,2-1.1c0,0,0-0.1,0.2-0.1
	c0.5-0.3,0.7-0.7,0.9-1c0,0-0.1,0,0.2-0.1c0.6-0.3,0.7-0.7,0.9-1c0,0,0,0,0.3,0c0.9-0.3,1.4-0.8,2-1.1c0,0,0-0.1,0.2-0.1
	c0.5-0.3,0.7-0.7,0.9-1c0,0-0.1,0,0.2-0.1c0.6-0.3,0.7-0.7,0.9-1c0,0,0,0,0.3,0c0.9-0.3,1.4-0.8,2-1.1c0,0,0-0.1,0.2-0.1
	c0.5-0.3,0.7-0.7,0.9-1c0,0-0.1-0.1,0.2-0.1c0.6-0.3,0.7-0.7,0.9-1c0,0,0,0,0.3,0.1c0.9-0.3,1.4-0.8,2-1.1c0,0,0,0,0.3,0
	C869.4,308.3,870.3,307.5,871.2,306.9z"/>
<path class="st8" d="M1005.9,438.7c1.5,5.4,3.1,10.6,4.6,16c0.6,2.1,0.3,4.6,1.3,6.5c1.8,4,1,5.7-3.6,6.8c-10,2.2-9.6,2.2-11.8-9.2
	c-2-1.2-3.8-2.2-5.3-1.9c-5.8,1.3-11.4,2.9-17.1,4.6c-5.7,1.7-11.3,3.6-17,5.4c-0.7,1.3-2.1,2.9-1.8,4.1c1.5,10.3,1.6,10.3-8.8,12.3
	c-1.2,0.2-2.2,0.3-3.6-0.2c-2.4-8.9-4.6-17.3-6.8-26.1c5.9-1.3,8.1-5.1,7.8-10.3c-0.5-9.4-0.8-18.9-2.1-28.2
	c-1.2-8.3-3.8-16.4-5.7-24.7c0,0,0.3,0.2,0.9,0.1c15.2-3.9,29.9-7.7,44.6-11.5c0,0,0.5,0.2,0.9,0.7c5.7,19.5,11,38.5,16.4,58.1
	C1001.4,440.4,1003.7,439.6,1005.9,438.7 M978.3,433c0,0,0.1,0,0.5-0.9c-2.8-10.8-5.7-21.7-8.4-32.7c-5.7,1.6-10.4,2.8-14,3.8
	c1.8,16.4,3.6,32.4,5.3,48.3c6-1.6,13.5-3.5,21.5-5.6C981.5,441.4,979.9,437.1,978.3,433z"/>
<path class="st8" d="M1154.5,357.2c2.4-4.8,4.2-10.1,7.3-14.4c2.4-3.4,6.6-5.6,10.5-8.8c4-1.9,7.4-3.7,11-4.7
	c13-3.7,25-0.9,35.8,6.8c0,0,0.1-0.1,0,0.3c0.3,0.4,0.8,0.6,1.3,0.8c0,0,0-0.1-0.1,0.3c3,6,6.9,11.4,9.2,17.3
	c4.4,11.2,3,22.5-1.3,33.5c0,0,0,0.1-0.3,0c-0.9,1-1.5,2.2-2,3.4c0,0,0,0.1-0.3,0c-0.7,1.1-1.2,2.3-1.5,3.5
	c-0.8,0.6-1.6,1.1-2.9,2.1c-1.4,1-2.4,1.6-3.3,2.2c0,0,0.1-0.1-0.3-0.1c-11.5,6.8-23.2,10.1-36.2,5.8c-2.8-0.9-5.5-2.2-8.2-3.2
	c-3.6-3.7-7.2-7.4-11.3-11.5C1156.9,379.3,1154.3,368.6,1154.5,357.2 M1181,385c0,0-0.1,0.1-0.1,0.7c0,0,0.3,0.4,0.7,1.1
	c9.6,9.3,24.9,3.9,30.3-5.1c5-8.4,2.4-16.3-0.6-24.3c-1.5-3.9-3.8-8.2-7.2-10.6c-7.6-5.6-16-4.5-24.9,0c-0.2,0.4-0.3,0.8-0.5,1.1
	c0,0-0.1,0-0.8,0c-0.9,1.5-1.8,3-2.7,4.6c0,0,0.1-0.1-0.7,0.3c-2.1,7-3.1,14.1,0.8,20.9c0,0-0.1,0-0.6,0.8c1.3,2.3,2.7,4.7,4,7
	c0,0-0.1,0-0.3,0.8c0.5,0.6,0.9,1.1,1.5,1.6c0,0-0.1,0,0,0.7C1180.5,384.8,1180.8,384.9,1181,385z"/>
<path class="st8" d="M926.3,466.6c-2.2,2.3-4.4,4.7-7.2,7.4c-1.8,1.1-3.1,1.8-4.5,2.6c0,0,0.1,0-0.3,0c-14.8,7.8-29,7.4-43.1-0.2
	c0,0-0.1,0-0.1-0.3c-3.1-3.2-6.1-6.1-9.2-9.2c-0.2-0.1-0.5-0.2-1-0.8c-1.5-3.7-2.7-6.9-3.7-10.2c-4.3-13-4.4-25.5,4-37.1
	c0.5-0.7,0.3-1.7,0.6-2.6c0.7-0.6,1.5-1.2,2.7-2.1c4-2.9,7.6-5.4,11.2-7.9c0.2,0,0.5,0,1.3,0c1.2-0.2,1.6-0.2,2.1-0.3
	c3.7-0.6,7.5-1.3,11.2-1.8c11.1-1,20.8,1.8,28.4,10.1c1.2,1.2,2.5,2.1,4.2,3.7C931.5,434,935.1,450,926.3,466.6 M908.1,428.8
	c-2-2-3.9-4-6-5.9c0,0,0,0.1-0.1-0.7c-8.8-5.3-18.2-4.4-23.5,2.1c-0.2,0.4-0.5,0.8-1.4,1.5c-1.6,3.1-3.2,6.4-5,10.5
	c0.3,4,0.2,8.2,1.3,12c2.3,8.9,8.2,18.7,17.2,19c7.7,0.2,14.6-2.2,20.6-8.6c4.8-10.3,3-19.8-3.1-28.8
	C908.1,429.7,908.1,429.6,908.1,428.8z"/>
<path class="st8" d="M1124.9,392c-0.2,0-0.5-0.1-1.5-0.2c-7.5,1.2-14.1,2.5-21.5,3.9c2.8,10.4,5.4,20,8,29.5c-0.2,1-0.2,2.9-0.7,3
	c-4.8,1.1-9.7,2-14.9,2.3c-0.7-2.1-0.8-3.6-1.3-5c-5.9-22.5-11.9-44.9-17.8-67.3c0,0-0.1,0,0.3,0.1c1.6-0.4,2.9-0.9,4-1.3
	c3.2-0.7,6.3-1.3,10.4-2c0.7,0,1.3,0.2,1.3,0.2s0-0.1,0,0.3c2.4,9.3,4.8,18.1,7.2,26.9c4.5-1.1,8.5-1.9,12.2-3.1
	c3.5-1.1,6.7-2.8,9.9-4.2c1.5-0.2,3-0.4,5.3-1c0.7-2.6,0.7-4.7,0.2-6.8c-1.4-7-3-14-4.5-21c3.8-1.1,7.5-2.7,11.3-3.1
	c1.6-0.2,4.6,1.8,5.2,3.4c2.3,6.5,3.8,13.3,5.4,20.6c2.8,11.6,5.7,22.7,8.7,33.7c0.3,1.1,1.5,2.1,2.3,3.1c0.1,1.9-0.1,3.8,0.5,5.5
	c1.8,4.8,0.5,7.6-4.8,8.5c-2.2,0.4-4.3,1.3-7.3,2.1c-2-1.5-3.5-2.9-3.9-4.7c-1.8-6.4-3.5-12.7-5.1-19.2
	C1132.2,388.8,1132.2,388.8,1124.9,392z"/>
<path class="st8" d="M759.1,437.6c4.8-1,9.8-2.1,15.2-2.8c3.6,11.6,6.7,22.8,9.6,34.1c3.3,13.1,6.6,26.1,9.8,39.1c0,0,0,0-0.5,0.1
	c-5.1,1.2-9.8,2.5-14.5,3.7c-0.5-1.7-0.8-2.5-1-3.4c-2.8-9.7-5.7-19.6-8.4-29.3c-1-3.1-2-6.3-3.1-10.3c-0.9-5.5-1.8-10.2-2.8-15.2
	c-9.3,2.5-18.1,4.7-27.1,7c5.1,19.2,10,38.4,15.1,57.7c-5.9,1.5-11.2,2.9-16.5,4.2c0,0,0,0.1,0.2-0.3c-6.2-24.4-12.6-48.3-18.9-72.1
	c0,0,0.2-0.4,0.7-0.8c7.4-2,14.4-3.7,21.3-5.6C745.2,441.8,752.2,439.6,759.1,437.6z"/>
<path class="st8" d="M1062.5,428.6c-1.2-1.9-2.3-3.8-3.1-5c-4.6,1.5-8.4,2.6-13,3.6c-4.8,0.8-8.8,1.8-12.5,2.8
	c-0.3,6.3-0.6,12-0.9,17.7c-5.4,1.2-10.7,2.5-16.5,3c0.1-10.3,0.2-19.9,1-29.5c1.4-16.5,3-33,4.6-49.5c0,0-0.1,0,0.3,0.1
	c3.6-0.6,6.8-1.1,9.8-2.1c4.3-1.5,8.3-2,11.5,2c6.2,8.8,12.3,17.7,18.6,26.4c7.6,10.6,15.2,21.2,22.8,31.9c0.6,0.9,0.8,2,0.7,3.5
	c-6.2,1.7-12.1,2.9-17.9,4.1c0,0,0.2,0.1,0.3-0.3C1066.6,434,1064.5,431.3,1062.5,428.6 M1047.5,405.5c-0.3-0.1-0.7-0.3-1.2-0.4
	c0,0,0.1,0,0.2-0.8c-1.3-1.2-2.5-2.3-3.8-4.4c-1.5-2-3-4-4.4-6.8c-0.6-1.3-1-2.7-2.2-5.3c-0.6,5.8-1.2,10-1.3,14.2
	c-0.2,4.4,0,8.7,0,13.5c5.7-1.6,10.8-2.9,16.7-4.6c-1.4-1.3-2.2-2-3-2.6c0,0,0.1,0,0.2-0.7c-0.5-0.6-0.9-1.1-1.4-1.6
	C1047.6,406.3,1047.7,406.2,1047.5,405.5z"/>
<path class="st8" d="M842.4,465.4c-0.5,0.6-0.8,1-1.7,1.9c-1.8,1-3.1,1.7-4.5,2.3c-6.5,2.7-12.8,5.3-19.6,8.2
	c2,7.3,3.9,14.8,5.4,22.7c-5.1,1.7-9.7,2.9-14.4,4.1c0,0-0.5-0.1-0.8-0.6c-6.8-24.7-13.4-49-19.8-73.4c0,0-0.1,0,0.3,0
	c8.2-1.9,16-3.5,23.6-5.8c10.4-3.2,20.1-3.2,29,3.6c0,0,0-0.1,0,0.3c0.3,0.6,0.8,0.7,1.2,0.9c0,0-0.1-0.1-0.1,0.4
	C848,442,849.4,453.6,842.4,465.4 M825.6,439.1c-5.2,0.6-10.4,1.5-15.6,1.7c-3.5,0.1-3.2,1.7-2.5,3.8c1.4,4.5,2.7,8.9,4.3,13.3
	c0.6,1.6,2.5,4.2,3,4.1c4.7-1.9,10.5-3.1,13.7-6.6C832.7,451,831,445.1,825.6,439.1z"/>
<path class="st5" d="M735.1,522.8c5.1-1.7,10.4-3,16.3-4.5c-5.1-19.3-10-38.5-15.1-57.7c9-2.3,17.8-4.6,27.1-7
	c0.9,5,1.8,9.7,2.7,14.9c-1.7-3.7-3.3-7.8-5.1-12.4c-6.5,1.9-13.8,4-21.7,6.3c2.9,10.7,5.7,20.8,8.2,30.9c2,7.5,3.9,15.1,5.7,22.7
	c0.2,1.2-0.3,3.6-1.2,3.9C746.6,522,741.6,525.2,735.1,522.8z"/>
<path class="st5" d="M1213.9,439.8c-27.2,6.9-54,13.8-80.9,20.6c-2,0.4-4.2,0.6-6.7,0.7c5.5-2.1,11.4-4.5,17.4-6
	c13-3.5,26.2-6.7,39.3-9.7c11.4-2.7,22.8-4.9,34.5-6.9C1216.8,438.9,1215.5,439.2,1213.9,439.8z"/>
<path class="st5" d="M935.7,394.2c2.3,8.1,4.8,16.2,6.1,24.5c1.4,9.3,1.6,18.8,2.1,28.2c0.2,5.1-2,8.9-7.8,10.3
	c2.2,8.7,4.4,17,6.5,25.8c-2-4.5-3.9-9.4-5.8-14.3c-0.7-1.9-0.7-4-1.5-5.9c-1.6-3.6-0.8-6,2.3-8.8c2-1.8,3.5-4.8,3.7-7.4
	c1.5-15.3-1.8-30.1-6.5-44.6C934.3,399.7,935.2,396.9,935.7,394.2z"/>
<path class="st5" d="M882.1,523.2c-1.8,1.3-3.9,3-6.3,3.7c-21.6,5.7-43.3,11.2-65.4,16.8c1-1.2,2.4-2.9,4.2-3.5
	c17.8-4.8,35.5-9.4,53.4-14C872.5,525,877.1,524.1,882.1,523.2z"/>
<path class="st5" d="M715.8,450.1c6.7,23.8,13,47.6,19.4,72c-1.3-1.2-3-2.9-3.6-4.8c-5.5-20.7-11-41.4-16.3-62.1
	C714.9,453.6,715.4,451.9,715.8,450.1z"/>
<path class="st5" d="M838.9,382.8c10.8-3.1,22.1-6.4,33.5-9.4c15.1-4,30.2-7.9,45.3-11.7c1.4-0.3,2.9-0.1,4.7,0
	c-2,0.9-4.3,1.6-6.7,2.2c-9.1,2.3-18.2,4.7-27.3,7.2c-13.7,3.7-27.5,7.6-41.3,11.3C844.7,382.9,841.9,382.7,838.9,382.8z"/>
<path class="st5" d="M786.5,431.1c6.8,24.2,13.3,48.4,20,73.1c-1-0.8-3-1.7-3.3-3.1c-5.9-21.5-11.7-43-17.3-64.6
	C785.5,434.9,786.1,433,786.5,431.1z"/>
<path class="st5" d="M1114,464.4c-6.2,2-12.8,4.1-19.5,5.9c-13,3.5-26.2,6.7-39.2,10.1c-3,0.8-6.1,1.2-9.6,1.8c1-1,2.4-2.6,3.9-2.9
	c19.6-5,39.2-9.8,58.8-14.6C1110.1,464.1,1111.9,464.4,1114,464.4z"/>
<path class="st5" d="M1074.9,358.4c6.2,22.3,12.2,44.7,18.1,67.2c0.3,1.5,0.6,2.9,0.9,4.8c-2-4.5-4.3-9.3-5.8-14.4
	c-4.2-14.5-8.1-29.1-11.8-43.6C1075.2,367.8,1075.2,363.1,1074.9,358.4z"/>
<path class="st5" d="M794.2,507.9c-3.7-13-6.8-26.1-10.3-39c-2.9-11.3-6-22.5-9.1-34.2c4.6,4.7,5.5,11.4,7.2,17.8
	c2.4,9.2,4.6,18.4,7,27.6c2.1,7.5,4.5,14.8,6.5,22.3C795.9,504,794.8,505.9,794.2,507.9z"/>
<path class="st5" d="M962,504.1c-21.5,5.9-43,11.5-65.1,17.1c4.6-2.1,9.5-4.7,14.6-6.1c15.3-4.2,30.8-8.2,46.4-12.1
	C959,502.9,960.5,503.5,962,504.1z"/>
<path class="st5" d="M1005.9,438.4c-2.2,1.2-4.4,2-6.9,3c-5.4-19.6-10.7-38.7-16.1-58.1c1.7,3.1,4.4,6.5,5.4,10.2
	c3.2,11.2,5.9,22.7,9,34c0.9,3.4,2.2,6.6,3.3,9.6C1002.5,437.3,1004.1,437.7,1005.9,438.4z"/>
<path class="st5" d="M773.9,552.1c-9.8,3.1-19.7,6.1-29.8,8.5c-4.8,1.1-10,1.1-15.6,1.6c-3.5-1.5-6.5-2.9-9.6-4.6
	c3.7,0.6,7.5,1.5,11.4,2.1c9.1,1.3,17.4-2.7,26.1-4.5C762.2,554,768,552.9,773.9,552.1z"/>
<path class="st5" d="M1021.9,371.8c-1.2,16.2-2.9,32.8-4.3,49.3c-0.8,9.6-1,19.2-1.5,29.4c-0.7-0.4-2-1.5-2-2.3
	c0.3-5.4,1.2-10.6,1.5-16c0.5-7,0.6-14.1,0.9-21.1c0.2-4.7,0.6-9.4,1.3-14.1C1019,388.6,1020.2,380.3,1021.9,371.8z"/>
<path class="st5" d="M861.3,416.4c0.2,0.8,0.3,1.8-0.1,2.5c-8.5,11.6-8.3,24.2-4,37.1c1,3.2,2.2,6.5,3.3,10.2
	c-6.1-4.7-7.2-12.1-8.3-19C850.3,435.9,851.7,425,861.3,416.4z"/>
<path class="st5" d="M926.7,466.5c8.4-16.7,4.8-32.5-3.6-48.5c9.6,10.1,15.1,30.9,7.7,43.8C929.9,463.5,928.3,464.9,926.7,466.5z"/>
<path class="st5" d="M768.9,479.2c3.1,9.6,6,19.5,8.8,29.2c0.2,0.9,0.6,1.8,1,3.4c4.7-1.2,9.5-2.3,14.5-3.7
	c-1.4,2.8-9.8,6.1-13.4,5.3c-4.3-1.1-4.5-4.4-5.2-8.1c-1.5-7.5-4.3-14.8-6.3-22.1C768,482,768.4,480.6,768.9,479.2z"/>
<path class="st5" d="M1219.2,335.6c-10.8-7.4-22.7-10.2-35.9-6.5c-3.6,1-6.9,2.8-10.7,4.4c-0.5-0.7-1-1.8-0.7-2.1
	c10.2-8.8,35.4-8.3,45.3,1C1218.1,333.2,1218.6,334.3,1219.2,335.6z"/>
<path class="st5" d="M946.3,356.2c0.5-1,1-2.2,2-2.5c14.9-3.8,29.8-7.6,44.5-11.3c0.9-0.2,1.8,0,3.3,0.1c-4.3,1.7-9,3.6-13.8,4.9
	C970.4,350.6,958.5,353.5,946.3,356.2z"/>
<path class="st5" d="M1110.2,425c-2.9-9.4-5.5-18.9-8.3-29.4c7.4-1.5,14-2.7,21.1-3.8c-4.2,1.8-8.7,3.7-13.5,5
	c-3.9,1.1-4.5,2.8-3.2,6.4c2.1,5.9,3.6,12,5.1,18C1111.7,422.4,1110.9,423.7,1110.2,425z"/>
<path class="st5" d="M1120.4,374.7c-3,1.6-6.2,3.2-9.7,4.4c-3.8,1.2-7.7,2-12.2,3.1c-2.4-8.8-4.8-17.7-7.3-26.9
	c1.5,1.9,3.3,4.1,4.4,6.8c1.5,3.9,2.1,8.2,3.3,12.3c1.2,4,3.1,5.8,7.8,3.7C1110.8,376.2,1115.5,375.7,1120.4,374.7z"/>
<path class="st5" d="M1012.1,339.4c0.8-1,1.7-2.2,2.9-2.6c10.7-2.9,21.6-5.7,32.4-8.4c3.1-0.8,6.2-0.9,9.9-1.3
	c-4.2,1.7-8.7,3.7-13.4,4.9C1033.4,334.8,1022.9,337.2,1012.1,339.4z"/>
<path class="st5" d="M1228.8,388.3c3.8-11.1,5.2-22.4,0.8-33.5c-2.3-5.9-6.2-11.3-9.3-17.3c9.2,4.8,12,14.1,13.3,23
	c1.3,8.6,1.7,17.9-2.9,26.3C1230.3,387.3,1229.6,387.7,1228.8,388.3z"/>
<path class="st5" d="M1173.2,402.1c2.7,0.7,5.4,2,8.2,2.9c13,4.2,24.7,1,36.1-5.8c0.2,0.8,0.3,1.8-0.1,2.1
	c-6.3,5.5-26,10.8-34.5,6.5C1179.7,406.2,1176.5,404.4,1173.2,402.1z"/>
<path class="st5" d="M839.7,428.3c-8.8-6.5-18.5-6.5-28.8-3.2c-7.6,2.3-15.5,3.9-23.6,5.9c1.3-0.9,2.9-2.1,4.7-2.6
	c9.7-2.6,19.4-5.5,29.3-7C828.2,420.2,835.6,420.6,839.7,428.3z"/>
<path class="st5" d="M789.5,396.6c0.6-1,1.3-2.3,2.3-2.6c14.8-3.8,29.5-7.4,44.5-10.6c-1.2,1.1-2.5,2.2-4,2.7
	c-10.7,2.9-21.5,5.8-32.2,8.5C796.6,395.4,793.2,396,789.5,396.6z"/>
<path class="st5" d="M842.7,465.4c6.7-11.9,5.3-23.4-2-35.1c0.3-0.4,0.8-0.6,1-0.3C852.1,436.9,852.8,457.7,842.7,465.4z"/>
<path class="st5" d="M981.6,382.2c-14.5,4.1-29.2,7.9-44.4,11.7c1.4-1.1,3.1-2.7,5.1-3.2c12.6-3.4,25.3-6.6,37.8-9.7
	C980.6,380.9,981,381.6,981.6,382.2z"/>
<path class="st5" d="M1155,403.5c-1-0.9-2.2-1.8-2.5-3c-3.1-11-6-22-8.5-33.3c3.3,8.9,6.5,18,9.3,27.2
	C1154.2,397.3,1154.5,400.3,1155,403.5z"/>
<path class="st5" d="M871.1,476.9c14.2,7.2,28.5,7.6,43.1-0.2c-2.2,5.4-7.5,5.8-12.6,6.6c-9.5,1.5-18.8,1.7-27.5-2.9
	C872.9,479.6,872.1,478.3,871.1,476.9z"/>
<path class="st5" d="M1125.2,392.2c7-3.4,7-3.2,8.9,3.8c1.6,6.4,3.2,12.9,5.1,19.2c0.5,1.7,2,3.1,3.5,4.8c-3.8,1.1-5.1-2-5.9-4.7
	c-2.4-7.7-4.4-15.4-6.6-23.5C1128.4,392,1126.9,392.2,1125.2,392.2z"/>
<path class="st5" d="M758.7,437.6c-6.6,2.1-13.5,4.2-20.4,6.1s-14,3.5-21.3,5.3c5.2-2.1,10.8-4.6,16.6-6.4c6.5-2,13.2-3.5,19.7-4.9
	C754.9,437.2,756.7,437.6,758.7,437.6z"/>
<path class="st5" d="M957.6,466.9c5.2-1.7,10.8-3.6,16.5-5.4c5.7-1.7,11.3-3.4,17.1-4.6c1.5-0.3,3.3,0.7,5.2,1.5
	c-9.8,2.8-19.6,5.3-29.4,7.4C964.1,466.4,961.1,466.4,957.6,466.9z"/>
<path class="st5" d="M1154.2,357.2c0.1,11.3,2.8,22.1,7.4,33c-0.5,0.2-1.3,0-1.5-0.3C1154.7,379.7,1151.6,368.9,1154.2,357.2z"/>
<path class="st5" d="M1121.4,346.1c2,6.8,3.5,13.9,4.8,20.9c0.5,2.1,0.3,4.4,0.1,6.6c-2.5-7.3-4.7-14.5-6.5-22
	C1119.6,349.9,1120.6,348,1121.4,346.1z"/>
<path class="st5" d="M1044,371.2c-3.2-3.6-7.3-3-11.5-1.6c-3,1-6.2,1.6-9.8,2.2c5.1-2.1,10.6-4.6,16.4-5.9
	C1040.1,365.6,1042.3,369,1044,371.2z"/>
<path class="st5" d="M729.1,409.8c5.1-0.8,10.2-1.6,15.6-2.3c-8.5,2.2-17.4,4.4-26.8,6.5c2.3-1,5.2-2,8.8-3.1
	C728.1,410.4,728.6,410.1,729.1,409.8C729.1,409.7,729.1,409.8,729.1,409.8z"/>
<path class="st5" d="M1033.5,447.4c-0.1-5.5,0.1-11.2,0.5-17.4c3.7-1,7.6-2,12-2.8c-9.5,2.5-11.9,9.3-11.2,18
	C1034.8,445.8,1034.2,446.5,1033.5,447.4z"/>
<path class="st5" d="M1068.5,437.8c5.7-1.6,11.4-2.8,17.6-4.1C1084.1,437.3,1075,439.7,1068.5,437.8z"/>
<path class="st5" d="M807.5,505.1c4.6-1.6,9.3-2.8,14.4-4.1C818.4,504.9,813.4,506.3,807.5,505.1z"/>
<path class="st5" d="M875.1,406.4c-3.1,2.5-6.7,5-10.7,7.5C867.6,411.4,871.2,408.9,875.1,406.4z"/>
<path class="st5" d="M861.9,467.4c3.1,2.6,6.1,5.5,9.2,8.8C865.9,475.8,862.9,472.7,861.9,467.4z"/>
<path class="st5" d="M700.6,418.6c5-1.6,10.5-3,16.4-4.6C712.1,415.5,706.6,417,700.6,418.6z"/>
<path class="st5" d="M1062.5,429.1c2.1,2.2,4.2,4.9,6.1,7.9C1066.5,434.8,1064.5,432.1,1062.5,429.1z"/>
<path class="st5" d="M836.3,470c1.3-1,2.5-1.7,4.3-2.3C839.5,468.5,837.9,469.4,836.3,470z"/>
<path class="st5" d="M1079.5,356.6c-1.2,0.8-2.3,1.2-4,1.7C1076.6,357.6,1078,357,1079.5,356.6z"/>
<path class="st5" d="M915.2,476.7c0.9-0.8,2.2-1.6,3.9-2.2C918.2,475.3,916.8,475.9,915.2,476.7z"/>
<path class="st5" d="M1224.5,395c0-1,0.5-2.2,1.2-3.4C1225.7,392.6,1225.3,393.7,1224.5,395z"/>
<path class="st5" d="M1218.4,399.4c0.6-0.7,1.5-1.2,2.9-1.9C1220.7,398.2,1219.8,398.9,1218.4,399.4z"/>
<path class="st5" d="M878.9,405.6c-0.5,0.3-0.9,0.4-1.7,0.4c0-0.8,0.5-1.5,0.8-2.2C878.2,404.4,878.6,404.8,878.9,405.6z"/>
<path class="st5" d="M1226.5,391.6c0.1-1.1,0.7-2.2,1.6-3.4C1227.9,389.4,1227.4,390.5,1226.5,391.6z"/>
<path class="st5" d="M698,419.7c0.2-0.3,0.9-0.7,1.8-1.1C699.7,418.9,699,419.2,698,419.7z"/>
<path class="st5" d="M1091.2,354.7c0,0.2-0.5,0.1-0.7,0c0-0.4,0.2-0.8,0.5-1.2C1091.1,353.8,1091.1,354.2,1091.2,354.7z"/>
<path class="st5" d="M1220.4,336.7c-0.3,0.1-0.8,0-1.2-0.4C1219.6,336,1219.9,336.3,1220.4,336.7z"/>
<path class="st5" d="M840.9,429.5c-0.3,0.1-0.7,0-1.2-0.6C840.1,428.8,840.4,429.1,840.9,429.5z"/>
<path class="st6" d="M1038.1,766.3c0,0-0.6,0-1.3,0c-43.6,0-86.3,0-129-0.1c0,0,0,0.1,0-0.4c0-27.8-0.1-55.1,0-82.5
	c0-35.7,0.1-71.3,0.1-107c0,0,0,0,0.5,0c43.1,0,85.8,0,128.5-0.1c0.3,0.2,0.7,0.4,1.2,1.6c0.1,14.9,0.1,29.1,0.1,43.2
	C1038.2,669.3,1038.1,717.8,1038.1,766.3z"/>
<path class="st4" d="M1214.1,766.2c-0.3-55.8-0.3-111.7-0.3-167.6c0-52.2,0-104.3,0.2-157c0.7,1.3,1.7,3,1.7,4.8
	c0.1,104.9,0.1,209.7,0,314.5C1215.8,762.6,1215,764.4,1214.1,766.2z"/>
<path class="st3" d="M1059,559.9c0.8,2.2,2.1,5,2.1,7.7c0.1,65.9,0.1,131.7,0.1,198.1c-0.7-1.5-2.2-3.5-2.2-5.4
	c-0.1-47.9-0.1-95.7-0.1-143.6C1059,598,1059,579.2,1059,559.9z"/>
<path class="st3" d="M907.5,576.3c0.5,35.6,0.3,71.2,0.3,106.9c0,27.3,0,54.7,0.1,82.5c-0.7-1.5-2.2-3.5-2.2-5.4
	c-0.1-59.5-0.1-119,0-178.5C905.7,580.1,906.5,578.2,907.5,576.3z"/>
<path class="st3" d="M728.1,766.6c51.4-0.4,103-0.4,155-0.4c-0.9,0.8-2.3,2.2-3.8,2.2c-49,0.1-98.2,0.1-147.2,0
	C730.8,768.4,729.4,767.5,728.1,766.6z"/>
<path class="st3" d="M1061.4,766.6c50.3-0.4,100.7-0.4,151.6-0.3c-0.9,0.8-2.4,2.1-3.9,2.1c-47.9,0.1-95.7,0.1-143.6,0
	C1064.2,768.4,1062.8,767.6,1061.4,766.6z"/>
<path class="st3" d="M908,766.6c42.6-0.4,85.2-0.4,128.5-0.3c-0.9,0.8-2.5,2.1-4,2.1c-39.9,0.1-79.9,0.1-119.9,0
	C911.1,768.4,909.6,767.6,908,766.6z"/>
<path class="st4" d="M727.5,564.3c0.3,66.8,0.5,133.8,0.5,201.5c-0.3-1.2-1.2-2.9-1.2-4.7c-0.1-64.2,0-128.5,0-192.7
	C726.8,567.2,727,565.9,727.5,564.3z"/>
<path class="st4" d="M1038.5,766c-0.3-48.2-0.3-96.7-0.2-145.2c0-14.1,0-28.3,0-42.9c0.3,1.2,1,3,1,4.7c0,59.4,0,118.7,0,178.1
	C1039.4,762.4,1039,764.1,1038.5,766z"/>
<path class="st4" d="M893.2,554.3c52.4-0.3,105-0.4,158.1-0.3c-1,0.4-2.7,1-4.3,1c-50.1,0-100.1,0-150.1,0
	C895.9,555,894.7,554.8,893.2,554.3z"/>
<path class="st4" d="M1036.6,575.8c-42.3,0.3-85,0.3-128.3,0.4c0.8-0.3,2.3-1.1,3.7-1.1c40.7-0.1,81.3,0,122,0
	C1034.9,575.1,1035.6,575.3,1036.6,575.8z"/>
<path class="st3" d="M1058.8,558.4c0.2-0.1,0.3,0.4,0.3,0.7C1058.9,559.1,1058.8,558.9,1058.8,558.4z"/>
<path class="st2" d="M793.3,361.6c-4.7,4-9.8,8.1-15.3,12.2c-0.1-3.5,0.1-6.9,0.3-10.4C783,361.4,787.5,358,793.3,361.6z"/>
<path class="st2" d="M789.5,344.2c2-1.2,3.6-2.1,4.3-2.5c2.2,3.6,3.9,6.3,6.5,10.2c-2.4-0.2-5.2,0.2-6.7-0.9
	C791.6,349.6,790.7,346.8,789.5,344.2z"/>
<path class="st2" d="M734.5,404c-1.5,1.8-3.3,3.4-5.3,5.4c0,0.3-0.1,0.3-0.5,0.2c-0.9-0.1-1.4,0-2,0c-4-1.9-3-4.9-0.9-7.2
	C729,399.3,731.9,400.6,734.5,404z"/>
<path class="st2" d="M843.1,325.9c-0.8,1.2-2.1,2.2-3.8,3.4c-1.7-0.8-3-1.6-5.1-2.9c0.8-1,2.1-3.4,3.2-3.4
	C839.1,323,840.9,324.6,843.1,325.9z"/>
<path class="st2" d="M813.1,348.2c-1.2,0.9-2.8,1.9-4.8,2.8c-1.8-0.9-3.2-1.9-4.7-2.9C806.6,343.5,809.6,347.7,813.1,348.2z"/>
<path class="st2" d="M861.4,301.8c0.5,2,0.8,3.6,1.3,6.1c-2.5-2.1-4.5-3.6-6.3-5.1c0-0.4,0-0.9,0.1-1.3
	C857.9,301.5,859.6,301.5,861.4,301.8z"/>
<path class="st2" d="M875.8,302.5c-0.8,1.3-1.8,2.2-3.2,3.4c-0.6-2-0.8-4.1-1.3-8.1C873.5,299.9,874.6,301,875.8,302.5z"/>
<path class="st2" d="M814.9,339.4c-1.4-0.6-2.4-1.2-3.5-2c1.3-0.4,2.5-0.9,3.8-1.5C815.4,337,815.3,338.2,814.9,339.4z"/>
<path class="st2" d="M756.4,388.5c-1.3,1.6-2.9,3-5,4.6C752.7,391.6,754.4,390,756.4,388.5z"/>
<path class="st2" d="M763.1,376.5c1.3-0.3,2.4-0.3,3.7-0.3c-0.1,0.7-0.2,1.3-0.5,2C765.2,377.7,764,377.3,763.1,376.5z"/>
<path class="st2" d="M799.2,358.3c-1.3,1.1-2.9,2.3-5,3.5C795.5,360.5,797.2,359.4,799.2,358.3z"/>
<path class="st2" d="M743.9,397.4c-0.9,1.1-2.2,2.2-3.8,3.4c0.2-1,0.9-1.9,1.6-3.1C742.4,397.3,742.8,397.3,743.9,397.4z"/>
<path class="st2" d="M733.6,379.8c0.7,0.6,1.3,1.5,1.8,2.5c-0.5,0.1-0.9,0.3-1.5,0.4C733.8,381.8,733.6,380.9,733.6,379.8z"/>
<path class="st2" d="M770.3,378.4c-0.9,1.1-2.2,2.2-3.8,3.4C767.4,380.7,768.7,379.5,770.3,378.4z"/>
<path class="st2" d="M741.8,397c-0.9,0.2-2,0-2.9-0.1c0.1-0.4,0.3-0.8,0.5-1.2C740.1,395.9,740.9,396.2,741.8,397z"/>
<path class="st2" d="M870.7,306.9c-0.6,0.8-1.5,1.5-2.8,2.2C868.6,308.3,869.5,307.5,870.7,306.9z"/>
<path class="st2" d="M759.9,386.2c-0.5,0.8-1.4,1.6-2.5,2.2C757.8,387.7,758.6,386.9,759.9,386.2z"/>
<path class="st2" d="M803.7,354.9c-0.5,0.8-1.4,1.6-2.7,2.3C801.5,356.5,802.5,355.7,803.7,354.9z"/>
<path class="st2" d="M807.4,351.5c-0.1,0.7-0.7,1.5-1.6,2.2C805.9,353,806.5,352.3,807.4,351.5z"/>
<path class="st2" d="M763.1,361.1c-0.1,0.6-0.5,0.8-0.8,1.1c0,0-0.2-0.2-0.3-0.3C762.2,361.5,762.5,361.2,763.1,361.1z"/>
<path class="st2" d="M772.2,369.9c-0.6-0.1-0.8-0.4-1.2-0.8c0,0,0.2-0.2,0.3-0.3C771.8,369,772.1,369.4,772.2,369.9z"/>
<path class="st2" d="M858.1,315.8c-0.2,0.4-0.7,0.8-1.6,1.1C856.6,316.6,857.1,316.1,858.1,315.8z"/>
<path class="st2" d="M822.3,341.5c-0.2,0.4-0.7,0.8-1.6,1.1C820.8,342.3,821.4,341.9,822.3,341.5z"/>
<path class="st2" d="M836.1,331.5c-0.2,0.4-0.7,0.8-1.6,1.2C834.6,332.2,835.2,331.8,836.1,331.5z"/>
<path class="st2" d="M831.5,334.8c-0.2,0.4-0.7,0.8-1.6,1.1C830,335.6,830.6,335.1,831.5,334.8z"/>
<path class="st2" d="M880,300.1c-0.2,0.4-0.7,0.8-1.6,1.1C878.5,300.9,879.1,300.5,880,300.1z"/>
<path class="st2" d="M826.9,338.2c-0.2,0.4-0.7,0.8-1.6,1.1C825.4,338.9,826,338.5,826.9,338.2z"/>
<path class="st2" d="M845.4,324.7c-0.2,0.4-0.7,0.8-1.6,1.2C843.9,325.5,844.4,325.1,845.4,324.7z"/>
<path class="st2" d="M853.4,319.2c-0.2,0.4-0.7,0.8-1.6,1.1C851.9,319.9,852.5,319.5,853.4,319.2z"/>
<path class="st2" d="M848.8,322.5c-0.2,0.4-0.7,0.8-1.6,1.1C847.3,323.3,847.9,322.8,848.8,322.5z"/>
<path class="st2" d="M746.2,396.3c-0.2,0.4-0.7,0.8-1.6,1.2C744.7,397.1,745.2,396.6,746.2,396.3z"/>
<path class="st2" d="M772.7,377.3c-0.2,0.4-0.7,0.8-1.6,1.1C771.2,378,771.8,377.6,772.7,377.3z"/>
<path class="st2" d="M777.3,373.9c-0.2,0.4-0.7,0.8-1.6,1.1C775.8,374.7,776.4,374.3,777.3,373.9z"/>
<path class="st2" d="M862.7,312.4c-0.2,0.4-0.7,0.8-1.6,1.1C861.2,313.2,861.7,312.8,862.7,312.4z"/>
<path class="st2" d="M867.3,309.1c-0.2,0.4-0.7,0.8-1.6,1.1C865.8,309.9,866.4,309.4,867.3,309.1z"/>
<path class="st2" d="M736.9,403c-0.2,0.3-0.7,0.8-1.6,1.1C735.4,403.8,736,403.4,736.9,403z"/>
<path class="st2" d="M817.7,344.9c-0.2,0.4-0.7,0.8-1.6,1.1C816.2,345.7,816.8,345.2,817.7,344.9z"/>
<path class="st7" d="M726.8,410c0.6-0.3,1-0.3,2-0.2c-0.1,0.4-0.7,0.8-1.6,1.1C726.8,410.7,726.8,410.2,726.8,410z"/>
<path class="st2" d="M749.7,394.1c-0.2,0.4-0.8,0.8-1.7,1.1C748.2,394.7,748.8,394.4,749.7,394.1z"/>
<path class="st2" d="M763.6,384c-0.2,0.4-0.8,0.8-1.7,1.1C762.1,384.7,762.7,384.3,763.6,384z"/>
<path class="st2" d="M846.5,323.7c0.1,0.2-0.1,0.6-0.6,1C845.8,324.4,846.1,324.1,846.5,323.7z"/>
<path class="st2" d="M855.8,317c0.1,0.2-0.1,0.6-0.6,1C854.9,317.6,855.2,317.4,855.8,317z"/>
<path class="st2" d="M854.6,318.2c0.1,0.2-0.1,0.6-0.6,1C853.9,318.8,854.1,318.5,854.6,318.2z"/>
<path class="st2" d="M860.4,313.7c0.1,0.2-0.1,0.6-0.6,1C859.6,314.2,859.8,314,860.4,313.7z"/>
<path class="st2" d="M851.1,320.4c0.1,0.2-0.1,0.6-0.6,1C850.3,320.9,850.6,320.7,851.1,320.4z"/>
<path class="st2" d="M850,321.5c0.1,0.2-0.1,0.6-0.6,0.9C849.3,322.2,849.5,321.8,850,321.5z"/>
<path class="st2" d="M823.5,340.5c0.1,0.2-0.1,0.6-0.6,0.9C822.8,341.2,823,340.9,823.5,340.5z"/>
<path class="st2" d="M775,375.2c0.1,0.2-0.1,0.6-0.6,1C774.3,375.8,774.5,375.5,775,375.2z"/>
<path class="st2" d="M805,353.9c0.1,0.2-0.1,0.6-0.6,0.9C804.3,354.6,804.5,354.3,805,353.9z"/>
<path class="st2" d="M815.4,346.1c0.1,0.2-0.1,0.6-0.6,1.1C814.8,347,814.9,346.7,815.4,346.1z"/>
<path class="st2" d="M865,310.3c0.1,0.2-0.1,0.6-0.6,1C864.2,310.9,864.4,310.7,865,310.3z"/>
<path class="st2" d="M818.8,343.9c0.1,0.2-0.1,0.6-0.6,0.9C818.1,344.5,818.4,344.2,818.8,343.9z"/>
<path class="st2" d="M863.8,311.4c0.1,0.2-0.1,0.6-0.6,1C863.1,312.1,863.4,311.8,863.8,311.4z"/>
<path class="st2" d="M820,342.8c0.1,0.2-0.1,0.6-0.6,1C819.3,343.4,819.5,343.1,820,342.8z"/>
<path class="st2" d="M773.9,376.3c0.1,0.2-0.1,0.6-0.6,0.9C773.2,377,773.4,376.6,773.9,376.3z"/>
<path class="st2" d="M824.6,339.4c0.1,0.2-0.1,0.6-0.6,1C823.9,340.1,824.1,339.7,824.6,339.4z"/>
<path class="st2" d="M828.1,337.2c0.1,0.2-0.1,0.6-0.6,0.9C827.4,337.8,827.6,337.5,828.1,337.2z"/>
<path class="st2" d="M829.2,336c0.1,0.2-0.1,0.6-0.6,1C828.5,336.7,828.8,336.4,829.2,336z"/>
<path class="st2" d="M832.7,333.8c0.1,0.2-0.1,0.6-0.6,0.9C832,334.5,832.2,334.1,832.7,333.8z"/>
<path class="st2" d="M833.8,332.7c0.1,0.2-0.1,0.6-0.6,1C833,333.2,833.3,333,833.8,332.7z"/>
<path class="st2" d="M837.3,330.5c0.1,0.2-0.1,0.6-0.6,0.9C836.6,331.1,836.8,330.8,837.3,330.5z"/>
<path class="st2" d="M838.4,329.3c0.1,0.2-0.1,0.6-0.6,1C837.6,329.9,837.9,329.7,838.4,329.3z"/>
<path class="st2" d="M738.1,402c0.1,0.2-0.1,0.6-0.6,1C737.4,402.7,737.6,402.3,738.1,402z"/>
<path class="st2" d="M739.2,400.9c0.1,0.2-0.1,0.6-0.6,1C738.4,401.5,738.7,401.2,739.2,400.9z"/>
<path class="st2" d="M877.7,301.4c0.1,0.2-0.1,0.6-0.7,1C876.9,302.2,877.1,301.8,877.7,301.4z"/>
<path class="st2" d="M747.3,395.3c0.1,0.2-0.1,0.6-0.6,1C746.6,396,746.9,395.6,747.3,395.3z"/>
<path class="st2" d="M859.2,314.8c0.1,0.2-0.1,0.6-0.6,0.9C858.5,315.5,858.8,315.1,859.2,314.8z"/>
<path class="st2" d="M761.2,385.2c0.1,0.2-0.1,0.6-0.6,1C760.5,385.9,760.7,385.6,761.2,385.2z"/>
<path class="st2" d="M765.8,381.9c0.1,0.2-0.1,0.6-0.5,1.1C765.2,382.8,765.3,382.4,765.8,381.9z"/>
<path class="st1" d="M650.4,450c0.6-0.7,1.2-1.7,2-2.1c0.5-0.2,1.5,0.3,2.2,1.3c-1.2,0.2-2.2,0.4-3.7,0.8
	C650.5,450,650.5,450,650.4,450z"/>
<path class="st1" d="M776.5,347.3c0.5-0.3,0.9-0.3,1.8-0.3c0.1,0.6-0.1,1.1-0.5,1.7C777.4,348.3,777,348,776.5,347.3z"/>
<path class="st5" d="M978.4,432.9c1.5,4.2,3.1,8.5,4.7,13c-8,2-15.5,4-21.5,5.6c-1.7-15.9-3.6-31.9-5.3-48.3c3.6-1,8.3-2.2,14-3.8
	c2.8,11,5.7,21.8,7.8,32.9c-2.4-6.7-4.4-13.6-6.3-20.7c-2.9-10.5-2.9-10.5-13.5-7.3c-0.2,0.1-0.5,0.6,0,0c1.7,15.4,3.3,30,5,44.8
	c5.4-1.5,11.3-3,17-4.5C979.5,440.5,978.9,436.7,978.4,432.9z"/>
<path class="st0" d="M1180.1,346.9c8.1-4.5,16.5-5.7,24.1,0c3.2,2.5,5.5,6.7,7.2,10.6c3,7.8,5.5,15.9,0.6,24.3
	c-5.4,9.1-20.8,14.3-30.2,4.6c-0.2-0.7-0.5-1-0.7-1.2c0,0,0.1-0.1,0.1-0.4c-0.3-0.4-0.7-0.7-1.2-0.8c0,0,0.1,0,0.1-0.3
	c-0.3-0.9-0.8-1.3-1.3-1.9c0,0,0.1,0,0.1-0.4c-1.2-2.7-2.4-5-3.6-7.5c0,0,0.1,0,0.1-0.4c0-7.3,0-14.1,0-20.9c0,0-0.1,0.1,0.3,0
	c1.3-1.6,2.2-3,3.1-4.6c0,0,0.1,0,0.3,0C1179.7,347.6,1179.9,347.2,1180.1,346.9z"/>
<path class="st5" d="M1175,352.7c0.5,6.6,0.5,13.4,0.5,20.7C1171.6,367,1172.5,360,1175,352.7z"/>
<path class="st5" d="M1175.2,374.3c1.4,2,2.5,4.4,3.8,7C1177.6,379.4,1176.2,377,1175.2,374.3z"/>
<path class="st5" d="M1178.4,348c-0.5,1.5-1.4,2.9-2.8,4.5C1176.2,351,1177.1,349.5,1178.4,348z"/>
<path class="st5" d="M1178.7,382.1c0.6,0.2,1,0.7,1.4,1.6C1179.5,383.5,1179.1,383,1178.7,382.1z"/>
<path class="st5" d="M1179.8,346.9c0.1,0.3-0.1,0.7-0.6,1.1C1179.1,347.7,1179.2,347.2,1179.8,346.9z"/>
<path class="st5" d="M1181,385.5c0.2,0,0.6,0.2,0.6,0.6C1181.3,386.1,1180.9,385.7,1181,385.5z"/>
<path class="st5" d="M1180,384.3c0.3-0.1,0.7,0,1.2,0.6C1180.8,384.9,1180.5,384.8,1180,384.3z"/>
<path class="st0" d="M877.9,425.5c0.2-0.4,0.5-0.8,1.4-1.3c8-3.1,15.3-4,22.8-1.2c0,0,0-0.1,0,0.3c2,2.3,3.9,4.4,6,6.4
	c0,0,0,0.1-0.1,0.4c-0.1,0.8-0.1,1.1,0,1.5c3.3,8.6,6.9,17.2,1.6,26.3c-0.1,0.2,0.6,0.9,0.9,1.2c-5.3,5.8-12.2,8.3-20,8.1
	c-9-0.3-14.9-10.1-17.2-19c-1-3.8-0.8-7.9-0.7-12.5C874.8,431.9,876.4,428.7,877.9,425.5z"/>
<path class="st5" d="M902.1,422.6c-7.5-2.5-14.8-1.6-22.4,1.6C883.8,417.8,893.4,416.9,902.1,422.6z"/>
<path class="st5" d="M910.9,458.8c-0.7-0.2-1.4-0.8-1.3-1c5.2-9.2,1.7-17.7-1.6-26.3c-0.1-0.3-0.1-0.8-0.1-1.5
	C914.2,438.8,916.1,448.3,910.9,458.8z"/>
<path class="st5" d="M877.6,425.6c-1.2,3-2.8,6.3-4.7,9.5C874,432.1,875.6,429,877.6,425.6z"/>
<path class="st5" d="M908.1,429.2c-2-1.6-4-3.6-5.9-5.9C904.2,424.8,906.2,426.8,908.1,429.2z"/>
<path class="st0" d="M1038.4,394c1.5,2,3,4,4.5,6.8c1.3,2,2.4,3.1,3.5,4.4c0,0-0.1,0,0,0.3c0.5,0.4,0.8,0.7,1.3,0.8
	c0,0-0.1,0-0.1,0.3c0.3,0.9,0.8,1.3,1.3,1.9c0,0-0.1,0-0.1,0.3c-3.9,1.8-7.8,3.2-12,4.8c0.2-4.7,0.2-7.8,0.6-10.8
	C1037.4,399.8,1038,396.9,1038.4,394z"/>
<path class="st5" d="M1038.4,393.5c-0.5,3.4-1,6.3-1.3,9.3c-0.3,3.1-0.3,6.1-0.6,10.8c4.2-1.6,8.1-3,12.1-4.8c0.8,0.2,1.6,0.9,3,2.2
	c-6,1.6-11.2,3-16.7,4.6c0-4.8-0.1-9.2,0-13.5c0.2-4.2,0.8-8.4,1.3-14.2C1037.3,390.4,1037.9,391.7,1038.4,393.5z"/>
<path class="st5" d="M1046.5,404.7c-1.3-0.8-2.4-2-3.6-3.6C1044.1,401.9,1045.4,403.1,1046.5,404.7z"/>
<path class="st5" d="M1048.9,408.2c-0.6-0.2-0.9-0.7-1.4-1.6C1048,406.7,1048.5,407.3,1048.9,408.2z"/>
<path class="st5" d="M1047.6,405.8c-0.3,0.1-0.7,0-1.2-0.6C1046.8,405.1,1047.1,405.4,1047.6,405.8z"/>
<path class="st0" d="M826,439.4c5,5.7,6.6,11.6,2.5,16c-3.2,3.5-9,4.7-13.7,6.6c-0.3,0.1-2.4-2.5-3-4.1c-1.6-4.4-2.9-8.8-4.3-13.3
	c-0.7-2.1-0.9-3.7,2.5-3.8C815.3,440.6,820.5,439.7,826,439.4z"/>
<path class="st0" d="M978.3,432.9c0.7,3.8,1.3,7.6,2,11.9c-5.7,1.5-11.4,3-17,4.5c-1.6-14.9-3.2-29.4-5-44.8c-0.5,0.6-0.3,0.1,0,0
	c10.6-3.2,10.6-3.2,13.5,7.3c1.8,6.9,3.8,14,6.1,21C978.4,432.9,978.3,433,978.3,432.9z"/>
</svg>
