<?xml version="1.0" encoding="utf-8"?>
<!-- Generator: Adobe Illustrator 28.0.0, SVG Export Plug-In . SVG Version: 6.00 Build 0)  -->
<svg version="1.1" id="Layer_1" xmlns="http://www.w3.org/2000/svg" xmlns:xlink="http://www.w3.org/1999/xlink" x="0px" y="0px"
	 viewBox="0 0 1920 1024" style="enable-background:new 0 0 1920 1024;" xml:space="preserve">
<style type="text/css">
	.st0{fill:#EFD373;}
	.st1{fill:#F7E8AF;}
	.st2{fill:#C19A5A;}
</style>
<path class="st0" d="M1106.3,657.9l113.9,113.9c-0.5-0.6-1.4,1-0.9,1.5c0.6,0.5,1.4,0.3,2.2,0.1c5.9-1.4,11.8,1.8,17.1,4.9
	c14.7,8.7,29.4,17.3,44,26c2.5,1.5,5.2,3,8.2,2.9c4.7-0.2,8-4.7,10.6-8.6c5.9-9.2,11.9-18.5,14.4-29.2c2.6-11.2,1-23-1.5-34.3
	c-1-4.7-2.3-9.5-5-13.5c-1.9-2.8-4.5-5.1-7-7.3c-15.9-13.5-34.7-23.8-47.9-40c-5.7-7-10.3-15-17.5-20.3c-2.9-2.1-6.2-3.7-9.4-5.4
	c-5.8-2.9-11.7-5.8-17.5-8.7c-10.2-5.1-20.4-10.2-30.8-14.8c-14-6.3-30.1-11.8-44.5-6.3c-4.2,1.6-8,4-11.6,6.6
	c-6.7,4.9-13,10.6-16.4,18.2s-3,17.2,2.7,23.2"/>
<path class="st0" d="M690.9,132.4c2.3-0.4,4.5-1.2,6.6-2.2c0.5-0.2,0.9-0.5,1.4-0.7c0.9-0.4,1.9-0.5,2.9-0.7
	c5.6-0.9,11.1-2,16.6-2.9h19.7c-0.2-1.2-0.2-2.4,0.1-3.5c1.6-0.1,3.1-0.2,4.7-0.3c7.6-0.4,15.2-0.9,22.8-1.3c0.5,0,0.9-0.1,1.4,0.1
	c0.8,0.3,1.4,1.1,2.2,1.3l21.8,21.8c-1.4,1.3-2.9,2.5-4.3,3.8c0.7,0.7,1.4,1.4,2.1,2.1c0.7,0.7,1.3,1.3,1.8,2.1
	c0.5,0.8,0.7,1.7,0.9,2.6c1.3,4.1,3.8,7.6,6,11.2s4.5,7.6,4.5,11.8l33.6,33.6c-2.5,1.9-4.8,4-7,6.3c1.2,0.6,2.3,1.5,3.3,2.5
	c0.9,1,2,2.3,3.3,2c0.7-0.2,1.3-0.8,1.8-1.2s1.5-0.8,2.1-0.3c0.3,0.3,0.4,0.7,0.6,1.1c0.8,2.6,3.4,4.3,4.1,6.9
	c0.2,0.7,0.3,1.5,0.4,2.2c0.3,2.2,0.9,4.4,2.1,6.3l26.8,26.8c-3.6,2.5-7.1,5.2-10.5,8c0.5-0.1,1,0.3,1.3,0.7c2.7,2.9,5.3,6.6,5,10.5
	c-0.2,1.6-0.8,3.2-1.4,4.7c-3.4,8.1-6.9,16.3-10.3,24.4c-2,4.8-4.3,9.9-8.6,12.8c-3.9,2.6-8.4,5-13,6c-8.3,1.9-16.5,4.6-24.3,8.1
	c-0.9-3.2-5.5-3.3-7.7-5.8c-1.2-1.3-1.5-3.2-1.9-4.9c-1.4-5.2-4.6-10-8.9-13.2c-2.1-1.6-4.7-3.1-5.3-5.7l-20.2-20.2
	c1.6-1.5,3.3-3,5-4.5c-1.4-0.3-1.5-2.3-2.3-3.5c-0.7-1.2-2.2-1.8-3.3-2.6c-2-1.5-3-4-3.8-6.4c-1.3-3.9-2.5-7.9-3.7-11.9
	c-0.5-1.8-1.1-3.6-1.4-5.4c-0.3-1.8-0.4-3.6-0.8-5.4c-2-8.7-10.8-13.9-16.2-21c-3.3-4.4-5.4-9.7-8.7-14.2l-34.4-34.4
	c4.9-3.4,9.7-6.8,14.4-10.4c-0.6-0.2-1.1-0.4-1.7-0.7c-1.8-1-3.3-2.3-4.6-3.9c-2.6-3.3-3.6-7.6-6.1-10.9c0.3,0.3,0.6,0.6,0.9,0.9
	c-2.3-4.7-4.8-10.7-5.7-15.9c-0.1-0.4-0.1-0.8-0.3-1.2c-0.5-0.9-1.7-1.2-2.4-2c-0.5-0.6-0.6-1.3-0.9-2
	C691.1,133.3,691.6,132.5,690.9,132.4z"/>
<path class="st1" d="M655.8,168.3c-11.5,3.7-22.2,10.1-30.9,18.5c-11.6,11.3-19.5,25.9-25.8,40.8c-33.8,80-25.9,173.7,8.5,253.5
	c18.8,43.6,44.8,83.6,70.7,123.4c4.4,6.8,9,13.7,15.5,18.4c3.8,2.7,8.2,4.7,11.9,7.5c5.3,4,9.1,9.7,12.8,15.3
	c12.9,19.6,25.9,39.2,38.8,58.7c10.7,16.1,27.6,17.2,43,28.9c10.7,8.2,17.1,20.7,26.1,30.7c7.6,8.4,16.9,15.1,26.1,21.6
	c23.2,16.5,46.5,33,69.7,49.5c48.9,34.7,99.9,70.3,159,80.6c67.1,11.7,139.4-13.1,185.1-63.6c4.6-5.1,9.1-10.7,10.2-17.4
	c2.7-15.9-13.2-27.9-26.7-36.7c-53.6-35.1-98.3-82-143.5-127.4c-4.2-4.2-9.7-8.7-15.3-6.8c-3.6,1.2-5.8,4.8-8.2,7.8
	c-9.2,11.2-24.9,15.6-39.3,14.5c-14.5-1.1-28.1-7-41.3-13.2c-32.7-15.5-64.8-34.2-88.7-61.3c-24.9-28.2-40.2-64.7-68.8-89.2
	c-9-7.7-19.3-14.2-26.8-23.5c-9-11.1-13.2-25.3-17.2-39c-7-24.4-14.1-49.5-11.2-74.7c1.5-12.6,5.5-25.1,5.1-37.8
	c-0.5-14.6-6.7-28.2-13.3-41.3c-20.3-40.6-44.1-79.2-68.3-117.6c-9.7-15.4-22-32.3-40.1-33.7c-20.5-1.5-35.9,17.6-47.4,34.6"/>
<path class="st2" d="M903.5,573.5c25.8,28,53,53.9,83,77c4.7,3.6,9.6,7.3,14.8,10.1c22.5,12.4,43.9,9.5,65.5-8.4
	c14.7-12.1,28.9-24.7,42.6-37.8c25.9-24.8,64-26.5,92.9-3.5c39.2,31.2,77.9,63.1,115.5,96.4c18.5,16.4,23.7,43.3,13.9,64.7
	c-11.3,24.6-24.8,48-44.4,67.1c-21.9,21.3-44.5,41.7-71.3,56.8c-25.7,14.5-53.2,23.5-82.4,27.4c-34.8,4.7-68.2-1.4-101-12.7
	c-39.6-13.6-75.1-34.7-109.7-57.9c-44.8-30.2-85.2-65.7-124-103C731.3,685,674.7,611.5,626.3,531.7c-23.9-39.4-44-80.7-57.2-125.1
	c-9.2-30.8-13.6-62.2-11-94.2c3.3-41.6,17.9-79.2,42.4-113.1c21.1-29.3,46.7-53.7,76.2-74.3c12-8.4,26.2-12.2,39.6-17.6
	c11.8-4.8,23.8-7.2,36.5-6.8c18.3,0.6,32.8,7.8,42,24.3c23.6,42.4,49.2,83.5,74,125.2c15.2,25.7,14,53.8-4.7,75.1
	c-8.3,9.5-18.4,17.3-27.7,26c-6.3,5.9-12.7,11.8-18.9,17.9c-19.7,19.4-24,41.8-12.6,67c9.7,21.5,23.3,40.7,36.3,60.3
	C859.3,524.1,881.1,548.8,903.5,573.5 M1192.3,875.8c24.8-11.6,45.6-28.6,65-47.6c9.2-9,9.2-9.1-0.7-17.3
	c-35.4-29.4-70.8-58.7-106.1-88.1c-19.6-16.3-39.1-32.7-58.5-49.2c-2.5-2.1-4.2-2.4-6.8-0.1c-3.1,2.8-6.6,5-10.1,7.4
	c-29.1,20.1-61.9,20.8-91.8,2c-18.3-11.5-34.4-25.7-50.3-40.2c-48.1-43.6-91.6-91.2-126.4-146.3c-10.9-17.1-22.8-33.7-29.6-53.1
	c-11-31.4-8-60.6,14.3-86.5c2.6-3.1,2.1-5.3,0.3-8.3c-20.1-33.4-40.2-66.8-60.2-100.3c-16.2-27.2-31.5-54.9-48.3-81.8
	c-4.6-7.3-4.6-7.4-11.4-1.9c-14,11.4-26.9,23.9-38.3,37.9c-37.9,46.5-53.7,99.2-44.8,158.8c5.9,39.3,19.8,75.9,37.6,111.1
	c18.6,36.8,40.8,71.4,64.4,105.2c34.5,49.4,72.1,96.3,115,138.7c48.1,47.6,99.4,91.2,156.6,127.6c31.6,20.1,64.7,37,101.4,46.2
	c22.7,5.6,45.7,7.4,68.8,4.5C1153.1,891.8,1172.7,884.8,1192.3,875.8 M1271.4,705.2c-2.2-1.8-4.3-3.7-6.5-5.5
	c-27.1-23.7-55-46.3-83.5-68.3c-15.5-12-34.5-11.7-49.8,0.5c-4.9,3.9-9.5,8.3-14.1,12.7c-5.7,5.4-5.7,7,0.4,12.3
	c9.8,8.5,19.6,17,29.6,25.3c38.9,32.4,77.8,64.8,116.7,97.1c7,5.8,14.1,11.5,21.9,17.9c0.7-1.2,1.1-2,1.5-2.7
	c6.6-10.4,13.3-20.8,18-32.2c5.8-13.8,3.3-25.5-8.7-35.2C1288.4,720.2,1280.2,712.8,1271.4,705.2 M803.6,312.9
	c4.2,6.3,7.3,13.4,11.8,19.2c2.6-0.6,3.7-2.1,5-3.4c5.7-5.4,11.2-10.9,17-16.2c15.6-14.2,18-28,7.3-46.3c-13-22.1-26.4-44-39.4-66.1
	c-12.3-20.8-24.2-41.8-36.3-62.6c-4.8-8.2-12.6-10.8-21.3-9.9c-14.5,1.4-27.4,7.9-40.6,13.4c-2.6,1.1-3.2,2.7-1.7,5.1
	c0.8,1.3,1.4,2.6,2.2,3.9C738.5,204.7,770.8,258.5,803.6,312.9z"/>
<path class="st2" d="M1338.2,278.9c12.5,27.5,20.7,55.8,25.2,85.2c3.1,20.1,4.5,40.3,3.8,60.6c-0.5,14.6-1.9,29.2-4.1,43.7
	c-1.3,8.2-10,14.5-18.4,13.8c-8.4-0.7-14.9-7.8-15.1-16.4c-0.3-10.4,1.7-20.5,2.4-30.8c0.9-12.5,1.1-25,0.4-37.4
	c-1.1-21.4-4.5-42.6-10.3-63.4c-17.3-61.4-50.8-112.1-100-152.6c-43.4-35.7-92.8-58.2-148.1-68c-13.9-2.5-28-4-42.2-3.4
	c-10.9,0.5-18.9-6.6-19.2-16.7c-0.3-9.9,7.4-17.6,18.3-17.7c25.8-0.4,51,3.6,75.9,9.8c64.8,16.3,120.4,48.4,166.8,96.5
	C1301,210.4,1321.9,242.9,1338.2,278.9z"/>
<path class="st2" d="M1265,384.3c1.8,11.6,2.5,22.9,2.8,34.2c0.4,13.8-0.2,27.6-2.4,41.3c-1.5,9.2-10.1,14.8-19.1,13.4
	c-8.7-1.4-15.3-10.5-14.3-19.5c6.5-59.7-5.8-114.7-42.9-162.7c-30.6-39.7-71.1-64.6-120-75.8c-15.6-3.6-31.3-5.8-47.4-6
	c-8.9-0.1-16-8.1-16-17.2c0-9.3,7.2-17.3,16.6-17.2c8.6,0.1,17.2,1.1,25.8,2c31.1,3.5,60.6,12.1,88.3,26.7
	c66,34.8,107.4,88.9,124.8,161.3C1262.8,371.1,1263.7,377.5,1265,384.3z"/>
<path class="st2" d="M1042.9,272.7c34.5,7.1,63.1,23.9,87,48.8c23.5,24.4,37,53.8,40.5,87.6c1.4,13,1.4,25.9,0,38.8
	c-1.2,11.1-9.1,17.6-20.2,16.3c-8.7-1-15.3-10.3-14.3-19.8c5.3-50.2-12.8-90-53.8-119.1c-18.5-13.1-39.6-19.3-62.3-20.1
	c-7.9-0.3-14.2-3.2-17.4-11c-2.8-6.9-1.4-14.2,3.9-19.3c5.4-5.2,12.2-5.8,19.1-5C1031.1,270.6,1036.8,271.7,1042.9,272.7z"/>
</svg>
