<?xml version="1.0" encoding="utf-8"?>
<!-- Generator: Adobe Illustrator 28.0.0, SVG Export Plug-In . SVG Version: 6.00 Build 0)  -->
<svg version="1.1" id="Layer_1" xmlns="http://www.w3.org/2000/svg" xmlns:xlink="http://www.w3.org/1999/xlink" x="0px" y="0px"
	 viewBox="0 0 1920 1024" style="enable-background:new 0 0 1920 1024;" xml:space="preserve">
<style type="text/css">
	.st0{fill:#F1D169;}
	.st1{fill:#83CDED;}
	.st2{fill:#F2CC49;}
	.st3{fill:#60C2EA;}
	.st4{fill:#EEBF18;}
	.st5{fill:#FFFFFE;}
	.st6{fill:#D9EEF5;}
	.st7{fill:#6BC5EB;}
	.st8{fill:#EFF6F5;}
	.st9{fill:#F2D167;}
	.st10{fill:#F2D16A;}
	.st11{fill:#FCE9AF;}
	.st12{fill:#FCEFBE;}
</style>
<path class="st0" d="M540,565.2c0-11.4-0.2-22.9,0.3-35.4c0.3-4.1,0-7-0.3-10.1c0-8.1-0.2-16.4,0.3-25.5c0.2-2,0-2.8-0.3-3.7
	c0-5-0.2-9.9,0.3-15.8c0.2-1.8,0-2.8-0.3-3.7c0-1.3-0.2-2.4,0.3-4.7c0.2-3.4,0-5.9-0.3-8.3c0-1.8-0.2-3.6,0.3-6.2
	c0.2-1.8,0-2.6-0.3-3.6c0-2.8-0.2-5.7,0.3-9.4c0.2-2.4,0-3.7-0.3-5.2c0-5-0.2-9.9,0.3-16.1c0.3-5.2,0-9.3-0.3-13.2
	c0-6.7-0.2-13.2,0.3-21c0.3-7.3,0-13.5-0.3-19.7c0-17.9-0.2-35.9,0.3-54.8c0.2-2,0-2.8-0.3-3.7c0-32.5-0.2-65.2,0.3-98.8
	c0.2-2.9,0-4.9-0.3-6.8c0-19.5-0.2-39.2,0.3-59.8c0.3-4.1,0-7-0.3-10.1c0-5.5-0.2-11.1,0.3-17.4c0.2-1.8,0-2.8-0.3-3.7
	c0-7.6-0.2-15.3,0.3-24.2c0.6-7.5,0.8-13.7,0.9-19.8c3.2-19.5,16.7-33.3,38.2-37.4c182.8,0.2,364.1,0.2,545.7,0.2c0,0-0.2,0,0,0.5
	c1.1,0.7,2.1,1,3,1.3c8.2,8.6,16.4,17.2,24.6,26c2.2,2.3,4.3,4.7,6.5,7c7.9,8.3,16.2,16.4,23.8,25.2c7.4,8.5,14,17.7,21.4,26.2
	c14,15.9,28.5,31.7,43.4,48.3c0.9,1.3,1.4,1.8,1.9,2.3c0,0,0-0.2,0,0.5c1.6,1.8,3.3,3.1,4.9,4.2c0,0,0,0.2,0,0.5
	c0.5,0.7,0.9,1,1.4,1.3c0,0-0.2,0,0,0.3c0.6,0.7,1.1,1,1.6,1.3c0,0-0.2,0-0.2,0.5c0.6,1.3,1.1,2,1.7,2.8c0,0-0.2,0,0,0.5
	c0.6,0.7,1.1,1,1.6,1.1c0,0-0.2,0.2-0.2,0.7c0.5,5.2,1.4,9.8,1.4,14.1c0.2,75.4,0.2,151-0.2,226.4c0,6.7-2.7,13.3-4.3,20
	c-2.1,8.8-4.3,17.7-6.3,26.5c0.2,0,0.2,0.2-0.5,0.2c-2.1,1.8-3.3,3.6-6,7.2c-0.8-5-1.3-8.1-1.7-11.4c-0.6-4.6-1.1-9.3-1.6-14.6
	c0-78.2,0-155.7,0-233c0-3.3-1.1-6.7-1.6-9.9c0,0,0,0.2-0.2-0.5c-3-1.3-5.8-2.6-8.7-2.6c-28.5-0.2-57.1-0.2-86.4-0.2
	c-5.7-1.3-11-1.8-15.6-3.9c-14.7-6.8-20.8-20.3-24.1-35.8c0.6-35.3,0.8-70,0.8-104.8c0-1.1-0.9-2.3-1.4-3.4c0,0,0,0.2-0.2-0.5
	c-2.4-1.5-4.7-2.8-7.1-2.8c-168.3-0.2-336.4-0.2-504.6,0c-3.9,0-7.9,2.1-12,3.3c-0.3,0-0.8,0-1.3,0.2c-0.8,0.7-1.1,1.1-1.6,1.5
	c0,0,0.2,0-0.5,0c-1.3,0.7-2.1,1.1-2.7,1.6c0,0,0.2,0-0.3,0c-1.3,0.5-2.1,1.1-2.8,1.6c0,0,0.2,0-0.3,0.2c-0.6,0.7-0.9,1.1-1.3,1.5
	c0,0,0.2,0-0.3,0.2c-0.6,1.1-0.9,2.1-1.3,3.1c0,0,0.2,0-0.3,0.2c-0.6,0.7-0.9,1.1-1.3,1.5c0,0,0.2,0-0.3,0.2
	c-0.6,1.1-0.9,2.1-1.3,3.1c0,0,0,0-0.5,0.3c-1.3,5-2.7,9.9-2.7,14.6c-0.2,125.9-0.2,251.9-0.2,377.8c0,129.2,0,258.4,0.2,387.6
	c0,4.2,2.1,8.5,3.2,12.7c0,0,0-0.2,0,0.5c0.5,1.8,1.1,3.1,1.6,4.4c0,0,0-0.2,0,0.3c0.5,0.7,1.1,1,2.1,1.5c2.7,2.6,5,4.9,7.6,7.6
	c1.7,1,3.2,1.5,4.6,1.8c0-0.2,0.2-0.2,0.3,0.3c4.3,1.5,8.2,2.9,12.3,2.9c178.4,0,356.6,0,534.6,0c12.1,0,14.2,2.3,12.6,14.6
	c-0.3,2.1-1.1,4.2-2.4,6.3c-183.1,0.2-365.7,0.2-548.2,0.2c-3,0-6,1-9,1.5c-19.2-3.1-32.6-13.7-38.8-34c-0.5-3.9-1.3-6.8-2.2-9.8
	c-0.2-8.8-0.2-17.6,0.3-27.3c0.2-3.6,0-6-0.3-8.5c0-0.8-0.2-1.5,0.3-3.1c0.2-3.4,0-5.9-0.3-8.3c0-6.5-0.2-13.2,0.3-20.8
	c0.2-2.9,0-4.9-0.3-6.8c0-6.5-0.2-13.2,0.3-20.8c0.2-2.4,0-3.9-0.3-5.2c0-19-0.2-38,0.3-58.2c0.2-2.4,0-3.9-0.3-5.2
	c0-1.8-0.2-3.6,0.3-6.3c0.3-7.3,0-13.5-0.3-19.5c0-2.3-0.2-4.6,0.3-8c0.2-2.9,0-4.9-0.3-6.7c0-15.3-0.2-30.6,0.3-46.6
	c0.2-2,0-2.8-0.3-3.7c0-6.5-0.2-13.2,0.3-20.8c0.3-4.1,0-7-0.3-9.9c0-0.8-0.2-1.5,0.3-3.1C540.4,567,540.1,566.1,540,565.2
	 M1129.6,156.5c2.5,9.6,9.1,14.8,17.2,19.2c0.9,0.3,1.7,1,2.7,1c23.5,0,47.2,0.2,70.7,0c1.9,0,3.8-1.1,5.2-2.6
	c-9-10.1-18-20.2-26.8-30.4c-6.5-7.3-12.9-14.6-19.2-22.1c-9.1-10.6-18.3-21.1-27.4-31.7c-3.3-3.7-6.3-7.8-9.9-11.2
	c-4.3-4.1-9-7.5-14.5-11.4c-0.3,0.3-0.8,0.8-0.8,1.1c0,27.3,0,54.6,0.2,81.9C1126.6,152.1,1128.2,153.7,1129.6,156.5z"/>
<path class="st1" d="M1400.9,277.5c3,2.9,6,5.9,9,9.4c0.2,1.1,0.5,1.5,0.6,2c0,0-0.2,0,0,0.5c0.6,0.7,1.1,1,1.6,1.3
	c0,0-0.2,0-0.2,0.6c3.2,12.7,6.9,24.5,1.7,37.4c-3.3,8.3-5.4,17.2-8,25.8c0,0,0,0.6-0.5,1.1c-1.3,3.6-1.9,6.7-2.7,9.9
	c0,0,0.2,0.3,0.3,1.1c5.2,2.8,10.4,4.9,15.6,6.8c0,0,0,0.2,0.2,0.5c0.6,0.6,1.1,1,1.4,1.1c0,0-0.2,0,0,0.6c-0.5,7.3-0.9,14-1.6,20.6
	c0,0-0.2,0-0.5,0.2c-1.7,6-3.2,11.7-4.6,17.4c0,0.3,0.2,0.6,0.3,2c8,3.9,15.9,6.7,23.8,9.6c0,0-0.2,0,0,0.3c0.6,0.7,1.1,1,1.6,1.3
	c0,0-0.2,0-0.2,0.7c3.8,10.9-1.9,19.3-4.6,28.4c-3.2,10.4-6.3,20.8-9.5,31.4c0,0,0-0.2-0.5,0.2c-1.1,1.5-1.9,2.6-2.4,3.9
	c-13.6,38.8-27.3,77.5-40.7,116.5c-2.8,8.1-4.6,16.4-6.9,24.7c-0.8,1.8-1.4,3.6-3.2,5.5c-6,0.8-11,1.5-16.1,2c0,0,0.2,0,0-0.5
	c-0.6-0.7-1.1-1-1.6-1.3c0,0,0.2,0,0.2-0.7c0.8-5.7,0.9-10.9,2.5-15.6c3.6-11.2,7.7-22.3,11.7-33.5c13.4-38.4,27-76.5,40.2-114.9
	c2.1-6,2.7-12.5,4.1-18.9c0.6-4.4,1.3-8.9,1.7-14.1c-3-2.9-5.7-7.8-9.8-2.1c0,0,0,0-0.6,0.2c-1.7,2.4-3.3,4.6-4.1,7
	c-10.3,29.4-20.3,59-30.8,88.4c-22.1,62.9-44.2,125.8-66.2,188.7c-11.5,32.5-22.9,65-34.7,97.3c-1.7,4.6-4.9,8.8-8,12.7
	c-4.3,5.4-8.8,10.4-13.7,15.6c-0.8,0.5-1.1,1-1.7,1.5c-1.3,1.1-1.9,2.1-3.2,3.4c-12.6,12.2-25.1,24.1-37.1,36.2
	c-5.2,5.4-9.6,11.5-14.5,17.2c0,0-0.2-0.2-0.6,0c-1.1,1.1-1.9,2.3-2.5,3.3c0,0-0.2,0-0.5,0.2c-0.6,0.8-0.9,1.5-1.1,2
	c-0.8,0.8-1.4,1.6-3,2.6c-1.7,0.7-2.5,1.3-3.3,1.8c0,0,0-0.2-0.5,0c-5.4,2.1-10.3,4.2-15.1,6.3c-0.8,0-1.7,0-3-0.8
	c-1.4-0.8-2.4-0.8-3.3-0.8c-2.1-1.5-4.3-3.1-6.5-5.5c-0.6-1.5-1.1-2-1.6-2.4c0,0,0.2,0,0.2-0.7c-1.1-11.9-2.7-23.1-3-34.3
	c-0.3-10.7,1.1-21.5,1.3-32.3c0.2-20.8,0-41.6,0.2-62.6c0-2.9,0.2-6,1.1-8.8c16.9-49.1,34.1-98,50.9-147.1
	c18.5-53.3,36.7-106.6,54.9-160.1c4.9-14.1,9.3-28.6,14-42.9c5.5-16.1,11.4-31.9,16.7-47.9c4.3-13,7.9-26.2,12-39.2
	c0,0,0,0.2,0.5,0.2c1.7-1.1,3-2.3,4.1-3.4c0,0,0,0,0.6,0.2c5.5,1.1,10.6,2.6,15.6,2.9c2.1,0.2,5.4-1.8,6.3-3.7
	c3.8-8.9,6.9-18,10.1-27.1c0.5-1.1-0.5-2.9-0.6-4.2c2.2-4.7,4.4-9.4,7.4-14.3c1.1-0.8,1.4-1.5,1.9-2.3c0,0,0,0.2,0.5,0
	c0.6-0.6,0.9-1.1,1.3-1.6c0,0,0,0.2,0.3,0c0.6-0.7,0.9-1.1,1.3-1.6c0,0,0,0.2,0.3,0c0.6-0.6,0.9-1.1,1.3-1.6c0,0,0,0.2,0.3,0
	c0.6-0.7,0.9-1.1,1.3-1.6c0,0,0,0.2,0.5,0.2c1.3-0.7,1.9-1.1,2.7-1.6c0,0,0,0.2,0.3,0c0.6-0.6,0.9-1.1,1.3-1.6c0,0,0,0.2,0.5,0.2
	c2.2-1.1,4.1-2.3,5.8-3.4c0,0,0,0.2,0.6,0.2c9.1,0.2,17.7-0.2,26,0.3c3.8,0.2,7.6,1.8,11.4,2.8c0,0-0.2,0,0,0.3
	c0.6,0.6,1.1,1,1.6,1.3c0,0-0.2,0,0,0.3C1399.9,277.9,1400.4,277.7,1400.9,277.5 M1201.2,863.8c0.3-0.5,0.6-1,0.9-1.3
	c0,0-0.2,0,0.6-0.3c0.3-0.5,0.6-1,0.9-1.3c0,0-0.2,0,0.6-0.3c0.3-0.5,0.6-1,1.1-2.1c0.3-0.3,0.6-0.7,1.9-1c0.3-0.5,0.6-1.1,1.3-2.3
	c0.3-0.3,0.6-0.7,1.9-1c0.3-0.5,0.6-1.1,1.4-2.6c7.7-8.1,15.5-16.3,24-24.7c0,0,0.6-0.2,1.4,0c0.3-0.5,0.6-1.1,1.3-2.6
	c-1.1-0.8-2.2-1.6-3.3-2.4c0,0,0.2,0-0.5-0.8c-2.5-1.1-4.9-2.3-7.9-4.6c-1.4-0.3-2.8-0.7-4.3-1c0,0-0.2,0-0.5-1
	c-4.3-2-8.2-4.2-12.6-5.9c-12.9-4.4-26-8.6-39-12.8c0,0,0,0.2-0.3-0.5c-0.5,0.2-0.9,0.3-2.2,0.5c-0.3,0-0.6,0-2.1,0.3
	c-0.6,0.8-1.6,1.6-1.6,2.4c-0.2,27.5-0.2,54.8,0,82.2c0,4.2,1.7,8.3,3.3,13.2c2.1-1.8,4.1-3.7,6-5.5c0,0,0,0.2,0.8-0.2
	c0.5-0.5,0.8-1,2.2-1.6c3.5-3.3,7.1-6.5,11.5-9.9c0.3-0.5,0.8-1,1.1-1.3c0,0-0.2,0,0.6-0.3c0.3-0.5,0.6-1,0.9-1.3c0,0-0.2,0,0.6-0.3
	c0.3-0.5,0.6-1,0.9-1.3c0,0-0.2,0,0.6-0.3c0.3-0.5,0.6-1,0.9-1.3c0,0-0.2,0,0.6-0.3c0.3-0.5,0.6-1,0.9-1.3c0,0-0.2,0,0.6-0.3
	c0.3-0.5,0.6-1,0.9-1.3c0,0-0.2,0,0.6-0.3c0.3-0.5,0.6-1,0.9-1.3c0,0-0.2,0,0.6-0.3c0.3-0.5,0.6-1,0.9-1.3
	C1200.6,864.2,1200.4,864.2,1201.2,863.8 M1358.3,301.9c0,0,0.2,0-0.8,0.5c-0.3,1-0.5,2-0.8,2.8c0,0,0.2,0-0.8,0.5
	c-0.3,1-0.5,2-1.7,3.3c-0.8,2.6-1.4,5-3,8.3c-0.2,1.5-0.5,2.9-1.7,4.7c-1.3,4.2-2.5,8.3-4.6,13c-0.3,1-0.5,1.8-1.7,3.4
	c-0.2,1.5-0.5,2.8-1.4,4.7c0.8,0.8,1.6,1.8,2.8,3.7c4.1,1.3,8.2,2.4,12.1,3.9c0,0,0-0.2,0.6,0.8c1.4,0.3,2.8,0.5,4.1,0.8
	c0,0,0-0.2,0.5,1c5.2,2.1,10.4,4.4,15.6,6.3c0.6,0.2,1.9-1.6,3-3.1c0.2-0.5,0.3-0.8,2.1-1.3c1.4-4.2,2.7-8.5,5.2-13.2
	c1.9-6.3,3.6-12.5,5.7-20.2c1.9-7.8,2.5-15.3-3.8-22.4c-0.3-0.5-0.6-0.7-1.7-1.8c-5.4-1.8-10.7-3.6-17.2-5.4
	c-0.9,0.5-1.9,1.1-2.8,1.6c0,0,0.2,0-0.9,0c-0.8,0.5-1.4,1.1-2.2,1.6c0,0,0.2,0-0.6,0.3c-0.3,0.5-0.6,1-1.3,2.3
	c-0.8,0.8-1.7,1.5-3.3,2.4C1358.9,301.1,1358.6,301.6,1358.3,301.9 M1243.9,557.7c-0.2,1.5-0.5,2.9-1.7,4.7
	c-1.7,5.9-3.5,11.5-6.2,18c-0.2,1.5-0.5,2.9-1.6,4.9c-1.7,5.2-3.6,10.6-5.5,16.6c0,0-0.2,0.8-0.9,1.5c-0.2,1.5-0.3,2.8-0.6,4.1
	c0,0,0.2,0-0.8,0.7c-0.3,1.5-0.5,2.9-0.8,4.2c0,0,0.2,0-0.9,0.5c-1.7,5.9-3.6,11.7-6.2,18c-0.2,1.5-0.5,2.9-1.7,4.7
	c-1.7,5.9-3.5,11.5-6.2,18c-0.2,1.5-0.5,2.9-1.7,4.7c-2.4,7.5-4.6,14.8-7.9,22.8c-2.2,7.5-4.6,15-6.9,22.3c0,0,0.2,0-0.8,0.7
	c-0.3,1.5-0.5,2.9-0.8,4.2c0,0,0.2,0-0.6,0.5c0.2,1,0.3,1.8,0.2,3.9c-6.8,19.3-13.4,38.8-20.3,58.5c5.2,2.6,9.6,4.7,14.7,7.6
	c0.9,0.3,1.9,0.7,2.8,1c0,0,0-0.2,0.6,0.8c4.6,1.3,9,2.6,14.2,4.9c1.4,0.2,2.8,0.5,4.6,1.8c4.1,1.3,8,2.6,12.8,4.7
	c1.4,0.2,2.8,0.5,4.7,1.6c4.1,1.3,8,2.6,12,3.9c0,0,0-0.2,0.6,0.8c1.4,0.2,2.8,0.5,4.1,0.8c0,0,0-0.2,0.6,0.8
	c2.4,0.8,4.9,1.6,7.4,2.9c0.2,0.2,0.3,0.2,0.5,0.3c-0.2-0.2-0.3-0.5-0.6-1.3c0,0,0-0.7,0.9-1.3c1.4-4.6,3-9.1,5.2-14.6
	c1.1-2.9,2.4-6,3.5-8.9c6.2-16.7,12.5-33.6,19.6-51.2c0.3-1.5,0.6-3.1,0.9-4.6c0,0-0.2,0,0.9-0.5c1.3-4.2,2.5-8.5,4.7-13
	c3.8-11.7,7.7-23.6,12.5-35.9c0.2-1.5,0.5-2.9,1.7-4.7c1.7-5.9,3.5-11.5,6.3-17.9c1.3-4.2,2.5-8.3,4.6-13c0.3-1,0.5-1.8,1.7-3.4
	c1.3-4.7,2.5-9.3,4.6-14.6c0.2-1.5,0.5-2.9,1.6-4.9c1.7-5.7,3.6-11.5,6.5-17.7c2.2-7.5,4.6-14.8,7.9-22.8c1.7-5.9,3.5-11.5,6.2-18
	c0.2-1.5,0.5-2.9,1.7-4.7c1.3-4.2,2.5-8.3,4.7-13c3-8,6.5-15.8,9.1-23.9c4.3-13,7.9-26,12.9-39.7c0.6-3.1,1.4-6.2,3.2-9.8
	c1.3-4.2,2.5-8.3,4.6-13c0.3-1,0.5-1.8,1.7-3.4c0.8-3.1,1.4-6,3.2-9.8c0.2-1.5,0.5-2.9,1.7-4.7c1.3-4.2,2.5-8.5,3.8-12.5
	c0,0-0.2,0,0.6-0.3c-0.2-1-0.3-1.8-0.2-3.9c3-8.8,6.2-17.7,9.5-27.3c-4.1-1.1-7.6-2.1-11.8-3.9c-24-8.8-47.8-17.6-72.7-25.8
	c-0.3,1-0.6,2-0.9,2.8c0,0,0.2,0-0.8,0.7c-0.3,1.5-0.5,2.9-0.8,4.2c0,0,0.2,0-0.8,0.6c-0.2,1.5-0.5,2.9-0.8,4.2c0,0,0.2,0-0.8,0.5
	c-0.3,1-0.5,2-0.8,2.8c0,0,0.2,0-0.8,0.7c-2.8,9.6-5.7,19-9.5,29.1c-0.3,1-0.5,1.8-1.7,3.4c-1.7,6.3-3.5,12.7-5.4,18.9
	c0,0,0.2,0-0.8,0.7c-0.3,1.5-0.5,2.9-0.8,4.2c0,0,0.2,0-0.9,0.5c-2.8,8.6-5.7,17.2-8.5,26.5c0,0-0.2,0.7-0.9,1.5
	c-0.2,1.5-0.3,2.8-0.6,4.1c0,0,0.2,0-0.8,0.5c-0.3,1-0.5,2-0.8,2.8c0,0,0.2,0-0.8,0.6c-2.4,8-4.7,15.8-7.9,24.4
	c-0.2,1.5-0.5,2.9-1.6,4.9c-2.8,8.9-5.7,18-9.5,27.6c-0.2,1.5-0.5,2.9-1.7,4.7c-1.7,5.9-3.5,11.5-6.2,18c-0.2,1.5-0.5,2.9-1.6,4.9
	C1245.2,554.3,1245,555.7,1243.9,557.7z"/>
<path class="st2" d="M1138.9,899.6c0.6-2.1,1.4-4.1,1.6-6.2c1.6-12.4-0.5-14.6-12.6-14.6c-178.2,0-356.3,0-534.5-0.2
	c-3.9,0-8-1.5-11.5-2.9c6.3-0.5,12-0.3,17.8-0.3c181.2,0,362.6,0,543.8,0.8c0,8.9,0,17.2-0.2,25.5c0,0-0.6,0-1.3-0.5
	C1140.8,900.2,1139.9,899.9,1138.9,899.6z"/>
<path class="st3" d="M1143.6,902.2c0-8.8,0-17.1,0-26.8c0-30.7,0-60,0.2-89.2c0-3.9,0.5-8.1,1.7-11.9
	c20.7-60.1,41.5-120.1,62.3-180.1c11.2-32.3,21.9-64.8,33.1-97.7c3.6-10.9,7.1-21.5,10.6-31.9c0,0,0-0.2,0.3-0.5
	c4.9-14.6,9.5-29.1,13.9-43.6c5.5-15.1,11.2-30.2,16.7-45.3c4.6-12.4,8.8-24.9,13.7-37.5c-3.5,12.7-7.3,25.8-11.5,38.8
	c-5.4,16.1-11.2,31.9-16.7,47.9c-4.9,14.3-9.3,28.6-14,42.9c-18.3,53.3-36.6,106.8-54.9,160.1c-16.9,49.1-34.1,98-50.9,147.1
	c-0.9,2.8-1.1,5.9-1.1,8.8c-0.2,20.8,0.2,41.6-0.2,62.6c-0.2,10.7-1.6,21.5-1.3,32.3c0.3,11.2,1.9,22.4,2.8,34.3
	C1146.8,909.7,1145.2,906.3,1143.6,902.2z"/>
<path class="st0" d="M1260.3,873.8c-7.3,7.6-14.7,15.3-23.2,22.9c-12.5,1-23.7,2-34.7,2.6c1.1-2.3,1.9-4.2,2.7-6c0,0.2-0.2,0,0.5,0
	c1.7-1.6,3-3.3,4.3-4.9c0,0-0.2,0,0.3-0.2c0.6-0.7,0.9-1.1,1.3-1.5c0,0-0.2,0,0.5,0c3.3-2.8,6-5.5,8.8-8.1c0.2,0.2-0.2-0.2,0.3-0.2
	c1.3-1.1,2.1-2.1,2.7-3.3c0,0,0-0.2,0.5,0c3.9-3.3,7.3-6.5,10.6-9.8c0,0.2-0.2,0,0.3,0c1.9-2.6,3.2-5.4,4.6-7.8c0,0-0.2,0,0.5,0
	c1.7-1.6,3-3.3,4.3-4.9c0,0.2-0.2,0,0.5,0c1.7-1.6,3-3.3,4.3-5c0,0-0.2,0,0.5,0c1.3-1.1,2.1-2.1,2.7-3.3c0,0-0.2,0,0.5,0
	c1.3-0.7,1.9-1.3,2.7-2c0,0-0.2,0.2,0.3,0c0.6-0.7,0.9-1.1,1.3-1.5c0,0.2-0.2,0,0.3-0.2c0.6-0.7,0.9-1.1,1.3-1.5
	c0.2,0.2-0.2,0,0.3-0.2c0.6-0.7,0.9-1.1,0.9-1.8c-0.2-0.2,0-0.7,0.5,0c0.8,9.8,1.3,19,1.7,28.3c0,0,0-0.2-0.5,0.2
	c-0.6,1.8-0.9,3.3-1.1,4.7c0,0,0-0.2-0.3,0C1260,872,1260.2,872.9,1260.3,873.8z"/>
<path class="st3" d="M1246.3,847.9c4.4-5.2,9.1-10.1,13.4-15.4c3-3.9,6.3-8.1,8-12.7c11.8-32.3,23.3-64.8,34.7-97.3
	c22.1-62.9,44.3-125.8,66.2-188.7c10.3-29.4,20.5-59,30.8-88.4c0.8-2.4,2.4-4.6,4.1-7c-24.1,70.5-48.7,141.2-73.5,211.9
	c-19.4,55.1-38.8,110.2-58.4,165.3c-1.7,5-4.3,9.9-7.1,15.6c-2.1,2.4-3.3,4.1-4.6,5.9c0,0-0.2,0.5-0.5,0.5c-0.5,0.7-0.8,1.3-0.9,2
	c0,0,0.2,0.2-0.5-0.2c-0.8,0.5-0.9,1.1-1.3,1.6c0,0,0.2,0.2-0.5,0c-0.8,0.5-0.9,1.1-1.3,1.6c0,0,0.2-0.2-0.5-0.3
	c-1.3,0.5-1.9,1.3-2.7,2.1c0,0,0.2,0.2-0.3,0.2c-1.3,1.1-2.1,2.1-2.8,2.9c0,0,0.2,0-0.3,0.2c-0.8,0.5-1.3,0.8-1.9,0.8
	C1246.8,848.4,1246.3,847.9,1246.3,847.9z"/>
<path class="st4" d="M1138.3,899.8c1.6,0.2,2.5,0.5,3.6,1.3c-96.2,0.5-192.7,0.7-289.1,0.7c-90.2,0-180.3,0-271.1-0.2
	c2.2-0.7,5.2-1.5,8.2-1.5C772.4,899.9,955,899.9,1138.3,899.8z"/>
<path class="st2" d="M1265.5,419.9c-4.4,15.3-8.8,29.7-13.9,44.4c1.6-8.6,3.8-17.4,6-26.2c1.6-6.7,4.3-13.3,4.3-20
	c0.3-75.4,0.2-151,0.2-226.4c0-4.6-0.9-9.1-1.4-14.3c1.6,5.7,4.4,12,4.4,18.4c0.3,71.5,0.2,142.8,0.3,214.3
	C1265.2,412.9,1265.4,416,1265.5,419.9z"/>
<path class="st4" d="M1124.6,26.8c-181,0.5-362.6,0.5-544.7,0.5c1.9-0.7,4.6-1.6,7.3-1.6c176.5-0.2,352.8-0.2,529.3,0
	C1118.9,25.5,1121.4,26,1124.6,26.8z"/>
<path class="st3" d="M1411.7,457.5c-1.1,5.2-1.7,10.9-3.8,16.2c-13.2,33.9-26.8,67.7-40.2,101.4c-3.9,9.9-8.2,19.7-11.7,29.6
	c-1.6,4.2-1.7,8.8-2.5,13.9c-0.5-3.2-2.5-7.3-1.3-10.5c18.8-48.2,37.8-96.1,56.8-144.2C1409.8,462,1410.8,460,1411.7,457.5z"/>
<path class="st3" d="M1374.7,613.5c1.9-6.9,3.6-14.3,6.5-21.4c13.4-34.3,27.1-68.6,40.7-102.9c0.5-1.1,1.3-2.2,2.4-3.4
	c-5.2,15.1-10.6,30.4-16.6,45.6C1396.9,558.8,1385.9,585.9,1374.7,613.5z"/>
<path class="st3" d="M1190.2,906.6c4.3-5.7,8.7-11.9,13.9-17.2c12-12.2,24.3-24.1,37.2-36.1c0.8,0,1.3,0.7,0.9,1
	c-1.1,1.3-1.7,2.3-2.5,3.3c0,0,0.2,0.2-0.5,0.2c-1.9,2.6-3.3,5.2-4.6,7.6c0,0,0.2,0.2-0.3-0.2c-3.9,3.1-7.3,6.3-10.6,9.8
	c0,0,0,0.2-0.5,0c-1.3,1.1-1.9,2.3-2.7,3.4c0,0,0.2,0.3-0.3,0c-3.3,2.6-6.2,5.4-9,8.3c0,0,0.2,0.2-0.3,0.2c-0.6,0.5-0.9,1-1.3,1.5
	c0,0,0.2,0-0.3,0.2c-1.7,1.6-3.2,3.1-4.4,4.7c0,0,0.2,0.2-0.3,0.3c-2.4,2.1-4.3,4.2-6.5,6.3c-0.8,0.5-1.1,1-1.1,1.5
	C1194.9,903,1192.8,904.8,1190.2,906.6z"/>
<path class="st3" d="M1425,485.5c2.7-8.9,5.8-18.1,9-27.4c2.7-8,8.4-15.5,4.7-25.1c0.9,3.6,3.8,8.2,2.7,11.8
	C1436.8,458.5,1431,471.7,1425,485.5z"/>
<path class="st3" d="M1333,302.6c0.5,1,1.3,2.6,0.9,3.7c-3.2,9.1-6.3,18.4-10.1,27.1c-0.8,2-4.1,3.9-6.3,3.7
	c-5-0.3-10.1-1.8-15.6-2.9c2.4-0.6,5.5-1.8,8.4-1.6c3.3,0.2,6.5,1.6,10.4,2.8C1324.8,324.5,1328.8,313.8,1333,302.6z"/>
<path class="st3" d="M1406.2,368.2c2.2-7.3,4.1-15.2,7.6-22.5c5.2-11.3,1.4-21.8-1.7-33c7.4,8.3,8,18.5,5.2,28.6
	C1414.6,350.2,1410.2,358.8,1406.2,368.2z"/>
<path class="st2" d="M1260.5,837.7c0.9-2.3,2.2-3.9,3.9-5.9c-0.2,11.1-0.6,22.3-1.7,33.8C1261.8,856.7,1261.3,847.4,1260.5,837.7z"
	/>
<path class="st3" d="M1397.5,298.7c-3.5-0.4-7.1-1.9-10.9-2.2c-8.5-0.4-17-0.3-26.2-0.3C1372.6,290.5,1385.1,292.1,1397.5,298.7z"/>
<path class="st4" d="M1197.6,901.5c-0.5-0.7-0.2-1.1,1.3-1.6c1.7-0.2,2.5-0.2,3.5-0.2c11.2-1,22.4-2.1,34.4-3.1
	c-5.8,1.6-12.5,3.9-19.1,4.7C1211.1,902.2,1204.7,901.5,1197.6,901.5z"/>
<path class="st3" d="M1437,430.7c-7.6-2.2-15.5-4.6-23.3-7.6C1421.2,425.1,1428.9,427.7,1437,430.7z"/>
<path class="st3" d="M1418.8,405.2c0-5.7,0.5-11.6,1.1-18.1c0.9,3,2.7,6.6,2.7,10.3C1422.6,399.9,1420.6,402.4,1418.8,405.2z"/>
<path class="st3" d="M1413.5,420.5c1.1-4.6,2.5-9.6,4.4-14.9C1416.8,410.2,1415.2,415.1,1413.5,420.5z"/>
<path class="st3" d="M1418.4,384.7c-5.2-1.3-10.3-3-15.6-5.3C1407.8,380.5,1413,382.4,1418.4,384.7z"/>
<path class="st3" d="M1163.5,922.7c4.3-2.1,9.1-4.2,14.5-6.3C1173.8,918.4,1168.9,920.6,1163.5,922.7z"/>
<path class="st3" d="M1355.3,621.1c4.7-1,9.8-1.4,15.5-1.9C1367.1,625.4,1361.6,624.4,1355.3,621.1z"/>
<path class="st2" d="M540.7,65c0.3,5.9,0.2,12-0.3,18.7C540,77.8,540.1,71.6,540.7,65z"/>
<path class="st2" d="M539.8,364.5c0.3,5.4,0.6,11.5,0.5,18.2C539.8,377.1,539.8,371.1,539.8,364.5z"/>
<path class="st2" d="M539.8,668.4c0.3,5.4,0.6,11.5,0.5,18.2C539.8,681,539.8,675,539.8,668.4z"/>
<path class="st3" d="M1404.6,442.6c3.5-5,6.2-0.6,8.8,1.6C1410.5,443.8,1407.8,443.2,1404.6,442.6z"/>
<path class="st2" d="M540,858.3c0.9,2.3,1.7,5.2,2.1,8.6C541.1,864.5,540.4,861.7,540,858.3z"/>
<path class="st3" d="M1402.6,377.6c0.6-2.3,1.3-5,2.4-7.9C1404.6,372,1403.7,374.6,1402.6,377.6z"/>
<path class="st2" d="M539.8,405.1c0.3,3.3,0.6,7.3,0.5,11.7C539.8,413.4,539.8,409.6,539.8,405.1z"/>
<path class="st2" d="M1254.3,168c-1.4-0.8-3.2-2-4.7-3.7C1251.2,164.9,1252.6,166.2,1254.3,168z"/>
<path class="st2" d="M539.8,130.5c0.3,2.3,0.6,5.2,0.5,8.6C539.8,136.6,539.8,133.9,539.8,130.5z"/>
<path class="st2" d="M539.8,520.5c0.3,2.3,0.6,5.2,0.5,8.6C539.8,526.6,539.8,523.9,539.8,520.5z"/>
<path class="st2" d="M539.8,572.5c0.3,2.3,0.6,5.2,0.5,8.6C539.8,578.7,539.8,575.9,539.8,572.5z"/>
<path class="st3" d="M1359.2,296.1c-1.3,1-3,2-5.4,3C1355.1,298.1,1357,297.1,1359.2,296.1z"/>
<path class="st2" d="M539.8,822.6c0.3,1.8,0.6,4.2,0.5,7C539.8,827.8,539.8,825.5,539.8,822.6z"/>
<path class="st2" d="M539.8,811.2c0.3,1.8,0.6,4.2,0.5,7C539.8,816.4,539.8,814.1,539.8,811.2z"/>
<path class="st2" d="M539.8,458.6c0.3,1.8,0.6,4.2,0.5,7C539.8,463.8,539.8,461.5,539.8,458.6z"/>
<path class="st3" d="M1300.9,334.2c-0.6,1.3-1.9,2.4-3.6,3.4C1297.9,336.4,1299.1,335.2,1300.9,334.2z"/>
<path class="st3" d="M1187,909.7c0.2-1,0.9-2.1,2.2-3.3C1188.9,907.6,1188.1,908.5,1187,909.7z"/>
<path class="st2" d="M539.8,653.6c0.3,1.3,0.6,3.3,0.5,5.4C539.8,657.6,539.8,656,539.8,653.6z"/>
<path class="st2" d="M539.8,783.6c0.3,1.3,0.6,3.3,0.5,5.4C539.8,787.6,539.8,786,539.8,783.6z"/>
<path class="st2" d="M539.8,200.2c0.3,1.3,0.6,3.3,0.5,5.4C539.8,204.2,539.8,202.6,539.8,200.2z"/>
<path class="st2" d="M539.8,694.2c0.3,0.8,0.6,2.3,0.5,3.9C539.8,697.1,539.8,696,539.8,694.2z"/>
<path class="st2" d="M539.8,757.6c0.3,0.8,0.6,2.3,0.5,3.9C539.8,760.5,539.8,759.4,539.8,757.6z"/>
<path class="st2" d="M539.8,434.2c0.3,0.8,0.6,2.3,0.5,3.9C539.8,437.1,539.8,436,539.8,434.2z"/>
<path class="st2" d="M1261.1,870.5c-0.3-1.1,0-2.6,0.6-4.4C1262.1,867.3,1261.8,868.7,1261.1,870.5z"/>
<path class="st3" d="M1157,921c0.5-0.2,1.4-0.2,2.4,0.3C1158.8,921.7,1158.1,921.5,1157,921z"/>
<path class="st4" d="M1127.9,28.4c-0.8,0.2-1.7,0-2.8-0.8C1125.8,27.4,1126.8,27.6,1127.9,28.4z"/>
<path class="st3" d="M1351.5,300.4c-0.3,0.6-0.9,1-2.2,1.6C1349.4,301.4,1350.2,300.9,1351.5,300.4z"/>
<path class="st3" d="M1179,916.3c0.3-0.7,1.1-1.1,2.4-1.8C1181.2,915.2,1180.4,915.8,1179,916.3z"/>
<path class="st2" d="M1259.2,174.5c-0.8-0.3-1.3-1-1.7-2.3C1258.1,172.6,1258.8,173.4,1259.2,174.5z"/>
<path class="st2" d="M1260.5,873.3c-0.3-0.5-0.5-1.3-0.2-2.4C1260.7,871.5,1260.7,872.1,1260.5,873.3z"/>
<path class="st2" d="M539.8,109.2c0.3,0.3,0.5,1.3,0.5,2.4C539.8,111,539.8,110.3,539.8,109.2z"/>
<path class="st2" d="M539.8,305.8c0.3,0.3,0.5,1.3,0.5,2.4C539.8,307.6,539.8,306.9,539.8,305.8z"/>
<path class="st2" d="M539.8,603.2c0.3,0.3,0.5,1.3,0.5,2.4C539.8,605,539.8,604.3,539.8,603.2z"/>
<path class="st2" d="M539.8,565.8c0.3,0.3,0.5,1.3,0.5,2.4C539.8,567.6,539.8,567,539.8,565.8z"/>
<path class="st2" d="M539.8,448.8c0.3,0.3,0.5,1.3,0.5,2.4C539.8,450.6,539.8,449.9,539.8,448.8z"/>
<path class="st2" d="M539.8,471.6c0.3,0.3,0.5,1.3,0.5,2.4C539.8,473.3,539.8,472.7,539.8,471.6z"/>
<path class="st2" d="M539.8,491.1c0.3,0.3,0.5,1.3,0.5,2.4C539.8,492.8,539.8,492.2,539.8,491.1z"/>
<path class="st3" d="M1342,307.7c0,0.6-0.5,1.1-1.1,1.6C1340.9,308.6,1341.2,308.2,1342,307.7z"/>
<path class="st3" d="M1399.3,300.1c-0.3,0.1-0.8-0.1-1.4-0.7C1398.2,299.3,1398.8,299.4,1399.3,300.1z"/>
<path class="st3" d="M1438.7,432.1c-0.3,0.1-0.8-0.1-1.4-0.9C1437.6,431.3,1438.1,431.6,1438.7,432.1z"/>
<path class="st3" d="M1400.5,300.4c0,0.3-0.5,0.4-1.1,0.3C1399.3,300.4,1400.1,300.3,1400.5,300.4z"/>
<path class="st3" d="M1346.8,303.4c0.2,0.3-0.2,0.7-0.8,1.3C1345.8,304.4,1346.1,304,1346.8,303.4z"/>
<path class="st3" d="M1185.3,911.6c-0.2-0.3,0.2-1,0.8-1.8C1186.2,910.3,1185.9,910.8,1185.3,911.6z"/>
<path class="st3" d="M1148.5,913.6c0.5,0,0.9,0.5,1.4,1.5C1149.5,915,1149,914.5,1148.5,913.6z"/>
<path class="st3" d="M1348.3,302c0.2,0.3-0.2,0.7-0.9,1.3C1347.4,303,1347.7,302.6,1348.3,302z"/>
<path class="st3" d="M1411.9,311.6c-0.3,0.1-0.8-0.1-1.4-0.7C1410.8,310.8,1411.3,311,1411.9,311.6z"/>
<path class="st3" d="M1410.5,310.2c-0.3,0-0.5-0.4-0.5-0.9C1410.3,309.2,1410.5,309.9,1410.5,310.2z"/>
<path class="st3" d="M1353.5,619.5c0.3-0.1,0.8,0.1,1.4,0.9C1354.6,620.4,1354.2,620.1,1353.5,619.5z"/>
<path class="st3" d="M1353.1,299.1c0.2,0.3-0.2,0.7-0.8,1.3C1352.1,300.1,1352.4,299.7,1353.1,299.1z"/>
<path class="st2" d="M1260.7,176.3c-0.3,0.2-0.8-0.2-1.4-0.8C1259.6,175.3,1260,175.5,1260.7,176.3z"/>
<path class="st3" d="M1343.6,306.3c0.2,0.3-0.2,0.7-0.9,1.3C1342.7,307.3,1343,306.9,1343.6,306.3z"/>
<path class="st2" d="M1257.3,171.4c-0.3,0.2-0.8-0.2-1.4-0.8C1256.2,170.4,1256.7,170.8,1257.3,171.4z"/>
<path class="st3" d="M1419.9,386.1c-0.5,0.1-0.9,0-1.6-0.7C1418.8,385.4,1419.5,385.5,1419.9,386.1z"/>
<path class="st2" d="M1255.8,169.8c-0.3,0.2-0.8-0.2-1.4-0.8C1254.7,168.8,1255.3,169.1,1255.8,169.8z"/>
<path class="st2" d="M1249.6,163.1c-0.5,0-0.9-0.3-1.4-1.3C1248.5,161.8,1249,162.2,1249.6,163.1z"/>
<path class="st3" d="M1345.2,304.9c0.2,0.3-0.2,0.7-0.8,1.3C1344.2,305.9,1344.6,305.5,1345.2,304.9z"/>
<path class="st5" d="M1240.8,497.1c-10.9,32.3-21.8,64.8-32.8,97.2c-20.7,60.1-41.6,120.1-62.3,180.1c-1.3,3.7-1.7,8-1.7,11.9
	c-0.2,29.3-0.2,58.5-0.3,88.4c-181.4,1-362.6,1-543.9,1c-5.8,0-11.5-0.2-18-0.3c-0.8,0-0.8,0-1.1-0.3c-1.7-0.8-3-1.5-4.4-2
	c-2.4-2.3-4.7-4.6-7.6-7.5c-0.9-1-1.4-1.3-1.9-1.5c0,0-0.2,0,0-0.5c-0.5-1.8-1.1-3.1-1.6-4.4c0,0,0,0.2,0-0.7
	c0-4.1-0.2-7.3-0.2-10.6c0-260.5,0.2-521.2,0.2-781.6c0,0-0.2,0,0.5,0c0.8-1.1,0.9-2.1,1.1-3.3c0,0-0.2,0,0.3,0
	c0.8-0.5,0.9-1.1,1.3-1.6c0,0-0.2,0,0.3-0.2c0.8-1.1,0.9-2.1,1.3-3.1c0,0-0.2,0,0.5,0.2c0.8-0.5,0.9-1.1,1.1-1.6c0,0-0.2,0,0.5,0.2
	c1.3-0.5,2.1-1.1,2.8-1.8c0,0-0.2,0,0.3,0c1.3-0.5,2.1-1.1,2.8-1.6c0,0-0.2,0,0.3-0.2c0.8-0.5,1.1-1,1.6-1.5c0,0,0.6,0,1.6,0.2
	c4.7,0,8.4-0.2,12-0.2c110.2,0,220.5,0,330.7,0c60.1,0,120.2,0.2,180.3,0.2c0,0,0.2-0.2,0,0.5c0,36.4,0.2,72.2,0.3,107.9
	c3.8,15.1,9.9,28.4,24.6,35.3c4.6,2.1,9.9,2.6,15.9,4.4c29.3,0.7,57.7,0.8,85.9,1.1c3,0,6,1.1,9,1.8c0,0,0-0.2,0,0.7
	c0,4.1,0,7.2,0,10.4c0.2,77.5,0.2,155,0.2,233.2C1240.3,464.4,1240.5,480.7,1240.8,497.1 M666,791c0,0,0-0.2-0.6,0.2
	c-0.5,0.3-0.6,0.7-1.1,2.3c-4.9,6-0.8,10.7,3,16.4c0.6,0.3,1.3,0.7,1.9,0.8c0,0-0.2,0,0.9,1c2.4,0.3,4.6,0.8,6.9,0.8
	c75.4,0,150.8,0,226.1-0.2c2.7,0,5.5-1.1,9.3-1.5c5.5-3.6,7.7-8.3,4.4-15.9c-0.5-0.8-1.1-1.5-1.7-2.1c0,0,0.2,0,0.3-1.1
	c-1.1-0.7-2.4-1.5-3.5-2.1c0,0,0.2,0,0.2-1c-0.6-0.3-1.3-0.5-1.7-0.7c0,0,0.2,0-0.8-1c-1.1-0.2-2.1-0.5-3.2-0.5
	c-76.6,0-153.4,0-230.1,0c-1.9,0-3.9,1-5.7,1.5c0,0,0-0.2-0.9-0.2c-0.8,0.7-1.6,1.1-2.2,1.8c0,0,0-0.2-0.8,0.2
	C666.4,790.1,666.1,790.6,666,791 M683.3,259.7c0,0-0.2,0-1.1-0.2c-0.2,0.7-0.3,1.1-0.5,1.8c0,0,0-0.2-1.1-0.5
	c-0.8,0.6-1.6,1.5-2.2,2.1c0,0,0-0.2-0.8,0.2c-0.3,0.5-0.5,1-0.6,1.5c0,0,0-0.2-0.9,0.2c-0.3,0.5-0.5,1-0.6,1.5c0,0-0.2,0-1.1,0.3
	c-0.2,1-0.5,2-0.5,3.1c0,0-0.2-0.2-1.3,0.2c0.3,3.7,0.8,7.6,1.1,11.2c0,0-0.2,0,0.2,1c0.5,0.3,0.9,0.5,1.4,0.6c0,0,0,0.2,0.5,1.3
	c3,0.6,5.8,2,8.8,2c10.6,0.2,21.1,0.2,31.7,0c0,0-0.2,0,0.2,1.6c0,38,0,76.2,0.2,114.2c0,3.7,1.9,7.5,2.8,11.1c0,0-0.2,0.2,0,1
	c0.5,0.2,1.1,0.5,1.6,0.7c0,0-0.2,0-0.2,1c0.5,0.2,1.1,0.5,1.7,0.6c0,0-0.2,0.2,0.5,1.3c2.5,0.7,4.9,2,7.4,2c78.9,0,157.7,0,237.7,0
	c0.8,0,1.4-0.2,3.3,0c2.2-1.1,4.6-2.1,6.8-3.3c0,0,0,0.2,0.9-0.2c0.3-0.5,0.5-1,0.6-1.5c0,0,0.2,0,1.1-0.3c0.6-1.6,1.3-3.1,2.1-6.2
	c0.2-40.6,0.2-81.3,0.9-121.9c0,0,0.6-0.2,2.1,0c5.5,0,11,0.2,16.6,0c6.6-0.3,13.2-1,19.9-1.6c0,0,0,0.2,1.1,0c0.5-0.5,0.9-1,2.4-2
	c3.3-5.9,4.4-11.2-1.1-16.6c-3.8-3.6-6.8-8.1-10.7-11.5c-11.5-10.2-23.3-20.2-35-30.2c-35-29.9-69.9-59.6-105.5-89.7
	c0,0-0.8,0.2-0.9,0.3c0,0,0.2,0,0.2-1.1c-1.1-0.8-2.1-1.8-3.3-3.3c-0.3-0.3-0.6-0.5-1.7-1.5c-0.9-0.3-1.9-0.5-2.7-0.8
	c0,0,0-0.2,0-1.1c-1.1-0.8-2.1-1.8-3.5-3.3c-0.3-0.3-0.6-0.5-1.9-1.5c-5.5-3.3-11-7-17-0.7c0,0,0-0.2-1.1-0.5
	c-0.8,0.7-1.4,1.3-2.2,2.1c0,0,0-0.2-0.9,0c-0.5,0.5-0.8,1-2.1,2.3c-4.9,3.9-9.9,7.8-14.7,11.9c-25.9,22.4-51.9,44.9-77.6,67.3
	c-19.9,17.4-39.6,34.9-60.2,53C683.6,258.4,683.5,259,683.3,259.7 M917.8,698.6c1.3-1.1,2.4-2.3,4.4-3.7c0.3-0.5,0.5-1,1.9-1.6
	c0.9-3.6,3-7.5,2.4-10.7c-1.9-8.3-8.4-9.9-15.9-9.9c-82.5,0.2-165,0.2-247.4,0.2c-1.9,0-3.6-0.2-5.5,0.2c-6,1-10.3,4.4-11.7,10.6
	c-1.4,5.7,0.3,10.7,5.8,13.5c0,0-0.2-0.2,0.8,1c3.3,0.3,6.8,1,10.1,1c50.6,0,101.2,0.2,151.9,0C848.6,698.7,882.6,698.6,917.8,698.6
	 M653.3,518c0,0-0.2,0,0.6,1.3c1.9,0.2,3.6,0.5,5.5,0.5c164,0,328,0,492.2,0c2.7,0,5.5-1.1,8-1.6c0,0,0,0.2,0.8-0.2
	c0.2-0.5,0.5-1,1.1-2.4c5.7-8.6,5.4-10.6-4.1-19.7c-2.7-0.2-5.2-0.5-7.9-0.5c-162.9,0-325.8,0-488.6,0c-2.7,0-5.4,1.1-9,2.3
	c-7.4,5.7-5.8,12.2-1.4,20.2C651.4,517.7,652.4,517.9,653.3,518 M650.7,586.5c-0.3,0.7-0.6,1.3-0.8,2.3c0,0,0.3,0-0.8,0.8
	c-5.8,7.5-3.8,16.3,5,19.8c2.7,1,5.7,1.3,8.5,1.3c161.6,0,323.1,0,484.8,0c3.2,0,7.3,0.5,9.1-1.3c3.6-3.4,7.6-7.8,8.4-12.4
	c0.5-3.1-4.3-7-6.8-10.6c0,0,0,0-0.3-1.3c-2.5-0.7-4.9-1.8-7.4-1.8c-163.2-0.2-326.4-0.2-489.7,0c-3,0-6.2,2-9.1,3.1
	C651.8,586.3,651.8,586.1,650.7,586.5z"/>
<path class="st5" d="M1147.3,174.8c-8.5-3.4-15.1-8.6-17.8-19.5c-0.3-14.5-0.2-27.6-0.3-41c-0.2-15.6-0.5-31.2-0.8-46.8
	c4.6,3.7,9.3,7.2,13.6,11.2c3.6,3.4,6.6,7.3,9.9,11.2c9.1,10.6,18.3,21.1,27.4,31.7c6.5,7.3,12.8,14.8,19.2,22.1
	c9,10.1,18,20.3,26.3,30.9C1198.7,175,1173,174.8,1147.3,174.8z"/>
<path class="st2" d="M564.7,66.8c0.5,260.2,0.5,520.8,0.3,781.3c0,3.3,0.2,6.5,0.2,10.6c-1.1-3.4-3.2-7.6-3.2-11.9
	c-0.2-129.2-0.2-258.4-0.2-387.6c0-125.9,0-251.9,0.2-377.8C562,76.5,563.5,71.8,564.7,66.8z"/>
<path class="st2" d="M1104.2,51.2c-60.1,0.7-120.2,0.5-180.3,0.5c-110.2,0-220.5,0-330.7,0c-3.6,0-7.4,0.2-11.8,0.2
	c3.2-1.1,7.1-3.3,11-3.3c168.3-0.2,336.4-0.2,504.6,0C1099.5,48.6,1101.7,49.9,1104.2,51.2z"/>
<path class="st4" d="M1240.3,446.5c-0.2-77.5-0.2-155-0.3-232.4c0-3.3,0-6.5-0.2-10.6c0.5,2.6,1.6,5.9,1.6,9.3
	c0.2,77.5,0,154.9-0.3,233C1240.9,446.5,1240.3,446.5,1240.3,446.5z"/>
<path class="st4" d="M1127.7,67.4c0.6,15.6,0.9,31.2,1.3,46.8c0.2,13.2,0.2,26.3,0.2,40.3c-0.8-1-2.5-2.6-2.5-4.2
	c-0.2-27.3-0.2-54.6-0.2-81.9C1126.5,68.2,1127.1,67.7,1127.7,67.4z"/>
<path class="st2" d="M1240.2,447.2c0.2-0.8,0.8-0.6,1.1-0.6c0.8,4.7,1.3,9.3,1.9,14c0.5,3.3,0.9,6.5,1.7,11.4c2.7-3.6,4.1-5.4,6-7.2
	c-2.8,10.6-6.3,21-9.9,31.9C1240.5,480.7,1240.3,464.4,1240.2,447.2 M1244.6,477.1c-0.2-1-0.2-2.1-0.3-3.1c-0.3,0-0.6,0.2-1.1,0.2
	C1243.5,475.3,1243.6,476.6,1244.6,477.1z"/>
<path class="st4" d="M1105,159.9c-0.6-35.3-0.8-71-0.8-107.6c0.6,0.3,1.6,1.5,1.6,2.8C1105.8,89.8,1105.6,124.6,1105,159.9z"/>
<path class="st4" d="M1239.8,202.3c-2.8,0-5.7-1.1-8.7-1.1c-28.4-0.3-56.6-0.3-85.3-1.1c28.2-0.7,56.8-0.7,85.3-0.5
	C1234,199.7,1236.8,201,1239.8,202.3z"/>
<path class="st4" d="M1147,175.3c25.9-0.3,51.6-0.3,78.1-0.2c-1.1,0.5-3,1.6-5,1.6c-23.5,0.2-47.2,0.2-70.7,0
	C1148.5,176.6,1147.6,176.1,1147,175.3z"/>
<path class="st2" d="M576.4,873.6c1.3,0,2.5,0.5,4.3,1.5C579.4,875.1,578,874.6,576.4,873.6z"/>
<path class="st2" d="M565,859.8c0.6,0.7,1.3,2,1.7,3.9C566.1,862.9,565.7,861.6,565,859.8z"/>
<path class="st2" d="M566.3,63.3c0.3,0.8,0,1.8-0.6,2.9C565.3,65.5,565.7,64.5,566.3,63.3z"/>
<path class="st2" d="M577.3,53.4c-0.3,0.5-1.1,1.1-2.2,1.6C575.3,54.6,576.1,53.9,577.3,53.4z"/>
<path class="st2" d="M574.2,55.1c-0.3,0.7-0.9,1.3-2.2,1.8C572.1,56,572.9,55.5,574.2,55.1z"/>
<path class="st2" d="M569.4,58.5c0.2,0.7,0,1.6-0.8,2.8C568.5,60.6,568.8,59.6,569.4,58.5z"/>
<path class="st2" d="M566.8,864.3c0.5-0.2,0.9,0.2,1.4,0.8C567.7,865.3,567.2,865.1,566.8,864.3z"/>
<path class="st2" d="M568,61.6c0.2,0.5-0.2,1-0.8,1.6C566.9,62.7,567.2,62.2,568,61.6z"/>
<path class="st2" d="M571,56.7c0.2,0.5,0,1.1-0.8,1.6C570.1,57.8,570.4,57.3,571,56.7z"/>
<path class="st2" d="M579.2,51.8c0.2,0.3-0.3,0.8-1.1,1.5C578,52.9,578.4,52.5,579.2,51.8z"/>
<path class="st6" d="M1235.3,827.1c-7.7,8.1-15.5,16.3-23.8,25.2c-0.9,1.1-1.4,1.6-1.7,2.1c-0.5,0-0.8,0.3-1.6,1.3
	c-0.9,1-1.3,1.5-1.6,2c-0.5,0.2-0.8,0.3-1.4,1.3c-0.8,1-1.1,1.5-1.4,2c0,0,0.2,0-0.3,0.2c-0.6,0.7-0.9,1-1.3,1.5c0,0,0.2,0-0.3,0.2
	c-0.6,0.7-0.9,1-1.3,1.5c0,0,0.2,0-0.3,0.2c-0.6,0.7-0.9,1-1.3,1.5c0,0,0.2,0-0.3,0.2c-0.6,0.7-0.9,1-1.3,1.5c0,0,0.2,0-0.3,0.2
	c-0.6,0.7-0.9,1-1.3,1.5c0,0,0.2,0-0.3,0.2c-0.6,0.7-0.9,1-1.3,1.5c0,0,0.2,0-0.3,0.2c-0.6,0.5-0.9,1-1.3,1.5c0,0,0.2,0-0.3,0.2
	c-0.6,0.5-0.9,1-1.3,1.5c0,0,0.2,0-0.3,0.2c-0.6,0.5-0.9,1-1.3,1.5c0,0,0.2,0-0.3,0.2c-0.8,0.5-1.3,1-1.6,1.5
	c-3.5,3.3-7.1,6.5-11.5,9.9c-1.4,0.7-1.7,1.1-2.2,1.6c0,0,0-0.2-0.6-0.2c-1.3-1-2.4-1.6-2.4-2.4c-0.6-27.5-1.3-54.9-1.6-82.4
	c0-1.6,3-3.1,4.7-4.6c0,0-0.2,0,0.2,0.5c1.7,0.7,3.2,1,4.4,1.3c0,0,0-0.2,0.3,0.5c1.9,0.7,3.5,1,5.2,1.1c0.3,0,0.8,0.2,0.8,0.8
	c2.2,1.3,4.3,2,6.3,2.6c0,0,0,0,0.3,0.3c1.7,0.7,3.2,1,4.4,1.3c0,0,0-0.2,0.2,0.3c1.1,0.7,2.1,1,3,1.3c0,0,0,0,0.3,0.5
	c3.3,1.3,6.2,2,9.1,2.8c0,0,0,0,0.3,0.3c1.7,0.7,3.2,1,4.4,1.3c0,0,0,0,0.3,0.5c7.4,2.9,14.7,5.4,21.9,7.6c0,0-0.2,0-0.2,0.7
	C1235.3,824.4,1235.3,825.8,1235.3,827.1z"/>
<path class="st6" d="M1388.4,319.2c0.5,0.1,0.9,0.3,1.3,1.7c0.8,7.9,1.3,14.9,1.9,22.1c0,0.1-0.2,0.6-0.6,0.7c-0.6,1-0.8,2-0.9,3.4
	c-0.3,1-0.8,1.7-1.7,2.6c-2.1,4-3.3,8-4.7,12.1c0,0.1,0,0.6-0.6,0.6c-3.8,5.7-8,6-14.2,3.6c-4.7-1.9-10.4-2.3-15.5-3.4
	c0,0,0.2,0-0.2-0.4c-5.5-2.7-7.7-5.6-4.1-10.8c1.1-1.6,0.8-4,1.1-6.2c0,0,0,0,0.5-0.3c1.7-4.4,3-8.6,4.3-12.6c0,0-0.2,0,0.3-0.1
	c0.6-1.6,0.8-2.9,1.1-4.7c0.2-1,0.2-1.6,0.3-2.3c0,0-0.2,0,0.3-0.1c0.8-0.6,1.1-0.9,2.1-1.3c1.6-0.3,3-0.1,3.5-0.7
	c6-6.3,12.8-8.8,21.3-3.9C1384.9,319.5,1386.8,319.1,1388.4,319.2z"/>
<path class="st7" d="M1167.3,893.4c-0.9-4.1-2.7-8.3-2.7-12.4c-0.3-27.5-0.2-54.8,0-82.2c0-0.8,1.1-1.6,2.2-2
	C1167.3,829.4,1167.3,861.4,1167.3,893.4z"/>
<path class="st8" d="M1313,358.8c24,8.8,47.8,17.6,72.1,26.8c0.3,0.5,0,0.8-0.6,0.8c-3.2-0.6-5.7-1.1-8-2.1
	c-20.3-7.3-40.7-14.8-61-22.1c-1.6,3.4-2.8,6.3-4.1,9.3c-2.8,7-5.7,14.1-8.5,20.6c1.1-6.2,2.4-11.5,3.6-17.1c0,0-0.2,0,0.5-0.2
	c0.8-1.1,0.9-2.1,1.3-3.1c0,0-0.2,0,0.3-0.3c0.8-1.6,0.9-3.1,1.3-4.6c0,0-0.2,0,0.3-0.3c0.8-1.6,0.9-3.1,1.3-4.6c0,0-0.2,0,0.3-0.2
	C1312.2,360.7,1312.5,359.8,1313,358.8z"/>
<path class="st8" d="M1186.1,777.7c-4.4-2.1-8.8-4.2-14-6.8c6.8-19.7,13.6-39,20.5-59.5c0.3-1.8,0.3-2.4,0.3-3.3c0,0-0.2,0,0.3-0.3
	c0.8-1.6,0.9-3.1,1.3-4.6c0,0-0.2,0,0.2,0c0.3,0,0.9-0.2,1.4,0.2c-1.9,8.3-3.8,16.3-6.5,24.1c-4.6,14-9.5,27.8-14.4,41.9
	c2.1,1,3.3,1.8,4.7,2.4c7.3,3.3,14.7,6.5,21.3,9.9c-4.3-0.7-8-1.3-11.7-2.1c0,0,0,0.2-0.2-0.5C1188.1,778.2,1187.2,778,1186.1,777.7
	z"/>
<path class="st8" d="M1167.5,893.7c-0.3-32.3-0.3-64.4-0.2-97.2c0.3-0.8,0.6-0.8,1.7-0.7c0.8,0,1.6,0.2,1.6,0.2s0-0.2,0.3,0.3
	c1.3,1.1,2.2,1.8,3.2,2.6c-1.6,1.6-4.7,3.1-4.7,4.7c0.3,27.5,0.9,54.9,1.6,82.4c0,0.8,1.1,1.6,2.4,2.6
	C1171.9,890.5,1169.8,892.3,1167.5,893.7z"/>
<path class="st8" d="M1279.1,726.4c-6.2,16.7-12.5,33.6-18.6,50.4c-1.1,2.9-2.2,6-3.9,9.3c-0.5,0.3-0.8,0-0.8-0.7
	c6.5-19.5,12.8-38.4,19.4-57c2.1-5.9,5.2-11.4,7.7-16.4c-0.6,3.4-1.3,6.2-2.1,8.9c0,0,0.2,0-0.3,0.3
	C1279.7,723.3,1279.4,724.9,1279.1,726.4z"/>
<path class="st8" d="M1277.7,459.5c0,0,0.2-0.7,0.6-1.3c3.3-9.3,6.3-17.7,9.1-26.3c0,0-0.2,0,0.3-0.3c0.8-1.6,0.9-3.1,1.3-4.6
	c0,0-0.2,0,0.3-0.2c1.1-1.3,1.9-2.3,2.5-2.6c0,1.8,0.3,2.9,0,3.9c-6.3,19.2-12.6,38.2-18.9,57.4c-0.5,1.3-2.1,2.1-3.2,2.6
	c1.7-7.2,3.5-13.8,5-20.3c0,0-0.2,0,0.3-0.2c0.8-1.1,0.9-2.1,1.3-3.1c0,0-0.2,0,0.3-0.3C1277.4,462.5,1277.5,461,1277.7,459.5z"/>
<path class="st7" d="M1367.7,474.2c-3.9,11.5-7.7,23.1-11.8,34.4c-2.7,7.2-6,14.1-9.8,21.2c-0.6,0.1-0.8,0-0.6-0.4
	c1.7-5.9,3.5-11,5-16.4c0,0,0,0,0.5-0.1c0.6-1,0.8-1.9,0.9-3c0-0.3,0.2-1,0.6-1.3c2.2-5.5,3.9-10.5,5.7-15.9c0-0.3,0.2-1,0.5-1.3
	c0.6-1.1,0.9-1.9,1.3-2.7c0,0,0,0.1,0.5-0.1c0.6-1.6,0.9-2.9,1.1-4.2c0,0,0,0.1,0.5-0.1c1.3-3,1.9-5.7,2.7-8.3c0,0,0,0,0.5,0
	c1.1-0.6,1.7-1.1,2.4-1.7C1367.6,474,1367.7,474.2,1367.7,474.2z"/>
<path class="st7" d="M1173.9,799c-0.9-0.8-1.9-1.5-3.2-2.6c12.8,3.9,25.9,8,38.8,12.4c4.3,1.5,8.4,3.9,12.1,6.3
	c-3.2-0.2-5.8-0.8-8.5-1.5c0,0,0,0.2-0.3-0.3c-1.6-0.8-3-1-4.4-1.3c0,0,0,0.2-0.3-0.5c-3.2-1.3-6.2-2.1-9.1-2.8c0,0,0,0.2-0.2-0.5
	c-1.1-0.8-2.1-1-3-1.3c0,0,0,0.2-0.3-0.3c-1.6-0.8-3-1-4.4-1.3c0,0,0,0.2-0.3-0.3c-2.2-1.3-4.1-2-6.2-2.8c0,0-0.5-0.2-1.1-0.5
	c-2.2-0.7-3.6-1-5-1.3c0,0,0,0.2-0.3-0.3c-1.6-0.8-3-1-4.4-1.3C1173.8,799,1173.9,799,1173.9,799z"/>
<path class="st8" d="M1385.4,396.3c3.6,0.7,7.1,1.6,11.2,2.6c-3.3,8.5-6.5,16.2-9.8,25c-0.3,1.6-0.3,2.2-0.3,2.9c0,0,0.2,0-0.3,0.1
	c-1.1,1.1-1.9,2-2.5,2.3c3-9.9,6-19.2,9-28.4c-2.8-1.6-5.2-2.9-7.6-4.2C1385.1,396.7,1385.4,396.4,1385.4,396.3z"/>
<path class="st8" d="M1388.1,318.8c-1.3,0.3-3.2,0.9-4.3,0.1c-8.5-4.9-15.3-2.4-21.3,3.9c-0.6,0.6-1.9,0.6-3.5,0.4
	c-0.6-0.3-0.6-1-0.6-1s-0.2,0,0.3-0.1c0.8-0.4,1.1-0.9,1.4-1.3c0.8-0.7,1.7-1.3,3.2-2.4c0.8-1,1.1-1.4,1.4-1.9c0,0-0.2,0,0.5,0
	c1.3-0.4,2.1-1,2.7-1.4c0,0-0.2,0,0.5,0c1.6-0.4,2.5-0.9,3.5-1.4C1377,315.2,1382.4,316.8,1388.1,318.8z"/>
<path class="st7" d="M1298.3,672.4c-3.8,11.7-7.7,23.6-12.1,35.4c-0.6,0.2-0.6,0.2-0.6-0.5c0.6-2.8,1.3-5,1.9-7.5
	c0.2-0.3,0-0.8,0.5-1.3c0.6-2,0.9-3.4,1.1-5c0,0,0,0,0.5-0.2c2.2-6.7,4.1-13,5.8-19.2c0,0,0,0,0.5,0c1.1-0.7,1.7-1.3,2.4-2
	C1298.2,672.3,1298.3,672.4,1298.3,672.4z"/>
<path class="st8" d="M1353.4,362.4c5.2,1.1,10.7,1.4,15.6,3.4c6.2,2.4,10.4,2.2,14-3c-0.3,2.4-0.9,4.4-1.7,6.5
	c-0.5,0.1-0.6,0.6-1.4,1.3c-6.6-1.1-12.5-2.7-18.3-4.2c0,0,0,0.1-0.3-0.3c-1.6-0.6-3-0.9-4.4-1.1c0,0,0,0.1-0.2-0.3
	C1355.3,363.7,1354.3,363.1,1353.4,362.4z"/>
<path class="st8" d="M1256.2,786.5c-1.3,4.7-2.8,9.3-5.4,14c-3.3-0.3-5.5-1-7.7-1.6c0,0,0,0.2-0.3-0.3c-1.6-0.8-3-1-4.4-1.3
	c0,0,0,0.2-0.2-0.3c-1.3-1.1-2.2-1.8-2.5-2.6c9.5,3.1,17.2,3.6,20-8.3C1255.8,786.2,1256.1,786.5,1256.2,786.5z"/>
<path class="st7" d="M1305.9,375.4c-0.8,5.2-1.9,10.6-3.2,16.7c0.2,0.6,0.2,0.6-0.3,0.8c-0.6,1.1-0.9,2.1-1.1,3.1c0,0,0-0.2-0.5,0.2
	c-0.6,1.8-0.9,3.3-1.1,4.6c0,0,0,0-0.5,0.2c-1.1,1.3-1.6,2.4-2.4,3.4l-0.2-0.2C1299.6,394.9,1302.6,385.3,1305.9,375.4z"/>
<path class="st8" d="M1228.8,602.5c0,0,0.2-0.8,0.5-1.3c1.1-1.1,1.9-1.8,2.5-1.6c-3.2,9.4-6.3,18.2-9.6,26.5c1.3-5,2.4-9.4,3.5-13.8
	c0,0-0.2,0,0.3-0.3c0.8-1.6,0.9-3.1,1.3-4.6c0,0-0.2,0,0.3-0.3C1228.5,605.5,1228.6,604,1228.8,602.5z"/>
<path class="st7" d="M1287,432.2c-2.4,8.3-5.2,16.9-8.5,25.7C1280.7,449.6,1283.5,441,1287,432.2z"/>
<path class="st8" d="M1391.7,342.8c-0.6-7-1.3-14.1-1.7-21.7c6,5,5.4,11.6,3.2,19.5C1392.3,341.9,1392,342.3,1391.7,342.8z"/>
<path class="st7" d="M1255.8,524.5c2.8-8.9,5.7-18,9-27.3c0.5-0.3,0.6-0.2,0.6,0.5c-2.4,8.3-4.6,15.8-6.6,23.4c0,0,0,0-0.5,0.2
	c-1.1,1.3-1.7,2.3-2.4,3.4L1255.8,524.5z"/>
<path class="st7" d="M1274.4,468c-1.3,6.2-2.8,12.8-4.6,20c0,0.7,0.2,0.7-0.3,0.8c-1.1,1.3-1.6,2.4-2.4,3.4c-0.2,0-0.3-0.2-0.3-0.2
	C1269.2,484.2,1271.5,476.3,1274.4,468z"/>
<path class="st7" d="M1333,561.7c-2.2,6.6-4.6,13.1-7.4,19.8c-0.6,0.1-0.6,0.1-0.6-0.4c1.7-5.9,3.5-11.2,5-16.5c0,0,0,0,0.5-0.1
	c1.1-1.1,1.7-2,2.4-3C1332.9,561.6,1333,561.7,1333,561.7z"/>
<path class="st7" d="M1202.1,680.5c2.4-7.5,4.6-14.8,7.4-22.4c0.6-0.2,0.6-0.2,0.6,0.5c-1.3,5-2.4,9.4-3.5,13.8c0,0,0-0.2-0.5,0.2
	c-0.6,1.8-0.9,3.3-1.1,4.6c0,0,0,0-0.5,0.2c-1.1,1.3-1.6,2.3-2.4,3.4C1202.3,680.7,1202.1,680.5,1202.1,680.5z"/>
<path class="st7" d="M1195.5,703.1c0,0-0.6,0.2-0.9,0.3c1.9-7.3,4.3-14.8,7.1-22.6c0.5-0.2,0.6-0.2,0.6,0.5
	c-1.9,6.7-3.8,12.7-5.8,18.9C1196,701.5,1195.8,702.3,1195.5,703.1z"/>
<path class="st8" d="M1213.5,814.1c2.5,0.2,5.2,0.7,8.4,1.5c0.6,0,0.6,0,0.9,0.3c1.7,0.8,3,1.3,4.4,1.6c2.5,1.1,4.9,2.3,7.7,3.7
	C1228.2,819.5,1220.9,817,1213.5,814.1z"/>
<path class="st7" d="M1361.7,366.9c5.7,1,11.5,2.6,18,4c-0.3,0.7-1.6,2.3-2.2,2C1372.3,371.3,1367.1,369.3,1361.7,366.9z"/>
<path class="st7" d="M1291.9,423.5c-0.6,1-1.4,2.1-2.5,3.4c1.4-6,3.2-12.4,5.5-18.9c0.6-0.2,1.1,0.2,0.9,0.7
	c-0.9,4.2-1.6,8-2.2,11.7c0,0,0,0-0.5,0.2C1292.4,421.8,1292.2,422.8,1291.9,423.5C1291.9,423.6,1291.9,423.5,1291.9,423.5z"/>
<path class="st7" d="M1391.7,343c0.3-0.6,0.8-1,1.3-1.9c-1.6,5.2-3.5,10.8-5.8,16.5c-0.6,0.1-0.6,0.1-0.6-0.4c0.9-3,1.7-5.3,2.5-7.7
	c0.3-0.7,0.6-1.3,1.4-2.7c0.6-1.4,0.8-2.3,1.1-3.2C1391.4,343.6,1391.7,343.2,1391.7,343z"/>
<path class="st7" d="M1306.1,649.7c-1.7,5.9-3.5,11.5-5.8,17.6c-0.6,0.2-0.6,0.2-0.6-0.5c0.2-2.3,0.2-3.9,0.3-5.7c0,0,0,0,0.5-0.2
	c0.6-1.1,0.9-2.1,1.1-3.1c0,0,0,0.2,0.5-0.2c0.6-1.8,0.9-3.3,1.1-4.6c0,0,0,0,0.5-0.2C1304.7,651.6,1305.3,650.5,1306.1,649.7
	C1306.1,649.5,1306.1,649.7,1306.1,649.7z"/>
<path class="st7" d="M1225.5,612.6c-0.6,4.2-1.7,8.6-3,13.7c0,0.7,0.2,0.7-0.3,0.8c-1.1,1.3-1.7,2.3-2.4,3.4l-0.2-0.2
	C1221.4,624.5,1223.1,618.6,1225.5,612.6z"/>
<path class="st7" d="M1236.8,579.8c1.7-5.9,3.5-11.5,5.8-17.6c0.6-0.2,0.6-0.2,0.6,0.5c-2.1,6.2-4.1,11.7-6.2,17.2
	C1237,580,1236.8,579.8,1236.8,579.8z"/>
<path class="st7" d="M1339.4,545.9c-1.7,5.2-3.5,10.2-5.8,15.6c-0.5,0.1-0.6,0.1-0.6-0.4c1.1-4.4,2.4-8.3,3.5-12.2c0,0,0,0,0.5-0.1
	c1.1-1.1,1.7-2,2.4-3C1339.2,545.8,1339.4,545.9,1339.4,545.9z"/>
<path class="st7" d="M1211.6,652.9c1.7-5.9,3.5-11.5,5.8-17.6c0.6-0.2,0.6-0.2,0.6,0.5c-1.3,5-2.4,9.4-3.5,13.8c0,0,0-0.2-0.5,0.2
	c-0.9,1.3-1.6,2.4-2.4,3.4C1211.8,653.1,1211.6,652.9,1211.6,652.9z"/>
<path class="st7" d="M1247.9,547.3c1.7-5.9,3.5-11.5,5.8-17.6c0.6-0.2,0.6-0.2,0.6,0.5c-2.1,6.2-4.1,11.7-6.3,17.2L1247.9,547.3z"/>
<path class="st7" d="M1325,581.6c-1.7,5.2-3.5,10.2-5.8,15.5c-0.5,0.3-0.6,0.1-0.5-0.4c0.6-3,1.3-5.5,1.9-7.9c0,0,0,0.1,0.5-0.1
	c0.6-1.6,0.9-2.9,1.1-4c0,0,0,0.1,0.5-0.1c1.1-1.1,1.7-2,2.4-3C1324.8,581.6,1325,581.6,1325,581.6z"/>
<path class="st7" d="M1232,599c-0.6,0.7-1.4,1.1-2.5,2c1.4-5,3.2-10.4,5.5-15.9c0.5-0.2,0.6-0.2,0.6,0.5
	C1234.3,590.5,1233.1,594.9,1232,599C1232,599.1,1232,599,1232,599z"/>
<path class="st7" d="M1189.8,780c3.5,0.2,7.1,1,11.5,1.6c0.6-0.2,0.6-0.2,0.8,0.3c0.6,1.1,1.3,1.6,1.9,2.4c0,0.2-0.2,0.3-0.2,0.3
	C1199.3,783.2,1194.7,781.8,1189.8,780z"/>
<path class="st7" d="M1317.3,601.9c-1.3,4.2-2.5,8.2-4.4,12.5c-0.6,0.1-0.9-0.1-0.8-0.6c1.7-4.4,3.3-8.3,5-12.1
	C1317.1,601.7,1317.3,601.9,1317.3,601.9z"/>
<path class="st7" d="M1345.7,350.8c1.3-3.7,2.5-7.3,4.3-11.2c0.6-0.1,0.6-0.1,0.6,0.4c-0.2,2-0.3,3.4-0.3,5c0,0,0.2,0-0.5,0.1
	c-1.6,2-2.7,4-3.9,5.9C1345.8,350.9,1345.7,350.8,1345.7,350.8z"/>
<path class="st7" d="M1383.7,430c0.6-0.9,1.4-1.9,2.5-3c-0.8,3.4-2.1,7.2-3.8,11c-0.6,0.1-0.6,0.1-0.6-0.4
	C1382.4,434.6,1383,432.1,1383.7,430C1383.7,429.8,1383.7,430,1383.7,430z"/>
<path class="st7" d="M1345.5,530c-1.1,3.7-2.4,7.5-4.3,11.3c-0.6,0.1-0.6,0.1-0.6-0.4c1.6-4,3.2-7.5,4.6-11
	C1345.3,529.9,1345.5,530,1345.5,530z"/>
<path class="st7" d="M1221.1,791c-4.1-1.3-8-2.6-12.3-4.4c-0.2-0.7-0.2-0.7,0.5-0.7c4.4,1.6,8.4,3.1,12.1,4.7
	C1221.2,790.7,1221.1,791,1221.1,791z"/>
<path class="st7" d="M1353.4,362.4c0.9,0.7,2.1,1.3,3.2,2.3c-3.8-0.7-7.9-1.9-12.1-3.4c-0.2-0.4-0.2-0.6,0.5-0.4
	C1348,361.3,1350.7,361.8,1353.4,362.4C1353.5,362.4,1353.4,362.4,1353.4,362.4z"/>
<path class="st7" d="M1381.9,369.3c0.2-1.9,0.9-3.9,1.7-6.5c0.2-0.6,0.2-0.9,0.5-1.4c0.9-1.6,1.6-2.6,2.4-3.6c0,0,0.2,0,0.2,0.1
	C1385.2,361.7,1383.8,365.4,1381.9,369.3z"/>
<path class="st7" d="M1311,617.7c-1.3,3.7-2.5,7.3-4.3,11.2c-0.5,0.1-0.6,0.1-0.6-0.4c1.6-4,3-7.6,4.6-11
	C1310.8,617.5,1311,617.7,1311,617.7z"/>
<path class="st7" d="M1281.3,720.8c0.2-2.6,0.8-5.4,1.4-8.8c0-0.7-0.2-0.7,0.3-0.8c1.1-1.3,1.7-2.3,2.4-3.4l0.2,0.2
	C1284.5,712.2,1283.2,716.5,1281.3,720.8z"/>
<path class="st7" d="M1375.6,454.1c-1.3,3.7-2.5,7.3-4.3,11.2c-0.6,0.1-0.6,0.1-0.6-0.4c0.6-3,1.3-5.5,1.9-7.9c0,0,0,0,0.5-0.1
	c1.1-1.1,1.7-2,2.4-3C1375.5,454,1375.6,454.1,1375.6,454.1z"/>
<path class="st7" d="M1235,794.5c0.9,0.7,2.1,1.5,3.3,2.4c-3.8-0.8-7.9-2.1-12.1-4.1c-0.3-0.5-0.2-0.7,0.5-0.7
	C1229.9,793.2,1232.6,793.8,1235,794.5C1235.1,794.5,1235,794.5,1235,794.5z"/>
<path class="st7" d="M1370.7,465.4c-0.6,2.7-1.3,5.5-2.5,8.5c-0.5,0.3-0.6,0.1-0.6-0.4C1368.5,470.5,1369.6,467.9,1370.7,465.4
	C1370.6,465.4,1370.7,465.4,1370.7,465.4z"/>
<path class="st7" d="M1380.4,442.6c-0.8,2.7-1.4,5.3-2.8,8.2c-0.6,0.1-0.9,0-0.8-0.6c1.3-3,2.2-5.5,3.3-7.9
	C1380.2,442.5,1380.4,442.6,1380.4,442.6z"/>
<path class="st7" d="M1352,335c0.8-2.3,1.4-4.4,2.7-6.9c0.6-0.1,0.6-0.1,0.6,0.4c-0.2,1.6-0.2,2.6-0.3,3.6c0,0,0.2,0-0.3,0.1
	c-1.1,1.1-1.7,2-2.4,2.9C1352.1,335.2,1352,335,1352,335z"/>
<path class="st7" d="M1243.5,799.5c1.9,0.2,4.1,0.7,6.9,1.5c0.6,0.2,0.6,0.8,0.6,1.1s0,0.3,0,0.3
	C1248.7,801.6,1246.1,800.8,1243.5,799.5z"/>
<path class="st8" d="M1235.6,827c-0.3-1.1-0.3-2.6-0.3-4.6c1.1,0.2,2.2,1,2.8,2.4c-0.8,1-1.1,1.5-1.4,2
	C1236.7,826.8,1235.9,826.8,1235.6,827z"/>
<path class="st3" d="M1241.9,853.1c0.5-1.3,1.1-2.3,2.7-3.3c0.8,0.2,1.3,0.7,1.1,1c-0.5,0.8-0.8,1.3-1.1,1.8c0,0,0.2,0.2-0.3,0.2
	c-0.8,0.3-1.3,0.7-1.6,1.1C1242.7,853.9,1242,853.3,1241.9,853.1z"/>
<path class="st7" d="M1218.1,635.2c0.2-1.5,0.5-2.9,1.1-4.6c0.5-0.3,0.6-0.2,0.6,0.3C1219.2,632.8,1218.7,634.1,1218.1,635.2
	C1218.2,635.2,1218.1,635.2,1218.1,635.2z"/>
<path class="st7" d="M1350.5,339.5c0.2-1.3,0.3-2.6,1.1-4c0.5-0.3,0.6-0.1,0.6,0.4C1351.7,337.3,1351.2,338.5,1350.5,339.5
	C1350.7,339.5,1350.5,339.5,1350.5,339.5z"/>
<path class="st7" d="M1227.1,817c-1.1,0.2-2.5-0.3-4.3-1.1C1223.9,815.9,1225.5,816.2,1227.1,817z"/>
<path class="st7" d="M1342.5,358c0.2-1.3,0.5-2.4,1.3-3.9c0.6-0.1,0.9,0.1,0.8,0.6c-0.6,1.4-1.1,2.6-1.7,3.6
	C1342.8,358.1,1342.5,358,1342.5,358z"/>
<path class="st7" d="M1344.1,360.8c-0.8-0.7-1.6-1.6-1.9-2.6c0.3-0.3,0.6-0.1,0.8,0.3C1343.5,359.5,1343.8,360.1,1344.1,360.8
	C1344.2,360.7,1344.1,360.8,1344.1,360.8z"/>
<path class="st7" d="M1210.2,658c0.2-1.5,0.3-2.9,1.1-4.6c0.5-0.3,0.6-0.2,0.6,0.3c-0.5,1.8-0.9,3.1-1.6,4.4
	C1210.3,658,1210.2,658,1210.2,658z"/>
<path class="st7" d="M1357,365.4c1.1-0.1,2.5,0,4.3,0.7C1360.2,366.3,1358.7,366,1357,365.4z"/>
<path class="st7" d="M1318.7,597.4c-0.2,1.3-0.5,2.6-1.1,4c-0.5,0.3-0.6,0.1-0.6-0.3C1317.6,599.6,1318.1,598.4,1318.7,597.4
	C1318.5,597.4,1318.7,597.4,1318.7,597.4z"/>
<path class="st7" d="M1227.1,607.7c0.2,1.1-0.2,2.6-0.8,4.2C1226.1,611,1226.4,609.5,1227.1,607.7z"/>
<path class="st7" d="M1309.1,379.8c0.2,1,0,2.3-0.8,3.9C1308.1,382.6,1308.4,381.4,1309.1,379.8z"/>
<path class="st7" d="M1228.5,602.9c0.2,1.1,0,2.4-0.5,4.2C1227.7,606.1,1227.9,604.7,1228.5,602.9z"/>
<path class="st7" d="M1279.6,726c-0.2-1.1,0.2-2.6,0.9-4.6C1280.7,722.6,1280.4,724.1,1279.6,726z"/>
<path class="st7" d="M1208.6,786c-1.4-0.2-2.8-0.5-4.4-1.1c-0.3-0.5-0.2-0.7,0.3-0.7C1206.2,784.9,1207.5,785.4,1208.6,786
	C1208.6,785.8,1208.6,786,1208.6,786z"/>
<path class="st7" d="M1193.9,703.6c0.2,1.1,0,2.6-0.8,4.4C1193,706.9,1193.3,705.4,1193.9,703.6z"/>
<path class="st7" d="M1226,792.5c-1.4-0.2-2.8-0.3-4.6-1.1c-0.3-0.5-0.2-0.7,0.5-0.7c1.7,0.5,3,1,4.3,1.6
	C1226,792.3,1226,792.5,1226,792.5z"/>
<path class="st7" d="M1310.6,375.5c0.2,1,0,2.3-0.8,3.9C1309.7,378.3,1310,377,1310.6,375.5z"/>
<path class="st7" d="M1238.7,797.9c1.1-0.2,2.5,0,4.3,0.8C1241.9,798.8,1240.5,798.5,1238.7,797.9z"/>
<path class="st7" d="M1299.8,667.4c-0.2,1.5-0.5,2.9-1.1,4.6c-0.5,0.3-0.6,0.2-0.6-0.3C1298.7,669.8,1299.1,668.7,1299.8,667.4
	C1299.6,667.4,1299.8,667.4,1299.8,667.4z"/>
<path class="st7" d="M1246.3,552.2c0.2-1.5,0.5-2.9,1.1-4.6c0.5-0.3,0.6-0.2,0.6,0.3c-0.5,1.8-0.9,3.1-1.6,4.4
	C1246.5,552.3,1246.3,552.2,1246.3,552.2z"/>
<path class="st7" d="M1265.4,497.1c0.2-1.5,0.3-2.9,1.1-4.6c0.5-0.3,0.6-0.2,0.6,0.3c-0.5,1.8-0.9,3.1-1.4,4.4
	C1265.5,497.2,1265.4,497.1,1265.4,497.1z"/>
<path class="st7" d="M1277.4,459.9c0.2,1.1,0,2.4-0.6,4.2C1276.6,463.1,1276.7,461.6,1277.4,459.9z"/>
<path class="st7" d="M1254.3,529.6c0.2-1.5,0.3-2.9,1.1-4.6c0.5-0.3,0.6-0.2,0.6,0.3c-0.5,1.8-0.9,3.1-1.4,4.4
	C1254.5,529.6,1254.3,529.6,1254.3,529.6z"/>
<path class="st7" d="M1381.8,438.2c-0.2,1.3-0.3,2.6-1.1,4c-0.5,0.3-0.6,0.1-0.6-0.4C1380.7,440.3,1381.1,439.2,1381.8,438.2
	C1381.6,438.2,1381.8,438.2,1381.8,438.2z"/>
<path class="st7" d="M1340.8,541.5c-0.2,1.3-0.5,2.6-1.1,4c-0.5,0.3-0.6,0.1-0.6-0.3c0.5-1.6,0.9-2.7,1.4-3.9
	C1340.6,541.5,1340.8,541.5,1340.8,541.5z"/>
<path class="st7" d="M1244.9,557c0.2-1.5,0.5-2.9,1.1-4.6c0.5-0.3,0.6-0.2,0.6,0.3C1246,554.8,1245.5,555.9,1244.9,557
	C1244.9,557.2,1244.9,557,1244.9,557z"/>
<path class="st7" d="M1288.6,427.4c0.2,1.1,0,2.6-0.8,4.4C1287.6,430.6,1287.9,429.1,1288.6,427.4z"/>
<path class="st7" d="M1243.3,562.1c0.2-1.5,0.5-2.9,1.1-4.6c0.5-0.3,0.5-0.2,0.5,0.3C1244.4,559.5,1243.9,560.8,1243.3,562.1
	L1243.3,562.1z"/>
<path class="st7" d="M1235.4,584.8c0.2-1.5,0.3-2.9,1.1-4.6c0.5-0.3,0.6-0.2,0.6,0.3c-0.5,1.8-0.9,3.1-1.4,4.4
	C1235.6,585,1235.4,584.8,1235.4,584.8z"/>
<path class="st3" d="M1237,826.8c0-0.5,0.3-0.8,0.9-1.5C1237.9,825.7,1237.8,826.1,1237,826.8z"/>
<path class="st7" d="M1295.4,407.7c0-1.1,0.3-2,1.1-3.1c0.5-0.2,0.6-0.2,0.6,0.5c-0.3,1.5-0.6,2.3-0.9,3.3
	C1296,408.2,1295.5,407.9,1295.4,407.7z"/>
<path class="st7" d="M1367.4,315.1c-0.3,0.4-0.9,1-2.2,1.4C1365.4,315.9,1366.2,315.5,1367.4,315.1z"/>
<path class="st7" d="M1358,322.4c0.5-0.1,0.5,0.4,0.5,0.9c-0.3,0.7-0.6,1.1-1.4,1.7C1357,324.2,1357.3,323.4,1358,322.4z"/>
<path class="st7" d="M1356.4,325.3c0.3,0.4,0.3,1-0.2,2.2c-0.3,0.6-0.9,0.7-0.9,0.7s0,0-0.2-0.1
	C1355.4,327.1,1355.8,326.3,1356.4,325.3z"/>
<path class="st7" d="M1344.2,353.8c0.2-0.9,0.3-1.7,1.1-2.7c0.5-0.1,0.6-0.1,0.6,0.4c-0.3,1.3-0.6,2-1.1,2.7
	C1344.9,354.2,1344.4,353.9,1344.2,353.8z"/>
<path class="st7" d="M1312.4,614.6c-0.2,0.9-0.3,1.7-1.1,2.7c-0.5,0.1-0.6,0.1-0.6-0.4c0.3-1.3,0.6-2,1.1-2.7
	C1311.8,614.2,1312.2,614.5,1312.4,614.6z"/>
<path class="st7" d="M1312.5,372.6c0.2,0.6-0.2,1.4-0.9,2.6C1311.4,374.5,1311.8,373.6,1312.5,372.6z"/>
<path class="st7" d="M1186.4,778.2c0.8-0.2,1.7,0.2,3,0.8C1188.6,779.2,1187.6,779,1186.4,778.2z"/>
<path class="st7" d="M1307.5,384.1c0.2,0.7,0,1.6-0.8,2.6C1306.5,385.9,1306.9,385.1,1307.5,384.1z"/>
<path class="st7" d="M1386.8,426.7c-0.3-0.4-0.3-1-0.2-2.2C1387,424.8,1387.1,425.7,1386.8,426.7z"/>
<path class="st7" d="M1377,451.1c-0.2,0.9-0.3,1.7-1.1,2.7c-0.5,0.1-0.5,0.1-0.5-0.3c0.3-1.3,0.8-2,1.1-2.7
	C1376.6,450.8,1376.9,450.9,1377,451.1z"/>
<path class="st7" d="M1276,464.7c0.2,0.8,0,1.8-0.8,2.9C1275,466.8,1275.3,465.9,1276,464.7z"/>
<path class="st7" d="M1371.2,313.6c-0.3,0.4-1.3,1-2.8,1.4C1368.7,314.5,1369.6,314.1,1371.2,313.6z"/>
<path class="st7" d="M1192.5,708.3c0.3,0.5,0.3,1.1,0.2,2.4C1192.4,710.4,1192.2,709.5,1192.5,708.3z"/>
<path class="st3" d="M1196.2,868.9c-0.2-0.3,0.2-0.8,0.9-1.5C1197.1,867.7,1196.8,868.2,1196.2,868.9z"/>
<path class="st3" d="M1189.8,875.4c-0.2-0.3,0.2-0.8,0.9-1.5C1190.8,874.2,1190.5,874.7,1189.8,875.4z"/>
<path class="st3" d="M1191.4,873.8c-0.2-0.3,0.2-0.8,0.9-1.5C1192.4,872.6,1192.1,873.1,1191.4,873.8z"/>
<path class="st3" d="M1193,872.1c-0.2-0.3,0.2-0.8,0.9-1.5C1193.9,871,1193.6,871.5,1193,872.1z"/>
<path class="st3" d="M1194.6,870.5c-0.2-0.3,0.2-0.8,0.9-1.5C1195.5,869.4,1195.2,869.9,1194.6,870.5z"/>
<path class="st3" d="M1202.5,862.4c-0.2-0.3,0.2-0.8,0.9-1.5C1203.4,861.2,1203.1,861.7,1202.5,862.4z"/>
<path class="st3" d="M1197.7,867.3c-0.2-0.3,0.2-0.8,0.9-1.5C1198.7,866.1,1198.4,866.6,1197.7,867.3z"/>
<path class="st3" d="M1199.3,865.6c-0.2-0.3,0.2-0.8,0.9-1.5C1200.3,864.5,1199.9,865,1199.3,865.6z"/>
<path class="st3" d="M1200.9,864c-0.2-0.3,0.2-0.8,0.9-1.5C1201.8,862.9,1201.5,863.4,1200.9,864z"/>
<path class="st3" d="M1188,877c0-0.3,0.3-0.8,1.3-1.5C1189.1,875.9,1188.7,876.4,1188,877z"/>
<path class="st8" d="M1174.2,888.5c0-0.3,0.3-0.8,1.3-1.5C1175.5,887.4,1175,887.9,1174.2,888.5z"/>
<path class="st7" d="M1364.3,316.5c0.2,0.3-0.2,0.7-0.8,1.3C1363.3,317.6,1363.6,317.2,1364.3,316.5z"/>
<path class="st7" d="M1359.7,320.8c0,0.3-0.3,0.7-0.9,1.3C1358.6,321.8,1358.9,321.4,1359.7,320.8z"/>
<path class="st7" d="M1251,802.4c0.2,0.2,0.3,0.5,0.6,0.7c-0.2-0.2-0.3-0.2-0.5-0.5C1251,802.4,1251,802.4,1251,802.4z"/>
<path class="st7" d="M1170.5,795.8c0.2,0.3-0.6,0.3-1.1,0.2C1169.5,795.8,1170,795.6,1170.5,795.8z"/>
<path class="st3" d="M1204,860.8c-0.2-0.3,0.2-0.8,0.9-1.5C1205,859.5,1204.7,859.9,1204,860.8z"/>
<path class="st3" d="M1245,849.7c-0.2-0.8,0.2-1.1,0.9-1.8c0.3-0.2,0.8,0.3,0.8,1c-0.3,0.8-0.6,1.1-0.9,1.5
	C1245.8,850.5,1245.2,850,1245,849.7z"/>
<path class="st3" d="M1210.2,854.3c0-0.3,0.3-0.8,1.1-1.5C1211.3,853,1211,853.4,1210.2,854.3z"/>
<path class="st3" d="M1207,857.5c0-0.3,0.3-0.8,1.1-1.5C1208.1,856.2,1207.8,856.7,1207,857.5z"/>
<path class="st2" d="M1224.4,875.2c2.8-3.4,6.2-6.8,9.9-9.9C1231.6,868.7,1228.3,872,1224.4,875.2z"/>
<path class="st2" d="M1211.9,886.8c2.2-2.9,5-5.7,8.4-8.5C1218.1,881.2,1215.2,884,1211.9,886.8z"/>
<path class="st2" d="M1235.3,865.5c0.8-2.4,2.2-5,4.1-7.6C1238.6,860.1,1237.2,862.7,1235.3,865.5z"/>
<path class="st2" d="M1245.5,850.8c0.6-0.7,0.9-1,1.4-1.5c0.6-0.7,1.1-1,1.9-1.5c-0.8,1.5-2.1,3.3-3.8,4.9
	C1244.7,852.1,1245,851.7,1245.5,850.8z"/>
<path class="st2" d="M1202.5,899.3c-1.1,0.5-1.9,0.5-3.3,0.5c1.3-2.1,3.2-4.1,5.5-6.3C1204.4,895,1203.6,897,1202.5,899.3z"/>
<path class="st2" d="M1242.4,854.3c0.6-0.7,1.1-1.1,1.9-1.5c-0.8,1.5-2.1,3.1-3.8,4.9C1240.5,856.5,1241.3,855.6,1242.4,854.3z"/>
<path class="st2" d="M1205.6,893.3c0.8-1.5,2.1-3.1,3.8-4.7C1208.6,890,1207.5,891.6,1205.6,893.3z"/>
<path class="st2" d="M1221.2,878.5c0.2-1.1,0.9-2.3,2.2-3.3C1223.1,876.2,1222.5,877.3,1221.2,878.5z"/>
<path class="st2" d="M1249.8,847.8c0.3-1,1.1-2,2.2-3.1C1251.8,845.6,1251,846.6,1249.8,847.8z"/>
<path class="st2" d="M1252.9,844.5c0.2-0.8,0.8-1.5,2.1-2.1C1254.8,843.2,1254.2,843.9,1252.9,844.5z"/>
<path class="st2" d="M1210.2,888.4c-0.2-0.3,0.2-0.8,0.9-1.5C1211.3,887.2,1211,887.7,1210.2,888.4z"/>
<path class="st2" d="M1259.1,839.5c-0.3-0.5,0-1.1,0.6-1.6C1260,838.3,1259.7,838.8,1259.1,839.5z"/>
<path class="st2" d="M1257.5,841.1c-0.2-0.5,0-1.1,0.6-1.6C1258.4,840,1258.1,840.4,1257.5,841.1z"/>
<path class="st2" d="M1255.9,842.7c-0.2-0.5,0-1.1,0.6-1.6C1256.9,841.6,1256.6,842.1,1255.9,842.7z"/>
<path class="st9" d="M860.2,123c0.5,0,0.8,0.2,1.3,1.5c1.3,1.8,2.2,2.6,3.3,3.4c0,0,0,0.2,0.2,0.5c1.3,0.7,2.2,1,3.2,1.1
	c0.5,0,0.8,0.2,1.3,1.5c1.3,1.8,2.2,2.6,3.3,3.4c0,0-0.2,0,0,0.3c0.6,0.2,0.9,0,1.4-0.2c35,29.7,69.9,59.6,104.9,89.4
	c11.7,10.1,23.5,20,35,30.2c3.9,3.4,6.9,8,10.7,11.5c5.5,5.4,4.4,10.9,0,16.9c-1.6,0.8-1.9,1.3-2.4,1.8c0,0,0-0.2-0.8-0.2
	c-4.6,0-8.5-0.2-12.5,0c-8.2,0.3-16.4,1-24.6,1.5c0,0-0.6,0.2-1.6,0.5c-1.1,3.6-1.6,6.7-1.7,9.9c-0.2,37.7-0.2,75.4-0.5,113.6
	c-0.6,1.8-0.8,3.3-0.9,4.7c0,0-0.2,0-0.5,0c-0.6,0.7-0.9,1.1-1.3,1.6c0,0,0-0.2-0.6-0.2c-2.8,1-5,2.1-7.3,3.1
	c-0.8,0-1.4,0.2-2.8-0.6c-3.6-1.3-6.5-2.4-9.5-2.4c-78.5,0-156.9,0-235.5,0c0,0,0.2-0.2,0-0.5c-0.6-0.6-1.1-1-1.6-1.1
	c0,0,0.2,0,0-0.5c-0.6-0.7-1.1-1-1.6-1.1c0,0,0.2-0.2,0.2-0.8c0-39.7,0-78.5-0.2-117.5c0-2.9-2.1-5.7-3.2-8.6c0,0,0.2,0-0.3-0.5
	c-13.9-1.1-27.3-2-40.7-2.6c0,0,0-0.2-0.2-0.5c-0.6-0.7-1.1-1-1.6-1.3c0,0,0.2,0,0.2-0.7c0-4.1,0-7.5-0.2-10.9c0,0,0.2,0.2,0.5-0.2
	c0.6-1.3,0.8-2.1,1.1-3.1c0,0,0.2,0,0.5-0.2c0.6-0.7,0.9-1.1,1.3-1.5c0,0,0,0.2,0.3,0c0.6-0.6,0.9-1.1,1.3-1.6c0,0,0,0.2,0.5,0.2
	c1.3-0.6,1.9-1.1,2.7-1.8c0,0,0,0.2,0.3,0c0.6-0.6,0.9-1.1,1.1-1.6c0,0,0.2,0,0.5-0.2c0.6-1,0.8-1.6,1.1-2.3
	c19.7-17.6,39.4-35.1,59.3-52.5c25.9-22.6,51.7-45,77.6-67.3c4.7-4.1,9.8-8,15.5-12.4c1.3-1,1.7-1.5,2.2-2c0,0,0,0.2,0.5,0
	c1.3-0.7,1.9-1.1,2.7-1.8c0,0,0,0.2,0.8,0.2C849.4,122,854.9,122.5,860.2,123 M964,264.5c0,0,0,0,0.9-0.2c0.8-0.7,1.4-1.3,2.8-2.6
	c0.9-0.2,1.7-0.3,3.5,0.5c2.8-0.3,5.5-0.5,9.1-1.3c-1.6-2-2.8-4.2-4.6-5.9c-7.7-6.8-15.8-13.5-23.5-20.2
	c-34.1-29.1-68-58.2-102.3-87.6c-2.8,2.3-5.4,4.1-7.7,6.2c-39.3,34-78.5,68.1-117.6,102.2c-1.6,1.3-2.1,3.7-2.2,6.5
	c3.3,0.2,6.6,0.3,9.9,0.5c0,0,0,0,0.3,0.6c0.8-0.2,1.7-0.3,3.5-0.2c1.3,1.5,2.5,2.9,2.8,5.5c-0.2,39.8-0.3,79.5-0.3,119.3
	c0,1.6,1.9,3.1,3.8,4.7c0,0,0.8-0.2,1.9,0c0.8,0,1.4,0,3.6,0c8.8,0,17.8,0,28.1,0c1.7,0,3.5,0,6.6,0c2.5-0.2,5-0.3,8-0.5
	c0-3.9,0-7.2,0-10.4c0.2-31,0.3-62.1,1.1-93.8c1.6-2,3.2-3.9,5.5-6.2c0.3-0.5,0.8-1,1.1-1.3c0,0,0,0,0.8,0c0.8-0.6,1.4-1.1,2.8-2.4
	c0.9-0.2,1.9-0.5,3.6,0.3c29.6,0.2,59.5,0.3,89.1,0.5c0.9,0,1.7-0.8,3.8-1.3c2.7,1.6,5.4,3.3,8.4,5.7c0.6,0.8,1.3,1.5,1.9,2.1
	c0,0-0.2,0-0.2,1.1c0,0.8,0,1.5-0.9,3.1c-0.2,33.2-0.3,66.5-0.5,99.6c0,1.1,1.1,2.3,2.7,3.4c0.6,0,1.3,0,3.3,0c2.2,0,4.4,0,8.2,0
	c12.5,0,24.9,0,38.6-0.8c0.3-2.1,0.8-4.2,0.8-6.3c0-38.8,0-77.7,0-116.4c0,0,0,0,0.8-0.7c0.3-1,0.5-2,0.8-2.8c0,0-0.2,0,0.6-0.3
	C963.4,265.3,963.7,264.9,964,264.5 M883.4,303.5c-22.4,0-44.6,0-67.8,0c0,5.2,0,9.1-0.8,13.8c0.3,2.4,0.5,4.7,0.9,8.6
	c0,2.3-0.2,4.7-0.9,7.5c0.3,1.3,0.5,2.8,0.9,5.5c0,3.9-0.2,7.8-1.1,12.7c0.3,13.2,0.6,26.3,1.7,40.5c22.9,0.2,45.6,0.5,69.5-0.2
	c0.3-0.8,0.6-1.5,0.6-2.3c0-27.1,0.2-54.3,0-81.4C886.6,306.8,885.5,305.2,883.4,303.5z"/>
<path class="st10" d="M1158.3,496.9c8.5,8,9,9.9,2.7,19.2c-0.8,1.1-1.1,1.6-1.3,2.1c0,0,0-0.2-0.6-0.2c-169.1,0-337.3,0-505.6,0
	c0,0,0.2,0-0.2-0.5c-1.1-0.6-1.9-1-2.7-1.1c-4.3-6.8-5.7-13.3,2.8-19.3C822.4,496.9,990.4,496.9,1158.3,496.9z"/>
<path class="st10" d="M650,588.6c0,0-0.3,0,0.2-0.5c0.8-1,1.1-1.5,1.4-2.1c0,0,0,0.2,0.8,0.2c33,0,65.3,0,97.6,0
	c135.9,0,272,0,408-0.2c0,0,0,0,0,0.5c6.3,11.9,3.8,19.5-10.4,19.3c-160.2-0.5-320.5-0.3-480.7-0.3c-2.7,0-5.4-0.5-7.9,0.2
	c-5.5,1.5-8-1.8-9-6.3C649.4,596.2,650,592.3,650,588.6z"/>
<path class="st10" d="M916.9,795.9c3.2,6.5,0.9,11.2-5.8,14.8c-81.5-0.2-161.8,0-242.1,0c0,0,0.2,0-0.2-0.5c-0.9-0.7-1.6-1-2.2-1.1
	c-3.3-4.7-7.3-9.4-1.9-16.3c0.8-1,1.1-1.5,1.3-1.8c0,0,0,0.2,0.3,0c0.6-0.7,0.9-1.1,1.3-1.6c0,0,0,0.2,0.5,0.2
	c1.3-0.7,2.1-1.1,2.7-1.6c0,0,0,0.2,0.6,0.2c80.1,0,159.6,0,239.1,0c0,0-0.2,0,0,0.3c0.6,0.7,1.1,1,1.6,1.3c0,0-0.2,0,0,0.5
	c1.1,1.1,2.1,2,3.2,2.8c0,0-0.2,0,0,0.5C915.8,794.3,916.4,795.1,916.9,795.9z"/>
<path class="st10" d="M923,693.4c-0.3,0.5-0.5,1-1.7,1.6c-2.2,0.7-3.5,1.3-5.4,1.8c-88.6,0-176.5,0-264.3,0c0,0,0.2,0.2,0-0.5
	c-4.7-9.6-2.8-17.6,4.3-18.9c5.4-1,10.9-1.6,16.2-1.6c75.9-0.2,151.7-0.2,227.6,0c5.7,0,11.5,0.3,17,1.8c2.5,0.7,4.9,4.2,6,7
	C923.8,687,923,690.5,923,693.4z"/>
<path class="st2" d="M649.6,589.1c0.5,3.3-0.2,7.2,0.6,10.6c0.9,4.6,3.5,7.8,9,6.3c2.5-0.7,5.2-0.2,7.9-0.2
	c160.2,0,320.5-0.2,480.7,0.3c14,0,16.7-7.6,10.4-19.5c2.4,2.9,7.3,7,6.8,10.1c-0.8,4.6-4.7,9.1-8.4,12.4c-1.9,1.8-6,1.3-9.1,1.3
	c-161.6,0-323.1,0-484.8,0c-2.8,0-5.8-0.2-8.5-1.3C645.3,605.8,643.2,597,649.6,589.1z"/>
<path class="st2" d="M1158,585.5c-135.9,0.7-271.9,0.8-408,0.8c-32.3,0-64.7,0-97.6,0c2.4-1.1,5.4-3.1,8.4-3.1
	c163.2-0.2,326.4-0.2,489.7,0C1152.9,583,1155.3,584.2,1158,585.5z"/>
<path class="st2" d="M923.5,693.2c-0.5-2.9,0.3-6.2-0.8-8.8c-1.1-2.8-3.5-6.3-6-7c-5.5-1.5-11.4-1.8-17-1.8
	c-75.9-0.2-151.7-0.2-227.6,0c-5.5,0-10.9,0.7-16.2,1.6c-7.1,1.3-9,9.4-4.3,19c-5.5-2.3-7.1-7.3-5.8-13c1.4-6,5.7-9.6,11.7-10.6
	c1.7-0.3,3.6-0.2,5.5-0.2c82.5,0,165,0,247.4-0.2c7.6,0,14,1.8,15.9,9.9C927.1,685.7,924.9,689.6,923.5,693.2z"/>
<path class="st4" d="M653.7,518.7c168-0.7,336.4-0.7,505.4-0.7c-2.1,0.7-4.7,1.6-7.4,1.6c-164,0-328,0-492.2,0
	C657.6,519.8,655.7,519.5,653.7,518.7z"/>
<path class="st4" d="M1157.8,496.3c-167.5,0.7-335.4,0.7-504.2,0.7c1.9-0.7,4.6-1.6,7.3-1.6c162.9,0,325.8,0,488.6,0
	C1152.2,495.1,1154.8,495.6,1157.8,496.3z"/>
<path class="st2" d="M722.9,416.3c78.2-0.6,156.8-0.6,235.3-0.6c2.8,0,5.8,1.1,8.8,2.4c-78.7,0.8-157.5,0.8-236.6,0.8
	C728.1,418.9,725.6,417.6,722.9,416.3z"/>
<path class="st4" d="M652.1,697.3c87.4-0.5,175.2-0.5,263.8-0.2c0.8,0.7,0.8,1,0.8,1.3c-34.1,0.2-68.1,0.3-102.2,0.3
	c-50.6,0-101.2,0-151.9,0C659.3,698.7,655.9,698.3,652.1,697.3z"/>
<path class="st2" d="M716.4,286.5c0.9,2.1,3,4.9,3,7.8c0.2,38.8,0.2,77.8,0.2,117.5c-1.1-2.9-2.8-6.7-2.8-10.4
	C716.4,363.3,716.6,325.3,716.4,286.5z"/>
<path class="st4" d="M669.4,811c79.8-0.5,159.9-0.5,241-0.5c-1.9,0.7-4.6,1.6-7.4,1.6c-75.4,0.2-150.8,0.2-226.1,0.2
	C674.6,812.3,672.3,811.8,669.4,811z"/>
<path class="st4" d="M910.1,787.3c-79,0.5-158.5,0.5-238.8,0.5c1.3-0.5,3.2-1.5,5-1.5c76.6,0,153.4,0,230.1,0
	C907.6,786.3,908.5,786.7,910.1,787.3z"/>
<path class="st4" d="M981.2,409.2c0-37.7,0-75.4,0.2-113.3c0-3.3,0.5-6.3,1.3-9.9c0.5,40.3,0.3,80.9-0.2,122.4
	C982,409.2,981.2,409.2,981.2,409.2z"/>
<path class="st2" d="M675.6,283.1c13.1,0.2,26.5,0.8,40.4,2.1c-10.1,0.5-20.8,0.6-31.4,0.5C681.7,285.7,678.7,284.4,675.6,283.1z"/>
<path class="st2" d="M985.3,285.7c7.4-0.7,15.6-1.1,24-1.6c3.9-0.2,7.9,0,12.5,0c-5.8,0.7-12.5,1.3-19.1,1.6
	C997.1,285.8,991.6,285.7,985.3,285.7z"/>
<path class="st2" d="M859.9,122.7c-5,0-10.6-0.7-16.7-1.1C848.4,115.2,853.9,118.9,859.9,122.7z"/>
<path class="st2" d="M673.2,269.4c0.6,3.3,0.6,6.7,0.6,10.7C673.4,277.2,673.1,273.3,673.2,269.4z"/>
<path class="st2" d="M971,418.9c1.7-1.1,3.9-2.1,6.8-3.1C976,416.8,973.8,417.9,971,418.9z"/>
<path class="st2" d="M980.9,409.5c0.5-0.3,1.1-0.3,1.6-0.3c-0.3,1.5-0.9,3.1-2.1,4.9C980.1,412.7,980.3,411.3,980.9,409.5z"/>
<path class="st2" d="M917.3,698.6c-0.5-0.3-0.5-0.7-0.6-1.3c1.3-1,2.5-1.5,4.3-2.1C920.2,696.3,919.1,697.4,917.3,698.6z"/>
<path class="st2" d="M872.7,133.9c-1.1-0.3-2.1-1.1-3.2-2.6C870.5,131.6,871.6,132.4,872.7,133.9z"/>
<path class="st2" d="M864.8,127.4c-1.1-0.3-2.2-1.1-3.2-2.6C862.8,125.1,863.7,125.9,864.8,127.4z"/>
<path class="st4" d="M915.4,792c-1.1-0.2-2.1-1-3.2-2.3C913.2,790.1,914.3,790.7,915.4,792z"/>
<path class="st4" d="M670.2,787.6c-0.3,0.5-1.1,1.1-2.4,1.6C668.2,788.8,669,788.3,670.2,787.6z"/>
<path class="st4" d="M916.9,795.4c-0.5-0.2-1.1-1-1.6-2.3C915.8,793.3,916.2,794.1,916.9,795.4z"/>
<path class="st2" d="M674.8,266.2c0.3,0.8,0,1.8-0.6,2.9C673.8,268.4,674.2,267.5,674.8,266.2z"/>
<path class="st2" d="M867.8,129.2c-0.6,0.2-1.6,0-2.8-0.8C865.6,128.2,866.6,128.5,867.8,129.2z"/>
<path class="st2" d="M681.3,261c-0.3,0.8-0.9,1.3-2.2,2C679.2,262.1,680,261.4,681.3,261z"/>
<path class="st2" d="M842,121.2c-0.3,0.8-0.9,1.3-2.2,1.8C840.1,122.3,840.9,121.7,842,121.2z"/>
<path class="st4" d="M650.5,517.1c0.8-0.3,1.6,0,2.7,0.7C652.4,517.9,651.4,517.7,650.5,517.1z"/>
<path class="st2" d="M1023,284c0-0.5,0.5-1,1.4-1.5C1024.4,283.1,1023.9,283.5,1023,284z"/>
<path class="st4" d="M912.1,788.9c-0.5,0.2-0.9-0.2-1.6-0.8C911,788,911.7,788.1,912.1,788.9z"/>
<path class="st2" d="M978.7,415.7c-0.2-0.3,0.2-0.8,0.8-1.5C979.6,414.7,979.3,415.2,978.7,415.7z"/>
<path class="st2" d="M839,123c0,0.5-0.3,1-1.3,1.5C837.5,124.1,838,123.6,839,123z"/>
<path class="st2" d="M721,414.5c0.5-0.2,0.9,0.2,1.4,0.8C722.1,415.5,721.6,415.3,721,414.5z"/>
<path class="st2" d="M719.4,412.9c0.5-0.2,0.9,0.2,1.4,0.8C720.5,413.9,720.1,413.7,719.4,412.9z"/>
<path class="st4" d="M1160,518c-0.2-0.3,0.2-0.8,0.6-1.5C1160.8,516.9,1160.7,517.4,1160,518z"/>
<path class="st2" d="M673.8,281.3c0.3-0.2,0.8,0.2,1.4,0.8C674.9,282.2,674.3,281.9,673.8,281.3z"/>
<path class="st4" d="M666.9,809.4c0.3-0.2,0.9,0.2,1.9,0.8C668.5,810.4,667.9,810.1,666.9,809.4z"/>
<path class="st2" d="M678.1,262.9c0.2,0.3-0.2,0.8-0.8,1.5C677.2,264,677.5,263.4,678.1,262.9z"/>
<path class="st2" d="M682.7,259.5c0.3,0.5,0,1-0.8,1.6C681.7,260.6,682,260,682.7,259.5z"/>
<path class="st2" d="M684.3,257.4c0.3,0.3,0,1-0.6,2C683.5,259,683.6,258.4,684.3,257.4z"/>
<path class="st4" d="M665.6,791c0.2,0.3-0.2,0.7-0.6,1.1C664.7,791.9,664.9,791.5,665.6,791z"/>
<path class="st2" d="M873.8,134.2c-0.2,0.3-0.5,0.5-1.1,0.3C872.7,134.2,873.5,134,873.8,134.2z"/>
<path class="st2" d="M651.1,586.3c0.2,0.5-0.2,1-0.9,1.8C650,587.8,650.3,587.1,651.1,586.3z"/>
<path class="st4" d="M667.1,789.4c0.2,0.3-0.2,0.8-0.9,1.5C666.1,790.6,666.4,790.1,667.1,789.4z"/>
<path class="st2" d="M676.5,264.5c0.2,0.3-0.2,0.8-0.8,1.5C675.6,265.7,675.9,265,676.5,264.5z"/>
<path class="st0" d="M1244.3,477.4c-0.5-0.8-0.8-2.1-0.9-3.3c0.3,0,0.6-0.2,1.1-0.2C1244.3,475.1,1244.4,476.1,1244.3,477.4z"/>
<path class="st8" d="M1199.3,809.2c2.7,0.3,5.7,1,8.8,2.3C1205.6,811.4,1202.6,810.5,1199.3,809.2z"/>
<path class="st8" d="M1185,803.1c1.9,0.2,3.8,0.8,6,2.1C1189.1,804.9,1187,804.2,1185,803.1z"/>
<path class="st8" d="M1208.8,812.5c1.1-0.2,2.5,0,4.3,0.7C1211.9,813.5,1210.5,813.1,1208.8,812.5z"/>
<path class="st8" d="M1174.1,799.5c1.1-0.2,2.5,0,4.3,0.8C1177.2,800.5,1175.8,800.1,1174.1,799.5z"/>
<path class="st8" d="M1178.8,801.1c1.1-0.2,2.5,0.2,4.6,0.8C1182.3,802.1,1180.7,801.9,1178.8,801.1z"/>
<path class="st8" d="M1191.4,806c1.1-0.2,2.5,0,4.3,0.8C1194.6,807,1193.2,806.6,1191.4,806z"/>
<path class="st8" d="M1196.2,807.6c0.8-0.2,1.7,0,2.8,0.8C1198.2,808.6,1197.3,808.3,1196.2,807.6z"/>
<path class="st8" d="M1344.7,354.7c0.5-1.1,0.8-2,1.3-3.2c1.1-2.3,2.2-4.3,3.8-6.3c0.2,1.9,0.5,4.3-0.6,6c-3.6,5.2-1.4,8.2,4.1,10.8
	c-2.5,0-5.2-0.6-8.5-1.1c-0.9-0.6-1.3-1.3-1.7-2.2C1343.5,357.1,1344.1,356.1,1344.7,354.7z"/>
<path class="st8" d="M1350.5,340c0.6-1.6,1.1-2.7,1.7-4.3c0.6-1.4,1.3-2.3,2.4-3.4c-0.9,3.9-2.2,8-3.9,12.5
	C1350.4,343.5,1350.4,342,1350.5,340z"/>
<path class="st8" d="M1386.5,357.2c-0.8,1.6-1.4,2.6-2.5,3.9c0.9-3.6,2.4-7.6,4.4-11.6C1388.2,351.8,1387.3,354.2,1386.5,357.2z"/>
<path class="st8" d="M1355.3,328.6c0-0.6,0.6-0.7,0.9-0.7c0.2,1.3,0,2.6-0.8,4.2C1355.1,331.1,1355.1,330,1355.3,328.6z"/>
<path class="st8" d="M1390.9,343.6c0.3,0.7,0,1.6-0.5,2.7C1390.3,345.6,1390.3,344.6,1390.9,343.6z"/>
<path class="st6" d="M1196,703.5c-0.2-1.1,0-2,1.1-3.3c3.3-8,5.7-15.4,8-22.9c0,0,0.2,0.2,0.5-0.2c0.6-1.8,0.8-3.3,1.1-4.7
	c0,0,0,0.2,0.5-0.2c2.8-7.6,5-15.1,7.4-22.6c0,0,0,0.2,0.5-0.2c2.7-7.6,5-15.1,7.4-22.6h-0.2c3.2-8.8,6.5-17.6,9.6-27.1
	c0-0.7,0-0.7,0.5-0.8c1.3-1.3,2.2-2.3,2.7-3.4c6.5-18.9,12.9-37.7,19.2-56.6c1.9-5.9,3-11.9,4.4-17.7c0,0,0.2,0.2,0.6-0.2
	c3.8-10.9,7.1-21.6,10.6-32.3h-0.2c1.1-1.1,2.7-2,3.2-3.3c6.5-19,12.8-38.2,18.9-57.4c0.3-1,0.2-2.1,0-3.9c0-0.7,0-0.7,0.5-0.8
	c0.6-1.1,0.9-2.1,1.1-2.9c0,0,0.2,0,0.5-0.3c2.2-6.7,3.9-13,5.8-19.3c0,0,0.2,0.2,0.5-0.2c0.6-1.8,0.8-3.3,1.1-4.7
	c0,0,0,0.2,0.5-0.2c0.6-1.1,0.9-2.1,1.1-3.1h-0.2c2.8-7.2,5.5-14.1,8.4-21.3c1.3-2.9,2.5-5.9,4.1-9.3c20.3,7.5,40.7,14.8,61,22.1
	c2.4,0.8,4.9,1.3,8,2.1c3,1.5,5.4,2.9,8.2,4.7c-3,10.4-6,21-9,32.2c0,0.7,0,0.7-0.5,0.8c-3.8,10.4-7.3,20.5-10.6,30.7
	c0,0-0.2-0.2-0.5,0.2c-2.7,7.2-5,14.1-7.3,21c0,0-0.2,0-0.5,0.3c-1.1,3.4-1.9,6.5-2.7,9.4c0,0,0-0.2-0.5,0.2
	c-0.6,1.8-0.9,3.3-1.1,4.7c0,0,0-0.2-0.5,0.2c-0.6,1.3-0.9,2.3-1.1,3.1c0,0,0,0.8-0.6,1.5c-2.2,6.5-3.9,12.4-5.7,18.2
	c0,0,0,0.7-0.5,1.3c-0.6,1.6-0.8,2.4-1.1,3.4c0,0,0-0.2-0.5,0.2c-4.9,13.7-9.3,27.1-13.7,40.5c0,0-0.2-0.2-0.5,0.2
	c-2.2,6-3.9,11.9-5.8,17.7c0,0-0.2-0.2-0.6,0.2c-2.7,7.6-5,15.1-7.4,22.6c0,0-0.2-0.2-0.5,0.2c-0.6,1.8-0.8,3.3-1.1,4.7
	c0,0,0-0.2-0.5,0.2c-2.4,4.6-4.6,8.9-6,13.3c-3.8,11.7-7.3,23.4-10.7,35.3c0,0-0.2,0-0.5,0.2c-0.6,1.8-0.8,3.3-1.1,4.7
	c0,0,0-0.2-0.5,0.2c-0.6,1.1-0.9,2.1-1.1,3.1c0,0-0.2,0-0.5,0.3c-1.7,4.6-3,8.6-4.3,12.8c0,0-0.2,0-0.5,0.3
	c-2.2,6.7-3.9,12.8-5.8,19.2c0,0-0.2-0.2-0.5,0.3c-0.6,2-0.8,3.6-1.1,5c0,0,0,0.5-0.6,0.8c-1.9,4.1-3,7.8-4.1,11.7h0.2
	c-2.5,5.7-5.7,11.2-7.7,17.1c-6.6,18.7-12.9,37.5-19.4,57c-2.8,12.5-10.6,12-20,8.9c-0.6,0-0.6,0-0.8-0.5c-11-4.6-21.9-8.5-33-12.5
	v0.2c-7.4-3.3-14.7-6.5-21.9-9.8c-1.4-0.7-2.7-1.3-4.7-2.4c4.9-14.1,9.8-28,14.4-41.9C1192.2,719.5,1194.3,711.6,1196,703.5z"/>
<path class="st8" d="M1336.7,548.6c3.9-11.6,8.4-23.5,13.2-35.6c-1.1,5-2.8,10.3-4.6,16.2c-1.6,4-3.2,7.5-4.7,11.5
	c-0.6,1.6-1.1,2.7-1.6,4.3C1338.4,546.6,1337.8,547.5,1336.7,548.6z"/>
<path class="st8" d="M1365.2,475.6c1.9-6,4.1-12.2,6.9-18.5c-0.2,2.3-0.6,4.7-1.4,7.6c-1.1,3-2.2,5.6-3.2,8.6
	C1366.8,474.5,1366.2,475,1365.2,475.6z"/>
<path class="st8" d="M1352.4,508.5c1.3-4.9,3-10,5.2-15.4C1356.4,498,1354.6,503,1352.4,508.5z"/>
<path class="st8" d="M1362.1,484.1c0.3-2.4,0.9-5.2,2.2-8.2C1364,478.3,1363.2,481.1,1362.1,484.1z"/>
<path class="st8" d="M1360.3,488.4c-0.2-1,0-2.3,0.8-3.9C1361.3,485.5,1361.1,486.8,1360.3,488.4z"/>
<path class="st8" d="M1358.7,491.4c-0.2-0.6,0.2-1.4,0.8-2.6C1359.7,489.4,1359.4,490.3,1358.7,491.4z"/>
<path class="st8" d="M1350.9,512.8c-0.2-0.6,0-1.4,0.6-2.4C1351.7,510.9,1351.5,511.8,1350.9,512.8z"/>
<path class="st8" d="M1289.5,693.4c1.3-6,3.2-12.4,5.4-18.9C1293.5,680.4,1291.7,686.7,1289.5,693.4z"/>
<path class="st8" d="M1295.8,674c0.8-4.1,2.1-8.3,3.8-12.7c0.5,1.3,0.3,3.1,0.2,5.4c-0.6,2-1.1,3.1-1.7,4.9
	C1297.4,672.7,1296.8,673.4,1295.8,674z"/>
<path class="st8" d="M1283.1,711.3c0.8-3.6,1.9-7.3,3.6-11.2c0,2.1-0.6,4.4-1.3,7.2C1284.8,709,1284.2,710.1,1283.1,711.3z"/>
<path class="st8" d="M1287.8,698.6c-0.2-1.1,0-2.8,0.8-4.7C1288.7,695.2,1288.4,696.6,1287.8,698.6z"/>
<path class="st8" d="M1299.5,401.2c-1.4,6.2-3.2,12.4-5.4,19c0.2-3.4,0.9-7.2,1.9-11.4c0.5-1.5,0.8-2.3,1.3-3.7
	C1297.7,403.5,1298.3,402.3,1299.5,401.2z"/>
<path class="st8" d="M1301,396.3c0.2,1.1,0,2.6-0.8,4.4C1300.1,399.6,1300.2,398.1,1301,396.3z"/>
<path class="st8" d="M1302.4,393.1c0.2,0.8,0,1.6-0.8,2.9C1301.5,395.2,1301.8,394.2,1302.4,393.1z"/>
<path class="st8" d="M1258.4,521.4c-1.1,5.7-2.1,11.7-4.1,17.6c-6.3,19-12.8,37.7-19.2,56.6c-0.5,1.1-1.4,2.1-2.7,3.4
	c0.6-4.1,1.7-8.5,3-13.5c0.6-2,1.1-3.1,1.6-5c2.1-6.2,4.1-11.7,6.2-17.9c0.6-2,1.1-3.1,1.6-4.9c0.5-1.8,1.1-3.1,1.6-4.9
	c0.6-1.8,1.1-3.1,1.6-4.9c2.1-6,4.1-11.7,6.3-17.9c0.6-2,1.1-3.1,1.6-4.9C1256.7,523.7,1257.3,522.6,1258.4,521.4z"/>
<path class="st8" d="M1269.5,488.9c-3,10.4-6.3,21.1-10.1,32.2c1.7-7.3,3.9-15,6.2-23.2c0.6-2,1.1-3.1,1.6-4.9
	C1267.8,491.2,1268.4,490.2,1269.5,488.9z"/>
<path class="st8" d="M1322.5,584.5c1.9-6.5,4.1-12.9,6.9-19.8c-1.1,5-2.8,10.3-4.6,16.2C1324.2,582.5,1323.6,583.5,1322.5,584.5z"/>
<path class="st8" d="M1330.4,564.4c1.4-5,3.2-10,5.4-15.5c-0.6,3.6-1.7,7.5-3,11.9C1332.1,562.4,1331.5,563.4,1330.4,564.4z"/>
<path class="st8" d="M1204.8,677.5c-2.1,7.3-4.4,14.8-7.4,22.4c1.3-5.9,3.2-11.9,5-18.4C1203.1,679.7,1203.7,678.6,1204.8,677.5z"/>
<path class="st8" d="M1214.3,649.8c-1.9,7.2-4.3,14.6-6.9,22.4c0.6-4.2,1.7-8.5,3-13.5c0.6-1.8,1.1-3.1,1.7-4.9
	C1212.6,652.1,1213.2,651.1,1214.3,649.8z"/>
<path class="st8" d="M1206.4,672.6c0.2,1.1,0,2.6-0.8,4.4C1205.5,675.8,1205.6,674.4,1206.4,672.6z"/>
<path class="st8" d="M1293,420.7c0.2,0.8,0,1.6-0.8,2.9C1292.2,422.8,1292.4,421.8,1293,420.7z"/>
<path class="st8" d="M1303.6,631.9c3.2-10.2,6.6-20.7,10.3-31c1.4-4,3.6-7.7,6.2-11.8c-0.2,2.3-0.8,4.7-1.4,7.6
	c-0.6,1.6-1.1,2.7-1.7,4.3c-1.7,4.3-3.3,8.2-5,12.6c-0.5,1.3-0.9,2-1.3,3.2c-1.6,3.9-3,7.5-4.6,11.5
	C1305.3,629.9,1304.7,630.9,1303.6,631.9z"/>
<path class="st8" d="M1302,657.6c-0.2-1.1,0-2.6,0.8-4.4C1302.9,654.4,1302.8,655.8,1302,657.6z"/>
<path class="st8" d="M1300.6,660.9c-0.2-0.8,0-1.6,0.8-2.9C1301.3,658.8,1301.2,659.7,1300.6,660.9z"/>
<path class="st8" d="M1222.2,627.1c-1.9,7.2-4.1,14.6-6.9,22.4c0.6-4.2,1.7-8.5,3-13.5c0.6-2,1.1-3.1,1.6-4.9
	C1220.4,629.4,1221.1,628.4,1222.2,627.1z"/>
<path class="st8" d="M1320.9,588.8c-0.2-1,0-2.3,0.8-3.9C1321.8,585.9,1321.7,587.2,1320.9,588.8z"/>
<path class="st8" d="M1202.1,781.9c10.9,3.6,21.8,7.5,33,12c-2.5-0.2-5-0.8-8.4-1.5c-1.7-0.7-3-1.1-4.7-1.8
	c-4.4-1.6-8.2-3.1-12.6-4.7c-1.7-0.7-3-1.1-4.7-1.8C1203.4,783.6,1202.8,782.9,1202.1,781.9z"/>
<path class="st8" d="M1372.9,456.8c3-8.8,6.3-17.8,10.1-27c-0.2,2.3-0.8,4.7-1.4,7.6c-0.6,1.6-1.1,2.7-1.7,4.3
	c-1.1,2.9-2.2,5.5-3.3,8.3c-0.5,1.3-0.8,2-1.3,3.2C1374.7,454.8,1374,455.7,1372.9,456.8z"/>
<path class="st11" d="M804.9,277.7c-0.9,0.2-1.9,0.5-3.5,1.1c-1.6,1-2.2,1.5-3,2c0,0,0,0-0.3,0.2c-0.8,0.5-1.1,1-1.6,1.5
	c-1.6,2-3.2,3.9-5.7,6.7c-1.3,13.3-1.7,26-1.9,38.7c-0.2,20.8,0,41.6,0,62.2c-3,1.1-5.4,2-7.7,2.9c-1.7,0-3.5,0-6.3-0.3
	c-10.3-0.2-19.2,0.2-28.4,0.5c-0.8,0-1.4,0-2.7-0.7c-1.1-11.5-1.6-22.4-2.2-33.8c0-1.3,0-2,0.5-3.3c0.6-27.8,0.8-55.1,0.9-82.6
	c0-1-1.3-2.1-2.2-3.3c-0.5-0.5-0.8-1-0.9-1.3c-1.3-1.5-2.5-2.9-4.7-4.7c-1.6-0.3-2.2-0.3-3-0.3c0,0,0,0-0.5-0.5
	c-3.8-0.7-7.1-0.7-10.4-0.8c0.9-2,1.6-4.4,3.2-5.7c39.1-34.1,78.4-68.1,117.6-102.2c2.4-2.1,4.9-3.9,7.7-6.2
	c34.2,29.3,68.3,58.5,102.3,87.6c7.9,6.7,15.8,13.3,23.5,20.2c1.9,1.6,3.2,3.9,3.6,6c-3.6,0.2-6.3,0.2-8.8,0.3
	c-0.9,0.2-1.7,0.3-3.5,1c-1.6,1-2.4,1.6-3,2.1c0,0,0,0-0.3,0.2c-0.6,0.6-0.9,1-1.3,1.5c0,0,0.2,0-0.3,0c-0.3,0-1.1,0.2-1.7,0.2
	c-1.9,3.6-4.1,7.2-4.1,10.7c-0.3,33.8-0.2,67.6-0.2,101.4c0,12.4-0.5,12.7-12.9,13c-7.7,0.2-15.5,1-23.2,1.5c-2.2,0-4.4,0-7.4-0.7
	c-0.6-32.3-0.5-63.9-0.8-95.4c0-3.7-2.1-7.3-3.2-11.1c0,0,0.2,0,0-0.5c-0.8-1.1-1.4-2-2.2-2.6c-2.7-1.6-5.4-3.3-9.1-4.9
	C865.8,277.7,835.3,277.7,804.9,277.7z"/>
<path class="st12" d="M884.8,392.9c-22.9-0.2-45.6-0.5-68.8-2c-0.5-14.3-0.5-27.1-0.5-40.1c0-3.9,0.2-7.8,0.2-13
	c0-2.4-0.2-3.6-0.2-4.9c0-2.3,0.2-4.7,0.2-8.3c0-3.6-0.2-5.7-0.2-8c0-4.1,0-8,0-13.2c23.2,0,45.4,0,68.6,0.8
	C884.8,334.4,884.8,363.7,884.8,392.9 M841.8,391.3c10.6,0,21-0.2,31.5,0c6.2,0.2,9-2.1,8.8-9.1c-0.3-23.2-0.3-46.5,0-69.7
	c0-5.5-1.4-7.6-7.1-7.5c-16.2,0.3-32.5,0.3-48.7,0c-6-0.2-7.6,2.1-7.4,8c0.3,22.9,0.3,46,0,68.9c-0.2,6.8,1.7,10.2,8.8,9.4
	C831.9,391,836.1,391.3,841.8,391.3z"/>
<path class="st12" d="M920.6,392.7c6.9-0.5,14.7-1.3,22.4-1.5c12.5-0.3,12.9-0.7,12.9-13c0-33.8-0.2-67.6,0.2-101.4
	c0-3.6,2.4-7.2,3.9-10.2c0.5,1.1,0.5,1.8,0.5,2.6c0,0,0,0-0.5,0.5c-0.8,3.6-1.1,6.8-1.3,9.9c-0.2,37.7-0.2,75.4-0.2,113.1
	C946.4,392.9,933.9,392.9,920.6,392.7z"/>
<path class="st2" d="M739.4,268.4c0.6-0.2,0.9,0.3,1.6,1.6c0.5,29.1,0.6,57.4,0.8,85.5c0,0.8,0,1.5-0.2,3.6c0,12.2,0,23.1,0.2,34
	c-1.1-1.6-3-3.1-3-4.7C738.7,348.5,738.8,308.7,739.4,268.4z"/>
<path class="st12" d="M908.7,286.3c1.1,3.1,3.2,6.8,3.2,10.6c0.3,31.5,0.2,63.1,0.2,95.4c-0.6,0.8-1.3,0.8-2.5,0
	c-0.6-34.9-0.6-69.1-0.8-103.2C908.7,288.3,908.7,287.6,908.7,286.3z"/>
<path class="st2" d="M959.4,392.4c-0.5-37.4-0.5-75.1-0.3-112.8c0-3.3,0.5-6.3,1.1-10.1c0.6,38.4,0.6,77.2,0.6,116
	C960.9,387.9,960.4,390,959.4,392.4z"/>
<path class="st12" d="M781.9,392.7c1.7-1,4.1-1.8,7.1-2.9c0-20.6-0.2-41.4,0-62.2c0.2-12.7,0.6-25.4,1.6-38.4
	c0.5,30.7,0.3,61.8,0.2,92.6c0,3.3,0,6.3,0,10.4C787.5,392.6,785,392.7,781.9,392.7z"/>
<path class="st2" d="M908.2,289.4c0.5,33.6,0.6,67.8,0.8,102.7c-0.5-0.3-1.6-1.5-1.6-2.6C907.4,356.3,907.6,323.2,908.2,289.4z"/>
<path class="st2" d="M805.4,278.2c30-0.5,60.4-0.5,91.5-0.5c-0.2,0.5-1.1,1.3-2.1,1.3C865.1,279,835.5,278.8,805.4,278.2z"/>
<path class="st2" d="M885.3,392.4c-0.5-28.9-0.5-58.2-0.5-88.2c0.6,0.8,1.7,2.6,1.7,4.2c0.2,27.1,0,54.3,0,81.4
	C886.6,390.6,886.1,391.3,885.3,392.4z"/>
<path class="st2" d="M815.1,351.3c0.5,12.5,0.5,25.5,0.5,39.2C815.3,378,815,364.8,815.1,351.3z"/>
<path class="st12" d="M742.1,392.9c-0.5-10.9-0.5-21.8-0.5-33.3c0.6,10.1,1.1,21,1.6,32.5C743.2,392.7,742.4,392.9,742.1,392.9z"/>
<path class="st12" d="M747.2,392.7c8.4-0.3,17.5-0.6,27-0.5C765.8,392.7,756.8,392.7,747.2,392.7z"/>
<path class="st2" d="M721.8,262.1c2.8-0.3,6.3-0.2,9.9,0.5C728.9,262.7,725.6,262.6,721.8,262.1z"/>
<path class="st2" d="M970.8,261.9c2.2-0.5,4.9-0.5,8-0.3C976.8,261.8,974,262.1,970.8,261.9z"/>
<path class="st2" d="M815.3,317c0.5,1.8,0.5,4.1,0.5,6.8C815.3,322.2,815.1,319.8,815.3,317z"/>
<path class="st2" d="M815.3,333.1c0.5,0.8,0.5,2.1,0.5,3.7C815.5,336.2,815.1,334.9,815.3,333.1z"/>
<path class="st2" d="M798.7,280.8c0.3-0.5,1.1-1,2.2-1.6C800.8,279.6,800,280.1,798.7,280.8z"/>
<path class="st2" d="M961.2,269.1c-0.5-0.5-0.3-1.1-0.3-2.4c0.2-0.5,0.8-0.7,1.1-0.7C962.1,267,961.8,267.9,961.2,269.1z"/>
<path class="st2" d="M964.5,264.5c0.3-0.5,0.9-1.1,2.2-1.8C966.4,263.2,965.8,263.9,964.5,264.5z"/>
<path class="st2" d="M732.4,263.2c0.5-0.3,1.1-0.3,2.2-0.2C734.2,263.4,733.5,263.4,732.4,263.2z"/>
<path class="st12" d="M906.8,283.1c0.5,0.2,1.3,1,1.9,2.1C908.2,285,907.6,284.2,906.8,283.1z"/>
<path class="st2" d="M796.9,282.2c0-0.3,0.3-0.8,1.1-1.3C798.1,281.1,797.6,281.6,796.9,282.2z"/>
<path class="st2" d="M962.8,266c0-0.3,0.3-0.6,0.9-1.3C963.7,264.9,963.4,265.3,962.8,266z"/>
<path class="st12" d="M742.1,355c-0.6-27.8-0.6-55.9-0.9-84.8c0.5,0.3,1.9,1.3,1.9,2.3C743.1,300,742.8,327.3,742.1,355z"/>
<path class="st11" d="M841,391.3c-5,0-9.1-0.3-13.4,0c-7.1,0.8-9-2.6-8.8-9.4c0.3-22.9,0.3-46,0-68.9c0-5.9,1.4-8.1,7.4-8
	c16.2,0.3,32.5,0.3,48.7,0c5.7-0.2,7.1,2,7.1,7.5c-0.3,23.2-0.3,46.5,0,69.7c0.2,6.8-2.7,9.1-8.8,9.1
	C862.8,391.1,852.4,391.3,841,391.3z"/>
</svg>
