<?xml version="1.0" encoding="utf-8"?>
<!-- Generator: Adobe Illustrator 28.0.0, SVG Export Plug-In . SVG Version: 6.00 Build 0)  -->
<svg version="1.1" id="Layer_1" xmlns="http://www.w3.org/2000/svg" xmlns:xlink="http://www.w3.org/1999/xlink" x="0px" y="0px"
	 viewBox="0 0 1920 1024" style="enable-background:new 0 0 1920 1024;" xml:space="preserve">
<style type="text/css">
	.st0{fill:#D2B272;}
	.st1{fill:#C7A155;}
	.st2{fill:#D2B172;}
	.st3{fill:#FCEFD8;}
	.st4{fill:#F8E0B4;}
	.st5{fill:#FFFBF3;}
	.st6{fill:#FEF6E5;}
</style>
<path class="st0" d="M461.8,436.6c2.2-1.8,4.4-3.6,7.7-5c2,0.6,3,0.8,4.1,0.8c86.3,0,172.5,0,258.9,0c1.9,0,3.9-1.4,5.8-2.1
	c0.2-0.1,0.5-0.3,1.6-1c1.3-2.5,1.7-4.6,1.7-6.5c0-102.9,0-205.6,0-308.5c0-2.2-0.9-4.3-1.4-6.5c3.3-2.8,6.6-5.5,11-7.9
	c2.4,0.6,3.6,0.8,4.9,0.8c130.5,0,261.1,0,391.4-0.1c0,0-0.2,0,0.3,0.4c1.4,0.6,2.5,0.7,3.6,1c0.3,0,0.6,0,0.9,1
	c0.6,1.1,1.1,1.5,1.6,1.9c0,0-0.2,0-0.2,0.6c0,64.8,0,128.8,0.2,193c0,2.2,2,4.4,3.1,6.6c0,0-0.2,0,0.2,0.4c1.1,0.6,2,0.8,3,1
	c0,0-0.2,0,0.2,0.4c1.1,0.6,2,0.8,3,1c0,0-0.2,0,0.2,0.4c1.1,0.6,2,0.8,3,1c0,0-0.2,0,0.2,0.4c1.1,0.6,2,0.8,3,1c0,0-0.2,0,0.2,0.4
	c1.1,0.6,2,0.8,3,1c0,0-0.2,0,0.2,0.4c1.1,0.6,2,0.8,3,1c0,0-0.2,0,0.2,0.4c1.1,0.6,2,0.8,3,1c0,0-0.2,0,0.2,0.4c1.1,0.6,2,0.8,3,1
	c0,0-0.2,0,0.2,0.4c1.1,0.6,2,0.8,3,1c0,0-0.2,0,0.2,0.4c1.1,0.6,2,0.8,3,1c0,0-0.2,0,0.2,0.4c1.1,0.6,2,0.8,3,1c0,0-0.2,0,0.2,0.4
	c1.1,0.6,2,0.8,3,1c0,0-0.2,0,0,0.3c0.6,0.6,1.1,0.8,1.6,1.1c0,0-0.2,0,0.2,0.4c1.7,0.6,3.1,0.8,4.6,1c0,0-0.2,0,0.2,0.4
	c1.1,0.6,2,0.8,3,1c0,0-0.2,0,0.2,0.4c1.1,0.6,2,0.8,3,1c0,0-0.2,0,0.2,0.4c1.1,0.6,2,0.8,3,1c0,0-0.2,0,0.2,0.4c1.1,0.6,2,0.8,3,1
	c0,0-0.2,0,0.2,0.4c2.2,1.1,4.2,1.7,6.1,2.3c0,0-0.2,0,0.2,0.4c1.1,0.6,2,0.8,3,1c0,0-0.2,0,0.2,0.4c1.1,0.6,2,0.8,3,1
	c0,0-0.2,0,0.2,0.4c1.1,0.6,2,0.8,3,1c0,0-0.2,0,0,0.4c7.9,3.5,15.6,6.5,23.3,9.4c51.4,22.4,103,44.7,154.4,67.1
	c8.6,3.7,17.5,7.3,25.8,11.5c3.6,1.8,6.4,5,9.3,8.4c-0.6,2.1-0.9,3.2-0.9,4.3c0,74.4,0,148.8,0,223.4c0,1.9,1.1,3.9,1.6,5.7
	c9.4,6.9,20,12.7,27.8,20.8c7.4,7.7,11.8,17.5,17.1,27.3c0,13.4,0.3,25.8,0.9,38.2c0.2,1.5,3,3,4.6,4.6c0.5,0.1,0.8,0.3,1.3,1.4
	c0.8,1.4,1.3,2.1,1.9,2.6c0,0,0-0.1,0,0.4c0.9,1.1,2,1.8,3,2.5c0,0-0.2,0.1-0.2,0.6c1.1,1.9,2.2,3.5,3.5,4.8c0,0,0,0.1,0,0.4
	c0.5,0.6,0.9,0.8,1.4,1.1c0,0-0.2,0-0.2,0.4c0.6,1.1,1.1,1.7,1.7,2.3c0,0-0.2,0-0.2,0.6c1.1,2.5,2.4,4.6,3.6,6.6c0,0,0,0.3-0.2,1.1
	c-0.2,1.8-0.2,2.8,0,3.7c0.3-0.3,0.6-0.3,1.1,0.6c1.1,1.8,1.9,3,2.8,4.1c0.2,0.7,0.3,1.2,0,2.8c-2.2,15.9-3.9,30.8-5.7,45.7
	c0,0,0-0.1-0.5,0.1c-2.2,3.7-4.1,7.3-5.8,10.9c0,0,0-0.1-0.3,0c-0.6,0.6-0.9,1-1.3,1.4c0,0,0-0.1-0.5,0.1c-0.6,1-0.9,1.8-1.1,2.6
	c0,0,0-0.1-0.5,0.1c-0.6,0.7-0.9,1.1-1.1,1.7c1.6,0.8,3,1.8,4.7,2.5c6.6,2.2,11,8.1,10.2,13.9c-0.8,6.5-6.3,11.2-14.2,11.9
	c-2,0.1-4.2,0-6.3,0c-356.5,0-713,0-1069.7,0c-13.8,0-21.5-7.2-18.2-17.3c1.7-5.2,5.7-8,12.7-8.4c8,0.7,14.9,1,21.9,0.8
	c6.9-0.1,13.7-0.8,20.4-1.2c0.5-0.3,0.9-0.6,1.9-1.4c0.3-0.8,0.2-1.1,0-1.5c-0.2-1.4-0.3-2.8-0.3-4.1c0-134.9,0-269.9,0.5-405.8
	c0.3-2.5,0-4.1-0.3-5.7c0.2-0.8,0.2-1.7,1.1-2.8c0.8-0.4,1.1-0.6,1.1-0.6C462.3,437.2,462.2,436.9,461.8,436.6 M1410,443.4
	c0,0,0.2,0-0.5-0.7c-0.9-0.3-1.9-0.6-3.6-1.4c-1.4-0.7-2.7-1.4-4.1-2.1c-77.8-34-155.7-68.1-233.7-101.9c-1.9-0.8-3.9-1.1-6.6-2.5
	c-2-0.6-4.1-1.2-7.2-1.1c-0.3,2.1-0.8,4-0.8,6.1c0,170.4,0,340.6,0,511c0,2.3,1.3,4.6,2.5,7.3c0.8,0.4,1.4,0.7,3.1,1.9
	c0.9,0.1,2,0.4,3,0.4c30.5,0,60.9,0,91.4,0c1.7,0,3.5-0.7,6-1.4c-0.3-0.8-0.6-1.5-1.4-2.6c0,0-0.6-0.1-0.8-1
	c-0.3-0.7-0.8-1.4-1.6-2.6c0,0-0.5-0.6-0.8-1.5c-35.2-48.9-13.5-109.9,46.9-133.1c2-0.8,4.6-2.6,5.2-4.4
	c12.1-30.1,36.2-48.1,72.5-55.4c11.3,0,22.6,0,34.8,0c0-2.8,0-5,0-7.2c0-34.2,0-68.3,0-102.6c0-33.7,0.2-67.5,0.8-101.3l0.2-0.6
	c0,0-0.5-0.4-0.9-1.2c-0.9-0.3-1.9-0.6-2.8-0.8c0,0,0,0.1-0.2-0.7C1411.1,443.7,1410.4,443.6,1410,443.4 M875.9,717.8
	c0.3-0.4,0.5-1,1.3-2.2c2-1,4.1-1.8,7.1-1.9c1.1,0.1,2,0.4,3.1,0.4c39,0,78,0,117.2,0c1.9,0,3.9-0.7,6.9-1.2
	c1.3,0.4,2.5,0.8,4.2,2.1c0.6,0.1,1.1,0.4,2.7,0.8c1.1,1.5,2.2,3.2,3.1,6.1c0,43.5,0,87.1,0,130.6c0,2.2,1.4,4.4,2.7,6.6
	c0,0,0.5,0.1,1.4,1c0.9,0.1,2,0.6,3,0.6c30.4,0,60.5,0,90.9,0c1.9,0,3.9-0.8,5.7-1.5c0,0,0-0.3,0.8-0.3c0.5-0.3,0.6-0.6,0.8-1.1
	c0,0,0.2,0.1,1.1-0.7c0.2-2.1,0.6-4.1,0.6-6.1c0-239.3,0-478.6,0-717.7c0-2.3-1.1-4.7-1.7-7.5c0,0,0.2-0.3-0.3-1.4
	c-3-0.3-6.1-1-9.1-1c-50,0-100,0-150,0c-63.7,0-127.2,0-190.9,0c-4.6,0-8.6-0.1-7.7,6.6c0,1.9-0.2,3.9-1.1,6.6
	c-0.2,2.1-0.6,4-0.6,6.1c0,236.1,0,472.2,0,708.3c0,2.3,1.1,4.7,2.2,7.5c0.3,0.3,0.6,0.6,1.9,1.7c0.9,0.1,2,0.6,3,0.6
	c30.5,0,61,0,91.5,0c1.7,0,3.3-0.8,5.8-1.5c0.3-0.4,0.8-0.8,1.9-2.1c0.2-1.4,0.5-2.8,0.5-4.1c0-43.9,0-87.8,0-131.7
	c0,0-0.2,0,0.8-0.4c0.3-0.8,0.5-1.7,0.8-2.3C875.3,718.2,875.1,718.2,875.9,717.8 M738.9,858.6c0.3-0.3,0.6-0.6,1.9-1.7
	c0.3-1.5,0.8-3.2,0.8-4.7c0-130.2,0-260.3,0-390.5c0-1.9-1.4-4-2.7-5.9c0,0-0.5-0.1-1.3-1c-1.6-0.1-3.1-0.6-4.6-0.6
	c-78.8,0-157.4,0-236.2,0c-2.2,0-4.4,0.8-7.4,1.5c-0.3,0.4-0.8,0.8-1.9,2.1c-0.2,1.8-0.5,3.6-0.5,5.4c0,129.1,0,258.2,0,387.4
	c0,2.2,0.8,4.4,1.7,7.2c0.5,0.3,0.9,0.7,2.4,1.7c1.3,0.1,2.5,0.4,3.8,0.4c78.9,0,158,0,237,0C734.1,860.4,736.3,859.4,738.9,858.6
	 M995.9,856.7c0.2-1,0.5-1.8,0.5-2.8c0-37,0-74.1,0-111.2c0-1.8-0.8-3.5-2-6.1c-2.5-0.3-5-0.6-8.5-1.5c-18.9-0.1-37.7-0.3-56.6-0.4
	c-1.7,0-3.3,0.7-6.1,1.2c-0.8,0-1.6-0.1-3.1-0.8c-5.8,0.3-11.8,0.4-18.4,1.1c-0.3,0.4-0.8,0.8-2,2.1c-0.2,0.8-0.5,1.8-0.5,2.6
	c0,37.1,0,74.3,0,111.3c0,1.7,0.9,3.5,1.9,5.8c0.5,0.3,0.9,0.7,2.4,1.8c29.1,0.1,58.2,0.3,87.3,0.4c0.9,0,1.7-0.7,3.5-1.5
	C994.3,858.3,994.6,857.9,995.9,856.7 M1300.4,858.1c0.9,0.3,1.9,0.6,3.6,0.8c0,0,0.8,0.1,1.6,1c0.9,0.1,2,0.4,3,0.4
	c47,0,94.2,0,141.2,0c1.9,0,3.8-1,6.6-1.9c1.3-0.8,2.4-1.8,3.6-2.6c31.8-19.7,38.8-64.9,5.5-90.7c-4.2-3.3-4.2-6.8-3-11.2
	c6.8-24.4-0.5-44.9-23.4-60.5c-41-27.8-98.3-8.7-107.3,35.8c-1.1,5.2-3.3,7.3-9.1,8.4c-45,9.1-69.5,54.5-49.7,91.3
	C1279.4,840.5,1288.9,849.4,1300.4,858.1z"/>
<path class="st1" d="M737.5,430.2c-1.3,0.8-3.1,2.1-5.2,2.1c-86.3,0.1-172.5,0.1-258.9,0c-0.9,0-2-0.3-3.5-0.8
	c2-0.8,4.7-1.5,7.2-1.5C563.7,429.9,650.4,430,737.5,430.2z"/>
<path class="st1" d="M1156.6,304.6c-0.8-1.5-3-3.7-3-5.9c-0.2-64.1-0.2-128.3,0-193c0.8,3,2.2,6.8,2.4,10.5
	c0.2,60.3,0.2,120.7,0.2,181C1156.1,299.5,1156.3,301.7,1156.6,304.6z"/>
<path class="st1" d="M1104.5,160.8c-108.3,0.5-217,0.5-325.7,0.5c-1,0-2.1-0.2-3.7-0.7c58.2-0.4,116.8-0.5,175.4-0.5
	c48.3,0,96.8,0,145.1,0C1098.6,160.1,1101.4,160.2,1104.5,160.8z"/>
<path class="st1" d="M740,108.6c0.6,1.5,1.6,3.7,1.6,5.8c0,102.9,0,205.6,0,308.5c0,2.1-0.5,4-1.3,6.4
	C739.7,322.7,739.7,216,740,108.6z"/>
<path class="st1" d="M1443.1,666.5c-0.6-1.2-1.7-3.2-1.7-5.1c-0.2-74.4,0-148.8,0-223.4c0-1.1,0.3-2.2,0.9-3.9
	c0.6,1.4,0.9,3.2,0.9,5.1C1443.3,514.8,1443.3,590.3,1443.1,666.5z"/>
<path class="st2" d="M1493.3,757.7c-1.4-1-4.2-2.5-4.4-4c-0.8-12.4-0.9-25-0.9-37.8c4.6,11,6.4,22.8,4.1,34.8
	C1491.7,752.7,1492.8,754.9,1493.3,757.7z"/>
<path class="st1" d="M1507.9,839.4c1.3-14.6,3-29.5,5.2-44.9C1517.2,809.6,1515.2,824.6,1507.9,839.4z"/>
<path class="st1" d="M1252.2,346.6c-7.2-2.8-14.9-5.8-22.8-9.3C1236.7,340.1,1244.2,343.2,1252.2,346.6z"/>
<path class="st1" d="M530.4,824.5c-5.1,0.5-10.7,1-16.5,1.1c-5.8,0.1-11.5-0.2-17.8-0.7C507.1,824.6,518.5,824.5,530.4,824.5z"/>
<path class="st1" d="M1501.7,850.6c1.4-3.3,3.1-6.9,5.5-10.6C1505.7,843.3,1504,846.7,1501.7,850.6z"/>
<path class="st2" d="M1509.4,781.3c-1.1-1.5-2.4-3.6-3.5-6.1C1507.2,776.7,1508.3,778.8,1509.4,781.3z"/>
<path class="st2" d="M1503.1,770c-1.1-1-2.2-2.5-3.5-4.4C1500.9,766.5,1502,768,1503.1,770z"/>
<path class="st1" d="M1219.5,332.5c-1.7-0.3-3.6-1-5.8-2.1C1215.3,330.7,1217.3,331.4,1219.5,332.5z"/>
<path class="st2" d="M1513.3,791c-0.9-0.7-1.7-1.9-2.7-3.6C1511.6,788.1,1512.3,789.3,1513.3,791z"/>
<path class="st2" d="M1499.6,764.6c-0.9-0.3-1.9-1-2.8-2.1C1497.7,762.8,1498.7,763.5,1499.6,764.6z"/>
<path class="st1" d="M532.5,458.9c0.3,1,0.5,2.3,0.4,4C532.5,461.9,532.5,460.7,532.5,458.9z"/>
<path class="st1" d="M1200.7,324.3c-1.1,0.1-2.5,0-4.2-0.7C1197.5,323.4,1198.9,323.6,1200.7,324.3z"/>
<path class="st1" d="M1107.8,162.1c-0.7,0.1-1.6,0-2.8-0.5C1105.7,161.4,1106.6,161.5,1107.8,162.1z"/>
<path class="st1" d="M1498.5,854.7c-0.2-0.6,0.2-1.4,0.8-2.5C1499.4,852.9,1499.3,853.8,1498.5,854.7z"/>
<path class="st2" d="M1509.8,786.4c-0.6-0.7-0.6-1.7-0.6-3.3C1509.7,783.6,1510.1,784.9,1509.8,786.4z"/>
<path class="st2" d="M1506.1,774.4c-0.5-0.3-1.1-0.8-1.6-1.9C1505,772.6,1505.4,773.3,1506.1,774.4z"/>
<path class="st2" d="M1496.8,761.8c-0.6-0.3-1.1-0.8-1.7-1.9C1495.5,760,1496.1,760.7,1496.8,761.8z"/>
<path class="st1" d="M1166.1,309.1c-0.6,0.1-1.6-0.1-2.7-0.7C1164,308.2,1164.8,308.5,1166.1,309.1z"/>
<path class="st1" d="M1169.2,310.4c-0.6,0.1-1.6-0.1-2.7-0.7C1167.2,309.6,1167.9,309.9,1169.2,310.4z"/>
<path class="st1" d="M1172.3,311.8c-0.6,0.1-1.6-0.1-2.7-0.7C1170.3,311,1171.2,311.3,1172.3,311.8z"/>
<path class="st1" d="M1178.6,314.6c-0.6,0.1-1.6-0.1-2.7-0.8C1176.6,313.8,1177.4,314,1178.6,314.6z"/>
<path class="st1" d="M1181.8,316c-0.6,0.1-1.6-0.1-2.7-0.7C1179.7,315.1,1180.5,315.4,1181.8,316z"/>
<path class="st1" d="M1184.9,317.3c-0.6,0.1-1.6-0.1-2.7-0.7C1182.9,316.5,1183.8,316.8,1184.9,317.3z"/>
<path class="st1" d="M1175.5,313.2c-0.6,0.1-1.6-0.1-2.7-0.7C1173.4,312.4,1174.2,312.7,1175.5,313.2z"/>
<path class="st1" d="M1188.1,318.7c-0.6,0.1-1.6-0.1-2.7-0.7C1186,317.9,1187,318.2,1188.1,318.7z"/>
<path class="st1" d="M1191.2,320.1c-0.6,0.1-1.6-0.1-2.7-0.7C1189.2,319.3,1190.1,319.6,1191.2,320.1z"/>
<path class="st1" d="M1229,336.7c-0.6,0.1-1.6-0.1-2.8-0.7C1226.9,335.9,1227.9,336.1,1229,336.7z"/>
<path class="st1" d="M1225.8,335.3c-0.6,0.1-1.6-0.1-2.8-0.7C1223.8,334.5,1224.7,334.6,1225.8,335.3z"/>
<path class="st1" d="M1222.7,333.9c-0.6,0.1-1.6-0.1-2.8-0.7C1220.6,333.1,1221.6,333.4,1222.7,333.9z"/>
<path class="st1" d="M1194.4,321.5c-0.6,0.1-1.6-0.1-2.7-0.7C1192.3,320.7,1193.3,320.9,1194.4,321.5z"/>
<path class="st1" d="M1213.2,329.8c-0.6,0.1-1.6-0.1-2.8-0.7C1211.2,328.9,1212.1,329.2,1213.2,329.8z"/>
<path class="st1" d="M1210.1,328.4c-0.6,0.1-1.6-0.1-2.8-0.7C1208,327.6,1209,327.8,1210.1,328.4z"/>
<path class="st1" d="M1206.9,327c-0.6,0.1-1.6-0.1-2.8-0.7C1204.9,326.2,1205.8,326.5,1206.9,327z"/>
<path class="st1" d="M1203.8,325.6c-0.6,0.1-1.6-0.1-2.8-0.7C1201.8,324.8,1202.7,325.1,1203.8,325.6z"/>
<path class="st1" d="M1162.9,307.7c-0.6,0.1-1.6-0.1-2.7-0.7C1160.9,306.9,1161.7,307.1,1162.9,307.7z"/>
<path class="st1" d="M1159.8,306.3c-0.6,0.1-1.6-0.1-2.7-0.8C1157.7,305.5,1158.5,305.8,1159.8,306.3z"/>
<path class="st1" d="M1500.1,852.3c-0.2-0.4,0.2-0.7,0.8-1.2C1501,851.3,1500.9,851.7,1500.1,852.3z"/>
<path class="st1" d="M1496.9,856.5c-0.2-0.3,0.2-0.7,0.8-1.4C1497.9,855.4,1497.6,855.8,1496.9,856.5z"/>
<path class="st1" d="M532.5,822.4c0.1,0,0.3,0.4,0.3,0.7C532.5,823.1,532.5,822.7,532.5,822.4z"/>
<path class="st1" d="M1110,164.5c-0.3,0-0.7-0.4-1.2-1.1C1109.1,163.3,1109.6,163.7,1110,164.5z"/>
<path class="st1" d="M1196.2,322.9c-0.5,0.1-0.9-0.1-1.6-0.7C1195.1,322,1195.6,322.2,1196.2,322.9z"/>
<path class="st1" d="M533.7,455.2c0.3,0,0.5,0.2,0.7,0.5c0,0-0.3,0.1-0.7,0.4C533.4,456,533.6,455.4,533.7,455.2z"/>
<path class="st2" d="M1504.3,771.6c-0.3,0.1-0.8-0.1-1.3-0.8C1503.4,770.7,1503.9,770.9,1504.3,771.6z"/>
<path class="st3" d="M1015.2,714c-1.3-0.4-2.5-0.8-5-1.4c-43.1,0-84.9,0.1-126.9,0.1c-2,1-4.1,1.8-6.6,3.3c-0.9,1.1-1.3,1.5-1.6,1.9
	c0,0,0.2,0-0.3,0.1c-0.6,1-0.9,1.8-1.3,2.6c0,0,0.2,0-0.3,0.4c-0.6,3.7-0.9,7.2-0.9,10.6c-0.2,35.1-0.2,70-0.8,105.2
	c-3.3,2.8-3.8,5,0.6,7.3c0.2,4.8,0.3,9,0.3,13.1c-0.3,0.4-0.8,0.8-1.6,1.4c-0.5,0.1-0.6-0.1-0.8-0.7c-2.8-1-5.7-1.8-8.3-1.8
	c-27-0.1-53.9-0.3-81,0.1c-6.9,0.1-9.3-1.4-9.3-7.9c0.2-237.9,0.2-475.8,0-713.7c0-6.2,2-7.6,8.8-7.6c114.5,0.1,229,0.1,343.6,0.8
	c0,243.3,0,485.8-0.8,728.4c-29.6,0-58.3-0.3-87.3,0.1c-7.4,0.1-9.8-1.5-9.8-8.3c0.3-39.6,0.2-79.1,0-118.7c0-2.3-1.7-4.7-2.8-7.5
	c-0.8-0.8-1.3-1.4-1.6-1.8c-1.1-1.5-2.2-3.2-3.9-5.1C1016.3,714.5,1015.7,714.3,1015.2,714 M976.1,481.4c0.5,0.3,0.9,0.6,1.4,0.7
	c0,0-0.2,0,0.5,0.7c0.9,0.3,1.9,0.6,2.7,0.7c0,0-0.2,0,0.8,1c24.4,0.1,48.6,0.1,74.1,0.1c3.3-2.6,6.8-5.2,11-8.7
	c0.2-0.8,0.6-1.8,0.6-2.6c0-32.2,0-64.3,0-96.5c0-1.7-1.1-3.3-1.6-5c0,0,0,0.1-0.2-0.8c-0.6-0.7-1.3-1.2-2.7-2.5
	c-1.3-1.1-2.4-2.1-3.9-4c-0.9-0.3-1.9-0.6-2.7-1c0,0,0,0.1-0.8-0.8c-23.9-0.1-47.8-0.4-71.7-0.4c-0.9,0-1.9,1.2-3.5,2.3
	c-0.8,0.1-1.4,0.3-3.1,0.7c-0.3,0.4-0.8,0.8-1.4,1.9c-0.3,0.3-0.6,0.6-1.9,0.8c-0.3,0.4-0.6,0.8-0.9,1.1c0,0,0.2,0-0.8,0.4
	c-0.3,0.8-0.5,1.7-0.8,2.3c0,0,0.2,0-0.9,0.7c-0.2,0.7-0.6,1.2-0.6,1.9c0,33.4,0,66.8,0,100.2c0,0.6,1.1,1.1,2.5,2.1
	c0.8,0.8,1.4,1.8,2.2,2.5c0,0-0.2,0,0.2,0.7c0.5,0.3,0.9,0.6,1.4,0.7C975.9,480.7,975.8,480.7,976.1,481.4 M835.2,536.1
	c-0.3,0.4-0.6,0.8-0.8,1.2c0,0,0-0.1-1.1,0.6c-0.6,1.7-2,3.3-2,5.1c0,34,0.2,67.9,0.5,102.7c1.7,1.7,3.5,3.3,6,5.8
	c2.7,0.6,5.5,1.7,8.2,1.8c21.5,0.1,42.9,0.1,64.5,0c1.9,0,3.9-0.8,5.8-1.2c0,0,0,0.1,0.8-0.1c0.3-0.4,0.6-0.8,1.6-1.4
	c0,0,0.8-0.1,1.6-0.1c0.3-0.4,0.5-0.7,0.8-1.1c0,0,0,0.1,0.8-0.1c0.3-0.4,0.6-0.8,0.8-1.2c0,0,0,0.1,0.6,0c0,0,0.6-0.1,1.6-0.1
	c0.2-1,0.3-1.9,0.6-3.7c0.2-0.6,0.3-1.1,1.4-1.9c-0.3-1.8-0.6-3.6-1.3-6.4c0-1.5,0.2-3,1.1-4.6c0.5-0.4,0.9-0.8,1.4-1.2
	c-0.8-0.4-1.6-0.8-2.4-2.5c0-2.9,0.2-5.7,1.1-8.6c0.5-0.4,0.9-0.8,1.4-1.2c-0.8-0.4-1.6-0.8-2.4-2.6c0-5.5,0.2-11.2,1.4-17
	c2-5.9,4.1-12-1.4-18.8c0-3.3,0.2-6.6,1.4-10.2c2-4.3,3.9-8.4-1.4-12.8c-0.2-0.3-0.2-0.6-0.2-1.4c0,0,0.2-0.7,1.4-0.8
	c3-4.8,3.3-9.4-2.2-13.5c0,0-0.5,0-0.8-0.8c-0.5-0.7-1.1-1.4-1.9-2.8c-0.9-0.7-1.9-1.2-3.3-2.5c-0.9-0.3-1.7-0.6-3.3-1.5
	c-0.9-0.1-1.7-0.3-3.3-0.4c0,0-0.6,0-2.2-0.1c-15.9,0-31.8,0.1-48.6,0.1c-1.1,0-2.2,0-4.7-0.1c-5.3,0.4-10.7,0.7-17,1.2
	c-0.8,0.4-1.6,1-2.2,1.4c0,0,0-0.1-0.8,0.1c-0.3,0.4-0.6,0.8-0.8,1.1C836,535.9,836,535.8,835.2,536.1 M970.6,205
	c0.2,0.8,0.3,1.5,0.5,3.3c0,0.7-0.2,1.4-0.9,2.9c-0.2,31.9-0.3,63.7-0.3,95.5c0,1,1.1,1.9,1.6,2.9c0,0,0-0.1,0.2,0.8
	c0.8,0.6,1.4,1.2,3,2.3c2.2,1.5,4.2,2.9,7.1,5.5c1.3,0.3,2.4,1,3.6,1c22.2,0,44.2,0.1,66.4,0c1.6,0,3.3-1,4.9-1.4c0,0-0.2,0,0.9-0.1
	c0.8-0.6,1.4-1.2,2.7-2.5c1.9-1.8,3.8-3.6,6.6-6.4c0.3-1.1,0.8-2.2,0.8-3.3c0-32,0-64.1,0-96.1c0-1.7-1.1-3.3-1.6-5
	c0,0,0,0.1-0.2-0.8c-0.8-0.6-1.4-1.2-2.8-2.2c-1.1-0.7-2.4-1.4-4.1-2.3c0,0-0.8-0.1-0.8,0c0,0,0.2,0,0-0.6c0,0,0-0.6-0.5-1.4
	c-0.9-0.3-1.9-0.6-2.7-0.8c0,0,0,0.1-0.8-0.8c-22.6-0.1-45.3-0.4-67.8-0.6c-1.3,0-2.4,1.2-4.2,2.5c-0.9,0.6-1.7,1-2.5,1.5
	c0,0,0-0.1-0.8,0c0,0-0.6,0.3-1.4,0.6c-1.1,0.8-2.2,1.5-4.4,2.6c-0.3,0.8-0.8,1.7-1.3,2.3C971.2,204.5,971.4,204.5,970.6,205
	 M917.1,317.6c0.6-0.6,1.4-1.2,2.7-2.3c1.3-1,2.5-2.1,4.7-3.5c0.3-0.8,0.6-1.7,1.1-2.3c0,0-0.2,0,0.9-0.6c0.8-2.6,2.2-5.2,2.2-7.7
	c0.2-29.4,0.2-58.7,0-88.1c0-2.9-2.2-5.8-3.9-9.3c-1.9-1.5-3.6-2.9-6.1-4.7c0,0-0.8-0.1-0.8,0c0,0,0.2,0,0-0.6c0,0,0-0.6-0.5-1.4
	c-0.9-0.3-1.9-0.6-2.7-0.8c0,0,0,0.1-0.8-0.8c-22.6-0.1-45.3-0.4-68.1-0.6c-1.1,0-2.2,1.4-4.2,2.5c-0.8,0.4-1.6,1-2.4,1.4
	c0,0,0-0.1-0.8,0c0,0-0.6,0.3-1.6,0.6c-1.7,2.2-3.5,4.4-5.3,7.7c0,33.6,0,67.1,0.2,101.6c3,2.9,6,5.7,9.9,9.5c0.9,0.3,2,0.7,3,0.7
	c22.3,0,44.7,0.1,67,0c1.6,0,3.3-1,4.9-1.4C916.2,317.8,916,317.6,917.1,317.6 M925.1,369.7c-0.5-0.3-0.9-0.4-2.2-1.1
	c-1.3-1.1-2.5-2.2-3.8-4c-0.5,0-0.9,0-2,0c-0.5-0.1-0.8-0.3-1.7-1.8c-0.8-0.3-1.4-0.7-2.2-0.7c-22.6,0-45.3-0.1-68.1,0
	c-1.6,0-3,1.2-5.3,2.5c-2.8,2.9-5.7,5.8-8.6,9.9c0.2,34,0.2,67.9,0.5,102.9c3,2.3,6.1,4.8,10.5,7.5c23.6,0,47,0,71.7,0
	c3.8-2.8,7.7-5.5,12.6-8.7c0.6-2.3,2-4.7,2-6.9c0.2-29.5,0.2-59.1,0-88.6c0-3.5-2-6.8-3-10.2C925.6,370.2,925.6,370.4,925.1,369.7
	 M1058.5,651.6c2-1.8,4.1-3.5,7.4-5.8c0.3-1.5,1.1-3,1.1-4.6c0-31.9,0.2-63.8,0-95.8c0-1.9-1.1-3.7-2.5-6.4
	c-4.1-5.5-9.6-7.6-17.3-7.5c-18.9,0.3-37.6,0.4-56.5,0c-8.5-0.3-14.8,2.1-20.3,9c-0.3,0.8-0.8,1.8-0.8,2.6c0,33.3,0,66.6,0,99.8
	c0,0.6,1.1,1.2,2.4,1.9c0,0,0.6,0.1,0.8,0.8c0.5,0.7,1.1,1.4,1.9,2.8c0.9,0.7,1.9,1.2,3.5,2.6c0.9,0.3,1.7,0.7,3.1,1.7
	c0.9,0.1,1.7,0.1,4.1,0.4c22.5,0,45,0,68.4,0c0.8-0.3,1.6-0.7,3.1-1.2C1056.9,652,1057.5,651.8,1058.5,651.6z"/>
<path class="st3" d="M1162.3,335.6c1.9,0.6,4.1,0.8,5.8,1.7c77.8,34,155.8,67.9,233.7,101.9c1.4,0.6,2.7,1.4,4.7,2.8
	c1.6,1,2.5,1.1,3.5,1.4c0,0-0.2,0,0,0.3c0.6,0.6,1.1,0.8,1.6,1c0,0,0-0.1,0,0.6c0,70.6,0,140.3,0,211c-4.7-0.4-8-1.2-11.3-0.8
	c-7.2,0.7-14.5,2.1-21.7,3.2c-35.1,7.2-59.1,25.3-71.2,55.2c-0.8,1.8-3.1,3.6-5.2,4.4c-60.4,23.2-82.1,84.2-46.9,133.8
	c0.3,1,0.8,1.1,1.1,1.4c0.3,0.7,0.8,1.4,0.5,2.3c-29.7,0.4-58.8,0.4-87.9,0.4c-10.5,0-10.5,0-10.5-9.4c0-128.5,0-257.2,0-385.8
	c0-39.4,0-78.7,0.2-118.1C1158.5,340.3,1156.3,336.3,1162.3,335.6 M1232.3,620.2c0,0,0,0,0.6,0.7c1.9-0.1,3.6-0.3,7.1-0.7
	c30,0,60.1,0.1,90.7,0.8c2.8-0.7,5.7-1.5,9.1-2.9c2.2-2.1,4.4-4.1,7.9-6.9c0.3-0.8,0.9-1.7,0.9-2.6c0-31.9,0.2-63.8,0-95.7
	c0-1.5-1.4-3-3-5.2c-3.1-2.5-6.1-5-10.2-8.4c-0.8-0.3-1.4-0.6-2.2-0.6c-32.4,0-64.8-0.1-97.2,0c-0.6,0-1.3,1-2.7,2.2
	c-2.5,1.8-5,3.6-8.2,5.9c-0.3,0.6-0.5,1-1.4,2.5c-0.3,1.1-0.8,2.2-0.8,3.3c0,31.8,0.2,63.5,0.2,95.8c0,0,0.2,0.6,0,1.5
	c2,2.8,4.1,5.5,6.4,9.1C1230.4,619.5,1231.3,619.7,1232.3,620.2z"/>
<path class="st4" d="M1304.8,859.2c0,0-0.8-0.1-1.4-0.4c-1.6-0.7-2.5-1.1-3.3-1.4c-11-7.9-20.6-16.7-26.7-28.3
	c-19.8-36.6,4.7-82.2,49.7-91.3c5.7-1.1,8-3.3,9.1-8.4c9.1-44.5,66.4-63.5,107.3-35.8c23,15.5,30.4,36,23.4,60.5
	c-1.3,4.4-1.3,7.9,3,11.2c33.2,25.7,26.1,71-5.5,90.7c-1.3,0.8-2.4,1.8-4.7,2.9C1404.3,859,1354.5,859,1304.8,859.2z"/>
<path class="st3" d="M900.3,737.7c0.3-0.4,0.8-0.8,2.2-1.4c6.8-0.1,12.6-0.1,18.2-0.3c0.8,0,1.6,0.1,3.6,0.1
	c21.7,0,42.1-0.1,62.4-0.1c2.5,0.3,5,0.6,7.9,1.9c0.3,40.6,0.3,80.1,0.5,119.7c-0.3,0.4-0.8,0.8-2.2,1.4c-31,0.1-60.9,0.1-90.7,0.3
	c-0.5-0.3-0.9-0.7-1.6-1.9C900.4,816.8,900.3,777.1,900.3,737.7z"/>
<path class="st5" d="M1123.8,127.2c-114.5,0-229,0-343.6-0.1c-6.8,0-8.8,1.4-8.8,7.6c0.2,237.9,0.2,475.8,0,713.7
	c0,6.6,2.4,8,9.3,7.9c27-0.3,53.9-0.1,81-0.1c2.7,0,5.5,0.8,7.7,1.8c-33.5,0.7-66.4,0.8-99.4,1c-0.3-0.3-0.6-0.6-1.1-1.7
	c-0.2-193.6-0.2-386.3-0.2-579.1c0-47.6-0.2-95.3-0.3-142.8c0-1.9,0.2-3.9,0.3-6.8c5.3-1.9,10.4-3.6,15.4-3.6
	c33.2-0.1,66.4,0.4,99.5,0.4c43.1,0,86.2-0.4,129.4-0.4c37.9,0,75.8,0.1,113.7,0.3c0,0-0.2,0.3-0.2,0.8c0,0.7-0.2,1-0.6,1.2
	C1125,127.2,1124.4,127.2,1123.8,127.2z"/>
<path class="st6" d="M490.1,859.2c-0.5-0.3-0.9-0.7-1.6-1.9c-0.2-74.4,0-147.7-0.2-221.2c0-59.6-0.2-119.2-0.2-178.8
	c0.3-0.4,0.8-0.8,2.2-1.4c39.3-0.1,77.4-0.1,115.6-0.1c43.6,0,87.3,0.1,130.8,0.7c0,1,0,1.5-0.8,2.1c-78.8,0-156.8,0.1-234.9-0.1
	c-8.2,0-9.9,2.1-9.9,8.8c0.2,126.8,0.2,253.5,0.2,380.1c0,8.8,0,8.8,10.4,8.8c77.8,0,155.5,0,233.4,0.4c0,1,0,1.4-0.8,2.1
	c-61.6,0.1-122.5,0.1-183.4,0.3C530.9,859,510.4,859.2,490.1,859.2z"/>
<path class="st5" d="M1162,335.2c-5.7,1-3.6,5.1-3.6,7.9c-0.2,39.4-0.2,78.7-0.2,118.1c0,128.5,0,257.2,0,385.8
	c0,9.4,0,9.4,10.5,9.4c29.1,0,58.2,0,88.1,0c0.8,0,1.4,0.1,1.7,0.8c0.2,1,0.2,1.4-0.6,1.8c-33.7,0.1-66.5,0.3-99.5,0.4
	c-0.8-0.4-1.4-0.7-2.5-1.9c-0.3-93.1-0.3-185.2-0.3-277.4c0-82.3-0.2-164.6-0.2-246.9C1157.6,333.6,1159.6,334.2,1162,335.2z"/>
<path class="st5" d="M736.9,458.6c0-0.6,0-1.1,0.5-2.2c0.3-0.6,1.1-0.6,1.1-0.6s0.5,0.1,0.8,0.8c0.3,74.4,0.3,148.2,0.5,221.9
	c0,59.8,0.2,119.6,0.2,179.4c-0.3,0.3-0.6,0.6-1.6,1c-1.4,0-2.2,0-2.8-0.1c0-0.6,0-1.1,0.5-2.3c0.6-2.9,1.1-4.8,1.1-6.9
	C736.9,719.2,736.9,588.8,736.9,458.6z"/>
<path class="st1" d="M1126.6,127.2c0-0.3,0.2-0.4,0.3-1.1c0.6,2.1,1.6,4.4,1.6,6.8c0,239.3,0,478.6,0,717.7c0,2.1-0.3,4.1-1.1,6.2
	c-0.6-0.1-0.6-0.4-0.6-1.2c0.2-222.6,0.2-444.5,0.2-666.4C1126.9,168.5,1126.6,147.9,1126.6,127.2z"/>
<path class="st1" d="M767.9,135.8c0.6,47.2,0.8,94.9,0.8,142.4c0,192.8,0,385.5-0.2,578.8c-0.6-1.7-1.7-4-1.7-6.4
	c-0.2-236.1,0-472.2,0-708.3C766.8,140.3,767.2,138.3,767.9,135.8z"/>
<path class="st1" d="M1155,333.4c0.6,81.9,0.6,164.2,0.6,246.5c0,92.2,0,184.3,0,277.1c-0.6-1.7-1.9-4-1.9-6.2
	c-0.2-170.4-0.2-340.6,0-511C1153.6,337.6,1154.1,335.7,1155,333.4z"/>
<path class="st6" d="M1379.1,658.5c6.6-1.1,13.8-2.3,21.1-3.2c3.1-0.3,6.6,0.4,11.3,0.8c0-70.7,0-140.6,0-211c0.9-0.4,1.9-0.1,3,1
	c0.2,0.7,0.2,1.2,0.2,1.2c-0.2,33.7-0.2,67.5-0.3,101.2c0,34.2,0,68.3,0,102.6c0,2.2,0,4.6,0,7.2
	C1402.6,658.5,1391.3,658.5,1379.1,658.5z"/>
<path class="st1" d="M1126.6,124.6c-37.6,0.4-75.5,0.3-113.4,0.3c-43.1,0-86.2,0.4-129.4,0.4c-33.2,0-66.4-0.4-99.5-0.4
	c-5,0-10.2,1.7-15.6,3c-1.1-5.1,3-5.1,7.5-5.1c63.7,0.1,127.2,0,190.9,0c50,0,100,0,150,0C1120.1,123.1,1123.1,123.8,1126.6,124.6z"
	/>
<path class="st5" d="M1126.6,856.3c0.2,0.3,0.2,0.4,0.3,1.1c0.2,0.4-0.2,0.3-0.5,0.4c-0.6,0.4-0.9,0.7-1.1,1c0,0,0,0.3-0.8,0.3
	c-33.7,0.1-66.8,0.1-99.9,0.1c0,0-0.5-0.1-0.8-0.8c-0.3-45.7-0.3-90.9-0.3-135.9c0.9,2.3,2.7,4.7,2.7,7c0.2,39.6,0.3,79.1,0,118.7
	c0,6.8,2.4,8.4,9.8,8.3c28.8-0.4,57.7-0.1,87.8-0.1C1125.3,856.3,1126,856.3,1126.6,856.3z"/>
<path class="st1" d="M740.3,857.4c-0.6-59.4-0.6-119.2-0.6-178.9c0-73.7,0-147.6-0.2-222c0.6,1.4,2,3.3,2,5.4
	c0.2,130.2,0.2,260.3,0,390.5C741.6,853.9,741.1,855.4,740.3,857.4z"/>
<path class="st1" d="M487.8,457.8c0.5,59.2,0.6,118.7,0.6,178.4c0,73.5,0,146.8-0.2,220.8c-0.5-1.5-1.4-3.7-1.4-5.9
	c0-129.1,0-258.2,0-387.4C486.8,461.8,487.2,460,487.8,457.8z"/>
<path class="st1" d="M734.7,858.7c1.4,0,2,0.1,3.3,0.3c-1.7,0.6-3.8,1.4-6,1.4c-78.9,0-158,0-237,0c-1.3,0-2.5-0.3-4.2-0.8
	c20-0.4,40.3-0.6,60.7-0.6C612.2,858.9,673,858.9,734.7,858.7z"/>
<path class="st1" d="M738,455.4c0.5,0.4-0.3,0.6-0.6,0.6c-44,0-87.6,0-131.3-0.1c-38.2,0-76.3,0-115.1-0.1c1.4-0.4,3.8-1.2,6-1.2
	c78.8,0,157.4,0,236.2,0C734.4,454.5,735.9,454.7,738,455.4z"/>
<path class="st1" d="M1023.3,721.9c0.3,45.6,0.3,90.6,0.5,136.4c-0.6-1.7-2-3.9-2-6.1c-0.2-43.5,0-87.1,0-131.4
	C1022,720.7,1022.5,721.1,1023.3,721.9z"/>
<path class="st1" d="M871.8,836.9c0.2-35.1,0.2-70,0.3-105.1c0-3.5,0.3-6.8,0.9-10.6c0.5,43.5,0.5,87.4,0.5,131.3
	c0,1.4-0.3,2.8-0.9,4.4c-0.5-3.7-0.6-7.9-0.6-13.3C872,840.8,872,838.9,871.8,836.9z"/>
<path class="st1" d="M1305.2,859.6c49.4-0.4,99.2-0.4,149.7-0.6c-1.1,0.4-3.1,1.4-5,1.4c-47,0.1-94.2,0-141.2,0
	C1307.6,860.4,1306.6,860.1,1305.2,859.6z"/>
<path class="st1" d="M899.8,738.1c0.5,39.2,0.5,78.7,0.5,118.9c-0.5-1.1-1.4-2.8-1.4-4.4c0-37.1,0-74.3,0-111.3
	C898.9,740.1,899.2,739.3,899.8,738.1z"/>
<path class="st1" d="M995.4,857.1C995,818,995,778.4,995,738.3c0.5,1.1,1.4,2.8,1.4,4.6c0,37,0,74.1,0,111.2
	C996.4,854.9,996.1,855.7,995.4,857.1z"/>
<path class="st1" d="M883.8,713.4c41.4-0.4,83.2-0.6,125.8-0.6c-1.3,0.4-3.1,1.2-5.2,1.2c-39,0-78,0-117.2,0
	C886.3,714,885.3,713.8,883.8,713.4z"/>
<path class="st1" d="M770.4,859.4c32.6-0.6,65.4-0.7,99.1-0.8c0.6,0,0.8,0.3,0.9,0.4c-1.6,0.6-3.3,1.2-5,1.2c-30.5,0-61,0-91.5,0
	C772.9,860.4,771.8,860,770.4,859.4z"/>
<path class="st1" d="M1158.8,859.6c32.6-0.6,65.4-0.7,99.1-0.7c0.6,0.1,0.9,0.4,0.9,0.4c-1.7,0.4-3.5,1.1-5.2,1.1
	c-30.5,0-60.9,0-91.4,0C1161.3,860.4,1160.4,860.1,1158.8,859.6z"/>
<path class="st1" d="M1025.1,859.4c32.6-0.4,65.6-0.4,99.4-0.4c-1.3,0.6-3.1,1.4-5,1.4c-30.4,0.1-60.5,0-90.9,0
	C1027.7,860.4,1026.6,860,1025.1,859.4z"/>
<path class="st1" d="M902.6,859.6c29.4-0.4,59.3-0.4,89.8-0.4c-0.2,0.4-1.1,1.2-2,1.2C961.3,860.3,932.2,860.1,902.6,859.6z"/>
<path class="st1" d="M986.3,735.6c-20,0.4-40.3,0.4-61.5,0.4c0.9-0.4,2.7-1.2,4.2-1.2C948.1,734.9,967,735,986.3,735.6z"/>
<path class="st1" d="M920.3,735.6c-5.2,0.4-11,0.4-17.5,0.4C908,735.7,914,735.4,920.3,735.6z"/>
<path class="st1" d="M1300.2,857.6c0.6,0,1.6,0.3,2.8,1C1302.2,858.7,1301.3,858.3,1300.2,857.6z"/>
<path class="st3" d="M1259.3,859.2c-0.5,0.1-0.6,0-0.6-0.1c0-0.6,0-0.8,0.2-1.8C1259.2,857.4,1259.5,858.2,1259.3,859.2z"/>
<path class="st1" d="M874,720.7c-0.2-0.6,0.2-1.4,0.8-2.3C875,718.9,874.6,719.7,874,720.7z"/>
<path class="st6" d="M1409.8,443c-0.6,0.1-1.6-0.1-2.8-0.8C1407.6,442.2,1408.6,442.4,1409.8,443z"/>
<path class="st5" d="M1256.2,853.1c-0.2,0-0.6-0.3-0.8-0.7C1255.5,852.3,1256,852.8,1256.2,853.1z"/>
<path class="st3" d="M1125.6,858.6c-0.2-0.3,0.2-0.6,0.6-1C1126.6,858.1,1126.4,858.5,1125.6,858.6z"/>
<path class="st1" d="M1015.6,714.5c0.3-0.1,0.8,0.1,1.7,0.7C1016.8,715.1,1016.3,715,1015.6,714.5z"/>
<path class="st1" d="M875.6,718c-0.2-0.3,0.2-0.7,0.8-1.4C876.5,716.8,876.2,717.4,875.6,718z"/>
<path class="st1" d="M1415.2,447.4c-0.2,0.1-0.3-0.6-0.2-0.8c0-0.3,0.6,0.1,0.6,0.1S1415.3,447.3,1415.2,447.4z"/>
<path class="st6" d="M1411.5,444.4c-0.3,0.1-0.8-0.1-1.4-0.7C1410.4,443.6,1411.1,443.7,1411.5,444.4z"/>
<path class="st2" d="M971.5,539.8c4.6-6.1,10.9-8.3,19.3-8.1c18.9,0.4,37.6,0.4,56.5,0c7.5-0.1,13.2,1.9,17.6,8.4
	c0.5,34.2,0.6,67.5,0.6,100.8c0,1.8-0.5,3.6-0.8,5.4c-2,1.8-4.1,3.5-6.8,5.1c-0.9,0.1-1.4,0.4-1.7,0.7c-0.8,0.3-1.6,0.7-3.3,0.6
	c-22.6-0.6-44.5-0.7-66.2-0.8c-0.9,0-1.7,0.7-2.7,1.1c-0.9-0.1-1.7-0.1-3.3-1c-1.4-1-2.4-1.2-3.3-1.5c-0.9-0.7-1.9-1.2-3-2.8
	c-0.8-1.5-1.3-2.1-1.9-2.8c0,0-0.6-0.1-0.9-0.8C971.4,609,971.4,574.3,971.5,539.8 M1000.1,627.9c12.1,0,24.2,0,36.5,0
	c0-23.9,0-47.4,0-71.2c-8.6,0-16.7-0.1-24.7,0c-4.2,0.1-8.5,1-13.5,2.2c-0.2,21.8-0.3,43.8-0.5,65.6
	C998.1,625.4,998.9,626.1,1000.1,627.9z"/>
<path class="st2" d="M974.7,367.5c0.5,0,0.8-0.3,1.6-1.1c0.9-0.8,1.4-1.2,1.7-1.7c0.8-0.1,1.4-0.3,3.1-0.8c25.6-0.4,50.3-0.6,75-0.6
	c0,0,0-0.1,0.2,0.3c1.1,0.7,2,1.1,2.8,1.5c1.3,1.1,2.4,2.1,4.1,3.9c1.1,1.4,1.6,1.9,2.2,2.6c0,0,0-0.1,0,0.6c0,35.2,0,69.7,0,104.4
	c-3.3,2.6-6.8,5.2-11,7.6c-25.3-0.4-49.7-0.6-73.9-0.7c0,0,0.2,0-0.2-0.4c-1.1-0.6-2-0.8-3-1c0,0,0.2,0,0-0.3
	c-0.6-0.6-1.1-0.8-1.6-1.1c0,0,0.2,0,0-0.3c-0.6-0.6-1.1-0.8-1.6-1.1c0,0,0.2,0,0.2-0.4c-0.9-1.9-1.9-3.5-3-5.7
	c-0.2-34.2,0-67.9,0-101.6c0,0-0.2,0,0.3,0.1c0.3,0,1.1-0.1,1.3-0.1c0.5-0.1,0.6-0.3,0.6-0.4c-0.2-0.3-0.3-0.6-0.5-1.1
	c0-0.6-0.2-0.8-0.2-1.1c0,0-0.2,0,0.3-0.1C973.9,368.3,974.4,367.9,974.7,367.5 M999.8,460.9c12.4,3,24.7,2.1,36.8-0.1
	c0-24.2,0-47.5,0-71.2c-8.6,0-16.7-0.1-24.7,0.1c-4.2,0.1-8.5,1-13.5,2.3c-0.2,21.8-0.3,43.8-0.3,65.6
	C998.1,458.3,998.9,459.2,999.8,460.9z"/>
<path class="st2" d="M925.6,476.6c-3.8,2.8-7.7,5.5-12.4,7.7c-22.8-0.6-44.5-0.8-66.2-0.8c-2,0-3.9,0.7-6,1c-3-2.3-6.1-4.8-8.8-8.1
	c0.5-34.2,0.6-67.5,0.6-100.8c0-0.8-0.8-1.7-1.3-2.5c2.8-2.9,5.7-5.8,9.6-9.1c25.8-0.4,50.5-0.3,75-0.3c0.2,0.4,0.5,0.7,1.7,0.8
	c0.6,0.1,1.4,0.4,1.4,0.4c1.3,1.1,2.5,2.2,4.2,3.9c1.1,0.8,1.6,1,2,1.2c0,0,0-0.1,0,0.6C925.4,406.5,925.4,441.6,925.6,476.6
	 M897.3,409.4c0-0.7-0.2-1.2,0-3.2c0-5.4,0-10.8,0-16.2c-13.1,0-25,0-37.1,0c0,24.3,0,48.1,0,72.4c10.5,0,20.3,0.3,30.2-0.1
	c4.6-0.1,7.2-2.1,7.1-7C897,440.2,897.1,425.3,897.3,409.4z"/>
<path class="st2" d="M919.5,650.4c0,0-0.8,0.1-1.6,0.3c-1.1,0.6-1.4,1-1.7,1.4c0,0,0-0.1-0.8-0.1c-26.7-0.4-52.7-0.8-78.6-1.4
	c-1.7-1.7-3.5-3.3-4.7-5.8c0.5-21.1,0.5-41.3,0.8-61.6c0.3-15.3,0.9-30.7,1.4-46.1c0,0,0,0.1,0.3,0c0.6-0.6,0.9-1,1.3-1.4
	c0,0,0,0.1,0.3,0c0.6-0.6,0.9-1,1.3-1.2c0,0,0,0.1,0.5,0c1.3-0.6,1.9-1.1,2.7-1.5c5.3-0.4,10.7-0.7,17-0.7c2.2,0.1,3.6,0,4.9-0.3
	c15.9,0,31.8-0.1,48.4,0.1c0.8,0.3,1.4,0.4,1.4,0.4l0.5-0.4c0.9,0.1,1.7,0.3,3.3,1c1.4,1,2.4,1.2,3.3,1.4c0.9,0.7,1.9,1.2,2.8,2.8
	c0.8,1.5,1.3,2.2,1.9,2.8c0,0,0.5,0,0.9,0.7c0.3,3.9,0.3,7.2-0.2,10.8c-0.2,1.4,0.2,2.5,0.3,3.7c0.2,0.3,0.2,0.6,0.3,1.8
	c0,3.9-0.2,6.6-0.6,9.7c-0.2,1,0.2,1.7,0.5,2.5c0.2,0,0.3,0,0.3,0c0,3.3-0.2,6.6-0.2,10.9c-0.2,1.2-0.2,1.5-0.6,2.1
	c-0.2,2.8,0.2,5.2,0.5,8.3c0.2,3,0.3,5.4,0.3,7.7c0,5.5-0.2,11.2-0.2,17.8c0,1.7,0.2,2.3,0.2,2.9c0,2.9-0.2,5.7-0.2,9.5
	c0,1.7,0.2,2.2,0.2,2.9c0,1.5-0.2,3-0.2,5.5c0,2.6,0.2,4,0.2,5.5c-0.2,0.6-0.3,1.1-0.8,2.2c-0.3,0.6-0.9,0.6-1.4,0.8
	c-0.8,1-0.9,1.8-1.3,2.6c0,0,0-0.1-0.3,0c-0.6,0.6-0.9,1-1.3,1.4c0,0,0-0.1-0.3,0C919.8,649.6,919.5,650,919.5,650.4 M897.3,614.9
	c0-2.5-0.2-4.8,0-8.6c0-12.8,0-25.7,0-39.6c0-1.5-0.2-3,0-5.8c-1.1-1.4-2.2-4-3.3-4c-11.2-0.3-22.3-0.1-34.1-0.1
	c0,10.1,0,19.5-0.2,30c0,1.1,0.2,2.2,0,4.6c0,12.3,0,24.6,0,36.9c13.1,0,24.8,0,37.4,0C897,623.9,897,620,897.3,614.9z"/>
<path class="st2" d="M973.4,201.8c1.1-0.8,2.2-1.5,3.9-2.2c0.9-0.1,1.3-0.4,1.6-0.7c0,0,0,0.1,0.8,0.1c26.4,0,52.4,0,78.2,0
	c0,0-0.2,0,0,0.3c0.5,0.1,0.9,0.1,1.3,0.1c1.1,0.7,2.4,1.4,4.1,2.8c1.1,1.2,1.7,1.9,2.4,2.6c0,0,0-0.1,0,0.6
	c-0.2,35.2-0.2,69.9-0.2,104.5c-1.9,1.8-3.8,3.6-6.3,5.9c-1.4,1-2.2,1.5-3,1.9c0,0,0.2,0-0.6,0c-25.3-0.3-50-0.4-74.7-0.6
	c-2.2-1.5-4.2-2.9-7.1-5.1c-1.3-1.2-1.7-1.9-2.4-2.6c0,0,0,0.1,0-0.6c-0.2-33.3-0.2-66-0.3-98.6c0-0.7,0.2-1.4,0.2-2.9
	c0.2-1.5,0.2-2.1,0.2-2.8c0,0-0.2,0,0.3-0.1C972.6,203.4,973.1,202.6,973.4,201.8 M999.5,240c0,1.5-0.2,3-1.1,5.4
	c-0.2,11.6-0.5,23.1-0.5,34.7c0,4.1,0.8,8.4,2,13.5c12.1,0,24.2,0,36,0c0.8-2.2,1.1-2.9,1.1-3.5c0-21.4,0-42.8,0.2-64.2
	c0-4.1-2.2-5.1-6.1-5c-6.6,0.1-13.1,0-19.7,0c-11.5,0-11.5,0-12.9,10.5C998.7,234.1,999,236.4,999.5,240z"/>
<path class="st2" d="M840.4,317.5c-3-2.9-6-5.7-8.5-9.4c0.6-1.8,0.9-2.6,0.9-3.6c0-31.3,0-62.5,0-93.9c0-1.5-0.8-3-1.1-4.6
	c1.7-2.2,3.5-4.4,5.8-6.5c0.9-0.3,1.4-0.4,1.7-0.7c0,0,0,0.1,0.8,0.1c26.4,0,52.4,0,78.2,0c0,0-0.2,0,0,0.3c0.5,0.1,0.9,0.1,1.3,0.1
	c1.9,1.5,3.6,2.9,5.8,5.2c0.3,1.5,0.3,2.2,0,3.2c-0.2,2.3,0.2,4.3,0.5,6.9c0,2.6,0,4.6-0.5,6.6c-0.2,1,0.2,1.7,0.5,3
	c0,23.7,0,46.8-0.5,70.3c-0.2,2.8,0.2,5.2,0.5,8.3c0,2.5,0,4.4,0,6.4c0,0,0.2,0-0.3,0.1c-0.8,1-1.3,1.8-1.6,2.5
	c-1.3,1-2.5,2.1-4.6,3.6c-1.4,1-2.2,1.5-3,1.9c0,0,0,0.1-0.6,0C889.9,317.6,865.2,317.5,840.4,317.5 M859.6,245.8
	c0,2.9,0.2,5.7,0,9.8c0,9.1,0.2,18.4,0,28.7c0,1.9,0.2,3.9,0,7c1.9,1,3.6,2.8,5.5,2.8c8,0.3,16.2-0.1,24.2,0.3
	c6.4,0.3,8-1.9,7.9-7.3c-0.3-17.1-0.2-34.4-0.2-51.5c0-4.6,0-9,0-13.5c-13.1,0-25.2,0-37.4,0C859.7,229.9,859.7,237.3,859.6,245.8z"
	/>
<path class="st6" d="M1126.7,855.7c-0.8,0.7-1.4,0.7-2.5,0.6c-0.5-242.6-0.5-485.2-0.5-728.4c0.6-0.7,1.3-0.7,2.4-0.7
	c0.6,20.7,0.8,41.4,0.8,62C1126.9,411.2,1126.9,633.1,1126.7,855.7z"/>
<path class="st6" d="M926.1,476.3c-0.6-34.8-0.6-69.7-0.6-105.4c1.1,2.8,3.1,6.2,3.1,9.5c0.3,29.5,0.2,59.1,0,88.6
	C928.6,471.4,927.3,473.8,926.1,476.3z"/>
<path class="st6" d="M925.4,207.4c0-0.7,0-1.4,0-2.6c1.1,2.3,3.3,5.2,3.3,8.1c0.3,29.4,0.2,58.7,0,88.1c0,2.6-1.4,5.2-2.7,8.1
	c-0.5-1.7-0.5-3.6-0.3-6.6c-0.2-3.5-0.2-5.8-0.2-8c0-23.1,0.2-46.3,0.2-70.4c-0.2-1.7-0.2-2.2-0.2-2.8c0-1.9,0.2-4,0.2-7
	C925.4,211.2,925.4,209.2,925.4,207.4z"/>
<path class="st1" d="M1057.7,198.7c-25.8,0.3-51.6,0.3-78,0.3c0.2-0.6,1.1-1,3-1.8c24.7-0.4,48.3-0.6,71.9-0.7c0,0,0-0.1,0.2,0.3
	c1.1,0.7,2,1,3,1.2C1057.7,198,1057.7,198.5,1057.7,198.7z"/>
<path class="st1" d="M917.7,198.7c-25.8,0.3-51.6,0.3-78,0.3c0-0.6,0.9-1,2.8-1.7c5.5-0.3,9.9-0.7,14.3-0.7
	c19.2-0.1,38.5-0.1,57.7-0.3c0,0,0-0.1,0.2,0.3c1.1,0.7,2,1,3,1.2C917.7,197.9,917.7,198.5,917.7,198.7z"/>
<path class="st1" d="M833.9,537.6c0,15.1-0.8,30.4-0.9,45.7c-0.3,20.2-0.3,40.5-0.8,61.2c-0.5-33.6-0.6-67.5-0.6-101.5
	C831.4,541.2,832.7,539.5,833.9,537.6z"/>
<path class="st5" d="M1065.4,646.1c-0.3-1.5,0.2-3.3,0.2-5.1c0-33.3,0-66.6-0.2-100.5c0.5,1.2,1.7,3.2,1.7,5
	c0.2,31.9,0.2,63.8,0,95.8C1067.1,642.8,1066.4,644.3,1065.4,646.1z"/>
<path class="st5" d="M971,540.2c0.5,34.2,0.3,68.8,0.3,104c-0.5,0-1.6-0.6-1.6-1.1c0-33.3,0-66.6,0-99.8
	C969.6,542.3,970.3,541.4,971,540.2z"/>
<path class="st5" d="M970.9,372c0.5,33.3,0.5,67,0.5,101.6c0.2,1.5,0.2,2.1,0.2,2.6c-0.6-0.6-1.7-1.1-1.7-1.7c0-33.4,0-66.8,0-100.2
	C969.8,373.7,970.1,373,970.9,372z"/>
<path class="st5" d="M1066,476.1c-0.5-34.1-0.5-68.8-0.5-104c0.5,1,1.6,2.6,1.6,4.4c0.2,32.2,0,64.3,0,96.5
	C1067.1,474.1,1066.7,474.9,1066,476.1z"/>
<path class="st5" d="M1065.9,309.3c-0.5-34.2-0.5-68.8-0.5-104.1c0.6,1,1.6,2.6,1.6,4.3c0.2,32,0,64.1,0,96.1
	C1067.1,306.7,1066.7,307.8,1065.9,309.3z"/>
<path class="st1" d="M831.4,373.8c0.5,0.1,1.3,1,1.3,1.8c0,33.3-0.2,66.6-0.8,100.4C831.6,442.3,831.4,408.3,831.4,373.8z"/>
<path class="st1" d="M831.4,206.7c0.5,0.8,1.3,2.3,1.3,3.9c0,31.3,0,62.5,0,93.9c0,1-0.3,1.8-0.9,3
	C831.4,274.4,831.4,240.9,831.4,206.7z"/>
<path class="st5" d="M970.6,210.6c0.5,32.2,0.6,64.9,0.8,98.2c-0.6-0.3-1.6-1.2-1.6-2.2C969.8,274.7,969.9,242.9,970.6,210.6z"/>
<path class="st1" d="M837.4,651.1c25.5,0,51.4,0.4,78.2,1c-1.3,0.4-3.1,1.2-5,1.2c-21.5,0.1-42.9,0.1-64.5,0
	C843.2,653.2,840.5,652,837.4,651.1z"/>
<path class="st5" d="M914.1,196c-18.9,0.6-38.1,0.6-57.2,0.7c-4.4,0-8.8,0.4-13.8,0.6c0.5-0.8,1.6-2.2,2.7-2.2
	C868.4,195,891,195.3,914.1,196z"/>
<path class="st6" d="M840.8,317.9c24.2-0.4,49.1-0.4,74.5-0.3c-0.9,0.6-2.5,1.5-4.1,1.5c-22.3,0.1-44.7,0-67,0
	C843.4,319.1,842.3,318.6,840.8,317.9z"/>
<path class="st5" d="M915.9,363.3c-24.4,0.4-48.9,0.4-74.4,0.4c0.8-0.4,2.4-1.7,3.8-1.7c22.6-0.1,45.3,0,68.1,0
	C914,362.1,914.7,362.5,915.9,363.3z"/>
<path class="st5" d="M1055.7,363.1c-24.2,0.6-48.9,0.6-74.2,0.7c0.3-0.4,1.3-1.7,2.2-1.7C1007.5,362.2,1031.4,362.4,1055.7,363.1z"
	/>
<path class="st5" d="M981,317.6c24.4-0.4,49.1-0.1,74.4,0c-0.9,0.6-2.5,1.4-4.1,1.4c-22.2,0.1-44.2,0.1-66.4,0
	C983.8,319.1,982.5,318.5,981,317.6z"/>
<path class="st1" d="M981,484c23.9-0.3,48.1-0.1,73,0.3C1030,484.6,1005.8,484.4,981,484z"/>
<path class="st5" d="M1054.1,196c-23.1,0.6-46.7,0.7-71.1,1c0.5-0.6,1.7-1.9,2.8-1.9C1008.5,195,1031.1,195.3,1054.1,196z"/>
<path class="st1" d="M841.6,484.6c1.3-0.6,3.3-1.1,5.2-1.1c21.7,0.1,43.4,0.3,65.6,0.8C889.4,484.7,865.8,484.7,841.6,484.6z"/>
<path class="st1" d="M984.7,653.2c0.2-0.4,1.1-1.1,2-1.1c21.7,0,43.6,0.3,65.7,0.7C1030.3,653.2,1007.8,653.2,984.7,653.2z"/>
<path class="st6" d="M926.4,597.9c-0.6-2.2-0.8-4.7-0.9-8.1c-0.2-3.5-0.2-5.8-0.2-8.1c0.2-0.3,0.2-0.4,0.3-1.1
	C931.3,585.8,929.1,591.7,926.4,597.9z"/>
<path class="st6" d="M925.4,551.3c0-3.3,0-6.6,0-10.5c4.7,3.5,4.6,8,0.8,12.6C925.6,552.4,925.4,551.8,925.4,551.3z"/>
<path class="st6" d="M925.4,566.4c0.2-2.9,0.2-5.7,0.3-9.1c5.2,3,3.3,7.3,0.6,11.6c-0.6,0.1-0.8,0.1-0.9-0.3
	C925.4,567.5,925.4,567,925.4,566.4z"/>
<path class="st5" d="M871.3,837.1c0.6,1.8,0.6,3.7,0.6,6.1C867.6,842,868,839.8,871.3,837.1z"/>
<path class="st6" d="M926.4,642.1c-0.6-1.4-0.6-2.8-0.6-4.8C926.2,638.5,926.5,640.3,926.4,642.1z"/>
<path class="st1" d="M971.8,476.6c-0.3-0.8-0.5-1.4-0.3-2.2c0.9,1.1,1.9,2.6,2.8,4.7C973.6,478.5,972.9,477.7,971.8,476.6z"/>
<path class="st6" d="M926.2,618.6c-0.5-0.6-0.5-1.1-0.5-2.2c0.8,0,1.6,0.4,2.4,0.8C927.6,617.8,927.2,618.2,926.2,618.6z"/>
<path class="st6" d="M926.2,631.1c-0.5-0.6-0.5-1.1-0.5-2.2c0.8,0,1.6,0.4,2.4,0.8C927.6,630.2,927.2,630.6,926.2,631.1z"/>
<path class="st6" d="M924.2,645c0,0,0.6,0,0.8-0.1c0.2,0.8,0,1.8-0.6,2.3C924,646.2,924.2,645.6,924.2,645z"/>
<path class="st1" d="M862.1,531.9c-0.8,0.3-2,0.4-3.6,0.4C859.2,531.9,860.3,531.9,862.1,531.9z"/>
<path class="st1" d="M925,551.4c0.5,0.4,0.5,1,0.6,1.9c0.2,0.4-0.2,1.1-0.2,1.4C925.1,554,925,552.8,925,551.4z"/>
<path class="st1" d="M923.7,645.3c0.3,0.4,0.3,1,0.2,2.1c0,0.4-0.8,0.6-1.1,0.6C922.8,647.1,923.1,646.2,923.7,645.3z"/>
<path class="st1" d="M972.8,645.4c0.5,0.3,0.9,0.8,1.6,1.9C973.9,647.1,973.3,646.5,972.8,645.4z"/>
<path class="st5" d="M1065.4,204.1c-0.6-0.1-1.1-0.8-2-1.9C1064,202.5,1064.6,203,1065.4,204.1z"/>
<path class="st5" d="M917.4,197.5c-0.8,0.1-1.6-0.1-2.8-0.8C915.4,196.7,916.3,196.9,917.4,197.5z"/>
<path class="st5" d="M1057.4,197.6c-0.8,0.1-1.7-0.1-2.8-0.8C1055.3,196.7,1056.3,196.9,1057.4,197.6z"/>
<path class="st5" d="M972.9,202.1c0,0.7-0.3,1.4-1.3,2.5C971.7,203.8,972,203,972.9,202.1z"/>
<path class="st1" d="M977.7,650.8c0.6,0,1.6,0.3,2.7,1C979.7,651.9,978.9,651.5,977.7,650.8z"/>
<path class="st5" d="M1065.4,371.3c-0.5-0.3-1.1-0.8-1.7-1.9C1064.1,369.5,1064.8,370.2,1065.4,371.3z"/>
<path class="st6" d="M924,312c-0.2-0.6,0.3-1.4,1.1-2.3C925.1,310.2,924.8,311,924,312z"/>
<path class="st5" d="M971.4,309.9c0.6,0.1,1.1,0.8,2,1.9C972.8,311.5,972.2,311,971.4,309.9z"/>
<path class="st5" d="M971,204.7c0.3,0.4,0.3,1,0.2,2.1C970.9,206.5,970.7,205.6,971,204.7z"/>
<path class="st6" d="M916.6,317.6c0.2-0.4,0.9-1,2.2-1.7C918.5,316.4,917.7,317.1,916.6,317.6z"/>
<path class="st5" d="M1056.6,317.6c0.2-0.4,0.9-1,2.2-1.7C1058.5,316.4,1057.9,317.1,1056.6,317.6z"/>
<path class="st5" d="M972.6,371.6c0,0-0.6,0.1-0.9,0.1c-0.2-0.8,0.2-1.7,0.8-2.6c0.5,0,0.5,0.3,0.3,1.2
	C972.8,370.9,972.6,371.6,972.6,371.6z"/>
<path class="st5" d="M1059,364.7c-0.8,0.1-1.6-0.3-2.8-1C1056.9,363.7,1057.9,364,1059,364.7z"/>
<path class="st1" d="M919.2,534.3c-0.6,0-1.6-0.1-2.7-0.8C917.1,533.3,917.9,533.6,919.2,534.3z"/>
<path class="st1" d="M924.2,539.7c-0.5-0.3-1.1-1-1.6-2.1C923.1,537.9,923.6,538.5,924.2,539.7z"/>
<path class="st1" d="M840.2,533c-0.3,0.4-0.9,1-2.2,1.4C838.2,534,838.9,533.6,840.2,533z"/>
<path class="st1" d="M977.7,482.5c0.6-0.1,1.6,0.1,2.7,0.7C979.7,483.3,978.8,483,977.7,482.5z"/>
<path class="st1" d="M919.8,650.4c-0.3-0.4,0-0.7,0.9-1.1C920.7,649.6,920.4,650,919.8,650.4z"/>
<path class="st5" d="M977.5,364.8c0,0.3-0.3,0.7-1.3,1.2C976.4,366,976.7,365.4,977.5,364.8z"/>
<path class="st6" d="M919.2,364.8c0,0.3-0.6,0-0.9-0.1C918.2,364.6,918.7,364.6,919.2,364.8z"/>
<path class="st1" d="M921.4,649.1c-0.2-0.3,0.2-0.7,0.9-1.2C922.3,648.2,922,648.6,921.4,649.1z"/>
<path class="st1" d="M916.6,651.9c-0.2-0.3,0.2-0.7,0.9-1.2C917.6,650.9,917.3,651.4,916.6,651.9z"/>
<path class="st1" d="M837.1,534.5c0,0.3-0.3,0.7-0.9,1.1C836.1,535.5,836.4,535.1,837.1,534.5z"/>
<path class="st1" d="M835.5,535.9c0.2,0.3-0.2,0.7-0.9,1.2C834.5,536.9,834.9,536.5,835.5,535.9z"/>
<path class="st1" d="M974.4,479.7c0.3-0.1,0.8,0.1,1.4,0.8C975.5,480.6,975,480.3,974.4,479.7z"/>
<path class="st1" d="M975.9,481.1c0.3-0.1,0.8,0.1,1.4,0.8C977,481.9,976.6,481.7,975.9,481.1z"/>
<path class="st1" d="M918.8,199.2c-0.2,0.1-0.5,0.1-0.9,0C917.7,198.9,918.5,199,918.8,199.2z"/>
<path class="st1" d="M978.6,198.9c0,0.3-0.3,0.4-0.8,0.6C977.7,199.3,978.3,199,978.6,198.9z"/>
<path class="st5" d="M974.2,367.6c0,0.3-0.3,0.7-0.9,1.2C973.1,368.6,973.4,368.2,974.2,367.6z"/>
<path class="st1" d="M1058.8,199.2c-0.2,0.1-0.5,0.1-0.9,0C1057.7,198.9,1058.5,199,1058.8,199.2z"/>
<path class="st1" d="M1056.6,652c0-0.1,0.3-0.6,0.9-0.6C1057.5,651.8,1056.9,652,1056.6,652z"/>
<path class="st1" d="M912.5,531.9c0.3,0-0.2,0.6-0.2,0.6s-0.6-0.1-0.8-0.3C911.6,532.1,912.2,531.9,912.5,531.9z"/>
<path class="st1" d="M838.6,198.9c0,0.3-0.3,0.4-0.8,0.6C837.7,199.3,838.3,199,838.6,198.9z"/>
<path class="st6" d="M925.3,370c-0.3,0.1-0.8-0.1-1.4-0.7C924.2,369.1,924.7,369.4,925.3,370z"/>
<path class="st0" d="M1226,506.2c2.5-1.8,5-3.6,8.5-5.8c34.8-0.3,68.3-0.3,101.9-0.3c3.1,2.5,6.1,5,9.9,8.4
	c0.6,27.5,0.9,54,0.9,80.6c0,7.6-0.5,15.1-0.6,22.6c-2.2,2.1-4.4,4.1-7.5,6.6c-3.6,0.8-6.3,1.4-9.1,1.8c-30,0-60.1-0.1-91.4-0.1
	c-3,0-4.6-0.1-6.3-0.1c0,0,0,0-0.3-0.3c-1.1-0.8-2-1.2-2.8-1.7c-2-2.8-4.1-5.5-5.8-8.8c0.3-0.6,0.3-1.1,0.3-1.1l-0.6-0.4
	c0-31.8-0.2-63.5-0.2-95.3c0-1.1,0.6-2.2,1.6-4C1225.5,507.3,1225.7,506.8,1226,506.2 M1252.2,525.4c-0.2,0.3-0.5,0.4-1.9,1.4
	c-0.3,0.7-0.8,1.2-0.8,1.9c0,20.8-0.2,41.7,0,62.5c0,1.4,1.4,2.6,2.7,4.1c0.3,0.3,0.5,0.4,1.1,1.8c20.4,0.1,41,0.4,61.5,0.6
	c0.8,0,1.4-1.1,2.2-2.9c0-21,0-42-0.2-63c0-2.3-0.9-4.7-2.4-7.9c-19.7-0.1-39.2-0.4-58.8-0.4
	C1254.7,523.6,1253.6,524.5,1252.2,525.4z"/>
<path class="st5" d="M1347.1,611.6c-0.3-7.2,0-14.8,0-22.4c0-26.5-0.2-53-0.6-80.2c0.6,1,2,2.5,2,4c0.2,31.9,0.2,63.8,0,95.7
	C1348.6,609.5,1348,610.3,1347.1,611.6z"/>
<path class="st5" d="M1335.9,499.7c-33.2,0.4-66.7,0.4-101,0.4c0-0.4,0.6-1.5,1.3-1.5c32.4,0,64.8,0,97.2,0
	C1333.9,498.8,1334.6,499.2,1335.9,499.7z"/>
<path class="st5" d="M1330.2,620.7c2.4-0.8,5-1.2,8.3-1.8C1336.4,619.6,1333.5,620.3,1330.2,620.7z"/>
<path class="st5" d="M1232.6,620.4c1.4-0.3,3-0.3,5.2-0.1C1236.5,620.6,1234.8,620.7,1232.6,620.4z"/>
<path class="st5" d="M1229.3,618.6c0.6,0,1.6,0.4,2.7,1.2C1231.3,619.7,1230.4,619.5,1229.3,618.6z"/>
<path class="st1" d="M1223,608.1c0-0.3,0.6,0.1,0.6,0.1s-0.2,0.6-0.3,0.7C1223.1,609,1223,608.4,1223,608.1z"/>
<path class="st1" d="M1225.5,506.5c0.2,0.3-0.2,0.8-0.8,1.5C1224.7,507.8,1224.9,507.3,1225.5,506.5z"/>
<path class="st3" d="M736.1,458.6c0.8,130.2,0.8,260.6,0.8,390.8c0,2.1-0.3,4.1-1.1,6.5c-78.3,0.4-156,0.4-233.8,0.4
	c-10.4,0-10.4,0-10.4-8.8c0-126.8,0-253.5-0.2-380.1c0-6.8,1.6-9,9.9-8.8C579.3,458.7,657.3,458.6,736.1,458.6 M566.6,522.4
	c-0.3,0.4-0.6,0.7-1.4,1.8c-0.2,0.3-0.3,0.4-1.4,0.8c-1.9,1.8-3.6,3.7-6.8,6.1c-0.3,1.1-0.9,2.2-0.9,3.2c0,29.8-0.2,59.6,0,89.5
	c0,1.5,1.4,3.2,2.7,5.2c1.7,1.9,3.5,3.9,5.5,6.6c0.9,0.3,1.9,0.7,2.8,1.1c0,0,0-0.1,0.8,0.8c0.8,0.1,1.4,0.6,2.2,0.6
	c28.6,0,57.2,0.1,85.9,0c1.7,0,3.6-1.2,6.1-2.5c5-2.5,8.8-5.8,8.6-12.7c0-29.8-0.2-59.6-0.2-90.6c-2.5-3-5.2-6.1-8-10.1
	c-8.2-0.1-16.4-0.3-25.9-0.3c-1.7,0-3.5-0.1-6.3-0.8c-7.4,0.3-14.9,0.6-23.6,0.8c-1.7,0-3.5-0.1-6.3-0.8c-5.3,0.3-10.7,0.4-17.5,0.8
	c-3.3,0-6.6-0.1-10.5-0.8c-1.3,0.3-2.7,0.6-4.6,0.8C568,522.1,567.4,522.1,566.6,522.4 M567,794.1c0,0,0-0.1,0.6,0.7
	c2.4-0.1,4.7-0.3,8.5-0.6c6.9,0,13.8,0.1,21.9,1c20,0.1,40.1,0.3,60.1,0.3c1.1,0,2.2-1,3.3-1.2c0,0-0.2,0,0.9-0.1
	c0.8-0.6,1.4-1.1,2.7-2.3c1.3-1,2.5-2.1,4.6-3.2c0.2-0.1,0.5-0.3,0.5-0.3c-0.2-0.3-0.3-0.6-0.3-1.8c0.3-1.1,0.6-2.3,1.1-4.7
	c0-30.4-0.2-60.6,0-91.8c-0.3-0.7-0.8-1.4-1.3-2.8c0,0-0.3-0.6-0.6-1.5c-3.1-2.2-6.1-4.3-9.4-7.5c-1.4-0.4-2.8-1.2-4.1-1.2
	c-26.7-0.1-53.5-0.1-80,0.1c-3.1,0-6.4,2.2-10.2,3.9c-2.4,2.2-4.7,4.4-8,7.6c-0.3,0.8-0.8,1.8-0.8,2.6c0,30.1-0.2,60.1,0,90.2
	c0,1.5,1.4,3,2.8,5.2c1.7,1.9,3.3,3.7,5.3,6.6C565.3,793.3,566.3,793.7,567,794.1z"/>
<path class="st5" d="M999.4,558.2c4.2-0.6,8.3-1.4,12.6-1.4c8-0.3,16,0,24.7,0c0,23.9,0,47.4,0,71.2c-12.3,0-24.4,0-36.8-0.4
	c-0.3-0.4-0.2-0.3,0.6-0.4c10.2,0,19.7-0.3,28.9,0c4.7,0.1,6.4-1.4,6.3-5.5c-0.2-19.3-0.2-38.7,0-58c0-4.8-2.2-5.8-7.1-5.7
	c-9.8,0.3-19.3,0-29.1,0C999.5,558,999.4,558.2,999.4,558.2z"/>
<path class="st1" d="M999.4,626.9c-0.5-0.8-1.4-1.7-1.4-2.3c0.2-21.8,0.3-43.8,0.8-66c0.5-0.4,0.6-0.6,0.6,0.1
	c0,23.2,0.2,45.8,0.2,68.5C999.7,627.2,999.5,627.1,999.4,626.9z"/>
<path class="st6" d="M999.4,391.1c4.2-0.6,8.5-1.4,12.6-1.5c8-0.3,16.2-0.1,24.7-0.1c0,23.9,0,47.1,0,71.2c-12.1,2.2-24.4,3.2-37-1
	C999.4,436.1,999.4,413.6,999.4,391.1 M1002.7,401.4c0,17,0.2,34-0.2,51c0,4.7,1.4,6.6,7.1,6.4c6.3-0.4,12.6-0.4,18.9,0
	c6.1,0.4,7.5-1.8,7.4-6.8c-0.3-13.5,0-27.1-0.2-40.6c-0.2-6.5,1.9-15.2-2-19.1c-3.3-3.3-13.7-1.2-20.9-1.2
	C1002.7,390.9,1002.7,390.9,1002.7,401.4z"/>
<path class="st1" d="M998.9,391.5c0.5,22.1,0.5,44.6,0.6,67.8c-0.5-0.1-1.4-1-1.4-1.7C998.1,435.7,998.3,413.7,998.9,391.5z"/>
<path class="st1" d="M972.9,371.5c-0.3,0.1-0.2-0.6,0-0.8c0.3,0,0.5,0.3,0.6,0.6C973.6,371.2,973.3,371.3,972.9,371.5z"/>
<path class="st3" d="M897.1,407.4c0,0.7,0.2,1.2-0.3,2.9c-0.6,14.5-0.9,28.2-0.9,41.8c0,4.7-1.7,6.8-7.2,6.5
	c-7.1-0.3-14.2-0.1-21.2,0c-4.1,0.1-6.6-0.7-6.1-4.8c0.6-5.2,1.6-10.5,1.4-15.6c-0.2-14.1-0.8-28.2-1.4-42.3c-0.2-3.5,1.3-5,5.5-4.8
	c7.5,0.1,15.1,0.1,22.8,0c4.7-0.1,6.4,1.8,6.4,5.8C895.9,400.3,896.7,403.9,897.1,407.4z"/>
<path class="st6" d="M897.1,406.8c-0.5-2.9-1.3-6.5-1.4-10.1c0-4-1.7-5.9-6.4-5.8c-7.5,0.1-15.1,0.1-22.8,0
	c-4.1-0.1-5.7,1.4-5.5,4.8c0.6,14.1,1.3,28.2,1.4,42.3c0.2,5.2-0.8,10.5-1.4,15.6c-0.5,4.1,2,5,6.1,4.8c7.1-0.1,14.2-0.3,21.2,0
	c5.5,0.1,7.4-1.9,7.2-6.5c0-13.7,0.3-27.2,0.9-41.3c0.5,14.5,0.3,29.5,0.8,44.5c0.2,5-2.5,6.9-7.1,7c-9.9,0.3-19.8,0.1-30.2,0.1
	c0-24.3,0-48.2,0-72.4c12,0,23.9,0,37.1,0C897.3,395.4,897.3,400.7,897.1,406.8z"/>
<path class="st3" d="M897,607.6c0,2.5,0.2,4.8-0.3,8.3c-1.7,11.2-1.7,11.2-13.5,11.2c-4.1,0-8.3-0.4-12.4,0.1
	c-8.3,1.1-10.1-2.1-9.8-8.8c0.3-9.5-0.6-18.9-1.1-28.4c0-1.1-0.2-2.2,0.3-4.3c0.6-8,1.1-15.1,0.9-22.2c-0.2-4.3,1.7-5.7,6.3-5.5
	c7.2,0.3,14.6-0.3,21.9,0.3c2.7,0.1,5.2,2.5,7.9,3.9c0,1.5,0.2,3-0.3,5.7c-0.6,6.8-1.1,12.4-0.9,18.2
	C896,593.1,896.7,600.4,897,607.6z"/>
<path class="st5" d="M859.7,590.6c0.5,8.8,1.6,18.4,1.3,27.8c-0.2,6.6,1.4,9.9,9.8,8.8c4.1-0.6,8.3-0.1,12.4-0.1
	c11.8,0,11.8,0,13.5-10.5c0.5,3.5,0.5,7.3,0.5,11.5c-12.4,0-24.4,0-37.4,0C859.7,615.7,859.7,603.4,859.7,590.6z"/>
<path class="st5" d="M897.1,561.5c-2.7-0.7-5.2-3-7.9-3.3c-7.2-0.6-14.6,0-21.9-0.3c-4.7-0.1-6.4,1.2-6.3,5.5
	c0.2,7-0.2,14.1-0.8,21.7c-0.5-9-0.5-18.4-0.5-28.4c11.8,0,23-0.1,34.1,0.1C895.1,556.9,896,559.4,897.1,561.5z"/>
<path class="st5" d="M897.1,606.9c-0.5-6.6-1.1-13.8-1.3-21.1c-0.2-5.7,0.3-11.5,0.8-17.7C897.1,580.7,897.1,593.5,897.1,606.9z"/>
<path class="st1" d="M925,581.9c0.5,1.9,0.5,4.3,0.5,7.2C925.1,587.2,924.8,584.8,925,581.9z"/>
<path class="st1" d="M925.1,566.6c0.3,0.4,0.5,1,0.3,2.1C925.1,568.2,925,567.5,925.1,566.6z"/>
<path class="st6" d="M999.4,244.7c0-1.5,0.2-3,0.2-5.8c-0.2-3.5-0.2-5.8-0.2-8c0.6-9.8,0.6-9.8,12.1-9.8c6.6,0,13.1,0.1,19.7,0
	c4.1,0,6.3,0.8,6.1,5c-0.2,21.4-0.2,42.8-0.2,64.2c0,0.7-0.3,1.2-1.1,3.5c-11.8,0-23.9,0-36.3-1.1
	C999.4,275.9,999.4,260.3,999.4,244.7 M1026.9,223.9c-8,0-16.2,0-24.2,0c0,15.1-0.2,29.5,0,43.9c0,7-2.5,17.1,1.6,20.4
	c4.7,3.7,15.7,1.4,23.9,1.9c6,0.4,7.7-1.5,7.5-6.6c-0.3-17.7-0.3-35.3,0-53.2C1035.8,225.4,1034.3,223,1026.9,223.9z"/>
<path class="st1" d="M998.9,245.1c0.5,15.2,0.5,30.8,0.5,47.1c-0.5-3.6-1.3-7.7-1.3-12C997.9,268.6,998.3,257,998.9,245.1z"/>
<path class="st1" d="M998.9,231.2c0.5,1.9,0.5,4.3,0.5,7.2C999,236.4,998.7,234.1,998.9,231.2z"/>
<path class="st3" d="M859.7,254.4c0-2.9-0.2-5.7,0.5-9.3c1.1-2.3,1.9-4,1.9-5.5c-0.2-3.6-0.6-7.3-0.9-10.9c-0.3-3.6,1.4-4.8,5.5-4.8
	c7.2,0.1,14.6,0.3,21.9,0c4.7-0.1,5.7,1.8,5.7,5.4c-0.2,18.5-0.2,36.9,0,55.4c0,4.1-1.4,5.7-6.3,5.7c-9.4-0.3-18.9,0-28.1,0
	c0-1.9-0.2-3.9,0.3-6.9C860.3,273,860,263.6,859.7,254.4z"/>
<path class="st6" d="M859.7,290.7c9.4-0.6,18.9-0.8,28.3-0.6c4.9,0.1,6.3-1.5,6.3-5.7c-0.2-18.5-0.2-36.9,0-55.4
	c0-3.6-0.9-5.5-5.7-5.4c-7.2,0.3-14.6,0.1-21.9,0c-4.1-0.1-5.8,1.2-5.5,4.8c0.3,3.6,0.8,7.2,0.9,10.9c0,1.7-0.8,3.2-1.7,5
	c-0.6-7.2-0.6-14.5-0.6-22.5c12.3,0,24.4,0,37.4,0c0,4.6,0,9.1,0,13.5c0,17.1-0.2,34.4,0.2,51.5c0.2,5.2-1.6,7.6-7.9,7.3
	c-8-0.4-16.2,0.1-24.2-0.3C863.3,294.2,861.4,292.4,859.7,290.7z"/>
<path class="st6" d="M859.7,254.9c0.3,8.7,0.6,18,0.5,27.8C859.7,274,859.7,264.7,859.7,254.9z"/>
<path class="st1" d="M925,294.7c0.5,1.9,0.5,4.3,0.5,7.2C925.1,300,924.8,297.6,925,294.7z"/>
<path class="st1" d="M925,207.7c0.5,1.5,0.5,3.5,0.5,5.8C925.1,212.1,924.8,210.1,925,207.7z"/>
<path class="st1" d="M925.1,221.4c0.3,0.4,0.5,1,0.3,1.9C925.1,223,925,222.4,925.1,221.4z"/>
<path class="st6" d="M1252.7,596.3c0-0.3-0.2-0.6-0.8-1.5c-0.3-23.3-0.5-46.1-0.5-68.8c0.3-0.1,0.6-0.3,1.7-0.7
	c21.4-0.3,42-0.3,62.4-0.3c0.5,2.3,1.4,4.7,1.4,7c0.2,21,0.2,42-0.6,63.7C1294.7,596.3,1273.8,596.3,1252.7,596.3 M1309.6,527.6
	c-16,0-31.9,0.1-48-0.1c-5.3,0-7.5,1.7-7.4,6.5c0.2,18,0.2,35.9,0,53.9c0,4.4,2,6.1,7.1,6.1c15.4-0.1,31-0.1,46.4,0
	c4.7,0,6.4-1.1,6.4-5.5c-0.2-18.4,0-36.9-0.2-55.2C1313.9,531.4,1312,529.6,1309.6,527.6z"/>
<path class="st1" d="M1251,526.4c0.6,22.2,0.6,45,0.8,68.2c-0.6-0.7-2-2.1-2-3.3c-0.2-20.8,0-41.7,0-62.5
	C1249.7,528.1,1250.2,527.5,1251,526.4z"/>
<path class="st1" d="M1253.2,596.8c20.6-0.6,41.7-0.6,63.4-0.6c0,0.6-0.8,1.7-1.4,1.7C1294.5,597.6,1273.9,597.5,1253.2,596.8z"/>
<path class="st1" d="M1315.1,524.5c-20.1,0.4-40.6,0.6-61.8,0.6c0.3-0.6,1.4-1.4,2.7-1.4C1275.5,523.6,1295.2,523.9,1315.1,524.5z"
	/>
<path class="st0" d="M558.2,530.4c1.9-1.8,3.6-3.7,6.6-5.5c2.5-0.8,3.9-1.7,5.8-2.6c1.3-0.3,1.9-0.3,2.5-0.4c3.3,0,6.6,0.1,11.3,0.1
	c6.6,0,11.8-0.1,17-0.1c1.7,0,3.5,0.1,6.6,0.1c8.6,0,15.9-0.1,23.3-0.1c1.7,0,3.5,0.1,6.6,0.1c8.2,0.6,15.1,1.1,22,1.9
	c1.1,0.1,1.9,0,2.8-0.3c0-0.1,0-0.4,0-0.4c2.5,3,5.2,6.1,7.2,9.9c-0.6,30.1-0.8,59.2-0.8,88.5c0,0.8,0.8,1.7,1.3,2.3
	c0.3,5.7-3.5,8.8-9.6,11.9c-32.1,0.6-63.1,0.6-94,0.6c0,0,0,0.1-0.2-0.3c-1.1-0.8-2-1.2-2.8-1.7c-1.7-1.9-3.5-3.9-5.7-6.6
	c-0.6-22.6-0.8-44.3-0.8-66.1C557.6,551.4,558.1,540.9,558.2,530.4 M642.5,609.5c0.3,0.3,0.6,0.6,1.1,0.7c0,0,0.5-0.1,0.5-0.3
	c0-20.2,0-40.3-0.2-60.3c0-0.8-1.4-1.7-3.5-2.5c-17.5,0-34.9,0-52.4,0c0,22.1,0,43.2,0,65c16.7,0,32.9,0.1,49.1-0.1
	C638.8,611.9,640.5,609.8,642.5,609.5z"/>
<path class="st2" d="M659.7,679.1c3.1,2.2,6.1,4.3,9.1,7c0.2,1,0.6,1.2,0.9,1.5c0.3,0.7,0.8,1.4,0.6,2.9
	c-0.6,30.5-0.8,60.2-0.9,89.9c0,0.8,0.8,1.7,1.3,2.3c-0.3,1.1-0.6,2.3-1.3,4.3c-0.3,0.7-0.6,1.4-0.6,1.4c-1.3,1-2.5,2.1-4.6,3.6
	c-1.4,1-2.2,1.5-3,1.9c0,0,0.2,0-0.6,0c-21.7,0.1-42.6,0.1-63.5,0.3c-6.9,0-13.8-0.1-22.2-0.1c-3.5,0-5.7-0.1-7.9-0.1
	c0,0,0,0.1-0.2-0.3c-1.1-0.8-2-1.2-2.8-1.7c-1.7-1.9-3.3-3.7-5.5-6.6c-0.5-33.3-0.5-65.6-0.5-98c2.4-2.2,4.7-4.4,7.9-7.2
	c1.6-0.6,2.2-0.6,3.5-0.3c29.6,0.6,58.8,0.7,87.9,0.7c0.9,0,1.7-0.8,2.7-1.2C659.7,679.4,659.7,679.1,659.7,679.1 M643.3,768.6
	c0.2-20.2,0.5-40.5,0.6-60.6c0-0.8-0.9-1.5-2.4-3c-17.9,0-35.9,0-54.1,0c0,11.5,0,22.2,0,33c0,10.8,0,21.4,0,33.1
	c6.8-1.1,12.6-2.1,19.5-2.6c5.8-0.1,11.6-0.3,18.4,0.6C630.9,769.1,636.7,769.3,643.3,768.6z"/>
<path class="st5" d="M568.8,679.7c-0.8,0-1.4,0.1-2.7,0.4c2.7-1,5.8-3,9.1-3.2c26.7-0.3,53.5-0.1,80-0.1c1.4,0,2.8,0.8,4.2,1.8
	c0.2,0.6,0.2,0.8-0.5,0.7C628.5,679.5,598.7,679.5,568.8,679.7z"/>
<path class="st5" d="M557.5,687.9c0.5,31.9,0.5,64.2,0.6,97.2c-0.5-1-1.9-2.5-1.9-4c-0.2-30.1-0.2-60.1,0-90.2
	C556,690.2,556.7,689.2,557.5,687.9z"/>
<path class="st5" d="M557.6,530.7c0.3,10.2,0,20.7,0,31.2c0,21.7,0.2,43.5,0.5,65.9c-0.5-1-1.9-2.5-1.9-4c-0.2-29.8-0.2-59.6,0-89.5
	C556,533.2,556.7,532.1,557.6,530.7z"/>
<path class="st1" d="M670.7,782.3c-0.5-0.1-1.3-1-1.3-1.8c0.2-29.7,0.3-59.4,0.8-89.5C670.7,721.1,670.7,751.3,670.7,782.3z"/>
<path class="st1" d="M670.7,623.5c-0.5-0.1-1.3-1-1.3-1.8c0-29.1,0.2-58.4,0.8-88C670.7,563.1,670.7,593.1,670.7,623.5z"/>
<path class="st5" d="M567.5,637c30.5-0.4,61.5-0.6,93.1-0.7c-1.1,0.4-2.8,1.7-4.6,1.7c-28.6,0.1-57.2,0-85.9,0
	C569.4,638,568.6,637.7,567.5,637z"/>
<path class="st5" d="M597.6,794.7c20.4-0.4,41.4-0.6,63.1-0.7c-0.3,0.4-1.4,1.4-2.5,1.4C638.1,795.4,618,795.2,597.6,794.7z"/>
<path class="st5" d="M660,523.6c-6.8-0.6-13.7-1.1-21.2-1.7c7.5,0.1,15.7,0.1,24.1,0.8c0.2,0.6,0.2,0.8-0.3,0.8
	C661.2,523.6,660.6,523.6,660,523.6z"/>
<path class="st5" d="M630.9,521.6c-6.8,0.4-14.2,0.4-22,0.4C615.5,521.7,623,521.4,630.9,521.6z"/>
<path class="st5" d="M601,521.6c-4.7,0.4-9.9,0.4-15.7,0.4C589.8,521.7,595.2,521.4,601,521.6z"/>
<path class="st5" d="M567.4,794.4c1.9-0.3,3.9-0.3,6.8-0.1C572.4,794.5,570,794.7,567.4,794.4z"/>
<path class="st1" d="M570.2,522.4c-1.4,0.8-2.8,1.7-4.9,2.3c-0.5-0.3-0.3-0.4,0.5-1.1c0.9-0.8,1.3-1.2,1.6-1.5c0,0,0.6,0,1.4,0
	C569.4,522.3,570.2,522.4,570.2,522.4z"/>
<path class="st5" d="M570.7,522.3c-0.5,0.1-1.3,0-1.6-0.1c0.9-0.4,2.2-0.7,3.9-0.6C572.5,522,571.8,522,570.7,522.3z"/>
<path class="st5" d="M661.9,794c0.3-0.4,0.9-1,2.2-1.7C663.8,792.9,663,793.4,661.9,794z"/>
<path class="st5" d="M564.2,635.2c0.8,0,1.6,0.3,2.8,1.1C566.3,636.3,565.3,636,564.2,635.2z"/>
<path class="st5" d="M564.1,792.6c0.8,0,1.6,0.4,2.8,1.1C566.3,793.7,565.3,793.3,564.1,792.6z"/>
<path class="st1" d="M669.6,687.4c-0.2,0-0.6-0.3-0.6-0.8C669.1,686.4,669.4,687.1,669.6,687.4z"/>
<path class="st5" d="M566.9,522.3c0,0.3-0.3,0.7-1.1,1.1C565.8,523.1,566.1,522.8,566.9,522.3z"/>
<path class="st5" d="M669.1,788.5c-0.3,0,0-0.6,0.2-0.8c0.3,0,0.5,0.3,0.6,0.6C669.9,788.2,669.6,788.3,669.1,788.5z"/>
<path class="st3" d="M1000.5,627.1c-0.8-22.6-0.8-45.3-0.8-68.5c9.8-0.7,19.5-0.4,29.1-0.7c4.9-0.1,7.1,0.8,7.1,5.7
	c-0.3,19.3-0.2,38.7,0,58c0,4.1-1.6,5.7-6.3,5.5C1020,626.9,1010.5,627.1,1000.5,627.1z"/>
<path class="st3" d="M1002.7,400.7c0-9.8,0-9.8,9.9-9.8c7.2,0.1,17.6-1.9,20.9,1.2c3.9,3.9,1.9,12.4,2,19.1
	c0.2,13.5-0.2,27.1,0.2,40.6c0.2,5-1.3,7.2-7.4,6.8c-6.3-0.4-12.6-0.4-18.9,0c-5.7,0.3-7.1-1.5-7.1-6.4
	C1002.8,435.4,1002.7,418.4,1002.7,400.7z"/>
<path class="st3" d="M1027.5,223.9c6.8-0.8,8.3,1.5,8.2,6.6c-0.3,17.7-0.3,35.3,0,53.2c0.2,5.1-1.6,7-7.5,6.6
	c-8.2-0.7-19.2,1.8-23.9-1.9c-4.1-3.3-1.6-13.4-1.6-20.4c-0.2-14.5,0-28.9,0-43.9C1010.7,223.9,1018.7,223.9,1027.5,223.9z"/>
<path class="st3" d="M1310.4,527.6c1.7,1.9,3.5,3.7,3.6,5.5c0.2,18.4,0,36.9,0.2,55.2c0,4.3-1.9,5.5-6.4,5.5
	c-15.4-0.1-31-0.1-46.4,0c-5,0-7.1-1.7-7.1-6.1c0.2-18,0.2-35.9,0-53.9c0-4.8,2-6.5,7.4-6.5C1277.7,527.8,1293.6,527.6,1310.4,527.6
	z"/>
<path class="st5" d="M642.2,608.7c-1.7,1.1-3.5,3.2-5,3.2c-16.2,0.3-32.4,0.1-49.1,0.1c0-21.7,0-42.9,0-65c17.6,0,34.9,0,53.2,0.7
	C642.1,568.4,642.2,588.5,642.2,608.7 M597.9,548.4c-6.4-0.8-9.3,0.8-9.1,7.3c0.5,16.3,0.3,32.6,0.2,48.9c0,4.4,1.4,6.1,6.6,5.9
	c12.6-0.3,25.2-0.3,37.6,0c5,0.1,6.1-1.7,6.1-5.7c-0.2-17-0.2-34,0-51c0-4.1-1.4-5.7-6.3-5.7C621.9,548.5,610.8,548.4,597.9,548.4z"
	/>
<path class="st1" d="M642.4,609.1c-0.2-20.6-0.3-40.7-0.5-61.4c0.6,0.3,2,1.1,2,1.9c0.2,20.2,0.2,40.3,0.2,60.3
	c0,0.1-0.3,0.4-0.5,0.3C643.2,610.1,642.8,609.8,642.4,609.1z"/>
<path class="st1" d="M660.1,523.9c0.5-0.3,1.1-0.4,2.4-0.3C662,523.9,661.2,524.1,660.1,523.9z"/>
<path class="st3" d="M624.4,768c-5.8,0.1-11.6,0.3-18.9,0.1c-4.2-0.3-7.2-0.4-10.1-0.3c-4.7,0.3-6.4-1.1-6.4-5.4
	c0.2-17.3,0.2-34.4,0-51.6c0-4,1.7-5.2,6-5.1c12.3,0.1,24.5,0.3,36.8,0c5.8-0.1,7.7,1.4,7.5,6.6c-0.3,13.9-0.2,28-0.2,42
	C639.4,767.8,639.4,767.8,624.4,768z"/>
<path class="st6" d="M624.8,768.4c14.6-0.8,14.6-0.8,14.6-14.2c0-13.9-0.3-28,0.2-42c0.2-5.2-1.9-6.8-7.5-6.6
	c-12.3,0.3-24.5,0.3-36.8,0c-4.2,0-6,1.2-6,5.1c0.2,17.3,0.2,34.4,0,51.6c0,4.3,1.7,5.8,6.4,5.4c2.8-0.1,5.8,0,9.4,0
	c-4.9,1-10.5,1.9-17.5,3c0-11.7,0-22.5,0-33.1c0-10.8,0-21.5,0-33c18.2,0,36.2,0,54.4,1.1c0.5,21.8,0.5,42.7,0.5,63.5
	C636.7,769.3,630.9,769.1,624.8,768.4z"/>
<path class="st1" d="M569.2,680.1c29.4-0.6,59.3-0.6,90-0.6c-0.2,0.6-1.1,1.2-1.9,1.2C628.1,680.8,598.8,680.6,569.2,680.1z"/>
<path class="st1" d="M642.8,769c-0.5-20.4-0.6-41.1-0.5-62.7c0.6,0.1,1.6,0.8,1.6,1.7C643.8,728.1,643.6,748.4,642.8,769z"/>
<path class="st3" d="M598.7,548.4c12,0,23.3,0.1,34.4-0.1c4.9-0.1,6.3,1.5,6.3,5.7c-0.2,17-0.2,34,0,51c0,4-1.3,5.8-6.1,5.7
	c-12.6-0.3-25.2-0.3-37.6,0c-5.2,0.1-6.8-1.5-6.6-5.9c0.2-16.3,0.5-32.6-0.2-48.9C588.6,549.2,591.4,547.5,598.7,548.4z"/>
</svg>
