<?xml version="1.0" encoding="utf-8"?>
<!-- Generator: Adobe Illustrator 28.0.0, SVG Export Plug-In . SVG Version: 6.00 Build 0)  -->
<svg version="1.1" id="Layer_1" xmlns="http://www.w3.org/2000/svg" xmlns:xlink="http://www.w3.org/1999/xlink" x="0px" y="0px"
	 viewBox="0 0 1920 1024" style="enable-background:new 0 0 1920 1024;" xml:space="preserve">
<style type="text/css">
	.st0{fill:#D5AE64;}
	.st1{fill:#D5AE65;}
	.st2{fill:#FBFBF2;}
	.st3{fill:#CFB688;}
	.st4{fill:#C39E57;}
	.st5{fill:#F8EFDB;}
</style>
<path class="st0" d="M892.1,571.9c-2.1,0-4,0.1-6.9-0.2c-8.6-0.2-16.2,0-24,0.1c0,0,0,0.2-0.5,0.2c-1.4,0-2.2-0.1-3.1-0.1
	c-11.3-8.3-7-10.7,2.3-20.4c14.9-15.6,30.7-30.2,46.2-45.2c9-8.8,17.9-17.6,26.9-26.4c17.5-17.2,35-34.5,52.3-51.8
	c8.2-8.2,16.8-16.1,24.7-24.7c16.7-17.7,34.4-34.4,52-51.3c17.9-17.3,35.4-34.9,53.3-52.5c8.7-8.7,17.5-17.2,26.3-25.8
	c19.2-18.9,38.5-37.7,57.6-56.8c13.7-13.6,27.3-27.4,41-41.1c15.3-15.3,30.5-30.5,45.8-45.6c2.9-2.9,6.1-5.2,10.5-2.9
	c4.2,2.2,6.7,7.9,4.9,12.1c-6.5,14.7-12.9,29.5-20,44c-26.3,53.9-52.8,107.6-79.3,161.4c-13.5,27.4-27.3,54.7-41,82.1
	c-3,5.8-5.6,11.8-8.3,17.7c-3.3,7.2-1,10.7,7.3,10.7c35.4,0,70.9,0.1,106.3,0c5.1,0,9.5,0.9,11.8,5.7c2.4,5.1,0.8,9.2-3.3,13.1
	c-28.2,28-56.2,56.2-84.5,84.4c-28.5,28.3-56.9,56.7-85.4,85c-46.7,46.4-93.6,92.8-140.3,139.3c-22.3,22.2-44.6,44.2-67,66.7
	c-0.2,0.3-0.1,0.3-0.5,0.5c-5.8,6.2-11.4,12.1-16.9,18.1c0,0,0,0-0.5,0.1c-3.2,3.2-5.9,6.5-8.7,9.6c0,0,0,0-0.5,0.1
	c-3.5,3.2-6.6,6.6-9.7,9.8c0,0,0,0-0.1,0c-3.2,1.8-6.2,4.5-9.7,5.4c-3.1,0.8-8.2,0.5-9.6-1.3c-1.8-2.3-2.1-7-0.8-10
	c4.6-10.4,10.2-20.4,15.3-30.6c18.7-37,37.6-74,56.3-111c3.7-7.1,7.3-14.2,10.6-21.4c10.4-22.3,23.1-43.6,33.7-65.8
	c10.2-21.2,21.1-42.2,31.5-63.3c1.5-3,2.1-6.6,3.4-9.6c1.6-3.4,0.6-5.5-3-7.5c-0.7-0.4-0.7-0.5-0.6-0.8c0.5-0.2,0.7-0.2,0.8-0.3
	c0.1-0.1,0-0.4,0-0.4c-3,0.2-5.9,0.4-9.4,0.8c-2.1,0-3.8,0-5.6-0.3c-1.1-0.1-2.2,0-3.1,0.2c-1.6,0-3.3,0.1-5.6-0.2
	c-1.6-0.1-2.6,0-3.5,0.2c-1.3,0.1-2.5,0.1-4.7,0.2c-1.7,0-2.5,0.1-3.3,0.1c-3.2-0.1-6.3-0.1-10.3-0.5c-7.4-0.1-14.1,0.1-21,0.3
	c-2.4,0.1-4.3,0.1-6.3,0.2c-1.3-0.1-2.5-0.1-4.5-0.5c-1.6-0.1-2.5,0-3.5,0.2c-2.1,0-4,0.1-6.6-0.1c-0.9-0.4-1.3-0.3-1.4,0.1
	c-1.9,0-4,0.1-6.6-0.1C892.6,571.3,892.2,571.4,892.1,571.9z"/>
<path class="st1" d="M1364,644.5c-0.5,0.8-0.9,1.6-1.7,3c-7.9,12.4-15.4,24.2-23,36.1c-1.5,2.3-2.5,4.9-4.2,6.9
	c-5.1,6.3-10.5,12.4-15.9,18.7c0,0,0,0.1-0.2,0.1c-0.5,0.4-0.7,0.8-0.8,1.1c0,0,0.1,0.1-0.2,0.1c-0.6,0.3-0.7,0.6-0.9,1
	c0,0,0.1,0-0.2,0.1c-3.7,3.6-7.1,7.1-10.4,10.6c-1.7,1.5-3.3,3.1-5.6,5.1c-7.5,6.9-14.5,13.4-21.5,19.8c0,0,0.1,0-0.3,0
	c-9.9,7-19.1,14.8-29.3,21c-16.9,10.2-34.5,19.3-51.8,28.8c0,0-0.5,0.1-1,0.1c-4.1,1.5-7.4,3.1-11,4.3c-12.8,4.3-25.6,8.5-38.3,12.8
	c0,0-0.3,0-1,0.1c-4.6,1.1-8.5,2.2-12.3,3.2c-0.5,0-1,0.1-2.3,0.1c-17.8,1.8-34.7,3.7-51.7,5.5c-0.7,0.1-1.3,0.5-1.9,0.9
	c-7.7,0-15.2,0-23.7-0.3c-4.8-0.4-8.8-0.4-12.8-0.5c-0.5,0-1-0.1-2.2-0.5c-2.7-0.5-4.9-0.6-7-0.8c-1.1,0-2.4,0-4.3-0.3
	c-5.1-0.9-9.5-1.3-13.9-1.7c-0.5,0-1,0-2.2-0.4c-3.9-0.9-7.2-1.4-10.4-1.8c-0.5,0-1,0-1.8,0c-7-1.9-13.6-3.9-20.2-5.7
	c-5.3-1.4-6.3-4.8-4.7-9.2c3.5-10.2,11.4-14.7,22.5-12.3c24.2,5.1,48.7,8.5,73.4,7.8c47.8-1.5,93.3-11.5,135.4-33.6
	c46.7-24.7,85.3-57.8,115.2-99.7c25.6-35.9,40.6-75.7,45.5-118.6c6.1-53.1-2.1-104.5-25.1-153.4c-18.4-38.8-44-72.7-78.5-100.3
	c-8.7-7-6.5-20.7,4.1-24.9c1.8-0.8,5.1,0,7,1.2c5.8,4,12,7.9,16.7,12.9c12.8,13.4,25.1,27.3,37.5,41.1c12.3,14,20.8,30.2,29.8,46.2
	c18.2,32.2,28.5,66.7,33.9,102.6c3.9,25.8,3.5,51.9,0.6,78c-3.8,32.2-13.4,62.8-27.5,92.6c0,0.4-0.2,0.8-0.5,1.1
	C1364.3,643.7,1364.1,644.1,1364,644.5z"/>
<path class="st0" d="M767.5,649.6c0,0,0-0.4-0.1-1c-0.5-0.6-0.7-0.9-1-1.1c0,0,0.1,0,0-0.4c-3.4-7.6-7.2-14.6-10.2-21.8
	c-2.2-5.4-5.8-8-11.9-8c-7.2,0-14.4,0-21.9-0.2c-1.5-0.4-2.6-0.6-3.8-0.6c-45.4,0-90.7,0-136.1,0c-1.6,0-3.2,0.6-4.8,1.1
	c0,0.1,0,0.3-0.5,0.1c-7-2.2-11.8-9.4-11-16.4c0.6-4.9,4-7.4,11.7-8.2c1.1,0.3,1.8,0.5,2.6,0.5c47.1,0,94.2,0,141.2,0
	c1.5,0,2.9-0.6,4.8-1c3.3-0.4,6.1-0.8,8.9-1.1c5.8-0.8,7-2.7,5.9-8.1c-2.5-12.7-4.9-25.4-7.1-38.2c-1-6.3-1.4-12.8-2.3-19
	c-0.7-4.5-2.1-8.9-8.6-9.3c-0.8-0.1-1.3,0-1.9-0.2c-0.5-0.3-0.7-0.3-1.4-0.2c-9.4-0.3-18.3-0.5-27.5-1c-1.5-0.4-2.6-0.8-3.7-0.8
	c-57.6,0-115.2,0-172.8,0c-1.6,0-3.2,0.6-5.3,1c-6.6-1.2-6.3-7-8.9-10.7c0-0.9,0.1-1.6,0-2.8c-0.7-5.2,2.1-8,7-10.2
	c2.1-0.4,3.3-0.8,4.6-1c2.7,0,5.4,0,9.1,0c3.7,0,6.4-0.1,9.1-0.1c0.9,0,1.7,0.1,3.5,0.1c2.5,0,4-0.1,5.6-0.1
	c0.2,0.1,0.3,0.1,1.3,0.4c3.1,0.1,5.5,0,7.9-0.1c0.2,0,0.5-0.1,1.4-0.2c2.3-0.1,3.9-0.1,5.5-0.1c0.6,0,1,0.1,2.3,0.1
	c1.3-0.1,1.7-0.1,2.3-0.1c0.2,0.1,0.3,0.1,1.3,0.5c4.2,0.1,7.8,0,11.3-0.2c1.6,0,3.2,0,5.6,0.2c4,0.1,7.2,0,10.4-0.2
	c0.6,0,1,0,2.3,0.2c11.2,0.1,21.6,0,32-0.2c3.9,0,7.8-0.1,12.5,0.2c1.6,0.4,2.4,0.5,3.2,0.5c34.5,0,69,0,103.5,0
	c1.5,0,2.9-0.5,4.8-0.9c2.4,0.2,4.3,0.4,6.3,0.6c4,1.5,4.8,4.3,4.7,8.2c-0.2,11.9-1.1,23.9,0.2,35.6c1.9,15.6,5,31.1,8.9,46.4
	c6.6,25.3,17.3,49.3,31.5,71.7c14.3,22.5,30.4,43.8,50.9,61.8c7.7,6.7,16,12.7,23.9,19c2.2,1.7,4.3,3.5,6.1,5.6
	c3.1,3.8,3.8,7.8-0.1,11.7c-1.8,1.8-3.4,3.8-5.1,5.7c-3.8,4.2-8,4.7-12.3,1.1c-12.8-10.5-25.5-21.2-38.6-31.9
	c-0.5-0.5-0.6-0.8-1.3-1.4c-4.7-5.2-8.8-10.1-13-14.7c-4-4.4-8.1-8.8-12.2-13.2c0,0,0,0.1-0.1-0.3c-6.1-8.9-12.1-17.3-18.2-25.7
	c0,0,0-0.4-0.2-1C775.6,663.1,771.5,656.3,767.5,649.6z"/>
<path class="st1" d="M587,401.1c0-1.1-0.1-2.2,0.1-3.8c0.5-0.9,0.6-1.2,0.8-1.5c1.4-1.5,2.9-3.1,4.9-5c4.3-0.8,7.9-1.4,11.4-1.4
	c47.4-0.1,94.9,0,142.2-0.1c3.2,0,6.5-1.3,9.7-2.1c1-0.9,2.1-1.6,3.5-3c3.3-6.2,6.2-11.9,8.9-17.5c0,0-0.1-0.1,0.2-0.2
	c5.4-8.3,9.7-17,15.5-24.7c10.9-14.5,21.9-29,34.2-42.4c10.2-11.1,22.1-21,33.5-31.1c5.7-5.1,12.1-9.4,18.3-14.1c0,0,0.5-0.1,1-0.1
	c0.9-0.3,1.1-0.6,1.5-0.9c0.3-0.1,0.6-0.3,1.1-0.9c3.7-2.4,6.9-4.4,10.2-6.5c4.1-2.6,8.2-5.2,12.5-7.8l0,0c9.9-4.7,19.8-9.5,29.7-14
	c27.4-12.2,56.1-21.1,86.2-25.6c10.4-1.6,21-1.8,32.3-2.7c0.8-0.1,1.3-0.2,1.3-0.2c9.6,0,19.2,0.1,29.6,0.1c0.8,0,1.3,0,1.3,0
	c26.9,1.6,53.4,5.8,79.2,13.2c4.2,1.2,10.6,1.8,10.2,6.9c-0.5,4.4-3.7,9.5-7.2,12.5c-4.3,3.7-10.3,4.9-16.9,3.5
	c-17.6-3.6-35.3-6.5-53.1-8.9c-12.3-1.6-24.9-2.5-37.3-2.2c-27.3,0.9-53.9,5.1-80.1,13.2c-33.3,10.4-63.8,25.6-91.7,45.3
	c-28.1,19.8-51.3,44-70.4,71.9c-11.9,17.2-21.4,35.5-29.6,54.5c-0.9,2.2-1.9,4.3-3.1,6.4c-4.7,9-6.9,9.6-16.8,6.5
	c-4.5-1.4-9-2.2-14.5-3.4c-3.3-0.2-5.7-0.3-8.7-0.6c-47.3-0.2-94.2-0.3-141.4-0.4c-0.5-0.2-0.7-0.2-1-0.5c-1.6-1.1-3-1.9-4.3-2.7
	c0,0,0,0.1,0-0.3C589.3,406.9,588.1,404,587,401.1z"/>
<path class="st2" d="M594.9,413.8c0.2,0.1,0.3,0.1,1.1,0.6c1.9,0.5,3.2,0.9,4.6,0.9c44.2,0,88.3,0,132.6,0c1.5,0,3-0.4,4.5-0.6
	c2.4,0.2,4.8,0.3,7.7,0.5c-4.9,0.8-10.3,1.9-15.7,2.1c-7.2,0.1-14.5-0.8-21.7-0.9c-4.9-0.1-9.7,0.8-14.6,0.6c-7,0-13.9-0.5-21.8-0.8
	c-9.5,0-17.8,0-26.3,0c-0.5,0-1,0-1.9,0c-5.4,0-10.4,0-16.2,0c-1.4,0-1.9,0-2.4,0c-9.7-0.2-19.3-0.3-29.4-1.2
	C594.9,414.2,594.9,414,594.9,413.8z"/>
<path class="st3" d="M748.1,491.1c-1.5,0.2-2.9,0.8-4.3,0.8c-34.5,0-69,0-103.5,0c-0.8,0-1.5-0.2-2.6-0.5
	c26.7-0.3,53.8-0.4,81.8-0.5c1.7,0,2.5-0.1,3.4-0.1c1.3,0,2.5,0.1,4.7,0.1c1.7,0,2.5-0.1,3.3-0.1c5,0,10.1,0.1,15.9,0.1
	C747.6,491,747.9,491.1,748.1,491.1z"/>
<path class="st3" d="M624,491.1c-9.8,0.2-20.2,0.4-31.1,0.3c4.6-0.3,9.6-0.4,15.4-0.5c1.4,0,1.8-0.1,2.4-0.1
	C615.1,490.9,619.3,490.9,624,491.1z"/>
<path class="st4" d="M861.7,571.9c7.2-0.2,14.9-0.4,23-0.2C877.5,571.9,869.8,571.9,861.7,571.9z"/>
<path class="st4" d="M922.8,571.9c6.6-0.2,13.1-0.4,20.1-0.3c-5.7,0.3-11.9,0.4-18.7,0.4C923.4,572,922.8,571.9,922.8,571.9z"/>
<path class="st2" d="M987.9,572c0.1,0.1,0.2,0.3,0.5,0.6c-5.1,0.1-10.3,0-15.5-0.3c0.5-0.3,1-0.4,1.5-0.4c1.6,0,3.2,0.1,5.8,0.1
	C983.3,572,985.6,572,987.9,572z"/>
<path class="st3" d="M573.7,491.1c-3.1,0.2-6.6,0.4-10.5,0.3C566.3,491.1,569.8,491,573.7,491.1z"/>
<path class="st2" d="M531.9,490.4c-2.6,0.4-5.4,0.4-8.6,0.4C525.8,490.5,528.9,490.3,531.9,490.4z"/>
<path class="st2" d="M748.4,491.1c-0.6,0-0.8-0.1-1.3-0.2c2.3,0,4.8,0.1,7.4,0.5C752.8,491.5,750.8,491.3,748.4,491.1z"/>
<path class="st3" d="M589.7,491.1c-2.6,0.2-5.8,0.4-9.4,0.3C583.1,491.1,586.2,491,589.7,491.1z"/>
<path class="st2" d="M922.4,572c0.5-0.1,1,0,1.3,0.1c-2.2,0.2-4.6,0.4-7.2,0.3C918,572.1,920,572.1,922.4,572z"/>
<path class="st3" d="M549.8,491.1c-1.9,0.2-4.3,0.3-7.1,0.3C544.7,491.1,547,491.1,549.8,491.1z"/>
<path class="st2" d="M610.9,490.4c-0.5,0.4-1,0.4-1.8,0.4c0-0.9,0.3-1.7,0.6-2.6C610.1,488.8,610.4,489.5,610.9,490.4z"/>
<path class="st2" d="M513.5,490.7c-1,0.5-2.3,0.9-3.9,1.1C510.5,491.3,511.9,490.9,513.5,490.7z"/>
<path class="st2" d="M556.9,490.5c-1.3,0.3-2.9,0.3-4.9,0.3C553.1,490.7,554.9,490.4,556.9,490.5z"/>
<path class="st2" d="M540.8,490.5c-1.3,0.3-2.9,0.3-4.9,0.3C537.1,490.7,538.9,490.4,540.8,490.5z"/>
<path class="st2" d="M722.5,490.5c-0.6,0.2-1.4,0.3-2.6,0.2C720.4,490.5,721.4,490.4,722.5,490.5z"/>
<path class="st4" d="M908.4,571.9c0.6-0.2,1.5-0.3,2.6-0.3C910.5,571.9,909.7,571.9,908.4,571.9z"/>
<path class="st4" d="M962.2,571.9c0.6-0.2,1.5-0.3,2.6-0.3C964.2,571.9,963.4,571.9,962.2,571.9z"/>
<path class="st4" d="M974,571.7c-0.2,0.3-0.8,0.3-1.6,0.4c-0.3,0-0.9-0.1-1.1-0.2C971.9,571.7,972.8,571.6,974,571.7z"/>
<path class="st2" d="M730.5,490.5c-0.6,0.2-1.4,0.3-2.6,0.2C728.4,490.5,729.4,490.4,730.5,490.5z"/>
<path class="st2" d="M857.8,572.2c0.7-0.2,1.6-0.2,2.9-0.1C860.1,572.2,859.1,572.3,857.8,572.2z"/>
<path class="st2" d="M954,572.4c0.6-0.2,1.4-0.3,2.6-0.2C956.1,572.3,955.2,572.4,954,572.4z"/>
<path class="st2" d="M561.5,490.5c-0.3,0.2-0.8,0.3-1.7,0.3C560.1,490.7,560.7,490.5,561.5,490.5z"/>
<path class="st4" d="M900.3,571.9c-0.1-0.4,0.2-0.5,0.7-0.2C901,571.9,900.6,571.9,900.3,571.9z"/>
<path class="st4" d="M892.3,571.9c-0.1-0.4,0.2-0.5,0.7-0.2C893,571.9,892.6,571.9,892.3,571.9z"/>
<path class="st5" d="M1046,195.2c0.1,0.1-0.3,0.2-0.6,0.2C1045.3,195.1,1045.6,195,1046,195.2z"/>
<path class="st5" d="M1077,195.3c0.1,0.1-0.5,0.1-0.7,0C1076.3,195,1076.7,195,1077,195.3z"/>
<path class="st2" d="M577.1,619.6c-0.2-0.4,0-1,0.5-1.6c0.1-0.2,0.2-0.4,0.7-0.4c3.1,0,5.8,0.1,8.5,0.1c20.6,0,41.3,0.1,61.9,0.2
	c0.1,0.1,0.6,0.2,0.6,0.2s0.3-0.3,0.9-0.3c2.5,0,4.5,0,6.5,0.1c0.1,0.1,0.6,0.2,0.6,0.2s0.3-0.3,0.9-0.3c2.5,0,4.5,0,6.7,0.3
	c1.6,0.1,2.9-0.1,4.7-0.2c15.4,0,30.3,0,45.1,0c0.2,0.6,0.3,1.2,0.6,1.8c-1.4,0-2.6,0-4,0C666.9,619.6,622.3,619.6,577.1,619.6z"/>
<path class="st4" d="M648.6,617.7c-20.6,0-41.3-0.1-61.8-0.1c-2.6,0-5.3-0.1-8.5-0.2c1-0.4,2.7-1.1,4.3-1.1c45.4,0,90.7,0,136.1,0
	c1.1,0,2.3,0.2,3.8,0.6c-0.3,0.4-0.9,0.6-1.8,1.2c-1.8,0-3.4-0.3-5.4-0.5c-15.3,0.1-30.2,0-46.1,0c-2.2,0-3.3,0.1-4.6,0.1
	c-1.9,0-4-0.1-6.7-0.1c-0.9,0-1.1,0.1-1.4,0.1c-1.9,0-4-0.1-6.6-0.1C649.1,617.6,648.6,617.7,648.6,617.7z"/>
<path class="st5" d="M1255,699.9c2.5-3.2,5.4-6.4,8.6-9.8C1264.1,695.8,1261.4,699.2,1255,699.9z"/>
<path class="st5" d="M1014.5,820.1c4.2,0.1,8.6,0.5,13.3,1.3"/>
<path class="st5" d="M1042,823.3c3.7-0.2,7.7-0.2,11.9,0.2C1050.4,823.8,1046.4,823.7,1042,823.3z"/>
<path class="st5" d="M1032.7,822c1.9-0.2,4,0,6.4,0.4C1037.2,822.7,1035.1,822.6,1032.7,822z"/>
<path class="st2" d="M721.9,618.7c0.5-0.1,1,0.1,1.8,0.5C723.4,619.4,722.7,619.1,721.9,618.7z"/>
<path class="st5" d="M766.5,647.8c0.2,0,0.5,0.2,0.8,0.6C767,648.6,766.7,648.3,766.5,647.8z"/>
<path class="st5" d="M1305.2,627.8c-0.1-0.2,0.1-0.5,0.4-1C1305.7,627,1305.6,627.3,1305.2,627.8z"/>
<path class="st5" d="M1265.1,688.8c-0.1-0.2,0.1-0.5,0.5-0.9C1265.7,688.2,1265.6,688.4,1265.1,688.8z"/>
<path class="st5" d="M1264.1,689.8c-0.1-0.2,0.1-0.5,0.5-0.9C1264.7,689.2,1264.6,689.5,1264.1,689.8z"/>
<path class="st5" d="M586.6,401.2c1.5,2.8,2.6,5.7,3.8,9.1C584.8,408.7,583.5,406,586.6,401.2z"/>
<path class="st5" d="M594.6,413.4c0.2,0.5,0.2,0.8,0.2,1.3c-2.7,0.5-5,0.2-4.6-3.7C591.8,411.6,593.1,412.3,594.6,413.4z"/>
<path class="st5" d="M872.7,253.1c0,0.2-0.3,0.4-0.9,0.8C871.8,253.7,872.1,253.4,872.7,253.1z"/>
<path class="st5" d="M587.7,395.9c0.1,0.2-0.1,0.4-0.6,1C587,396.6,587.2,396.2,587.7,395.9z"/>
<path class="st4" d="M988.2,572c-2.6,0-4.9,0-7.7,0c2.5-0.3,5.4-0.5,8.3-0.8c0,0,0.1,0.3,0,0.4C988.9,571.8,988.7,571.8,988.2,572z"
	/>
<path class="st2" d="M628,517.9c-10.3,0-20.6,0-32,0c-3.3,0-5.7,0-8,0c-0.5,0-1,0-2.3,0c-1.3,0-1.8,0-2.3,0c-2.3,0-4.7,0-8,0
	c-3,0-4.9,0-6.9,0c-8.5,0-16.8,0-26.3,0c-2.6,0-4.2,0-5.7,0c-7.3,0.3-14.6,0.5-21.9,0.8c-0.7,0-1.3-1-1.5-1.8
	c21.6-0.4,42.6-0.5,63.7-0.5c34.5,0,69.1-0.1,103.8,0c0.1,0.1,0.6,0.2,0.6,0.2s0.3-0.3,0.9-0.3c4-0.1,7.4-0.2,11-0.3
	c8.9,0.2,17.7,0.3,27.3,0.8c0.7,0.2,1,0.3,1,0.3h0.3c0.5,0,0.9,0,1.8,0c-0.9,0.4-2.2,0.8-4.3,1.1c-7.8,0-14.7,0-21.6,0
	c-0.9,0-1.7,0-3.5,0c-10.5,0-20,0-29.6,0c-4.2,0-8.5,0-13.6,0c-1.8,0-2.6,0-3.5,0c-2.7,0-5.4,0-9.1,0
	C634.2,517.9,631.1,517.9,628,517.9z"/>
<path class="st4" d="M680.6,516.2c-34.5,0-69.1,0.1-103.7,0.1c-21,0-42.2,0.1-63.8,0.1c-0.7-0.2-1-0.4-1.5-0.6
	c1.4-0.4,3.1-1.1,4.7-1.1c57.6,0,115.2,0,172.8,0c1.1,0,2.3,0.3,3.7,0.8c-3.1,0.4-6.6,0.4-10.9,0.5
	C681.1,516,680.6,516.2,680.6,516.2z"/>
<path class="st3" d="M578.1,593c26.4-0.3,53.1-0.4,79.9-0.4c22.4,0,44.8,0,67.8,0c-0.9,0.3-2.3,1-3.8,1c-47.1,0-94.2,0-141.2,0
	C580,593.6,579.2,593.4,578.1,593z"/>
<path class="st5" d="M721.7,516.6c0.1,0.1-0.2,0.1-0.2,0.1s-0.3-0.1-0.5-0.1C721,516.3,721.2,516.3,721.7,516.6z"/>
<path class="st5" d="M737,414.4c-0.9,0.3-2.4,0.8-3.9,0.8c-44.2,0-88.3,0-132.6,0c-1.3,0-2.6-0.3-4.2-0.8
	C642.9,414.2,689.7,414.3,737,414.4z"/>
<path class="st5" d="M664.7,518.3c9.4-0.4,19-0.4,29-0.4c-1.4,0.8-3.2,1.9-5,2.1c-6.9,0.2-13.6,0.1-20.5,0
	C667.1,520,665.9,519.2,664.7,518.3z"/>
<path class="st5" d="M697.8,518.3c6.7-0.4,13.6-0.4,21-0.4c0.3,0.5,0.1,1.4-0.1,1.4C711.8,519.2,704.9,519,697.8,518.3z"/>
<path class="st5" d="M628.1,518.3c3-0.4,6.1-0.4,9.6-0.4C635.2,521.7,631.8,520.4,628.1,518.3z"/>
<path class="st5" d="M588.1,518.3c2.2-0.4,4.6-0.4,7.4-0.4C593.7,521.4,591.1,520.6,588.1,518.3z"/>
<path class="st5" d="M568.7,518.3c1.8-0.4,3.8-0.4,6.3-0.4C573.6,521.5,571.3,520.5,568.7,518.3z"/>
<path class="st5" d="M536.7,518.3c1.5-0.4,3.1-0.4,5.1-0.4C540.9,521,539,520.8,536.7,518.3z"/>
<path class="st5" d="M647.5,518.2c0.8-0.3,1.6-0.3,3-0.3C649.7,518.1,648.7,518.4,647.5,518.2z"/>
<path class="st5" d="M583.4,518.2c0.5-0.3,0.9-0.3,1.8-0.3c0,0.5-0.3,1.1-0.7,1.6C584.2,519.2,583.9,518.9,583.4,518.2z"/>
<path class="st5" d="M664.9,618c0.9-0.2,2.1-0.3,3.8-0.3C667.8,617.8,666.5,618.1,664.9,618z"/>
<path class="st5" d="M656.7,617.8c0.1-0.2,0.2-0.2,0.7-0.2c0.2,0.1-0.1,0.3-0.1,0.3S656.8,618,656.7,617.8z"/>
<path class="st5" d="M648.7,618c-0.1-0.1,0.5-0.2,0.7-0.2s-0.1,0.3-0.1,0.3S648.8,618.1,648.7,618z"/>
<path class="st5" d="M680.7,516.3c-0.1-0.1,0.5-0.2,0.7-0.2c0.2,0.1-0.1,0.3-0.1,0.3S680.8,516.4,680.7,516.3z"/>
</svg>
