<?xml version="1.0" encoding="utf-8"?>
<!-- Generator: Adobe Illustrator 28.0.0, SVG Export Plug-In . SVG Version: 6.00 Build 0)  -->
<svg version="1.1" id="Layer_1" xmlns="http://www.w3.org/2000/svg" xmlns:xlink="http://www.w3.org/1999/xlink" x="0px" y="0px"
	 viewBox="0 0 1920 1024" style="enable-background:new 0 0 1920 1024;" xml:space="preserve">
<style type="text/css">
	.st0{fill:#F7E8AF;}
	.st1{fill:#EFD373;}
	.st2{fill:none;}
	.st3{fill:#FFFFFF;}
	.st4{fill:#C19A5A;}
</style>
<path class="st0" d="M1263.3,231.3c5.8,3.4,12,6.8,15.8,12.4c0.5,0.7,1.1,1.6,1.9,1.6c0.3,0,0.7-0.1,1-0.2
	c6.6-2.8,9.4-10.3,12.9-16.5c3.9-6.8,9.4-12.6,13.1-19.5c6.1-11.5,6.7-25.1,6.7-38.2c0-4.9-0.2-10.2-2.9-14.3
	c-1.2-1.8-2.8-3.2-4.4-4.6c-4.8-4.2-9.5-8.5-14.8-12.1c-4.6-3.2-9.4-5.8-14.3-8.5c-5-2.7-9.9-5.5-15-8c-5.4-2.7-11-5.3-16.8-7
	c-20.1-6-42.9-1.7-59.4,11.2c-6.4,5-12.1,11.5-13.8,19.4c-1.7,7.9,1.4,17.3,8.8,20.8c2.3,1.1,4.9,1.6,7.3,2.7
	c2.3,1.1,4.3,2.7,6.3,4.3C1218.2,193.3,1238,216.3,1263.3,231.3z"/>
<path class="st0" d="M918.5,665.4l126.7-126.7c-2-1.9-4-3.8-6.1-5.8c-0.9-0.1-2.2-0.1-1.7-1c3.4-6.7,7.3-13.1,11.2-19.5l9.6-9.6
	c-4.5-4.2-8.1-11.7-14.3-11.7l-86-86L896.7,464c-0.5,0.3-3.7,3.5-4.3,3.5L857.9,502c-0.7,7.2-3.5,13.7-5.7,20.7l-39.9,39.9
	c-0.4,8.6,0.4,15.2,5.1,22.4c3.1,4.7,6.9,8.8,10.8,12.8c4.6,4.9,9.1,9.9,13.7,14.8l63.9,63.9C912.7,676.5,915.9,671.7,918.5,665.4z"
	/>
<path class="st1" d="M1070.4,504.6c2.5-2.7,7.3-7.9,7.3-7.9l86.9-86.9c-1.2-1.9-0.4-7,1.4-8.5l40.1-40.1c-3.2-6.6-5.5-12.7-4-19.8
	l74.1-74.1c-0.1-4-3-7.6-5.4-10.8c-4.5-6-9-12-13.6-18c-1.5-1.9-2.9-3.9-4.8-5.5c-1.4-1.2-3-2-4.6-2.9c-6.3-3.5-11.5-10.9-18.7-10.9
	l-69.9-69.9c-1.1-0.8,0.4-2.6-0.2-1.4c-7.1,14.2-17.6,26.6-30,36.6l-83.2,83.2l1.2,1.2l-36,34.4c-4.9,6.8-12,15-16.1,22.4
	c-6,6-12,12-18,18c-3.1,3.1-8.4,6.7-10.5,10.5c-3.4,6.2-0.4,13.9-3.1,21.2c0,0,0,23.3,0,24.7c0,2.7,10.7,10.8,12.5,12.7
	c10,10,19.9,20,29.9,30.1c19.4,19.5,38,40.5,58.5,58.8c1.6,1.4,3.2,3.2,4.6,4.7c4.2,0.7,8.3-1.8,10.3-5.7c0.6-1.1,1-2.4,0.5-3.6
	c-0.5-1.2-2.2-1.8-3-0.8"/>
<path class="st1" d="M754.3,794.8c-15.9-3.1-32.2-4.3-48.4-3.6c-0.3-7.6,1.5-15.1,3.4-22.5c8.1-31.9,18-63.4,27.9-94.9
	c1.8-5.8,3.8-11.8,8.1-16.2c3.1-3.1,7.2-5.1,10.4-8.1c2.4-2.3,4.4-5,6.6-7.5c6.6-7.4,15.8-12.2,25.2-15.4c2.2-0.8,4.5-1.4,6.6-2.6
	c2.3-1.3,4.1-3.3,6-5.1c6.9-6.6,16.4-12.5,25.5-9.7c2.9,0.9,5.4,2.6,7.9,4.3c5.2,3.6,10.2,7.4,13.8,12.6c2,3,4.9,6.8,8.2,5.5
	c3.3,6.2,9,10.9,15,14.5c4,2.4,8.3,4.6,10.7,8.6c2.4,4,2.4,9,2.1,13.7c-1.2,22.9-5.3,47.2-20.6,64.3c-5,5.6-11,10.2-16.9,14.8
	c-13.9,10.6-28,21.4-44.6,27c-9.5,3.2-19.6,4.6-28.8,8.6c-10.8,4.7-20.8,13-32.5,12.4c-1.5,1.3-0.3,3.9,1.5,4.7s4,0.4,5.7-0.5
	C749.5,798.6,753,797.1,754.3,794.8z"/>
<path class="st2" d="M1248.5,739.1c-8,1.4-13.1,9.1-19.7,13.9c-14.1,10-34.4,5.6-49.6,13.9"/>
<path class="st2" d="M1215.9,706.2c14.3-5.4,29.1-9.3,44.1-11.7c2.9-0.5,6.4-0.8,8.5,1.4c1.3,1.3,1.8,3.3,2.1,5.2
	c2.6,12.7,5,26.4-0.4,38.2c-2.4,5.3-6.3,9.8-10.2,14.1c-11.8,12.9-24.6,24.9-38.3,35.8c-0.2-12.7-0.4-25.5-0.6-38.2
	c-0.1-5.1-0.1-10.4,1.7-15.2c1.5-3.8,4.1-7.1,6.6-10.3c6-7.5,12-15,18-22.6"/>
<g>
	<g>
		<path class="st3" d="M1190.6,98.4c28.2-14.1,55.3-11.4,80.9,5.1c15.7,10.1,30.5,21.7,41.6,37c10.3,14.2,16.7,30,17,47.7
			c0.4,18.9-4.9,35.9-17.1,50.9c-42.4,52.4-84.1,105.5-126.8,157.7c-30.7,37.5-60.9,75.5-92,112.7c-1.9,2.3-3.8,4.6-5.9,6.8
			c-5.3,5.5-11,6.7-17.6,3.2c-3.6-1.9-5.4-1.1-7.8,1.8c-24.8,29.6-49.7,59.2-74.6,88.7c-18.8,22.3-37.7,44.5-56.6,66.7
			c-2.4,2.8-5,5.4-7.6,7.9c-5.2,5.1-11.4,5.9-17.8,2.3c-1.7-0.9-3.3-2.1-5.5-3.5c-0.1,0-0.2,0-0.2,0.1c-4.1,8.8-8.1,17.3-11.9,25.8
			c-6.4,14.4-12.8,28.9-19.9,43c-3.1,6.2-8.2,11.1-14.4,14c-50.1,23.5-100.1,47.1-149.6,71.7c-4.8,2.4-9.6,5.1-14.4,7.5
			c-5.5,2.8-12.4,1.9-16.7-2.5c-3.6-3.6-4.4-8.4-3-13.6c7.1-26.7,13.9-53.4,21.6-79.9c9.7-33.5,20.1-66.9,28.8-100.7
			c1.6-6.3,5.8-9.8,10.7-13.1c20-12.9,39.9-26,60-38.8c3-1.9,4.1-3.6,2.1-7.1c-3.9-7.1-2.4-14,2.5-20c12.2-15,24.6-29.8,36.9-44.7
			c31.9-38.7,63.8-77.4,95.8-116c2.3-2.7,3.1-5.1,1.7-8.5c-2.3-5.5-0.5-10.4,2.8-15c9.6-13,20.1-25.3,31-37.3
			c18.4-20.4,36.2-41.4,54.2-62.2c32-37.1,64.6-73.7,96.9-110.5c6.3-7.2,12.6-14.5,18.8-21.6c0-0.1,0-0.1,0-0.2
			c-8.6-12-18.7-12.8-28.3-2.2c-18,19.9-35.8,39.9-53.6,60c-29.8,33.7-59.4,67.5-89.2,101.3c-4,4.5-8.6,7.5-14.9,5.8
			c-8.9-2.4-12.6-10.6-9-19.2c1.9-4.6,5.3-8.1,8.5-11.7c37.1-42.1,74.3-84.2,111.5-126.2c8.5-9.6,16.9-19.3,25.4-28.9
			c3.6-4.2,7.8-7.8,12.4-10.8c15-9.5,31.3-8.6,46.7,2.2c3.5,2.4,6.4,7.8,10.4,6.7c3.3-0.9,5.3-6,8.1-9.1
			C1170.3,112.5,1179.5,104.5,1190.6,98.4 M1209,215.5c-15.7-13.1-31.5-26.2-47.1-39.5c-3.5-3-5.8-2.7-9.1,0.7
			c-19.1,19.8-37.2,40.5-55.4,61c-24.6,27.6-48.9,55.5-72.8,83.7c-18.6,22-38.4,43-56.2,65.6c-2.4,3-2.9,4.8,0.4,7.7
			c33.5,29.7,66.9,59.6,100.4,89.4c6,5.3,5.7,4.9,11.4-1.9c39.5-46.7,78.4-94,116.4-141.9c20.1-25.4,40.5-50.6,60.3-76.3
			c2.9-3.7,2.6-5.7-1-8.9C1240.5,242.3,1224.3,230,1209,215.5 M1024.6,482.9c-23.9-19.4-45.9-41.2-70.2-60.5c-0.1-0.1-0.2,0-0.2,0
			c-14,17.1-27.2,33.7-40.8,50c-27.9,33.5-55.9,67-84,100.3c-2.9,3.4-2.7,5.2,0.6,8c27.1,22.7,53.4,46.2,79.1,70.4
			c3,2.8,4.8,3.3,7.9-0.3c20.2-24.1,40.8-47.9,61.1-72c21.1-24.9,42.3-49.7,62.7-75.2c2.7-3.4,2.1-5.1-0.9-7.6
			C1034.8,492.1,1030,487.6,1024.6,482.9 M780.6,772c20.5-8.8,39.7-20.5,60.1-29.4c3.3-1.4,5.1-4.2,6.4-7.3c3.2-7.3,6.4-14.7,9.6-22
			c6.6-15.3,13.1-30.6,19.8-45.9c1.8-4.1,0.8-7.1-2.6-10.1c-14.6-12.7-28.9-25.7-43.4-38.5c-8.8-7.7-8.9-7.7-18.5-1.5
			c-19.9,12.9-39.6,25.8-59.5,38.7c-3.4,2.2-6.2,4.8-7.4,9c-8.8,30.4-17.9,60.6-26.4,91.1c-2,7.1-6.6,13.8-4.4,22
			c0,0.1,0.2,0.1,0.3,0.1c0.6-0.6,1.1-1.1,1.5-1.7c14.9-17.5,29.8-35,44.9-52.4c4.5-5.2,7.6-10,6.9-17.6c-1-10.1,5.3-17.1,15.7-20.2
			c9.3-2.7,19.1,0.7,24.2,8.5c9.6,14.8,1.1,33-16.6,35.2c-2.6,0.3-4.6,1-6.4,3.2c-15,18-30.2,36-45.3,54c-0.9,1.1-2.2,2-1.4,4.7
			c0,0.1,0.1,0.1,0.2,0.1C752.7,786.4,766,778.5,780.6,772 M1243.3,208.2c11.8,9.7,22.4,21,35,30.5c0.1,0.1,0.2,0,0.2,0
			c4.1-5.5,7.6-10.7,11.7-15.5c16.1-18.8,15-45.6,1.5-64.4c-11.1-15.3-25.4-27.3-41.9-36.4c-12.8-7.1-26.7-7.4-40.5-2
			c-11.4,4.4-20,12.2-27.3,21.8c-6.9,9.2-7.5,7.2,1.5,15C1203,174.3,1222.9,191,1243.3,208.2z"/>
	</g>
	<path class="st4" d="M1190.6,98.4c28.2-14.1,55.3-11.4,80.9,5.1c15.7,10.1,30.5,21.7,41.6,37c10.3,14.2,16.7,30,17,47.7
		c0.4,18.9-4.9,35.9-17.1,50.9c-42.4,52.4-84.1,105.5-126.8,157.7c-30.7,37.5-60.9,75.5-92,112.7c-1.9,2.3-3.8,4.6-5.9,6.8
		c-5.3,5.5-11,6.7-17.6,3.2c-3.6-1.9-5.4-1.1-7.8,1.8c-24.8,29.6-49.7,59.2-74.6,88.7c-18.8,22.3-37.7,44.5-56.6,66.7
		c-2.4,2.8-5,5.4-7.6,7.9c-5.2,5.1-11.4,5.9-17.8,2.3c-1.7-0.9-3.3-2.1-5.5-3.5c-0.1,0-0.2,0-0.2,0.1c-4.1,8.8-8.1,17.3-11.9,25.8
		c-6.4,14.4-12.8,28.9-19.9,43c-3.1,6.2-8.2,11.1-14.4,14c-50.1,23.5-100.1,47.1-149.6,71.7c-4.8,2.4-9.6,5.1-14.4,7.5
		c-5.5,2.8-12.4,1.9-16.7-2.5c-3.6-3.6-4.4-8.4-3-13.6c7.1-26.7,13.9-53.4,21.6-79.9c9.7-33.5,20.1-66.9,28.8-100.7
		c1.6-6.3,5.8-9.8,10.7-13.1c20-12.9,39.9-26,60-38.8c3-1.9,4.1-3.6,2.1-7.1c-3.9-7.1-2.4-14,2.5-20c12.2-15,24.6-29.8,36.9-44.7
		c31.9-38.7,63.8-77.4,95.8-116c2.3-2.7,3.1-5.1,1.7-8.5c-2.3-5.5-0.5-10.4,2.8-15c9.6-13,20.1-25.3,31-37.3
		c18.4-20.4,36.2-41.4,54.2-62.2c32-37.1,64.6-73.7,96.9-110.5c6.3-7.2,12.6-14.5,18.8-21.6c0-0.1,0-0.1,0-0.2
		c-8.6-12-18.7-12.8-28.3-2.2c-18,19.9-35.8,39.9-53.6,60c-29.8,33.7-59.4,67.5-89.2,101.3c-4,4.5-8.6,7.5-14.9,5.8
		c-8.9-2.4-12.6-10.6-9-19.2c1.9-4.6,5.3-8.1,8.5-11.7c37.1-42.1,74.3-84.2,111.5-126.2c8.5-9.6,16.9-19.3,25.4-28.9
		c3.6-4.2,7.8-7.8,12.4-10.8c15-9.5,31.3-8.6,46.7,2.2c3.5,2.4,6.4,7.8,10.4,6.7c3.3-0.9,5.3-6,8.1-9.1
		C1170.3,112.5,1179.5,104.5,1190.6,98.4 M1209,215.5c-15.7-13.1-31.5-26.2-47.1-39.5c-3.5-3-5.8-2.7-9.1,0.7
		c-19.1,19.8-37.2,40.5-55.4,61c-24.6,27.6-48.9,55.5-72.8,83.7c-18.6,22-38.4,43-56.2,65.6c-2.4,3-2.9,4.8,0.4,7.7
		c33.5,29.7,66.9,59.6,100.4,89.4c6,5.3,5.7,4.9,11.4-1.9c39.5-46.7,78.4-94,116.4-141.9c20.1-25.4,40.5-50.6,60.3-76.3
		c2.9-3.7,2.6-5.7-1-8.9C1240.5,242.3,1224.3,230,1209,215.5 M1024.6,482.9c-23.9-19.4-45.9-41.2-70.2-60.5c-0.1-0.1-0.2,0-0.2,0
		c-14,17.1-27.2,33.7-40.8,50c-27.9,33.5-55.9,67-84,100.3c-2.9,3.4-2.7,5.2,0.6,8c27.1,22.7,53.4,46.2,79.1,70.4
		c3,2.8,4.8,3.3,7.9-0.3c20.2-24.1,40.8-47.9,61.1-72c21.1-24.9,42.3-49.7,62.7-75.2c2.7-3.4,2.1-5.1-0.9-7.6
		C1034.8,492.1,1030,487.6,1024.6,482.9 M780.6,772c20.5-8.8,39.7-20.5,60.1-29.4c3.3-1.4,5.1-4.2,6.4-7.3c3.2-7.3,6.4-14.7,9.6-22
		c6.6-15.3,13.1-30.6,19.8-45.9c1.8-4.1,0.8-7.1-2.6-10.1c-14.6-12.7-28.9-25.7-43.4-38.5c-8.8-7.7-8.9-7.7-18.5-1.5
		c-19.9,12.9-39.6,25.8-59.5,38.7c-3.4,2.2-6.2,4.8-7.4,9c-8.8,30.4-17.9,60.6-26.4,91.1c-2,7.1-6.6,13.8-4.4,22
		c0,0.1,0.2,0.1,0.3,0.1c0.6-0.6,1.1-1.1,1.5-1.7c14.9-17.5,29.8-35,44.9-52.4c4.5-5.2,7.6-10,6.9-17.6c-1-10.1,5.3-17.1,15.7-20.2
		c9.3-2.7,19.1,0.7,24.2,8.5c9.6,14.8,1.1,33-16.6,35.2c-2.6,0.3-4.6,1-6.4,3.2c-15,18-30.2,36-45.3,54c-0.9,1.1-2.2,2-1.4,4.7
		c0,0.1,0.1,0.1,0.2,0.1C752.7,786.4,766,778.5,780.6,772 M1243.3,208.2c11.8,9.7,22.4,21,35,30.5c0.1,0.1,0.2,0,0.2,0
		c4.1-5.5,7.6-10.7,11.7-15.5c16.1-18.8,15-45.6,1.5-64.4c-11.1-15.3-25.4-27.3-41.9-36.4c-12.8-7.1-26.7-7.4-40.5-2
		c-11.4,4.4-20,12.2-27.3,21.8c-6.9,9.2-7.5,7.2,1.5,15C1203,174.3,1222.9,191,1243.3,208.2z"/>
</g>
<path class="st4" d="M924.2,823.8C924.2,823.8,924.2,823.8,924.2,823.8c6.5-0.8,12.6-1.8,18.8-2.1c32-1.2,61,7.9,87.9,24.9
	c10.4,6.6,21.4,12.2,32.9,16.7c18.2,7.2,36.8,8.2,55.8,3.7c2.8-0.6,5.5-1.3,8.3-1.8c7.1-1.5,13.2,1.8,15.5,8.4
	c2.5,6.9,0,13.8-6.3,17.1c-7.8,4.1-16.3,5.5-24.9,6.5c-33.8,4-63.6-6.9-91.9-23.9c-13.3-8-26.3-16.4-41.7-20.1
	c-23.8-5.6-47.1-3.5-70.4,3.3c-24.6,7.1-46.7,19.3-68.7,31.8C816,902,791,912.1,764.1,916.8c-38.7,6.7-76.6,4.3-112.4-13.6
	c-6.6-3.3-13.4-6.4-14.4-15.1c-0.6-5,0.6-9.4,4.6-12.5c4.4-3.4,9.5-4.1,14.6-1.7c4.4,2,8.5,4.5,12.9,6.6
	c14.9,7.4,30.9,10.3,47.3,11.1c29.5,1.4,58-3.7,85.1-15.9c10.6-4.8,21.2-9.8,31.1-15.9C861,842.4,891,829.6,924.2,823.8z"/>
</svg>
